<svg id="bb9d215e-d4ad-4279-9b1f-955d51ffa950" data-name="1" xmlns="http://www.w3.org/2000/svg" viewBox="0 0 69.99 47.01"><defs><style>.aa5d8321-bcb8-4e17-bb29-60819bb470fc{fill:#fcfcfc;}</style></defs><path id="adbe750f-1ad2-4cf4-a403-6bafc094481e" data-name="1" class="aa5d8321-bcb8-4e17-bb29-60819bb470fc" d="M65.68.39a6.32,6.32,0,0,0-2-.28H6.51A6.36,6.36,0,0,0,.15,6.47V40.74A6.36,6.36,0,0,0,6.51,47.1H63.78a6.36,6.36,0,0,0,6.36-6.36V6.48A6.39,6.39,0,0,0,65.68.39ZM41.19,36.07H35.87v-17a14.06,14.06,0,0,1,.21-2.63l-5.64,1.47-.63-3.57,6.06-2.41h5.32Z" transform="translate(-0.15 -0.1)"/></svg>