<svg id="fdbf5790-0248-43b1-98be-52feb3e4daa2" data-name="Calque 10" xmlns="http://www.w3.org/2000/svg" viewBox="0 0 40 27"><defs><style>.b5460ee7-8d6a-40e5-a19f-ae9ce7ad5541{fill:#fff;}</style></defs><path class="b5460ee7-8d6a-40e5-a19f-ae9ce7ad5541" d="M39,0H1A1,1,0,0,0,0,1V26a1,1,0,0,0,1,1H39a1,1,0,0,0,1-1V1A1,1,0,0,0,39,0ZM16.52,20.4h-3V10.68a8,8,0,0,1,.12-1.5L10.38,10,10,8,13.48,6.6h3ZM28.8,19.06c-.79,1.07-2.17,1.6-4.14,1.6s-3.33-.53-4.12-1.6-1.18-2.92-1.18-5.56S19.75,9,20.54,7.94s2.16-1.6,4.12-1.6,3.35.53,4.14,1.6S30,10.86,30,13.5,29.59,18,28.8,19.06Z" transform="translate(0)"/><path class="b5460ee7-8d6a-40e5-a19f-ae9ce7ad5541" d="M24.64,8.76a1.81,1.81,0,0,0-1.81,1,10,10,0,0,0-.47,3.77,10,10,0,0,0,.47,3.77,1.81,1.81,0,0,0,1.81,1,1.87,1.87,0,0,0,1.86-1A9.76,9.76,0,0,0,27,13.5a9.76,9.76,0,0,0-.48-3.77A1.87,1.87,0,0,0,24.64,8.76Z" transform="translate(0)"/></svg>