<svg id="a017c60d-deab-41cd-845b-7f2308bd9859" data-name="10" xmlns="http://www.w3.org/2000/svg" viewBox="0 0 69.99 47.01"><defs><style>.beda616d-63ed-48e4-8f7f-4392149348ca{fill:#fcfcfc;}</style></defs><path class="beda616d-63ed-48e4-8f7f-4392149348ca" d="M43.62,15.7a3.19,3.19,0,0,0-3.17,1.7q-.83,1.7-.82,6.6t.82,6.6a3.19,3.19,0,0,0,3.17,1.7,3.27,3.27,0,0,0,3.25-1.7q.84-1.7.84-6.6t-.84-6.6A3.27,3.27,0,0,0,43.62,15.7Z" transform="translate(-0.15 -0.1)"/><path class="beda616d-63ed-48e4-8f7f-4392149348ca" d="M65.68.39a6.32,6.32,0,0,0-2-.28H6.51A6.36,6.36,0,0,0,.15,6.47V40.74A6.36,6.36,0,0,0,6.51,47.1H63.78a6.36,6.36,0,0,0,6.36-6.36V6.48A6.39,6.39,0,0,0,65.68.39ZM29.41,36.07H24.09v-17a14.06,14.06,0,0,1,.21-2.63l-5.63,1.47L18,14.34l6.05-2.41h5.32ZM50.9,33.73q-2.07,2.81-7.24,2.8t-7.21-2.8q-2.07-2.8-2.07-9.73t2.07-9.73q2.05-2.8,7.21-2.8t7.24,2.8C52.28,16.14,53,19.38,53,24S52.28,31.86,50.9,33.73Z" transform="translate(-0.15 -0.1)"/></svg>