<svg id="e4aaff45-adfc-4879-b854-86c788d6669d" data-name="Calque 10" xmlns="http://www.w3.org/2000/svg" viewBox="0 0 40 27"><defs><style>.a02f71b1-8993-4bae-9c25-2eecf6787509{fill:#fff;}</style></defs><g id="bbb0041c-37d6-4d00-a867-f0cbf3814043" data-name="10+"><path class="a02f71b1-8993-4bae-9c25-2eecf6787509" d="M39,0H1A1,1,0,0,0,0,1V26a1,1,0,0,0,1,1H39a1,1,0,0,0,1-1V1A1,1,0,0,0,39,0ZM11.06,20.4H8V10.68a8,8,0,0,1,.12-1.5L4.92,10,4.56,8,8,6.6h3Zm12.28-1.34c-.79,1.07-2.17,1.6-4.14,1.6s-3.33-.53-4.12-1.6S13.9,16.14,13.9,13.5,14.29,9,15.08,7.94s2.16-1.6,4.12-1.6,3.35.53,4.14,1.6,1.18,2.92,1.18,5.56S24.13,18,23.34,19.06Zm12.1-3.6H32V18.8H29.8V15.46H26.34V13.3h3.44V9.94H32V13.3h3.46Z" transform="translate(0)"/><path class="a02f71b1-8993-4bae-9c25-2eecf6787509" d="M19.18,8.76a1.8,1.8,0,0,0-1.81,1,10,10,0,0,0-.47,3.77,10,10,0,0,0,.47,3.77,1.8,1.8,0,0,0,1.81,1,1.87,1.87,0,0,0,1.86-1,9.76,9.76,0,0,0,.48-3.77A9.76,9.76,0,0,0,21,9.73,1.87,1.87,0,0,0,19.18,8.76Z" transform="translate(0)"/></g></svg>