<svg id="e8a92254-02d5-4fea-9683-44fe6c563641" data-name="10" xmlns="http://www.w3.org/2000/svg" viewBox="0 0 69.99 47.01"><defs><style>.e6913111-44a1-47e7-ada0-b97582fc5b39{fill:#fcfcfc;}</style></defs><g id="b1fff4c6-13e9-4126-a59e-5ff09d80d51f" data-name="10"><path class="e6913111-44a1-47e7-ada0-b97582fc5b39" d="M34.06,15.7a3.18,3.18,0,0,0-3.16,1.7q-.82,1.7-.83,6.6t.83,6.6a3.18,3.18,0,0,0,3.16,1.7,3.28,3.28,0,0,0,3.26-1.7q.84-1.7.84-6.6t-.84-6.6A3.28,3.28,0,0,0,34.06,15.7Z" transform="translate(-0.15 -0.1)"/><path class="e6913111-44a1-47e7-ada0-b97582fc5b39" d="M65.68.39a6.32,6.32,0,0,0-2-.28H6.51A6.36,6.36,0,0,0,.15,6.47V40.74A6.36,6.36,0,0,0,6.51,47.1H63.78a6.36,6.36,0,0,0,6.36-6.36V6.48A6.39,6.39,0,0,0,65.68.39ZM19.86,36.07H14.54v-17a14.06,14.06,0,0,1,.21-2.63L9.11,17.91l-.63-3.57,6.06-2.41h5.32Zm21.49-2.34q-2.07,2.81-7.25,2.8t-7.21-2.8q-2.07-2.8-2.07-9.73t2.07-9.73q2.07-2.8,7.21-2.8t7.25,2.8q2.05,2.81,2.06,9.73T41.35,33.73Zm21.17-6.3H56.47v5.85H52.65V27.43H46.59V23.65h6V17.77h3.85v5.88h6.05Z" transform="translate(-0.15 -0.1)"/></g></svg>