<svg id="bb9135ec-6788-472c-b2f3-59fa7d5acb73" data-name="10" xmlns="http://www.w3.org/2000/svg" viewBox="0 0 69.99 47.01"><defs><style>.b59f7e02-741b-4904-9ea6-cd01978c5d0c{fill:#fcfcfc;}</style></defs><g id="ace1a35e-61d4-46b0-98dd-f7069a15e409" data-name="10-12"><path class="b59f7e02-741b-4904-9ea6-cd01978c5d0c" d="M65.68.39a6.32,6.32,0,0,0-2-.28H6.51A6.36,6.36,0,0,0,.15,6.47V40.74A6.36,6.36,0,0,0,6.51,47.1H63.78a6.36,6.36,0,0,0,6.36-6.36V6.48A6.39,6.39,0,0,0,65.68.39ZM9.73,34H5.33V19.91a11.3,11.3,0,0,1,.17-2.17L.83,19,.31,16l5-2h4.4Zm17.81-1.95q-1.71,2.32-6,2.32c-2.84,0-4.84-.77-6-2.32S13.85,27.83,13.85,24s.57-6.51,1.71-8.06,3.14-2.32,6-2.32,4.86.77,6,2.32,1.71,4.23,1.71,8.06S28.68,30.52,27.54,32.06ZM41,28H32.35V25.22H41Zm10.55,6H47.14V19.91a11.22,11.22,0,0,1,.18-2.17L42.65,19,42.13,16l5-2h4.41Zm18.18,0H55.55V31.54a2.54,2.54,0,0,1,.64-1.8l4.9-5.28q3.6-3.74,3.57-5.71A1.09,1.09,0,0,0,64,17.66a6.3,6.3,0,0,0-2.09-.24c-2,0-4.06.08-6,.26l-.17-3.34a33.35,33.35,0,0,1,6.73-.69,10.2,10.2,0,0,1,5,1c1.11.66,1.66,1.88,1.66,3.66a7.24,7.24,0,0,1-.65,3.17,14.58,14.58,0,0,1-2.59,3.44l-5.14,5.34a16.55,16.55,0,0,1,3-.21h6Z" transform="translate(-0.15 -0.1)"/><path class="b59f7e02-741b-4904-9ea6-cd01978c5d0c" d="M21.51,17.13a2.65,2.65,0,0,0-2.63,1.4A14.55,14.55,0,0,0,18.2,24a14.55,14.55,0,0,0,.68,5.47,2.65,2.65,0,0,0,2.63,1.4,2.74,2.74,0,0,0,2.7-1.4q.69-1.41.69-5.47t-.69-5.47A2.74,2.74,0,0,0,21.51,17.13Z" transform="translate(-0.15 -0.1)"/></g></svg>