<svg id="a3b5cf14-128b-4ca0-b924-a5d96cd5d213" data-name="10" xmlns="http://www.w3.org/2000/svg" viewBox="0 0 69.99 47.01"><defs><style>.be7af91e-58e1-4a73-8e32-399eeafaef13{fill:#fcfcfc;}</style></defs><g id="b97545d5-bf84-4bc8-8fa7-6fad01c4e16b" data-name="10-11"><path class="be7af91e-58e1-4a73-8e32-399eeafaef13" d="M65.68.39a6.32,6.32,0,0,0-2-.28H6.51A6.36,6.36,0,0,0,.15,6.47V40.74A6.36,6.36,0,0,0,6.51,47.1H63.78a6.36,6.36,0,0,0,6.36-6.36V6.48A6.39,6.39,0,0,0,65.68.39ZM11.54,34.69H6.83V19.63A12.9,12.9,0,0,1,7,17.3L2,18.61l-.56-3.17L6.83,13.3h4.71Zm19-2.07q-1.83,2.48-6.42,2.48t-6.38-2.48Q15.94,30.13,15.94,24t1.83-8.62q1.83-2.47,6.38-2.48t6.42,2.48Q32.4,17.87,32.4,24T30.57,32.62ZM45,28.31H35.72v-3H45Zm11.28,6.38H51.53V19.63a12.9,12.9,0,0,1,.18-2.33l-5,1.31-.56-3.17,5.37-2.14h4.71Zm13.3,0H64.82V19.63A12.81,12.81,0,0,1,65,17.3l-5,1.31-.56-3.17,5.36-2.14h4.72Z" transform="translate(-0.15 -0.1)"/><path class="be7af91e-58e1-4a73-8e32-399eeafaef13" d="M24.12,16.65a2.8,2.8,0,0,0-2.8,1.51q-.74,1.5-.73,5.84t.73,5.84a2.8,2.8,0,0,0,2.8,1.51A2.91,2.91,0,0,0,27,29.84q.73-1.5.74-5.84T27,18.16A2.91,2.91,0,0,0,24.12,16.65Z" transform="translate(-0.15 -0.1)"/></g></svg>