<svg id="e495a7b7-f0b4-4f12-b046-d316d1fb256f" data-name="11" xmlns="http://www.w3.org/2000/svg" viewBox="0 0 69.99 47.01"><defs><style>.e74375d2-867e-4c49-994a-8a6fc9057642{fill:#fcfcfc;}</style></defs><path id="b8812bbd-4cd0-4379-9d54-b02e646f130d" data-name="11" class="e74375d2-867e-4c49-994a-8a6fc9057642" d="M65.68.39a6.32,6.32,0,0,0-2-.28H6.51A6.36,6.36,0,0,0,.15,6.47V40.74A6.36,6.36,0,0,0,6.51,47.1H63.78a6.36,6.36,0,0,0,6.36-6.36V6.48A6.39,6.39,0,0,0,65.68.39ZM33.84,35H29V19.49a13.56,13.56,0,0,1,.19-2.4L24,18.43l-.57-3.26L29,13h4.87Zm13.72,0H42.7V19.49a12.68,12.68,0,0,1,.19-2.4l-5.15,1.34-.58-3.26L42.7,13h4.86Z" transform="translate(-0.15 -0.1)"/></svg>