<svg id="e520dbda-c238-46b9-9354-2aa23a9e68c9" data-name="Calque 11" xmlns="http://www.w3.org/2000/svg" viewBox="0 0 40 27"><defs><style>.a5b29ce9-9352-411b-b09d-3c72a7dc7e2e{fill:#fff;}</style></defs><path id="e66aa600-ecf9-492b-8d24-e2f22ee5d12f" data-name="11" class="a5b29ce9-9352-411b-b09d-3c72a7dc7e2e" d="M39,0H1A1,1,0,0,0,0,1V26a1,1,0,0,0,1,1H39a1,1,0,0,0,1-1V1A1,1,0,0,0,39,0ZM19,20.4h-3V10.68A8,8,0,0,1,16,9.18L12.82,10l-.36-2L15.92,6.6h3Zm8.58,0h-3V10.68a8,8,0,0,1,.12-1.5L21.4,10,21,8,24.5,6.6h3Z" transform="translate(0)"/></svg>