<svg id="f6b683be-40c3-4f13-b2b6-c4a46e8cf5a4" data-name="11" xmlns="http://www.w3.org/2000/svg" viewBox="0 0 69.99 47.01"><defs><style>.a5cabce6-15e7-4e83-927e-450f2c46b9f3{fill:#fcfcfc;}</style></defs><path id="a82b6300-3c72-4285-ac97-c2fbf43cd666" data-name="11+" class="a5cabce6-15e7-4e83-927e-450f2c46b9f3" d="M65.68.39a6.32,6.32,0,0,0-2-.28H6.51A6.36,6.36,0,0,0,.15,6.47V40.74A6.36,6.36,0,0,0,6.51,47.1H63.78a6.36,6.36,0,0,0,6.36-6.36V6.48A6.39,6.39,0,0,0,65.68.39ZM24.4,35H19.53V19.49a13.56,13.56,0,0,1,.19-2.4l-5.15,1.34L14,15.17,19.53,13H24.4Zm13.72,0H33.26V19.49a12.68,12.68,0,0,1,.19-2.4L28.3,18.43l-.58-3.26L33.26,13h4.86ZM57,27.14H51.47v5.34H48V27.14H42.44V23.68H48V18.3h3.52v5.38H57Z" transform="translate(-0.15 -0.1)"/></svg>