<svg id="b7265000-21ba-4113-9798-f906e7847a8d" data-name="Calque 11" xmlns="http://www.w3.org/2000/svg" viewBox="0 0 40 27"><defs><style>.bdb9110b-707c-4b26-b054-e75b964b87f1{fill:#fff;}</style></defs><path id="bf2d51ff-fef3-4e74-a624-e934207a5ae3" data-name="11+" class="bdb9110b-707c-4b26-b054-e75b964b87f1" d="M39,0H1A1,1,0,0,0,0,1V26a1,1,0,0,0,1,1H39a1,1,0,0,0,1-1V1A1,1,0,0,0,39,0ZM13.06,20.4H10V10.68a8,8,0,0,1,.12-1.5L6.92,10,6.56,8,10,6.6h3Zm8.58,0h-3V10.68a8,8,0,0,1,.12-1.5L15.5,10l-.36-2L18.6,6.6h3Zm11.8-4.94H30V18.8H27.8V15.46H24.34V13.3h3.44V9.94H30V13.3h3.46Z" transform="translate(0)"/></svg>