<svg id="e6315aeb-bec8-478b-87e5-dac4fa0ea735" data-name="11" xmlns="http://www.w3.org/2000/svg" viewBox="0 0 69.99 47.01"><defs><style>.b60847bf-a40d-48d1-b771-a210e1ac2dec{fill:#fcfcfc;}</style></defs><path id="b43d936d-049b-42dd-8e5b-7066834c0c61" data-name="11-12" class="b60847bf-a40d-48d1-b771-a210e1ac2dec" d="M65.68.39a6.32,6.32,0,0,0-2-.28H6.51A6.36,6.36,0,0,0,.15,6.47V40.74A6.36,6.36,0,0,0,6.51,47.1H63.78a6.36,6.36,0,0,0,6.36-6.36V6.48A6.39,6.39,0,0,0,65.68.39ZM12.34,34.53H7.78V20A12,12,0,0,1,8,17.7L3.13,19,2.59,15.9l5.19-2.07h4.56Zm12.87,0H20.65V20a12,12,0,0,1,.18-2.25L16,19l-.54-3.06,5.19-2.07h4.56Zm13.47-6.18H29.74V25.44h8.94ZM49.6,34.53H45V20a12,12,0,0,1,.18-2.25L40.39,19l-.54-3.06L45,13.83H49.6Zm18.81,0H53.74V32a2.58,2.58,0,0,1,.66-1.86l5.07-5.46q3.72-3.87,3.69-5.91a1.12,1.12,0,0,0-.66-1.12,6.35,6.35,0,0,0-2.16-.26q-3.18,0-6.24.27l-.18-3.45a34.27,34.27,0,0,1,7-.72,10.44,10.44,0,0,1,5.2,1c1.15.68,1.73,1.94,1.73,3.78a7.54,7.54,0,0,1-.68,3.28,15,15,0,0,1-2.68,3.56l-5.31,5.52a17.65,17.65,0,0,1,3.06-.21h6.21Z" transform="translate(-0.15 -0.1)"/></svg>