<svg id="fe47f10a-6be6-4886-bf3d-b96c05b18836" data-name="Calque 12" xmlns="http://www.w3.org/2000/svg" viewBox="0 0 40 27"><defs><style>.e613d63e-e562-4857-a6ca-a878a0d9a4ff{fill:#fff;}</style></defs><path class="e613d63e-e562-4857-a6ca-a878a0d9a4ff" d="M39,0H1A1,1,0,0,0,0,1V26a1,1,0,0,0,1,1H39a1,1,0,0,0,1-1V1A1,1,0,0,0,39,0ZM17,20.52h-3V10.8a8,8,0,0,1,.12-1.5l-3.22.84-.36-2,3.46-1.38h3Zm12.54,0H19.74v-1.7a1.74,1.74,0,0,1,.44-1.24l3.38-3.64Q26,11.36,26,10a.74.74,0,0,0-.44-.75,4.34,4.34,0,0,0-1.44-.17c-1.41,0-2.8.06-4.16.18L19.86,7a22.85,22.85,0,0,1,4.64-.48A7,7,0,0,1,28,7.16a2.67,2.67,0,0,1,1.15,2.52,5,5,0,0,1-.45,2.19,10.38,10.38,0,0,1-1.79,2.37l-3.54,3.68a12.16,12.16,0,0,1,2-.14h4.14Z" transform="translate(0)"/></svg>