<svg id="a94c100d-6617-44b5-8791-0bb34a70f784" data-name="12" xmlns="http://www.w3.org/2000/svg" viewBox="0 0 69.99 47.01"><defs><style>.f52a153c-4ffa-43ef-943c-45831d9ed8dc{fill:#fcfcfc;}</style></defs><path id="b0e705b9-aec7-496b-9d95-d09fbea55d6e" data-name="12" class="f52a153c-4ffa-43ef-943c-45831d9ed8dc" d="M65.68.39a6.32,6.32,0,0,0-2-.28H6.51A6.36,6.36,0,0,0,.15,6.47V40.74A6.36,6.36,0,0,0,6.51,47.1H63.78a6.36,6.36,0,0,0,6.36-6.36V6.48A6.39,6.39,0,0,0,65.68.39Zm-35,34.84H25.8V19.68a12.59,12.59,0,0,1,.2-2.4l-5.16,1.34-.57-3.26,5.53-2.21h4.87Zm20.06,0H35.08V32.51a2.74,2.74,0,0,1,.71-2L41.2,24.7q4-4.12,3.93-6.3a1.19,1.19,0,0,0-.7-1.2,6.9,6.9,0,0,0-2.31-.27c-2.26,0-4.48.09-6.65.29l-.19-3.68a36,36,0,0,1,7.42-.77,11.12,11.12,0,0,1,5.55,1.09c1.23.72,1.84,2.07,1.84,4a8.08,8.08,0,0,1-.72,3.5,15.94,15.94,0,0,1-2.86,3.79l-5.67,5.89a18.86,18.86,0,0,1,3.27-.22h6.62Z" transform="translate(-0.15 -0.1)"/></svg>