<svg id="f1736a54-2958-47e6-b075-8a7de19f09a1" data-name="1" xmlns="http://www.w3.org/2000/svg" viewBox="0 0 69.99 47.01"><defs><style>.b7839228-3e52-4d09-b16d-a0795abd1060{fill:#fcfcfc;}</style></defs><path id="f004fb8b-73f8-4676-b948-77f3c82e022c" data-name="1-11" class="b7839228-3e52-4d09-b16d-a0795abd1060" d="M65.68.39a6.32,6.32,0,0,0-2-.28H6.51A6.36,6.36,0,0,0,.15,6.47V40.74A6.36,6.36,0,0,0,6.51,47.1H63.78a6.36,6.36,0,0,0,6.36-6.36V6.48A6.39,6.39,0,0,0,65.68.39ZM19.45,36.07H14.13v-17a14.06,14.06,0,0,1,.21-2.63L8.71,17.91l-.63-3.57,6.05-2.41h5.32Zm15.72-7.21H24.74V25.47H35.17Zm12.74,7.21H42.59v-17a14.06,14.06,0,0,1,.21-2.63l-5.64,1.47-.63-3.57,6.06-2.41h5.32Zm15,0H57.6v-17a14.06,14.06,0,0,1,.21-2.63l-5.63,1.47-.63-3.57,6.05-2.41h5.32Z" transform="translate(-0.15 -0.1)"/></svg>