<svg id="bb9dbc60-1863-4d33-8d36-f71aecac0a6d" data-name="Calque 1" xmlns="http://www.w3.org/2000/svg" viewBox="0 0 40 27"><defs><style>.b05f790f-eab7-4321-a999-8b1aa716df41{fill:#fff;}</style></defs><g id="b011f5a0-cd7a-4899-87dc-f953b786869e" data-name="1-10"><path class="b05f790f-eab7-4321-a999-8b1aa716df41" d="M32.77,8.76a1.81,1.81,0,0,0-1.81,1,10,10,0,0,0-.47,3.77A10,10,0,0,0,31,17.27a1.81,1.81,0,0,0,1.81,1,1.87,1.87,0,0,0,1.86-1,9.76,9.76,0,0,0,.48-3.77,9.76,9.76,0,0,0-.48-3.77A1.87,1.87,0,0,0,32.77,8.76Z" transform="translate(0)"/><path class="b05f790f-eab7-4321-a999-8b1aa716df41" d="M39,0H1A1,1,0,0,0,0,1V26a1,1,0,0,0,1,1H39a1,1,0,0,0,1-1V1A1,1,0,0,0,39,0ZM8.39,20.4h-3V10.68a8,8,0,0,1,.12-1.5L2.25,10,1.89,8,5.35,6.6h3Zm9-4.12h-6V14.34h6Zm7.28,4.12h-3V10.68a8,8,0,0,1,.12-1.5L18.51,10l-.36-2L21.61,6.6h3Zm12.28-1.34c-.79,1.07-2.17,1.6-4.14,1.6s-3.33-.53-4.12-1.6-1.18-2.92-1.18-5.56S27.88,9,28.67,7.94s2.16-1.6,4.12-1.6,3.35.53,4.14,1.6,1.18,2.92,1.18,5.56S37.72,18,36.93,19.06Z" transform="translate(0)"/></g></svg>