<svg id="a82b3c8e-e842-4e2f-9bdf-58eac555a39a" data-name="1" xmlns="http://www.w3.org/2000/svg" viewBox="0 0 69.99 47.01"><defs><style>.b577bba5-b970-4597-8236-3a108cf8b70f{fill:#fcfcfc;}</style></defs><g id="b2912b30-7499-4024-aa9a-8ec3a267bb45" data-name="1-10"><path class="b577bba5-b970-4597-8236-3a108cf8b70f" d="M57.85,15.7a3.18,3.18,0,0,0-3.17,1.7q-.82,1.7-.82,6.6t.82,6.6a3.18,3.18,0,0,0,3.17,1.7,3.28,3.28,0,0,0,3.25-1.7q.84-1.7.84-6.6t-.84-6.6A3.28,3.28,0,0,0,57.85,15.7Z" transform="translate(-0.15 -0.1)"/><path class="b577bba5-b970-4597-8236-3a108cf8b70f" d="M65.68.39a6.32,6.32,0,0,0-2-.28H6.51A6.36,6.36,0,0,0,.15,6.47V40.74A6.36,6.36,0,0,0,6.51,47.1H63.78a6.36,6.36,0,0,0,6.36-6.36V6.48A6.39,6.39,0,0,0,65.68.39ZM15.18,36.07H9.86v-17a14.06,14.06,0,0,1,.21-2.63L4.44,17.91l-.63-3.57,6-2.41h5.32ZM30.9,28.86H20.47V25.47H30.9Zm12.74,7.21H38.32v-17a14.06,14.06,0,0,1,.21-2.63l-5.64,1.47-.63-3.57,6.06-2.41h5.32Zm21.49-2.34c-1.38,1.87-3.79,2.8-7.25,2.8s-5.83-.93-7.21-2.8S48.61,28.62,48.61,24s.69-7.86,2.06-9.73,3.78-2.8,7.21-2.8,5.87.93,7.25,2.8,2.06,5.11,2.06,9.73S66.5,31.86,65.13,33.73Z" transform="translate(-0.15 -0.1)"/></g></svg>