<svg id="e36c280a-5957-49db-a27e-fbaec05085b0" data-name="Calque 1" xmlns="http://www.w3.org/2000/svg" viewBox="0 0 40 27"><defs><style>.afe8c611-4f81-4f00-ac9a-41c556685318{fill:#fff;}</style></defs><path id="e654f4e4-4160-4fb6-a561-adbf908d97b2" data-name="1-11" class="afe8c611-4f81-4f00-ac9a-41c556685318" d="M39,0H1A1,1,0,0,0,0,1V26a1,1,0,0,0,1,1H39a1,1,0,0,0,1-1V1A1,1,0,0,0,39,0ZM10.83,20.4h-3V10.68a8,8,0,0,1,.12-1.5L4.69,10,4.33,8,7.79,6.6h3Zm9-4.12h-6V14.34h6Zm7.28,4.12h-3V10.68a8,8,0,0,1,.12-1.5L21,10l-.36-2L24.05,6.6h3Zm8.58,0h-3V10.68a8,8,0,0,1,.12-1.5L29.53,10l-.36-2L32.63,6.6h3Z" transform="translate(0)"/></svg>