<svg id="abb8e867-ad9c-446b-89bf-3e5331b0db05" data-name="1" xmlns="http://www.w3.org/2000/svg" viewBox="0 0 69.99 47.01"><defs><style>.ffdfd1ae-a248-4ca9-b7d1-3af6547f8e5f{fill:#fcfcfc;}</style></defs><path id="b17afb8e-5bae-4840-ade7-76b452e5bc91" data-name="1-12" class="ffdfd1ae-a248-4ca9-b7d1-3af6547f8e5f" d="M65.68.39a6.32,6.32,0,0,0-2-.28H6.51A6.36,6.36,0,0,0,.15,6.47V40.74A6.36,6.36,0,0,0,6.51,47.1H63.78a6.36,6.36,0,0,0,6.36-6.36V6.48A6.39,6.39,0,0,0,65.68.39ZM16,36.28H10.67v-17a14.06,14.06,0,0,1,.21-2.63L5.24,18.12l-.63-3.57,6.06-2.41H16ZM31.7,29.07H21.27V25.68H31.7Zm12.74,7.21H39.12v-17a14.06,14.06,0,0,1,.21-2.63L33.7,18.12l-.63-3.57,6-2.41h5.32Zm22,0H49.27v-3A3,3,0,0,1,50,31.14L56,24.77q4.34-4.51,4.3-6.9a1.31,1.31,0,0,0-.77-1.31,7.39,7.39,0,0,0-2.52-.3q-3.7,0-7.28.32l-.21-4a40,40,0,0,1,8.12-.83,12.11,12.11,0,0,1,6.07,1.19q2,1.18,2,4.4a9,9,0,0,1-.79,3.84,17.78,17.78,0,0,1-3.13,4.14l-6.2,6.45a19.92,19.92,0,0,1,3.57-.25h7.25Z" transform="translate(-0.15 -0.1)"/></svg>