<svg id="ae0bbf50-ff76-449f-acd9-79bddae29638" data-name="1" xmlns="http://www.w3.org/2000/svg" viewBox="0 0 69.99 47.01"><defs><style>.b22aae8c-f40a-4f61-97a7-08018e5dd7dd{fill:#fcfcfc;}</style></defs><path id="b3e9a337-dafb-4563-8ce5-7a5394b64fcc" data-name="1-2" class="b22aae8c-f40a-4f61-97a7-08018e5dd7dd" d="M65.68.39a6.32,6.32,0,0,0-2-.28H6.51A6.36,6.36,0,0,0,.15,6.47V40.74A6.36,6.36,0,0,0,6.51,47.1H63.78a6.36,6.36,0,0,0,6.36-6.36V6.48A6.39,6.39,0,0,0,65.68.39ZM23,36.28H17.65v-17a14.06,14.06,0,0,1,.21-2.63l-5.63,1.47-.63-3.57,6-2.41H23Zm15.72-7.21H28.26V25.68H38.69ZM59.4,36.28H42.29v-3a3,3,0,0,1,.77-2.17L49,24.77c2.9-3,4.33-5.31,4.31-6.9a1.31,1.31,0,0,0-.77-1.31,7.39,7.39,0,0,0-2.52-.3q-3.7,0-7.28.32l-.21-4a40,40,0,0,1,8.12-.83,12.11,12.11,0,0,1,6.07,1.19q2,1.18,2,4.4a9,9,0,0,1-.78,3.84,17.6,17.6,0,0,1-3.14,4.14l-6.19,6.45a19.92,19.92,0,0,1,3.57-.25H59.4Z" transform="translate(-0.15 -0.1)"/></svg>