<svg id="b0eb6d0f-05e1-4c4f-a7a5-26fdfce0bb73" data-name="Calque 1" xmlns="http://www.w3.org/2000/svg" viewBox="0 0 40 27"><defs><style>.bda9b4e2-352c-4544-b27b-fbd1e136234e{fill:#fff;}</style></defs><path id="bdea2d6c-364c-423f-bcde-2aa31c737aa7" data-name="1-2" class="bda9b4e2-352c-4544-b27b-fbd1e136234e" d="M39,0H1A1,1,0,0,0,0,1V26a1,1,0,0,0,1,1H39a1,1,0,0,0,1-1V1A1,1,0,0,0,39,0ZM12.84,20.52h-3V10.8a8,8,0,0,1,.12-1.5l-3.22.84-.36-2L9.8,6.72h3Zm9-4.12h-6V14.46h6Zm11.84,4.12H23.88v-1.7a1.74,1.74,0,0,1,.44-1.24l3.38-3.64q2.48-2.58,2.46-3.94a.74.74,0,0,0-.44-.75,4.34,4.34,0,0,0-1.44-.17c-1.41,0-2.8.06-4.16.18L24,7a22.85,22.85,0,0,1,4.64-.48,7,7,0,0,1,3.47.68,2.67,2.67,0,0,1,1.15,2.52,5,5,0,0,1-.45,2.19A10.38,10.38,0,0,1,31,14.24l-3.54,3.68a12.16,12.16,0,0,1,2-.14h4.14Z" transform="translate(0)"/></svg>