<svg id="fbaf5758-45be-46c6-a165-f5b3a0f8498f" data-name="Calque 1" xmlns="http://www.w3.org/2000/svg" viewBox="0 0 40 27"><defs><style>.a48cbdac-0c66-45df-8844-2d5370ed7588{fill:#fff;}</style></defs><path id="ac47aad4-61e4-4707-844c-11b2b812a20f" data-name="1-3" class="a48cbdac-0c66-45df-8844-2d5370ed7588" d="M39,0H1A1,1,0,0,0,0,1V26a1,1,0,0,0,1,1H39a1,1,0,0,0,1-1V1A1,1,0,0,0,39,0ZM13,20.4H10V10.68a8,8,0,0,1,.12-1.5L6.9,10,6.54,8,10,6.6h3Zm9-4.12h-6V14.34h6Zm10.4,3.42a5.54,5.54,0,0,1-3.68,1A36.42,36.42,0,0,1,24,20.3L24.12,18c1.49.09,2.76.14,3.8.14a3.53,3.53,0,0,0,2-.41,1.9,1.9,0,0,0,.54-1.59A2.07,2.07,0,0,0,30,14.69a2.31,2.31,0,0,0-1.68-.43H25.76V12.18h2.58c.8,0,1.32-.15,1.55-.45a2.21,2.21,0,0,0,.33-1.39c0-.65-.14-1.07-.42-1.25a3.59,3.59,0,0,0-1.72-.27c-1.15,0-2.37,0-3.68.08l-.14-2.2a27.12,27.12,0,0,1,4.34-.36,6.38,6.38,0,0,1,3.48.7,2.82,2.82,0,0,1,1,2.5A5.15,5.15,0,0,1,32.64,12,2.13,2.13,0,0,1,31,13v.08a2.68,2.68,0,0,1,1.89,1.05,4.51,4.51,0,0,1,.57,2.41A3.9,3.9,0,0,1,32.42,19.7Z" transform="translate(0)"/></svg>