<svg id="bef330e6-21fb-4609-9288-bb129e6d2c2c" data-name="1" xmlns="http://www.w3.org/2000/svg" viewBox="0 0 69.99 47.01"><defs><style>.a968595a-1ce7-43e2-97b3-4379c7fd22db{fill:#fcfcfc;}</style></defs><path id="e93116d3-ce74-499d-b8cc-16018158680c" data-name="1-3" class="a968595a-1ce7-43e2-97b3-4379c7fd22db" d="M65.68.39a6.32,6.32,0,0,0-2-.28H6.51A6.36,6.36,0,0,0,.15,6.47V40.74A6.36,6.36,0,0,0,6.51,47.1H63.78a6.36,6.36,0,0,0,6.36-6.36V6.48A6.39,6.39,0,0,0,65.68.39ZM23.32,36.07H18v-17a14.06,14.06,0,0,1,.21-2.63l-5.64,1.47-.63-3.57L18,11.93h5.32ZM39,28.86H28.6V25.47H39Zm18.2,6C56,36,53.83,36.53,50.79,36.53a63.66,63.66,0,0,1-8.29-.63l.21-4c2.61.16,4.83.25,6.65.25a6.1,6.1,0,0,0,3.5-.72,3.34,3.34,0,0,0,.94-2.78A3.59,3.59,0,0,0,53,26.08a4.06,4.06,0,0,0-2.94-.75H45.58V21.69h4.51c1.4,0,2.31-.26,2.72-.79a3.8,3.8,0,0,0,.57-2.43c0-1.14-.24-1.87-.73-2.19a6.37,6.37,0,0,0-3-.47c-2,0-4.15,0-6.44.14L43,12.1a47.41,47.41,0,0,1,7.6-.63q4.31,0,6.09,1.23t1.78,4.37a9,9,0,0,1-.8,4.23,3.72,3.72,0,0,1-2.87,1.86v.14a4.67,4.67,0,0,1,3.31,1.84,7.81,7.81,0,0,1,1,4.21Q59.13,33.17,57.23,34.85Z" transform="translate(-0.15 -0.1)"/></svg>