<svg id="e78f84d9-6245-493d-8306-f53af2774f1d" data-name="Calque 1" xmlns="http://www.w3.org/2000/svg" viewBox="0 0 40 27"><defs><style>.f3dfb9bf-b376-4f07-b70e-3763e035fe50{fill:#fff;}</style></defs><path id="a519b857-aa4a-4bf5-be3d-9f812463fc4a" data-name="1-4" class="f3dfb9bf-b376-4f07-b70e-3763e035fe50" d="M39,0H1A1,1,0,0,0,0,1V26a1,1,0,0,0,1,1H39a1,1,0,0,0,1-1V1A1,1,0,0,0,39,0ZM12.13,20.4h-3V10.68a8,8,0,0,1,.12-1.5L6,10,5.63,8,9.09,6.6h3Zm9-4.12h-6V14.34h6Zm13.26.8-1.68.28h0v3H29.83v-3H24.37a1.49,1.49,0,0,1-1.35-.7,1.58,1.58,0,0,1-.11-1.54L26.49,6.6h2.88l-3.28,7.94c-.09.23-.1.39,0,.5a.48.48,0,0,0,.42.16h3.34V11.48l.5-2.2h2.32V15.2h1.72Z" transform="translate(0)"/></svg>