<svg id="a1328b93-430c-46e4-83c5-df10be80c8fe" data-name="1" xmlns="http://www.w3.org/2000/svg" viewBox="0 0 69.99 47.01"><defs><style>.e18687fb-b71b-49f3-8586-3c10cd1c9c72{fill:#fcfcfc;}</style></defs><path id="a9939dd3-5b94-413d-a648-d5d9953cc28d" data-name="1-4" class="e18687fb-b71b-49f3-8586-3c10cd1c9c72" d="M65.68.39a6.32,6.32,0,0,0-2-.28H6.51A6.36,6.36,0,0,0,.15,6.47V40.74A6.36,6.36,0,0,0,6.51,47.1H63.78a6.36,6.36,0,0,0,6.36-6.36V6.48A6.39,6.39,0,0,0,65.68.39ZM21.73,36.07H16.41v-17a14.06,14.06,0,0,1,.21-2.63L11,17.91l-.63-3.57,6.06-2.41h5.32Zm15.71-7.21H27V25.47H37.44Zm23.21,1.4-2.94.5h-.07v5.31H52.7V30.76H43.15a2.64,2.64,0,0,1-2.37-1.23,2.8,2.8,0,0,1-.19-2.7l6.27-14.9h5L46.16,25.82c-.17.4-.18.69,0,.88a.89.89,0,0,0,.74.27H52.7v-6.5l.88-3.86h4.06V27h3Z" transform="translate(-0.15 -0.1)"/></svg>