<svg id="a44f1a8d-0935-4460-bb26-bf36f2aecc01" data-name="1" xmlns="http://www.w3.org/2000/svg" viewBox="0 0 69.99 47.01"><defs><style>.a0d2272a-653a-43f2-8bcc-3bda4e8bd1bf{fill:#fcfcfc;}</style></defs><path id="e5561a80-ace3-4220-a2f9-6a10d144dce4" data-name="1-5" class="a0d2272a-653a-43f2-8bcc-3bda4e8bd1bf" d="M65.68.39a6.32,6.32,0,0,0-2-.28H6.51A6.36,6.36,0,0,0,.15,6.47V40.74A6.36,6.36,0,0,0,6.51,47.1H63.78a6.36,6.36,0,0,0,6.36-6.36V6.48A6.39,6.39,0,0,0,65.68.39ZM23.41,35.86H18.09v-17a14.06,14.06,0,0,1,.21-2.63L12.66,17.7,12,14.13l6.06-2.41h5.32Zm15.71-7.2H28.69v-3.4H39.12Zm11.41,7.62a48.28,48.28,0,0,1-8.05-.77L43,31.39q3.89.41,6.23.41c1.75,0,2.92-.25,3.52-.77a3.52,3.52,0,0,0,1-2.66c.07-1.44-.27-2.38-1-2.8a13.77,13.77,0,0,0-4.62-.94l-2.94-.35a1.81,1.81,0,0,1-1.25-.63,1.84,1.84,0,0,1-.43-1.33L44,11.72H58.23l-.17,4.12H48.15l-.28,4.38,3.47.42c2.77.3,4.74,1.11,5.89,2.41A7.91,7.91,0,0,1,59,28.48Q59,36.28,50.53,36.28Z" transform="translate(-0.15 -0.1)"/></svg>