<svg id="e025fd91-8a9b-4c25-988e-401cdaebfec3" data-name="Calque 1" xmlns="http://www.w3.org/2000/svg" viewBox="0 0 40 27"><defs><style>.b96c4fdb-1382-404a-ab82-971702fc6307{fill:#fff;}</style></defs><path id="ecefafe7-8564-4544-994c-05ced6f5bb3f" data-name="1-5" class="b96c4fdb-1382-404a-ab82-971702fc6307" d="M39,0H1A1,1,0,0,0,0,1V26a1,1,0,0,0,1,1H39a1,1,0,0,0,1-1V1A1,1,0,0,0,39,0ZM13.09,20.28h-3V10.56a8,8,0,0,1,.12-1.5L7,9.9l-.36-2,3.46-1.38h3Zm9-4.12h-6V14.22h6Zm6.52,4.36a28.32,28.32,0,0,1-4.6-.44l.28-2.36a34.84,34.84,0,0,0,3.56.24,3.26,3.26,0,0,0,2-.44A2,2,0,0,0,30.39,16c0-.83-.15-1.36-.58-1.6a7.72,7.72,0,0,0-2.64-.54l-1.68-.2a1,1,0,0,1-.71-.36,1.08,1.08,0,0,1-.25-.76l.34-6.06H33l-.1,2.36H27.23l-.16,2.5,2,.24A5.06,5.06,0,0,1,32.42,13a4.53,4.53,0,0,1,1,3.1Q33.41,20.52,28.59,20.52Z" transform="translate(0)"/></svg>