<svg id="aee475e9-e832-410c-86b7-e3435a32e3be" data-name="1" xmlns="http://www.w3.org/2000/svg" viewBox="0 0 69.99 47.01"><defs><style>.b4ae8870-c991-4a8c-8221-0f398e5283bc{fill:#fcfcfc;}</style></defs><g id="f2e69442-9453-48fd-9c2e-d7a93f526cce" data-name="1-6"><path class="b4ae8870-c991-4a8c-8221-0f398e5283bc" d="M51.21,24A6.88,6.88,0,0,0,47.4,25.3q0,4.54.66,5.82c.42.85,1.48,1.28,3.15,1.28,1.47,0,2.41-.32,2.8-1a7.23,7.23,0,0,0,.6-3.52,5,5,0,0,0-.68-3.08A3.5,3.5,0,0,0,51.21,24Z" transform="translate(-0.15 -0.1)"/><path class="b4ae8870-c991-4a8c-8221-0f398e5283bc" d="M65.68.39a6.32,6.32,0,0,0-2-.28H6.51A6.36,6.36,0,0,0,.15,6.47V40.74A6.36,6.36,0,0,0,6.51,47.1H63.78a6.36,6.36,0,0,0,6.36-6.36V6.48A6.39,6.39,0,0,0,65.68.39ZM22.73,36.07H17.41v-17a14.06,14.06,0,0,1,.21-2.63L12,17.91l-.63-3.57,6.06-2.41h5.32Zm15.71-7.21H28V25.47H38.44Zm20.86,2.7a7,7,0,0,1-1.24,2.68A5.11,5.11,0,0,1,55.47,36a14.42,14.42,0,0,1-4.29.54,11.37,11.37,0,0,1-5.51-1.06A5.93,5.93,0,0,1,43,31.79a28.13,28.13,0,0,1-.77-7.55,31.26,31.26,0,0,1,.42-5.56A12.66,12.66,0,0,1,43.85,15a5.51,5.51,0,0,1,2.06-2.19,8,8,0,0,1,2.78-1.05,20.77,20.77,0,0,1,3.64-.26,21.82,21.82,0,0,1,5.71.63l-.28,3.5c-1.21-.05-3-.07-5.43-.07-1.82,0-3.06.39-3.72,1.19s-1.06,2.5-1.18,5.14a7.62,7.62,0,0,1,5.32-1.75q3.93,0,5.41,1.73c1,1.16,1.49,3.13,1.49,5.94A17,17,0,0,1,59.3,31.56Z" transform="translate(-0.15 -0.1)"/></g></svg>