<svg id="e6d8a8b2-f4b6-4a88-98ca-0c95c7526d55" data-name="Calque 1" xmlns="http://www.w3.org/2000/svg" viewBox="0 0 40 27"><defs><style>.b9985437-17c9-440e-8f5f-9c3d475fdb28{fill:#fff;}</style></defs><g id="f3d6cd83-9f83-481a-90cb-7c16075a3d93" data-name="1-6"><path class="b9985437-17c9-440e-8f5f-9c3d475fdb28" d="M39,0H1A1,1,0,0,0,0,1V26a1,1,0,0,0,1,1H39a1,1,0,0,0,1-1V1A1,1,0,0,0,39,0ZM12.7,20.4h-3V10.68a8,8,0,0,1,.12-1.5L6.56,10,6.2,8,9.66,6.6h3Zm9-4.12h-6V14.34h6ZM33.6,17.82a4,4,0,0,1-.71,1.53,2.89,2.89,0,0,1-1.48,1,8.07,8.07,0,0,1-2.45.31A6.43,6.43,0,0,1,25.81,20,3.38,3.38,0,0,1,24.3,18a16.12,16.12,0,0,1-.44-4.31,17.92,17.92,0,0,1,.24-3.18,7.11,7.11,0,0,1,.67-2.1A3.23,3.23,0,0,1,26,7.11a4.66,4.66,0,0,1,1.59-.6,12.08,12.08,0,0,1,2.08-.15,12.44,12.44,0,0,1,3.26.36l-.16,2c-.69,0-1.73,0-3.1,0a2.7,2.7,0,0,0-2.13.68,5.42,5.42,0,0,0-.67,2.94,4.34,4.34,0,0,1,3-1,3.94,3.94,0,0,1,3.09,1,5.22,5.22,0,0,1,.85,3.39A9.85,9.85,0,0,1,33.6,17.82Z" transform="translate(0)"/><path class="b9985437-17c9-440e-8f5f-9c3d475fdb28" d="M29,13.52a4,4,0,0,0-2.18.72,9.49,9.49,0,0,0,.38,3.33c.24.49.84.73,1.8.73s1.37-.18,1.6-.55a4.13,4.13,0,0,0,.34-2A2.84,2.84,0,0,0,30.53,14,2,2,0,0,0,29,13.52Z" transform="translate(0)"/></g></svg>