<svg id="ac995f6d-4776-4aa7-b15b-9c39f3e24f01" data-name="1" xmlns="http://www.w3.org/2000/svg" viewBox="0 0 69.99 47.01"><defs><style>.b4ebda7d-1839-4f4a-a5c7-a9c86f7ab202{fill:#fcfcfc;}</style></defs><path id="eb361da6-1a99-4908-ae62-2204b57be6d5" data-name="1-7" class="b4ebda7d-1839-4f4a-a5c7-a9c86f7ab202" d="M65.68.39a6.32,6.32,0,0,0-2-.28H6.51A6.36,6.36,0,0,0,.15,6.47V40.74A6.36,6.36,0,0,0,6.51,47.1H63.78a6.36,6.36,0,0,0,6.36-6.36V6.48A6.39,6.39,0,0,0,65.68.39ZM24.11,36.07H18.79v-17A14.06,14.06,0,0,1,19,16.44l-5.63,1.47-.63-3.57,6-2.41h5.32Zm15.72-7.21H29.39V25.47H39.83Zm18.26-14.1L50.78,36.07H45.53l6.12-17.5a10.58,10.58,0,0,1,1-2.27h-11l-.21-4.37H56a2.25,2.25,0,0,1,1.94.82A2,2,0,0,1,58.09,14.76Z" transform="translate(-0.15 -0.1)"/></svg>