<svg id="a8a85471-f77c-449d-a10b-3e4b620a4c77" data-name="Calque 1" xmlns="http://www.w3.org/2000/svg" viewBox="0 0 40 27"><defs><style>.f0ce0d9c-23ca-4e45-a6d0-58e59e4ffb37{fill:#fff;}</style></defs><path id="b3b4d7d7-51e4-483d-ad6c-c57c76a49172" data-name="1-7" class="f0ce0d9c-23ca-4e45-a6d0-58e59e4ffb37" d="M39,0H1A1,1,0,0,0,0,1V26a1,1,0,0,0,1,1H39a1,1,0,0,0,1-1V1A1,1,0,0,0,39,0ZM13.49,20.4h-3V10.68a8,8,0,0,1,.12-1.5L7.35,10,7,8,10.45,6.6h3Zm9-4.12h-6V14.34h6ZM32.91,8.22,28.73,20.4h-3l3.5-10a6,6,0,0,1,.58-1.3H23.53l-.12-2.5h8.28a1.29,1.29,0,0,1,1.11.47A1.18,1.18,0,0,1,32.91,8.22Z" transform="translate(0)"/></svg>