<svg id="ea5c2d48-090e-4db9-9739-2c9fc2a45c95" data-name="1" xmlns="http://www.w3.org/2000/svg" viewBox="0 0 69.99 47.01"><defs><style>.b24b48aa-0a66-4476-8efa-3126e9560f46{fill:#fcfcfc;}</style></defs><g id="b8fb6fcf-cfbf-469e-a68f-9f2fd543c12e" data-name="1-8"><path class="b24b48aa-0a66-4476-8efa-3126e9560f46" d="M51.07,21.67a4.47,4.47,0,0,0,2.84-.61,3.45,3.45,0,0,0,.66-2.5A3.62,3.62,0,0,0,53.89,16,4.35,4.35,0,0,0,51,15.3a4.6,4.6,0,0,0-2.92.65,3.51,3.51,0,0,0-.72,2.61A3.22,3.22,0,0,0,48.14,21,4.75,4.75,0,0,0,51.07,21.67Z" transform="translate(-0.15 -0.1)"/><path class="b24b48aa-0a66-4476-8efa-3126e9560f46" d="M51.07,25.38a5.14,5.14,0,0,0-3.25.72A3.79,3.79,0,0,0,47,29a3.53,3.53,0,0,0,.8,2.73,5.17,5.17,0,0,0,3.22.7,4.88,4.88,0,0,0,3.12-.7A3.66,3.66,0,0,0,54.92,29a4,4,0,0,0-.75-2.87A4.82,4.82,0,0,0,51.07,25.38Z" transform="translate(-0.15 -0.1)"/><path class="b24b48aa-0a66-4476-8efa-3126e9560f46" d="M65.68.39a6.32,6.32,0,0,0-2-.28H6.51A6.36,6.36,0,0,0,.15,6.47V40.74A6.36,6.36,0,0,0,6.51,47.1H63.78a6.36,6.36,0,0,0,6.36-6.36V6.48A6.39,6.39,0,0,0,65.68.39ZM22.41,36.06H17.09v-17a14.13,14.13,0,0,1,.21-2.63l-5.63,1.47L11,14.32l6.05-2.41h5.32Zm15.71-7.21H27.7v-3.4H38.12Zm20,6.17Q56.25,36.48,51,36.51t-7.1-1.45c-1.26-1-1.89-2.67-1.89-5Q42,24,46.17,23.6v-.14a3.37,3.37,0,0,1-2.69-1.74,7.54,7.54,0,0,1-.87-3.79c0-2.36.57-4,1.73-5s3.37-1.45,6.66-1.45,5.52.48,6.67,1.45,1.74,2.63,1.74,5a7.33,7.33,0,0,1-.9,3.79,3.38,3.38,0,0,1-2.68,1.74v.14a3.78,3.78,0,0,1,3.23,1.89A9.67,9.67,0,0,1,60,30C60,32.39,59.35,34.06,58.11,35Z" transform="translate(-0.15 -0.1)"/></g></svg>