<svg id="e8189335-ec55-4eca-b3bd-0b4277a37f74" data-name="1" xmlns="http://www.w3.org/2000/svg" viewBox="0 0 69.99 47.01"><defs><style>.ecf6be89-ea3e-4949-aec4-0d50a8f5a5d0{fill:#fcfcfc;}</style></defs><g id="b2ad103b-9d00-4486-82c6-213726d91352" data-name="1-9"><path class="ecf6be89-ea3e-4949-aec4-0d50a8f5a5d0" d="M50.64,15.57c-1.45,0-2.39.33-2.84,1a6.62,6.62,0,0,0-.63,3.5,4.88,4.88,0,0,0,.68,3A3.27,3.27,0,0,0,50.5,24a6.89,6.89,0,0,0,3.81-1.33q0-4.52-.61-5.81T50.64,15.57Z" transform="translate(-0.15 -0.1)"/><path class="ecf6be89-ea3e-4949-aec4-0d50a8f5a5d0" d="M65.68.39a6.32,6.32,0,0,0-2-.28H6.51A6.36,6.36,0,0,0,.15,6.47V40.74A6.36,6.36,0,0,0,6.51,47.1H63.78a6.36,6.36,0,0,0,6.36-6.36V6.48A6.39,6.39,0,0,0,65.68.39ZM23,36.07H17.63v-17a14.06,14.06,0,0,1,.21-2.63l-5.63,1.47-.63-3.57,6-2.41H23Zm15.72-7.21H28.24V25.47H38.67ZM58.92,30.3a7.77,7.77,0,0,1-1.81,3.87A6.33,6.33,0,0,1,54.05,36a18.49,18.49,0,0,1-4.67.47,26.25,26.25,0,0,1-6.2-.63l.32-3.53c1.3.05,3.25.07,5.84.07,1.82,0,3.08-.44,3.76-1.31s1.08-2.56,1.18-5.06a7.58,7.58,0,0,1-5.36,1.82q-6.75,0-6.75-7.67c0-3.08.59-5.29,1.85-6.65s3.48-2,6.65-2a16.32,16.32,0,0,1,3.76.36A6.62,6.62,0,0,1,56.94,13a4.84,4.84,0,0,1,1.54,2.29,15.5,15.5,0,0,1,.73,3.45,47.94,47.94,0,0,1,.21,5A34.73,34.73,0,0,1,58.92,30.3Z" transform="translate(-0.15 -0.1)"/></g></svg>