<svg id="b787bc38-1aaf-426b-a5d3-d955b9cc46f9" data-name="Calque 1" xmlns="http://www.w3.org/2000/svg" viewBox="0 0 40 27"><defs><style>.a22093c2-80e5-4db0-af69-f7372a40e132{fill:#fff;}</style></defs><g id="b534fe2c-eeb7-4c5c-99df-5f937086c9bc" data-name="1-9"><path class="a22093c2-80e5-4db0-af69-f7372a40e132" d="M28.65,8.68c-.83,0-1.37.19-1.62.58a3.81,3.81,0,0,0-.36,2A2.78,2.78,0,0,0,27.06,13a1.85,1.85,0,0,0,1.51.51,3.94,3.94,0,0,0,2.18-.76,9.71,9.71,0,0,0-.35-3.32C30.17,8.93,29.58,8.68,28.65,8.68Z" transform="translate(0)"/><path class="a22093c2-80e5-4db0-af69-f7372a40e132" d="M39,0H1A1,1,0,0,0,0,1V26a1,1,0,0,0,1,1H39a1,1,0,0,0,1-1V1A1,1,0,0,0,39,0ZM12.83,20.4h-3V10.68a8,8,0,0,1,.12-1.5L6.69,10,6.33,8,9.79,6.6h3Zm9-4.12h-6V14.34h6Zm11.57.82a4.47,4.47,0,0,1-1,2.21,3.63,3.63,0,0,1-1.75,1.06,10.64,10.64,0,0,1-2.67.27,15,15,0,0,1-3.54-.36l.18-2c.75,0,1.86,0,3.34,0a2.6,2.6,0,0,0,2.15-.75,5.29,5.29,0,0,0,.67-2.89,4.35,4.35,0,0,1-3.06,1q-3.86,0-3.86-4.38a5.43,5.43,0,0,1,1.06-3.8c.72-.77,2-1.16,3.8-1.16a9.17,9.17,0,0,1,2.15.21,3.78,3.78,0,0,1,1.43.66,2.74,2.74,0,0,1,.88,1.31,8.85,8.85,0,0,1,.42,2,27.48,27.48,0,0,1,.12,2.85A19.67,19.67,0,0,1,33.38,17.1Z" transform="translate(0)"/></g></svg>