<svg id="ebb3718c-c053-4472-84c3-7b18fba0cfb3" data-name="Calque 2" xmlns="http://www.w3.org/2000/svg" viewBox="0 0 40 27"><defs><style>.bc1be4ad-e2ae-4833-9ff4-e4dcf43495fe{fill:#fff;}</style></defs><path id="ada1e2fc-31be-4687-ad59-a17d08cc1fd3" data-name="2" class="bc1be4ad-e2ae-4833-9ff4-e4dcf43495fe" d="M39,0H1A1,1,0,0,0,0,1V26a1,1,0,0,0,1,1H39a1,1,0,0,0,1-1V1A1,1,0,0,0,39,0ZM24.89,20.52H15.11v-1.7a1.74,1.74,0,0,1,.44-1.24l3.38-3.64Q21.4,11.36,21.39,10A.74.74,0,0,0,21,9.25a4.34,4.34,0,0,0-1.44-.17c-1.41,0-2.8.06-4.16.18L15.23,7a22.85,22.85,0,0,1,4.64-.48,7,7,0,0,1,3.47.68,2.67,2.67,0,0,1,1.15,2.52A5,5,0,0,1,24,11.87a10.38,10.38,0,0,1-1.79,2.37l-3.54,3.68a12.16,12.16,0,0,1,2-.14h4.14Z" transform="translate(0)"/></svg>