<svg id="f936ea54-92f4-433f-84ae-30b760fc3667" data-name="2" xmlns="http://www.w3.org/2000/svg" viewBox="0 0 69.99 47.01"><defs><style>.a8be0efa-576e-4060-96ce-6696e601c27b{fill:#fcfcfc;}</style></defs><path id="b08f8241-eac1-4e76-a067-ebd2e1dfb5ca" data-name="2" class="a8be0efa-576e-4060-96ce-6696e601c27b" d="M65.68.39a6.32,6.32,0,0,0-2-.28H6.51A6.36,6.36,0,0,0,.15,6.47V40.74A6.36,6.36,0,0,0,6.51,47.1H63.78a6.36,6.36,0,0,0,6.36-6.36V6.48A6.39,6.39,0,0,0,65.68.39ZM44.06,36.28H26.94v-3a3,3,0,0,1,.77-2.17l5.92-6.37c2.89-3,4.33-5.31,4.3-6.9a1.31,1.31,0,0,0-.77-1.31,7.39,7.39,0,0,0-2.52-.3q-3.7,0-7.28.32l-.21-4a40,40,0,0,1,8.12-.83,12.11,12.11,0,0,1,6.07,1.19q2,1.18,2,4.4a9,9,0,0,1-.79,3.84,17.78,17.78,0,0,1-3.13,4.14l-6.2,6.45a19.92,19.92,0,0,1,3.57-.25h7.25Z" transform="translate(-0.15 -0.1)"/></svg>