<svg id="a869e167-ca4b-4201-95a2-b182fc2be65b" data-name="2" xmlns="http://www.w3.org/2000/svg" viewBox="0 0 69.99 47.01"><defs><style>.a59b6f5b-33a1-4029-903e-e64329ba0382{fill:#fcfcfc;}</style></defs><path id="f09b1072-08d7-48f6-9e89-5795e00dcd96" data-name="2+" class="a59b6f5b-33a1-4029-903e-e64329ba0382" d="M65.68.39a6.32,6.32,0,0,0-2-.28H6.51A6.36,6.36,0,0,0,.15,6.47V40.74A6.36,6.36,0,0,0,6.51,47.1H63.78a6.36,6.36,0,0,0,6.36-6.36V6.48A6.39,6.39,0,0,0,65.68.39ZM34.59,36.28H17.48v-3a3,3,0,0,1,.77-2.17l5.91-6.37q4.34-4.51,4.31-6.9a1.32,1.32,0,0,0-.77-1.31,7.39,7.39,0,0,0-2.52-.3c-2.48,0-4.9.11-7.28.32l-.21-4a39.87,39.87,0,0,1,8.11-.83,12.16,12.16,0,0,1,6.08,1.19q2,1.18,2,4.4a8.81,8.81,0,0,1-.79,3.84A17.5,17.5,0,0,1,30,25.29l-6.19,6.45a19.77,19.77,0,0,1,3.57-.25h7.24Zm18.93-8.64H47.47v5.85H43.66V27.64H37.6V23.86h6V18h3.85v5.88h6.05Z" transform="translate(-0.15 -0.1)"/></svg>