<svg id="a3ff0fb4-887c-4db1-b7b2-0c8a55e41b08" data-name="Calque 2" xmlns="http://www.w3.org/2000/svg" viewBox="0 0 40 27"><defs><style>.f0797486-0ecf-47cf-b825-7f3eec359a3e{fill:#fff;}</style></defs><path id="fd56afbf-ea02-40cf-b5ae-abd1f515d154" data-name="2+" class="f0797486-0ecf-47cf-b825-7f3eec359a3e" d="M39,0H1A1,1,0,0,0,0,1V26a1,1,0,0,0,1,1H39a1,1,0,0,0,1-1V1A1,1,0,0,0,39,0ZM19.48,20.52H9.7v-1.7a1.74,1.74,0,0,1,.44-1.24l3.38-3.64Q16,11.36,16,10a.74.74,0,0,0-.44-.75,4.34,4.34,0,0,0-1.44-.17c-1.41,0-2.8.06-4.16.18L9.82,7a22.85,22.85,0,0,1,4.64-.48,7,7,0,0,1,3.47.68,2.67,2.67,0,0,1,1.15,2.52,5,5,0,0,1-.45,2.19,10.38,10.38,0,0,1-1.79,2.37L13.3,17.92a12.16,12.16,0,0,1,2-.14h4.14ZM30.3,15.58H26.84v3.34H24.66V15.58H21.2V13.42h3.44V10.06h2.2v3.36H30.3Z" transform="translate(0)"/></svg>