<svg id="b51d1427-d73a-491c-a852-88c1835a092f" data-name="Calque 2" xmlns="http://www.w3.org/2000/svg" viewBox="0 0 40 27"><defs><style>.b03b759e-0c25-44ed-ad0b-f884692e0363{fill:#fff;}</style></defs><path id="e32dd83a-8118-4a56-ac09-154af7cb11ee" data-name="2-11" class="b03b759e-0c25-44ed-ad0b-f884692e0363" d="M39,0H1A1,1,0,0,0,0,1V26a1,1,0,0,0,1,1H39a1,1,0,0,0,1-1V1A1,1,0,0,0,39,0ZM13,20.52H3.18v-1.7a1.74,1.74,0,0,1,.44-1.24L7,13.94Q9.48,11.36,9.46,10A.74.74,0,0,0,9,9.25a4.34,4.34,0,0,0-1.44-.17c-1.41,0-2.8.06-4.16.18L3.3,7a22.85,22.85,0,0,1,4.64-.48,7,7,0,0,1,3.47.68,2.67,2.67,0,0,1,1.15,2.52,5,5,0,0,1-.45,2.19,10.38,10.38,0,0,1-1.79,2.37L6.78,17.92a12.16,12.16,0,0,1,2-.14H13Zm8-4.12H15V14.46h6Zm7.28,4.12h-3V10.8a8,8,0,0,1,.12-1.5l-3.22.84-.36-2L25.2,6.72h3Zm8.58,0h-3V10.8a8,8,0,0,1,.12-1.5l-3.22.84-.36-2,3.46-1.38h3Z" transform="translate(0)"/></svg>