<svg id="eac2abba-e1eb-4dcf-bcbd-98c2a6596980" data-name="2" xmlns="http://www.w3.org/2000/svg" viewBox="0 0 69.99 47.01"><defs><style>.bf6520ed-bfb7-4e35-a859-ffce50982391{fill:#fcfcfc;}</style></defs><path id="a1724328-ec87-44ce-9093-4a4e8e4a1a27" data-name="2-12" class="bf6520ed-bfb7-4e35-a859-ffce50982391" d="M65.68.39a6.32,6.32,0,0,0-2-.28H6.51A6.36,6.36,0,0,0,.15,6.47V40.74A6.36,6.36,0,0,0,6.51,47.1H63.78a6.36,6.36,0,0,0,6.36-6.36V6.48A6.39,6.39,0,0,0,65.68.39Zm-46,35.89H2.6v-3a3,3,0,0,1,.77-2.17l5.91-6.37c2.9-3,4.33-5.31,4.31-6.9a1.31,1.31,0,0,0-.77-1.31,7.39,7.39,0,0,0-2.52-.3q-3.71,0-7.28.32l-.21-4a40,40,0,0,1,8.12-.83A12.11,12.11,0,0,1,17,12.91c1.34.79,2,2.26,2,4.4a9,9,0,0,1-.79,3.84,17.6,17.6,0,0,1-3.14,4.14L8.9,31.74a19.92,19.92,0,0,1,3.57-.25h7.25Zm14-7.21H23.28V25.68H33.71Zm12.74,7.21H41.14v-17a14.15,14.15,0,0,1,.2-2.63l-5.63,1.47-.63-3.57,6.06-2.41h5.31Zm22,0H51.28v-3a3,3,0,0,1,.77-2.17L58,24.77c2.89-3,4.33-5.31,4.3-6.9a1.31,1.31,0,0,0-.77-1.31,7.39,7.39,0,0,0-2.52-.3q-3.7,0-7.28.32l-.21-4a40,40,0,0,1,8.12-.83,12.18,12.18,0,0,1,6.08,1.19q2,1.18,2,4.4a8.81,8.81,0,0,1-.79,3.84,17.5,17.5,0,0,1-3.13,4.14l-6.2,6.45a19.92,19.92,0,0,1,3.57-.25H68.4Z" transform="translate(-0.15 -0.1)"/></svg>