<svg id="eab8eac4-8d1b-445a-8aae-5060fcaee09c" data-name="2" xmlns="http://www.w3.org/2000/svg" viewBox="0 0 69.99 47.01"><defs><style>.b4a8bc8d-f31a-47b9-90ea-661aa8b1f5da{fill:#fcfcfc;}</style></defs><path id="ec68cccc-daca-4ba9-8bb1-880e4fb717f2" data-name="2-11" class="b4a8bc8d-f31a-47b9-90ea-661aa8b1f5da" d="M65.68.39a6.32,6.32,0,0,0-2-.28H6.51A6.36,6.36,0,0,0,.15,6.47V40.74A6.36,6.36,0,0,0,6.51,47.1H63.78a6.36,6.36,0,0,0,6.36-6.36V6.48A6.39,6.39,0,0,0,65.68.39ZM23.18,36.28H6.07v-3a3,3,0,0,1,.77-2.17l5.91-6.37q4.34-4.51,4.31-6.9a1.32,1.32,0,0,0-.77-1.31,7.39,7.39,0,0,0-2.52-.3c-2.48,0-4.9.11-7.28.32l-.21-4a39.89,39.89,0,0,1,8.12-.83,12.14,12.14,0,0,1,6.07,1.19q2,1.18,2,4.4a8.81,8.81,0,0,1-.79,3.84,17.5,17.5,0,0,1-3.13,4.14l-6.19,6.45a19.77,19.77,0,0,1,3.57-.25h7.24Zm14-7.21H26.75V25.68H37.18Zm12.74,7.21H44.6v-17a14.06,14.06,0,0,1,.21-2.63l-5.64,1.47-.63-3.57,6.06-2.41h5.32Zm15,0H59.61v-17a14.06,14.06,0,0,1,.21-2.63l-5.63,1.47-.63-3.57,6-2.41h5.32Z" transform="translate(-0.15 -0.1)"/></svg>