<svg id="ec488415-e4a5-4b30-bc76-d24daeec2452" data-name="Calque 2" xmlns="http://www.w3.org/2000/svg" viewBox="0 0 40 27"><defs><style>.af301529-b7dc-44ab-95a8-a440d1a80582{fill:#fff;}</style></defs><path id="b1e2076b-7aba-4cf6-a297-d11ae1a50fd6" data-name="2-12" class="af301529-b7dc-44ab-95a8-a440d1a80582" d="M39,0H1A1,1,0,0,0,0,1V26a1,1,0,0,0,1,1H39a1,1,0,0,0,1-1V1A1,1,0,0,0,39,0ZM11,20.52H1.2v-1.7a1.74,1.74,0,0,1,.44-1.24L5,13.94Q7.5,11.36,7.48,10A.74.74,0,0,0,7,9.25,4.34,4.34,0,0,0,5.6,9.08c-1.41,0-2.8.06-4.16.18L1.32,7A22.85,22.85,0,0,1,6,6.48a7,7,0,0,1,3.47.68,2.67,2.67,0,0,1,1.15,2.52,5,5,0,0,1-.45,2.19,10.38,10.38,0,0,1-1.79,2.37L4.8,17.92a12.16,12.16,0,0,1,2-.14H11Zm8-4.12H13V14.46h6Zm7.28,4.12h-3V10.8a8,8,0,0,1,.12-1.5l-3.22.84-.36-2,3.46-1.38h3Zm12.54,0H29v-1.7a1.74,1.74,0,0,1,.44-1.24l3.38-3.64Q35.32,11.36,35.3,10a.74.74,0,0,0-.44-.75,4.34,4.34,0,0,0-1.44-.17c-1.41,0-2.8.06-4.16.18L29.14,7a22.85,22.85,0,0,1,4.64-.48,7,7,0,0,1,3.47.68A2.67,2.67,0,0,1,38.4,9.68,5,5,0,0,1,38,11.87a10.38,10.38,0,0,1-1.79,2.37l-3.54,3.68a12.16,12.16,0,0,1,2-.14H38.8Z" transform="translate(0)"/></svg>