<svg id="f7df53b8-4781-4c1a-9be2-58142fd197a4" data-name="2" xmlns="http://www.w3.org/2000/svg" viewBox="0 0 69.99 47.01"><defs><style>.f3d6b811-8acb-4cd1-b7c0-d74e86a6c127{fill:#fcfcfc;}</style></defs><g id="b34eccc9-cce2-4981-8f75-76dc2b1d7127" data-name="2-10"><path class="f3d6b811-8acb-4cd1-b7c0-d74e86a6c127" d="M59.86,15.7a3.19,3.19,0,0,0-3.17,1.7q-.82,1.7-.82,6.6t.82,6.6a3.19,3.19,0,0,0,3.17,1.7,3.28,3.28,0,0,0,3.25-1.7Q64,28.9,64,24t-.84-6.6A3.28,3.28,0,0,0,59.86,15.7Z" transform="translate(-0.15 -0.1)"/><path class="f3d6b811-8acb-4cd1-b7c0-d74e86a6c127" d="M65.68.39a6.32,6.32,0,0,0-2-.28H6.51A6.36,6.36,0,0,0,.15,6.47V40.74A6.36,6.36,0,0,0,6.51,47.1H63.78a6.36,6.36,0,0,0,6.36-6.36V6.48A6.39,6.39,0,0,0,65.68.39ZM18.91,36.07H1.8v-3a3,3,0,0,1,.77-2.17l5.91-6.37q4.33-4.51,4.31-6.9A1.32,1.32,0,0,0,12,16.35a7.36,7.36,0,0,0-2.51-.3c-2.48,0-4.9.11-7.28.32l-.21-4a39.89,39.89,0,0,1,8.12-.83A12.14,12.14,0,0,1,16.2,12.7q2,1.19,2,4.4a8.81,8.81,0,0,1-.79,3.84,17.5,17.5,0,0,1-3.13,4.14L8.1,31.53a19.77,19.77,0,0,1,3.57-.25h7.24Zm14-7.21H22.48V25.47H32.91Zm12.74,7.21H40.33v-17a14.06,14.06,0,0,1,.21-2.63L34.9,17.91l-.63-3.57,6.06-2.41h5.32Zm21.49-2.34c-1.38,1.87-3.79,2.8-7.25,2.8s-5.83-.93-7.21-2.8S50.62,28.62,50.62,24s.69-7.86,2.06-9.73,3.78-2.8,7.21-2.8,5.87.93,7.25,2.8S69.2,19.38,69.2,24,68.52,31.86,67.14,33.73Z" transform="translate(-0.15 -0.1)"/></g></svg>