<svg id="a8625761-4d4f-4485-b2d0-57b43f70594b" data-name="Calque 2" xmlns="http://www.w3.org/2000/svg" viewBox="0 0 40 27"><defs><style>.b89aad15-9af5-458e-82f0-2b94f315ed81{fill:#fff;}</style></defs><g id="f61b3603-709b-412f-b40d-78591d755865" data-name="2-10"><path class="b89aad15-9af5-458e-82f0-2b94f315ed81" d="M33.92,8.76a1.81,1.81,0,0,0-1.81,1,10,10,0,0,0-.47,3.77,10,10,0,0,0,.47,3.77,1.81,1.81,0,0,0,1.81,1,1.87,1.87,0,0,0,1.86-1,9.76,9.76,0,0,0,.48-3.77,9.76,9.76,0,0,0-.48-3.77A1.87,1.87,0,0,0,33.92,8.76Z" transform="translate(0)"/><path class="b89aad15-9af5-458e-82f0-2b94f315ed81" d="M39,0H1A1,1,0,0,0,0,1V26a1,1,0,0,0,1,1H39a1,1,0,0,0,1-1V1A1,1,0,0,0,39,0ZM10.52,20.4H.74V18.7a1.74,1.74,0,0,1,.44-1.24l3.38-3.64Q7,11.24,7,9.88a.74.74,0,0,0-.44-.75A4.34,4.34,0,0,0,5.14,9C3.73,9,2.34,9,1,9.14L.86,6.84A22.85,22.85,0,0,1,5.5,6.36,7,7,0,0,1,9,7a2.67,2.67,0,0,1,1.15,2.52,5,5,0,0,1-.45,2.19,10.38,10.38,0,0,1-1.79,2.37L4.34,17.8a12.16,12.16,0,0,1,2-.14h4.14Zm8-4.12h-6V14.34h6ZM25.8,20.4h-3V10.68a8,8,0,0,1,.12-1.5L19.66,10,19.3,8,22.76,6.6h3Zm12.28-1.34c-.79,1.07-2.17,1.6-4.14,1.6s-3.33-.53-4.12-1.6-1.18-2.92-1.18-5.56S29,9,29.82,7.94s2.16-1.6,4.12-1.6,3.35.53,4.14,1.6,1.18,2.92,1.18,5.56S38.87,18,38.08,19.06Z" transform="translate(0)"/></g></svg>