<svg id="a4b78b61-dfdd-43ad-8cc5-ed85384a7648" data-name="2" xmlns="http://www.w3.org/2000/svg" viewBox="0 0 69.99 47.01"><defs><style>.adc1ab17-54c3-416f-8f01-b1d0847ed40e{fill:#fcfcfc;}</style></defs><path id="bb80ea2b-9919-46d4-9f48-d4d2bd30280a" data-name="2-3" class="adc1ab17-54c3-416f-8f01-b1d0847ed40e" d="M65.68.39a6.32,6.32,0,0,0-2-.28H6.51A6.36,6.36,0,0,0,.15,6.47V40.74A6.36,6.36,0,0,0,6.51,47.1H63.78a6.36,6.36,0,0,0,6.36-6.36V6.48A6.39,6.39,0,0,0,65.68.39ZM27.05,36.07H9.93v-3a3,3,0,0,1,.77-2.17l5.92-6.37Q21,20,20.92,17.66a1.31,1.31,0,0,0-.77-1.31,7.39,7.39,0,0,0-2.52-.3q-3.7,0-7.28.32l-.21-4a40,40,0,0,1,8.12-.83,12.11,12.11,0,0,1,6.07,1.19q2,1.19,2,4.4a9,9,0,0,1-.79,3.84,17.78,17.78,0,0,1-3.13,4.14l-6.2,6.45a19.92,19.92,0,0,1,3.57-.25h7.25Zm14-7.21H30.62V25.47H41.05Zm18.2,6q-1.89,1.68-6.44,1.68a63.8,63.8,0,0,1-8.3-.63l.21-4c2.61.16,4.83.25,6.65.25a6.1,6.1,0,0,0,3.5-.72,3.34,3.34,0,0,0,1-2.78,3.63,3.63,0,0,0-.77-2.58,4.1,4.1,0,0,0-2.94-.75H47.59V21.69h4.52c1.4,0,2.3-.26,2.71-.79a3.8,3.8,0,0,0,.58-2.43c0-1.14-.25-1.87-.74-2.19a6.37,6.37,0,0,0-3-.47c-2,0-4.15,0-6.44.14L45,12.1a47.38,47.38,0,0,1,7.59-.63q4.3,0,6.09,1.23t1.79,4.37a9,9,0,0,1-.81,4.23,3.7,3.7,0,0,1-2.87,1.86v.14a4.64,4.64,0,0,1,3.31,1.84,7.89,7.89,0,0,1,1,4.21C61.11,31.9,60.51,33.73,59.25,34.85Z" transform="translate(-0.15 -0.1)"/></svg>