<svg id="b1d50a47-b251-4305-8367-6b4a6d4b7d0a" data-name="Calque 2" xmlns="http://www.w3.org/2000/svg" viewBox="0 0 40 27"><defs><style>.ac10df7b-84ab-4b14-9a7d-e2e57320008d{fill:#fff;}</style></defs><path id="f50e9460-505c-4f0f-92bc-41086210fa7e" data-name="2-3" class="ac10df7b-84ab-4b14-9a7d-e2e57320008d" d="M39,0H1A1,1,0,0,0,0,1V26a1,1,0,0,0,1,1H39a1,1,0,0,0,1-1V1A1,1,0,0,0,39,0ZM15.17,20.4H5.39V18.7a1.74,1.74,0,0,1,.44-1.24l3.38-3.64q2.47-2.58,2.46-3.94a.74.74,0,0,0-.44-.75A4.34,4.34,0,0,0,9.79,9C8.38,9,7,9,5.63,9.14l-.12-2.3a22.85,22.85,0,0,1,4.64-.48A7,7,0,0,1,13.62,7a2.67,2.67,0,0,1,1.15,2.52,5,5,0,0,1-.45,2.19,10.38,10.38,0,0,1-1.79,2.37L9,17.8a12.16,12.16,0,0,1,2-.14h4.14Zm8-4.12h-6V14.34h6Zm10.4,3.42a5.54,5.54,0,0,1-3.68,1,36.42,36.42,0,0,1-4.74-.36L25.27,18c1.49.09,2.76.14,3.8.14a3.53,3.53,0,0,0,2-.41,1.9,1.9,0,0,0,.54-1.59,2.07,2.07,0,0,0-.44-1.47,2.33,2.33,0,0,0-1.68-.43H26.91V12.18h2.58A2,2,0,0,0,31,11.73a2.21,2.21,0,0,0,.33-1.39c0-.65-.14-1.07-.42-1.25a3.59,3.59,0,0,0-1.72-.27c-1.15,0-2.37,0-3.68.08l-.14-2.2a27.12,27.12,0,0,1,4.34-.36,6.38,6.38,0,0,1,3.48.7,2.82,2.82,0,0,1,1,2.5A5.15,5.15,0,0,1,33.79,12,2.13,2.13,0,0,1,32.15,13v.08A2.68,2.68,0,0,1,34,14.15a4.51,4.51,0,0,1,.57,2.41A3.94,3.94,0,0,1,33.57,19.7Z" transform="translate(0)"/></svg>