<svg id="aa78dc1f-2318-463e-b313-d84d2d99ea49" data-name="Calque 2" xmlns="http://www.w3.org/2000/svg" viewBox="0 0 40 27"><defs><style>.e569e4f8-720e-42e2-a36e-dbdcd3fcc6d3{fill:#fff;}</style></defs><path id="b8b8d8b0-bfdf-40c6-8dcc-2a88aaa4ff7d" data-name="2-4" class="e569e4f8-720e-42e2-a36e-dbdcd3fcc6d3" d="M39,0H1A1,1,0,0,0,0,1V26a1,1,0,0,0,1,1H39a1,1,0,0,0,1-1V1A1,1,0,0,0,39,0ZM14.26,20.52H4.48v-1.7a1.74,1.74,0,0,1,.44-1.24L8.3,13.94q2.47-2.58,2.46-3.94a.74.74,0,0,0-.44-.75,4.34,4.34,0,0,0-1.44-.17c-1.41,0-2.8.06-4.16.18L4.6,7a22.85,22.85,0,0,1,4.64-.48,7,7,0,0,1,3.47.68,2.67,2.67,0,0,1,1.15,2.52,5,5,0,0,1-.45,2.19,10.38,10.38,0,0,1-1.79,2.37L8.08,17.92a12.16,12.16,0,0,1,2-.14h4.14Zm8-4.12h-6V14.46h6Zm13.26.8-1.68.28h0v3H31v-3H25.52a1.49,1.49,0,0,1-1.35-.7,1.58,1.58,0,0,1-.11-1.54l3.58-8.52h2.88l-3.28,7.94c-.09.23-.1.39,0,.5a.48.48,0,0,0,.42.16H31V11.6l.5-2.2H33.8v5.92h1.72Z" transform="translate(0)"/></svg>