<svg id="f2c9a97a-f0cf-4e0a-be7f-ec7f45e1de12" data-name="2" xmlns="http://www.w3.org/2000/svg" viewBox="0 0 69.99 47.01"><defs><style>.b84af0ae-aa97-471b-9f93-0fc814f9dfd3{fill:#fcfcfc;}</style></defs><path id="a57df354-fde2-4bfd-a698-6e860fdd73e1" data-name="2-4" class="b84af0ae-aa97-471b-9f93-0fc814f9dfd3" d="M65.68.39a6.32,6.32,0,0,0-2-.28H6.51A6.36,6.36,0,0,0,.15,6.47V40.74A6.36,6.36,0,0,0,6.51,47.1H63.78a6.36,6.36,0,0,0,6.36-6.36V6.48A6.39,6.39,0,0,0,65.68.39ZM25.46,36.28H8.34v-3a3,3,0,0,1,.77-2.17L15,24.77q4.34-4.51,4.3-6.9a1.31,1.31,0,0,0-.77-1.31,7.39,7.39,0,0,0-2.52-.3q-3.7,0-7.28.32l-.21-4a40,40,0,0,1,8.12-.83,12.11,12.11,0,0,1,6.07,1.19q2,1.18,2,4.4A9,9,0,0,1,24,21.15a17.78,17.78,0,0,1-3.13,4.14l-6.2,6.45a19.92,19.92,0,0,1,3.57-.25h7.25Zm14-7.21H29V25.68H39.46Zm23.2,1.4-2.94.5h-.07v5.31H54.72V31H45.16a2.61,2.61,0,0,1-2.36-1.23,2.8,2.8,0,0,1-.2-2.7l6.27-14.9h5L48.17,26c-.16.4-.18.69,0,.88a.86.86,0,0,0,.73.27h5.85v-6.5l.87-3.86h4.06V27.18h3Z" transform="translate(-0.15 -0.1)"/></svg>