<svg id="bbee0d3c-7a65-401a-963b-d95d341365a9" data-name="2" xmlns="http://www.w3.org/2000/svg" viewBox="0 0 69.99 47.01"><defs><style>.bdbd4f54-c433-4d49-ac5a-de6793590e14{fill:#fcfcfc;}</style></defs><path id="ecdfc485-33fc-44fe-8716-f059f77baecd" data-name="2-5" class="bdbd4f54-c433-4d49-ac5a-de6793590e14" d="M65.68.39a6.32,6.32,0,0,0-2-.28H6.51A6.36,6.36,0,0,0,.15,6.47V40.74A6.36,6.36,0,0,0,6.51,47.1H63.78a6.36,6.36,0,0,0,6.36-6.36V6.48A6.39,6.39,0,0,0,65.68.39ZM27.14,36.07H10v-3a3,3,0,0,1,.77-2.17l5.92-6.37Q21,20,21,17.66a1.31,1.31,0,0,0-.77-1.31,7.39,7.39,0,0,0-2.52-.3q-3.7,0-7.28.32l-.21-4a40,40,0,0,1,8.12-.83,12.11,12.11,0,0,1,6.07,1.19c1.34.79,2,2.26,2,4.4a9,9,0,0,1-.79,3.84,17.78,17.78,0,0,1-3.13,4.14l-6.2,6.45a19.92,19.92,0,0,1,3.57-.25h7.25Zm14-7.21H30.71V25.47H41.13Zm11.41,7.63a48.28,48.28,0,0,1-8-.77L45,31.59a60.93,60.93,0,0,0,6.23.42c1.75,0,2.93-.25,3.52-.77a3.5,3.5,0,0,0,1-2.66c.07-1.44-.26-2.38-1-2.8a13.52,13.52,0,0,0-4.62-.94l-2.94-.35a1.79,1.79,0,0,1-1.24-.63,1.85,1.85,0,0,1-.44-1.33L46,11.93H60.24l-.17,4.12H50.16l-.28,4.38,3.47.42c2.78.3,4.74,1.11,5.9,2.41A8,8,0,0,1,61,28.69Q61,36.49,52.54,36.49Z" transform="translate(-0.15 -0.1)"/></svg>