<svg id="bc08b66f-3144-470e-9cca-5ea1851a810c" data-name="Calque 2" xmlns="http://www.w3.org/2000/svg" viewBox="0 0 40 27"><defs><style>.ee2c18b7-f64f-49fb-8ecc-f96f9f6d2dfc{fill:#fff;}</style></defs><path class="ee2c18b7-f64f-49fb-8ecc-f96f9f6d2dfc" d="M39,0H1A1,1,0,0,0,0,1V26a1,1,0,0,0,1,1H39a1,1,0,0,0,1-1V1A1,1,0,0,0,39,0ZM15.22,20.4H5.44V18.7a1.74,1.74,0,0,1,.44-1.24l3.38-3.64q2.47-2.58,2.46-3.94a.74.74,0,0,0-.44-.75A4.34,4.34,0,0,0,9.84,9C8.43,9,7,9,5.68,9.14l-.12-2.3a22.85,22.85,0,0,1,4.64-.48A7,7,0,0,1,13.67,7a2.67,2.67,0,0,1,1.15,2.52,5,5,0,0,1-.45,2.19,10.38,10.38,0,0,1-1.79,2.37L9,17.8a12.16,12.16,0,0,1,2-.14h4.14Zm8-4.12h-6V14.34h6Zm6.52,4.36a28.32,28.32,0,0,1-4.6-.44l.28-2.36a34.84,34.84,0,0,0,3.56.24,3.26,3.26,0,0,0,2-.44,2,2,0,0,0,.55-1.52c0-.83-.15-1.36-.58-1.6A7.72,7.72,0,0,0,28.32,14l-1.68-.2a1,1,0,0,1-.71-.36,1.08,1.08,0,0,1-.25-.76L26,6.6h8.12L34,9H28.38l-.16,2.5,2,.24a5.06,5.06,0,0,1,3.37,1.38,4.53,4.53,0,0,1,1,3.1Q34.56,20.64,29.74,20.64Z" transform="translate(0)"/></svg>