<svg id="f7b3f686-b31c-4393-982a-890569092ec4" data-name="Calque 2" xmlns="http://www.w3.org/2000/svg" viewBox="0 0 40 27"><defs><style>.b54c69ae-6d48-418f-871e-de0c3198b8b0{fill:#fff;}</style></defs><g id="fda33cb4-132e-4e07-a0b4-f7ac54de429a" data-name="2-6"><path class="b54c69ae-6d48-418f-871e-de0c3198b8b0" d="M30.13,13.52a4,4,0,0,0-2.18.72,9.49,9.49,0,0,0,.38,3.33c.24.49.84.73,1.8.73s1.37-.18,1.6-.55a4.13,4.13,0,0,0,.34-2A2.84,2.84,0,0,0,31.68,14,2,2,0,0,0,30.13,13.52Z" transform="translate(0)"/><path class="b54c69ae-6d48-418f-871e-de0c3198b8b0" d="M39,0H1A1,1,0,0,0,0,1V26a1,1,0,0,0,1,1H39a1,1,0,0,0,1-1V1A1,1,0,0,0,39,0ZM14.83,20.4H5.05V18.7a1.74,1.74,0,0,1,.44-1.24l3.38-3.64q2.47-2.58,2.46-3.94a.74.74,0,0,0-.44-.75A4.34,4.34,0,0,0,9.45,9C8,9,6.65,9,5.29,9.14l-.12-2.3a22.85,22.85,0,0,1,4.64-.48A7,7,0,0,1,13.28,7a2.67,2.67,0,0,1,1.15,2.52A5,5,0,0,1,14,11.75a10.38,10.38,0,0,1-1.79,2.37L8.65,17.8a12.16,12.16,0,0,1,2-.14h4.14Zm8-4.12h-6V14.34h6Zm11.92,1.54A4,4,0,0,1,34,19.35a2.89,2.89,0,0,1-1.48,1,8.07,8.07,0,0,1-2.45.31A6.43,6.43,0,0,1,27,20,3.38,3.38,0,0,1,25.45,18,16.12,16.12,0,0,1,25,13.64a17.92,17.92,0,0,1,.24-3.18,7.11,7.11,0,0,1,.67-2.1A3.23,3.23,0,0,1,27.1,7.11a4.66,4.66,0,0,1,1.59-.6,12.08,12.08,0,0,1,2.08-.15A12.44,12.44,0,0,1,34,6.72l-.16,2c-.69,0-1.73,0-3.1,0a2.7,2.7,0,0,0-2.13.68A5.42,5.42,0,0,0,28,12.3a4.34,4.34,0,0,1,3-1,3.94,3.94,0,0,1,3.09,1A5.22,5.22,0,0,1,35,15.68,9.85,9.85,0,0,1,34.75,17.82Z" transform="translate(0)"/></g></svg>