<svg id="e304910f-1704-4afd-baae-a363a35a0623" data-name="2" xmlns="http://www.w3.org/2000/svg" viewBox="0 0 69.99 47.01"><defs><style>.efaacf45-adec-4515-8f64-28d2c354976c{fill:#fcfcfc;}</style></defs><g id="b7889332-6260-4d10-adbc-4997c2fa6390" data-name="2-6"><path class="efaacf45-adec-4515-8f64-28d2c354976c" d="M53.23,24a6.91,6.91,0,0,0-3.82,1.27q0,4.54.67,5.82c.42.85,1.47,1.28,3.15,1.28,1.47,0,2.4-.32,2.8-1a7.38,7.38,0,0,0,.59-3.52,5,5,0,0,0-.68-3.08A3.47,3.47,0,0,0,53.23,24Z" transform="translate(-0.15 -0.1)"/><path class="efaacf45-adec-4515-8f64-28d2c354976c" d="M65.68.39a6.32,6.32,0,0,0-2-.28H6.51A6.36,6.36,0,0,0,.15,6.47V40.74A6.36,6.36,0,0,0,6.51,47.1H63.78a6.36,6.36,0,0,0,6.36-6.36V6.48A6.39,6.39,0,0,0,65.68.39ZM26.45,36.07H9.34v-3a3,3,0,0,1,.77-2.17L16,24.56c2.9-3,4.33-5.31,4.31-6.9a1.32,1.32,0,0,0-.77-1.31,7.39,7.39,0,0,0-2.52-.3c-2.48,0-4.9.11-7.28.32l-.21-4a39.89,39.89,0,0,1,8.12-.83,12.14,12.14,0,0,1,6.07,1.19q2,1.19,2,4.4A9,9,0,0,1,25,20.94a17.6,17.6,0,0,1-3.14,4.14l-6.19,6.45a19.77,19.77,0,0,1,3.57-.25h7.24Zm14-7.21H30V25.47H40.45Zm20.86,2.7a7,7,0,0,1-1.24,2.68A5.11,5.11,0,0,1,57.48,36a14.37,14.37,0,0,1-4.29.54,11.4,11.4,0,0,1-5.51-1.06A5.88,5.88,0,0,1,45,31.79a27.73,27.73,0,0,1-.77-7.55,31.26,31.26,0,0,1,.42-5.56A12.68,12.68,0,0,1,45.86,15a5.51,5.51,0,0,1,2.06-2.19,8,8,0,0,1,2.79-1.05,20.7,20.7,0,0,1,3.64-.26,21.79,21.79,0,0,1,5.7.63l-.28,3.5c-1.21-.05-3-.07-5.42-.07-1.82,0-3.07.39-3.73,1.19s-1.06,2.5-1.17,5.14a7.58,7.58,0,0,1,5.32-1.75q3.91,0,5.4,1.73c1,1.16,1.49,3.13,1.49,5.94A17,17,0,0,1,61.31,31.56Z" transform="translate(-0.15 -0.1)"/></g></svg>