<svg id="a2cdbbad-2ea7-4260-9911-10ddde305152" data-name="2" xmlns="http://www.w3.org/2000/svg" viewBox="0 0 69.99 47.01"><defs><style>.f0017dff-e7ba-48dd-a322-1d1bc35adb00{fill:#fcfcfc;}</style></defs><path id="f4e3d3a7-f830-471a-8682-ff0f878ca09a" data-name="2-7" class="f0017dff-e7ba-48dd-a322-1d1bc35adb00" d="M65.68.39a6.32,6.32,0,0,0-2-.28H6.51A6.36,6.36,0,0,0,.15,6.47V40.74A6.36,6.36,0,0,0,6.51,47.1H63.78a6.36,6.36,0,0,0,6.36-6.36V6.48A6.39,6.39,0,0,0,65.68.39ZM27.84,36.28H10.72v-3a3,3,0,0,1,.77-2.17l5.92-6.37c2.89-3,4.33-5.31,4.3-6.9a1.31,1.31,0,0,0-.77-1.31,7.39,7.39,0,0,0-2.52-.3q-3.71,0-7.28.32l-.21-4a40,40,0,0,1,8.12-.83,12.18,12.18,0,0,1,6.08,1.19q2,1.18,2,4.4a8.81,8.81,0,0,1-.79,3.84,17.5,17.5,0,0,1-3.13,4.14L17,31.74a19.92,19.92,0,0,1,3.57-.25h7.25Zm14-7.21H31.41V25.68H41.84ZM60.11,15,52.79,36.28H47.54l6.13-17.5a10.57,10.57,0,0,1,1-2.27h-11l-.21-4.37H58a2.24,2.24,0,0,1,1.94.82A2,2,0,0,1,60.11,15Z" transform="translate(-0.15 -0.1)"/></svg>