<svg id="ab588d79-5689-41e1-9140-b9864d6806eb" data-name="Calque 2" xmlns="http://www.w3.org/2000/svg" viewBox="0 0 40 27"><defs><style>.bc43f811-817e-4229-b65c-f9baec6190bb{fill:#fff;}</style></defs><path id="b75617f1-19b4-4677-98d6-d832348858b5" data-name="2-7" class="bc43f811-817e-4229-b65c-f9baec6190bb" d="M39,0H1A1,1,0,0,0,0,1V26a1,1,0,0,0,1,1H39a1,1,0,0,0,1-1V1A1,1,0,0,0,39,0ZM15.62,20.52H5.84v-1.7a1.74,1.74,0,0,1,.44-1.24l3.38-3.64q2.48-2.58,2.46-3.94a.74.74,0,0,0-.44-.75,4.34,4.34,0,0,0-1.44-.17c-1.41,0-2.8.06-4.16.18L6,7a22.85,22.85,0,0,1,4.64-.48,7,7,0,0,1,3.47.68,2.67,2.67,0,0,1,1.15,2.52,5,5,0,0,1-.45,2.19A10.09,10.09,0,0,1,13,14.24L9.44,17.92a12.16,12.16,0,0,1,2-.14h4.14Zm8-4.12h-6V14.46h6ZM34.06,8.34,29.88,20.52h-3l3.5-10A6,6,0,0,1,31,9.22H24.68l-.12-2.5h8.28A1.29,1.29,0,0,1,34,7.19,1.18,1.18,0,0,1,34.06,8.34Z" transform="translate(0)"/></svg>