<svg id="be9cbd78-e13f-4ba7-b6e9-0236e8ba2e93" data-name="2" xmlns="http://www.w3.org/2000/svg" viewBox="0 0 69.99 47.01"><defs><style>.a798a456-0e3c-4313-91cb-eb1c232fb28a{fill:#fcfcfc;}</style></defs><g id="bda58f15-baad-4c2e-987a-6e9dfa1b55b8" data-name="2-8"><path class="a798a456-0e3c-4313-91cb-eb1c232fb28a" d="M53.09,25.38a5.16,5.16,0,0,0-3.26.72A3.79,3.79,0,0,0,49,29a3.53,3.53,0,0,0,.8,2.73,5.17,5.17,0,0,0,3.22.7,4.86,4.86,0,0,0,3.12-.7A3.66,3.66,0,0,0,56.94,29a4,4,0,0,0-.76-2.87A4.8,4.8,0,0,0,53.09,25.38Z" transform="translate(-0.15 -0.1)"/><path class="a798a456-0e3c-4313-91cb-eb1c232fb28a" d="M65.68.39a6.32,6.32,0,0,0-2-.28H6.51A6.36,6.36,0,0,0,.15,6.47V40.74A6.36,6.36,0,0,0,6.51,47.1H63.78a6.36,6.36,0,0,0,6.36-6.36V6.48A6.39,6.39,0,0,0,65.68.39ZM26.14,36.06H9v-3a3,3,0,0,1,.77-2.17l5.92-6.37c2.89-3,4.33-5.31,4.3-6.89a1.32,1.32,0,0,0-.77-1.32A7.72,7.72,0,0,0,16.72,16q-3.7,0-7.28.31l-.21-4a40.05,40.05,0,0,1,8.12-.84,12.18,12.18,0,0,1,6.08,1.19q2,1.19,2,4.41a8.8,8.8,0,0,1-.79,3.83,17.72,17.72,0,0,1-3.13,4.15l-6.2,6.44a19.92,19.92,0,0,1,3.57-.25h7.25Zm14-7.21H29.71v-3.4H40.14Zm20,6.17c-1.24,1-3.6,1.47-7.1,1.49s-5.85-.46-7.11-1.45S44,32.39,44,30Q44,24,48.19,23.6v-.14a3.38,3.38,0,0,1-2.7-1.74,7.54,7.54,0,0,1-.87-3.79c0-2.36.57-4,1.73-5s3.38-1.45,6.67-1.45,5.51.48,6.66,1.45,1.74,2.63,1.74,5a7.33,7.33,0,0,1-.9,3.79,3.38,3.38,0,0,1-2.67,1.74v.14a3.77,3.77,0,0,1,3.22,1.89A9.66,9.66,0,0,1,62,30C62,32.39,61.36,34.06,60.12,35Z" transform="translate(-0.15 -0.1)"/><path class="a798a456-0e3c-4313-91cb-eb1c232fb28a" d="M53.09,21.67a4.45,4.45,0,0,0,2.83-.61,3.4,3.4,0,0,0,.67-2.5A3.61,3.61,0,0,0,55.9,16a4.35,4.35,0,0,0-2.85-.65,4.6,4.6,0,0,0-2.92.65,3.51,3.51,0,0,0-.72,2.61A3.22,3.22,0,0,0,50.15,21,4.79,4.79,0,0,0,53.09,21.67Z" transform="translate(-0.15 -0.1)"/></g></svg>