<svg id="af17bb1f-11e2-4c6b-a62c-bdbeb4ecf704" data-name="Calque 2" xmlns="http://www.w3.org/2000/svg" viewBox="0 0 40 27"><defs><style>.a108097f-c92a-4b95-96d5-9dfa7e2d2bfe{fill:#fff;}</style></defs><g id="aa3c10e6-799f-40b9-a87c-af8d40269d4a" data-name="2-8"><path class="a108097f-c92a-4b95-96d5-9dfa7e2d2bfe" d="M30.05,12.17a2.56,2.56,0,0,0,1.62-.35,2,2,0,0,0,.38-1.43,2.08,2.08,0,0,0-.39-1.49A2.47,2.47,0,0,0,30,8.53a2.6,2.6,0,0,0-1.67.37A2,2,0,0,0,28,10.39a1.84,1.84,0,0,0,.42,1.42A2.74,2.74,0,0,0,30.05,12.17Z" transform="translate(0)"/><path class="a108097f-c92a-4b95-96d5-9dfa7e2d2bfe" d="M39,0H1A1,1,0,0,0,0,1V26a1,1,0,0,0,1,1H39a1,1,0,0,0,1-1V1A1,1,0,0,0,39,0ZM14.65,20.39H4.87v-1.7a1.74,1.74,0,0,1,.44-1.24l3.38-3.64q2.47-2.58,2.46-3.94a.74.74,0,0,0-.44-.75A4.34,4.34,0,0,0,9.27,9c-1.41,0-2.8.06-4.16.18L5,6.83a22.85,22.85,0,0,1,4.64-.48A7,7,0,0,1,13.1,7a2.67,2.67,0,0,1,1.15,2.52,5,5,0,0,1-.45,2.19A10.38,10.38,0,0,1,12,14.11L8.47,17.79a12.16,12.16,0,0,1,2-.14h4.14Zm8-4.12h-6V14.33h6ZM34.07,19.8c-.71.55-2.06.84-4.06.85s-3.34-.26-4.06-.83A3.44,3.44,0,0,1,24.87,17c0-2.31.79-3.53,2.38-3.68v-.08a1.93,1.93,0,0,1-1.54-1,4.33,4.33,0,0,1-.5-2.17,3.54,3.54,0,0,1,1-2.85c.66-.55,1.93-.83,3.81-.83s3.15.28,3.81.83a3.54,3.54,0,0,1,1,2.85,4.22,4.22,0,0,1-.51,2.17,1.94,1.94,0,0,1-1.53,1v.08a2.15,2.15,0,0,1,1.84,1.08,5.45,5.45,0,0,1,.52,2.6A3.4,3.4,0,0,1,34.07,19.8Z" transform="translate(0)"/><path class="a108097f-c92a-4b95-96d5-9dfa7e2d2bfe" d="M30.05,14.29a3,3,0,0,0-1.86.41,2.16,2.16,0,0,0-.46,1.63,2,2,0,0,0,.46,1.56,3,3,0,0,0,1.84.4,2.76,2.76,0,0,0,1.78-.4,2.12,2.12,0,0,0,.44-1.56,2.26,2.26,0,0,0-.43-1.64A2.72,2.72,0,0,0,30.05,14.29Z" transform="translate(0)"/></g></svg>