<svg id="b7f7345e-c4bc-4c97-bc38-8e266b37c30d" data-name="Calque 2" xmlns="http://www.w3.org/2000/svg" viewBox="0 0 40 27"><defs><style>.bb918b9a-aa8f-45a2-a2ee-db8885afd319{fill:#fff;}</style></defs><g id="bbbdc458-bbc9-49a0-8426-697a24288105" data-name="2-9"><path class="bb918b9a-aa8f-45a2-a2ee-db8885afd319" d="M29.8,8.68c-.83,0-1.37.19-1.62.58a3.81,3.81,0,0,0-.36,2A2.78,2.78,0,0,0,28.21,13a1.85,1.85,0,0,0,1.51.51,3.94,3.94,0,0,0,2.18-.76,9.71,9.71,0,0,0-.35-3.32C31.32,8.93,30.73,8.68,29.8,8.68Z" transform="translate(0)"/><path class="bb918b9a-aa8f-45a2-a2ee-db8885afd319" d="M39,0H1A1,1,0,0,0,0,1V26a1,1,0,0,0,1,1H39a1,1,0,0,0,1-1V1A1,1,0,0,0,39,0ZM15,20.4H5.18V18.7a1.74,1.74,0,0,1,.44-1.24L9,13.82q2.48-2.58,2.46-3.94A.74.74,0,0,0,11,9.13,4.34,4.34,0,0,0,9.58,9c-1.41,0-2.8.06-4.16.18L5.3,6.84a22.85,22.85,0,0,1,4.64-.48A7,7,0,0,1,13.41,7a2.67,2.67,0,0,1,1.15,2.52,5,5,0,0,1-.45,2.19,10.38,10.38,0,0,1-1.79,2.37L8.78,17.8a12.16,12.16,0,0,1,2-.14H15Zm8-4.12H17V14.34h6Zm11.57.82a4.47,4.47,0,0,1-1,2.21,3.63,3.63,0,0,1-1.75,1.06,10.64,10.64,0,0,1-2.67.27,15,15,0,0,1-3.54-.36l.18-2c.75,0,1.86,0,3.34,0a2.6,2.6,0,0,0,2.15-.75,5.29,5.29,0,0,0,.67-2.89,4.35,4.35,0,0,1-3.06,1Q25,15.7,25,11.32A5.43,5.43,0,0,1,26,7.52c.72-.77,2-1.16,3.8-1.16A9.17,9.17,0,0,1,32,6.57a3.78,3.78,0,0,1,1.43.66,2.74,2.74,0,0,1,.88,1.31,8.85,8.85,0,0,1,.42,2,27.48,27.48,0,0,1,.12,2.85A19.67,19.67,0,0,1,34.53,17.1Z" transform="translate(0)"/></g></svg>