<svg id="f6e07312-8f03-4844-9c98-f6c0aac643f9" data-name="2" xmlns="http://www.w3.org/2000/svg" viewBox="0 0 69.99 47.01"><defs><style>.f05e1d05-764e-432f-a95d-f5ed308f0fdc{fill:#fcfcfc;}</style></defs><g id="a9f4ebbc-e2a1-49fa-96cf-cb1fe220151a" data-name="2-9"><path class="f05e1d05-764e-432f-a95d-f5ed308f0fdc" d="M65.68.39a6.32,6.32,0,0,0-2-.28H6.51A6.36,6.36,0,0,0,.15,6.47V40.74A6.36,6.36,0,0,0,6.51,47.1H63.78a6.36,6.36,0,0,0,6.36-6.36V6.48A6.39,6.39,0,0,0,65.68.39Zm-39,35.68H9.57v-3a3,3,0,0,1,.77-2.17l5.91-6.37q4.34-4.51,4.31-6.9a1.32,1.32,0,0,0-.77-1.31,7.39,7.39,0,0,0-2.52-.3c-2.48,0-4.9.11-7.28.32l-.21-4a39.89,39.89,0,0,1,8.12-.83A12.14,12.14,0,0,1,24,12.7q2,1.19,2,4.4a8.81,8.81,0,0,1-.79,3.84,17.5,17.5,0,0,1-3.13,4.14l-6.19,6.45a19.77,19.77,0,0,1,3.57-.25h7.24Zm14-7.21H30.25V25.47H40.68ZM60.93,30.3a7.77,7.77,0,0,1-1.81,3.87A6.33,6.33,0,0,1,56.06,36a18.44,18.44,0,0,1-4.67.47,26.31,26.31,0,0,1-6.2-.63l.32-3.53c1.31.05,3.25.07,5.84.07,1.82,0,3.08-.44,3.77-1.31S56.2,28.53,56.29,26a7.58,7.58,0,0,1-5.36,1.82q-6.75,0-6.75-7.67c0-3.08.59-5.29,1.85-6.65s3.48-2,6.65-2a16.48,16.48,0,0,1,3.77.36A6.64,6.64,0,0,1,59,13a4.77,4.77,0,0,1,1.54,2.29,15.5,15.5,0,0,1,.73,3.45,47.94,47.94,0,0,1,.21,5A33.91,33.91,0,0,1,60.93,30.3Z" transform="translate(-0.15 -0.1)"/><path class="f05e1d05-764e-432f-a95d-f5ed308f0fdc" d="M52.65,15.57c-1.45,0-2.39.33-2.84,1a6.62,6.62,0,0,0-.63,3.5,4.81,4.81,0,0,0,.69,3,3.26,3.26,0,0,0,2.64.89,6.89,6.89,0,0,0,3.81-1.33q0-4.52-.61-5.81T52.65,15.57Z" transform="translate(-0.15 -0.1)"/></g></svg>