<svg id="fea2aca5-92ab-4b83-b5da-12f11e290070" data-name="3" xmlns="http://www.w3.org/2000/svg" viewBox="0 0 69.99 47.01"><defs><style>.a4debfdc-03d5-427c-a618-5995990e3c81{fill:#fcfcfc;}</style></defs><path id="b10d07a4-be28-4432-85b2-b0edc0ceb003" data-name="3" class="a4debfdc-03d5-427c-a618-5995990e3c81" d="M65.68.39a6.32,6.32,0,0,0-2-.28H6.51A6.36,6.36,0,0,0,.15,6.47V40.74A6.36,6.36,0,0,0,6.51,47.1H63.78a6.36,6.36,0,0,0,6.36-6.36V6.48A6.39,6.39,0,0,0,65.68.39ZM42,34.85q-1.89,1.68-6.44,1.68a63.8,63.8,0,0,1-8.3-.63l.21-4c2.61.16,4.83.25,6.65.25a6.1,6.1,0,0,0,3.5-.72,3.34,3.34,0,0,0,1-2.78,3.63,3.63,0,0,0-.77-2.58,4.1,4.1,0,0,0-2.94-.75H30.3V21.69h4.52c1.4,0,2.3-.26,2.71-.79a3.8,3.8,0,0,0,.58-2.43c0-1.14-.25-1.87-.74-2.19a6.37,6.37,0,0,0-3-.47c-2,0-4.15,0-6.44.14l-.24-3.85a47.38,47.38,0,0,1,7.59-.63q4.31,0,6.09,1.23t1.79,4.37a9,9,0,0,1-.81,4.23,3.7,3.7,0,0,1-2.87,1.86v.14a4.64,4.64,0,0,1,3.31,1.84,7.89,7.89,0,0,1,1,4.21C43.82,31.9,43.22,33.73,42,34.85Z" transform="translate(-0.15 -0.1)"/></svg>