<svg id="b5fd02a4-09b3-4721-9f59-cb236a02ad9f" data-name="3" xmlns="http://www.w3.org/2000/svg" viewBox="0 0 69.99 47.01"><defs><style>.b91dcfd8-f7bb-4ddb-a748-e9d8f53ce9d2{fill:#fcfcfc;}</style></defs><path id="fd7bf3cc-373a-4225-97bd-19db8cac01a8" data-name="3+" class="b91dcfd8-f7bb-4ddb-a748-e9d8f53ce9d2" d="M65.68.39a6.32,6.32,0,0,0-2-.28H6.51A6.36,6.36,0,0,0,.15,6.47V40.74A6.36,6.36,0,0,0,6.51,47.1H63.78a6.36,6.36,0,0,0,6.36-6.36V6.48A6.39,6.39,0,0,0,65.68.39ZM32.35,34.85q-1.89,1.68-6.44,1.68a63.66,63.66,0,0,1-8.29-.63l.21-4c2.61.16,4.83.25,6.65.25a6.12,6.12,0,0,0,3.5-.72,3.37,3.37,0,0,0,.94-2.78,3.63,3.63,0,0,0-.77-2.58,4.06,4.06,0,0,0-2.94-.75H20.7V21.69h4.51c1.4,0,2.3-.26,2.71-.79a3.8,3.8,0,0,0,.58-2.43c0-1.14-.25-1.87-.74-2.19a6.35,6.35,0,0,0-3-.47q-3,0-6.45.14l-.24-3.85a47.41,47.41,0,0,1,7.6-.63q4.3,0,6.08,1.23t1.79,4.37a9.17,9.17,0,0,1-.8,4.23,3.72,3.72,0,0,1-2.88,1.86v.14a4.62,4.62,0,0,1,3.31,1.84,7.8,7.8,0,0,1,1,4.21Q34.24,33.17,32.35,34.85Zm21-7.42H47.33v5.85H43.52V27.43H37.46V23.65h6V17.77h3.85v5.88h6.05Z" transform="translate(-0.15 -0.1)"/></svg>