<svg id="e8cfa95a-9055-4d4c-b6a9-6cf6618134e8" data-name="Calque 3" xmlns="http://www.w3.org/2000/svg" viewBox="0 0 40 27"><defs><style>.bbe4a94f-19a0-4af4-b9a5-67a5b8f024c3{fill:#fff;}</style></defs><path id="ad6bde2a-b734-4745-8348-dbd42cbb59c8" data-name="3+" class="bbe4a94f-19a0-4af4-b9a5-67a5b8f024c3" d="M39,0H1A1,1,0,0,0,0,1V26a1,1,0,0,0,1,1H39a1,1,0,0,0,1-1V1A1,1,0,0,0,39,0ZM18.2,19.7a5.54,5.54,0,0,1-3.68,1,36.42,36.42,0,0,1-4.74-.36L9.9,18c1.49.09,2.76.14,3.8.14a3.53,3.53,0,0,0,2-.41,1.9,1.9,0,0,0,.54-1.59,2.07,2.07,0,0,0-.44-1.47,2.31,2.31,0,0,0-1.68-.43H11.54V12.18h2.58c.8,0,1.32-.15,1.55-.45A2.21,2.21,0,0,0,16,10.34c0-.65-.14-1.07-.42-1.25a3.59,3.59,0,0,0-1.72-.27c-1.15,0-2.37,0-3.68.08L10,6.7a27.12,27.12,0,0,1,4.34-.36,6.38,6.38,0,0,1,3.48.7,2.82,2.82,0,0,1,1,2.5A5.15,5.15,0,0,1,18.42,12,2.13,2.13,0,0,1,16.78,13v.08a2.68,2.68,0,0,1,1.89,1.05,4.42,4.42,0,0,1,.57,2.41A3.9,3.9,0,0,1,18.2,19.7Zm12-4.24H26.76V18.8H24.58V15.46H21.12V13.3h3.44V9.94h2.2V13.3h3.46Z" transform="translate(0)"/></svg>