<svg id="acb5762a-6b2b-4e7b-ab72-12297dd4efd5" data-name="3" xmlns="http://www.w3.org/2000/svg" viewBox="0 0 69.99 47.01"><defs><style>.b4a30d3d-8ee5-4d9d-824d-899d137f0cfc{fill:#fcfcfc;}</style></defs><path id="e51ca57f-f089-4de7-be8c-aece444757ea" data-name="3-11" class="b4a30d3d-8ee5-4d9d-824d-899d137f0cfc" d="M65.68.39a6.32,6.32,0,0,0-2-.28H6.51A6.36,6.36,0,0,0,.15,6.47V40.74A6.36,6.36,0,0,0,6.51,47.1H63.78a6.36,6.36,0,0,0,6.36-6.36V6.48A6.39,6.39,0,0,0,65.68.39ZM20.94,34.85Q19,36.53,14.5,36.53a63.66,63.66,0,0,1-8.29-.63l.21-4c2.61.16,4.83.25,6.65.25a6.1,6.1,0,0,0,3.5-.72,3.34,3.34,0,0,0,.94-2.78,3.63,3.63,0,0,0-.77-2.58,4.06,4.06,0,0,0-2.94-.75H9.29V21.69H13.8c1.4,0,2.3-.26,2.71-.79a3.8,3.8,0,0,0,.58-2.43c0-1.14-.24-1.87-.73-2.19a6.4,6.4,0,0,0-3-.47q-3,0-6.44.14L6.66,12.1a47.41,47.41,0,0,1,7.6-.63q4.3,0,6.09,1.23t1.78,4.37a9.17,9.17,0,0,1-.8,4.23,3.72,3.72,0,0,1-2.87,1.86v.14a4.62,4.62,0,0,1,3.3,1.84,7.8,7.8,0,0,1,1,4.21Q22.83,33.17,20.94,34.85Zm16.1-6H26.61V25.47H37Zm12.74,7.21H44.46v-17a14.06,14.06,0,0,1,.21-2.63L39,17.91l-.63-3.57,6.06-2.41h5.32Zm15,0H59.47v-17a14.06,14.06,0,0,1,.21-2.63l-5.63,1.47-.63-3.57,6-2.41h5.32Z" transform="translate(-0.15 -0.1)"/></svg>