<svg id="a25abfb3-d9fc-43bd-9bb5-b2bef73aa6af" data-name="Calque 3" xmlns="http://www.w3.org/2000/svg" viewBox="0 0 40 27"><defs><style>.bb1a4ae9-97e2-4a67-842b-554eff29865a{fill:#fff;}</style></defs><path id="b16399bd-70da-4b87-82cf-60c209002734" data-name="3-11" class="bb1a4ae9-97e2-4a67-842b-554eff29865a" d="M39,0H1A1,1,0,0,0,0,1V26a1,1,0,0,0,1,1H39a1,1,0,0,0,1-1V1A1,1,0,0,0,39,0ZM11.68,19.7a5.54,5.54,0,0,1-3.68,1,36.42,36.42,0,0,1-4.74-.36L3.38,18c1.49.09,2.76.14,3.8.14a3.53,3.53,0,0,0,2-.41,1.9,1.9,0,0,0,.54-1.59,2.07,2.07,0,0,0-.44-1.47,2.31,2.31,0,0,0-1.68-.43H5V12.18H7.6c.8,0,1.32-.15,1.55-.45a2.21,2.21,0,0,0,.33-1.39c0-.65-.14-1.07-.42-1.25a3.59,3.59,0,0,0-1.72-.27c-1.15,0-2.37,0-3.68.08L3.52,6.7a27.12,27.12,0,0,1,4.34-.36,6.38,6.38,0,0,1,3.48.7,2.82,2.82,0,0,1,1,2.5A5.15,5.15,0,0,1,11.9,12,2.13,2.13,0,0,1,10.26,13v.08a2.68,2.68,0,0,1,1.89,1.05,4.42,4.42,0,0,1,.57,2.41A3.9,3.9,0,0,1,11.68,19.7Zm9.2-3.42h-6V14.34h6Zm7.28,4.12h-3V10.68a8,8,0,0,1,.12-1.5L22,10l-.36-2L25.12,6.6h3Zm8.58,0h-3V10.68a8,8,0,0,1,.12-1.5L30.6,10l-.36-2L33.7,6.6h3Z" transform="translate(0)"/></svg>