<svg id="be38270d-2539-4d32-9ea6-4f7338da595f" data-name="3" xmlns="http://www.w3.org/2000/svg" viewBox="0 0 69.99 47.01"><defs><style>.b9eb72f2-a525-4cbd-a692-9187922db635{fill:#fcfcfc;}</style></defs><g id="a6283e7b-5ad9-4057-a271-e23a7affb0c6" data-name="3-10"><path class="b9eb72f2-a525-4cbd-a692-9187922db635" d="M59.72,15.7a3.19,3.19,0,0,0-3.17,1.7q-.82,1.7-.82,6.6t.82,6.6a3.19,3.19,0,0,0,3.17,1.7A3.27,3.27,0,0,0,63,30.6q.84-1.7.84-6.6T63,17.4A3.27,3.27,0,0,0,59.72,15.7Z" transform="translate(-0.15 -0.1)"/><path class="b9eb72f2-a525-4cbd-a692-9187922db635" d="M65.68.39a6.32,6.32,0,0,0-2-.28H6.51A6.36,6.36,0,0,0,.15,6.47V40.74A6.36,6.36,0,0,0,6.51,47.1H63.78a6.36,6.36,0,0,0,6.36-6.36V6.48A6.39,6.39,0,0,0,65.68.39Zm-49,34.46q-1.89,1.68-6.44,1.68a63.66,63.66,0,0,1-8.29-.63l.21-4c2.61.16,4.83.25,6.65.25a6.1,6.1,0,0,0,3.5-.72,3.37,3.37,0,0,0,.94-2.78,3.63,3.63,0,0,0-.77-2.58,4.06,4.06,0,0,0-2.94-.75H5V21.69H9.53c1.4,0,2.3-.26,2.71-.79a3.8,3.8,0,0,0,.58-2.43c0-1.14-.24-1.87-.74-2.19a6.35,6.35,0,0,0-3-.47q-3,0-6.44.14L2.39,12.1a47.41,47.41,0,0,1,7.6-.63q4.3,0,6.09,1.23c1.18.81,1.78,2.27,1.78,4.37a9.17,9.17,0,0,1-.8,4.23,3.72,3.72,0,0,1-2.88,1.86v.14a4.62,4.62,0,0,1,3.31,1.84,7.8,7.8,0,0,1,1,4.21Q18.56,33.17,16.67,34.85Zm16.1-6H22.34V25.47H32.77Zm12.74,7.21H40.19v-17a14.06,14.06,0,0,1,.21-2.63l-5.64,1.47-.63-3.57,6.06-2.41h5.32ZM67,33.73c-1.38,1.87-3.79,2.8-7.25,2.8s-5.83-.93-7.21-2.8S50.48,28.62,50.48,24s.69-7.86,2.06-9.73,3.78-2.8,7.21-2.8,5.87.93,7.25,2.8,2.06,5.11,2.06,9.73S68.38,31.86,67,33.73Z" transform="translate(-0.15 -0.1)"/></g></svg>