<svg id="b0953f13-84e8-4f2e-8ed0-9960af2fc336" data-name="3" xmlns="http://www.w3.org/2000/svg" viewBox="0 0 69.99 47.01"><defs><style>.f3a9402b-8065-4790-8286-67449d9d5190{fill:#fcfcfc;}</style></defs><path id="a6407c18-087f-4a37-b969-0abaf4e25dc2" data-name="3-12" class="f3a9402b-8065-4790-8286-67449d9d5190" d="M65.68.39a6.32,6.32,0,0,0-2-.28H6.51A6.36,6.36,0,0,0,.15,6.47V40.74A6.36,6.36,0,0,0,6.51,47.1H63.78a6.36,6.36,0,0,0,6.36-6.36V6.48A6.39,6.39,0,0,0,65.68.39ZM17.48,34.85Q15.59,36.53,11,36.53a63.8,63.8,0,0,1-8.3-.63l.21-4c2.61.16,4.83.25,6.65.25a6.1,6.1,0,0,0,3.5-.72,3.34,3.34,0,0,0,1-2.78,3.63,3.63,0,0,0-.77-2.58,4.1,4.1,0,0,0-2.94-.75H5.82V21.69h4.52c1.4,0,2.3-.26,2.71-.79a3.8,3.8,0,0,0,.58-2.43c0-1.14-.25-1.87-.74-2.19a6.37,6.37,0,0,0-3-.47c-2,0-4.15,0-6.44.14L3.2,12.1a47.38,47.38,0,0,1,7.59-.63q4.31,0,6.09,1.23t1.79,4.37a9,9,0,0,1-.81,4.23A3.7,3.7,0,0,1,15,23.16v.14a4.64,4.64,0,0,1,3.31,1.84,7.89,7.89,0,0,1,1,4.21C19.34,31.9,18.74,33.73,17.48,34.85Zm16.09-6H23.15V25.47H33.57Zm12.74,7.21H41v-17a14.06,14.06,0,0,1,.21-2.63l-5.63,1.47-.63-3.57L41,11.93h5.32Zm22,0H51.14v-3a3,3,0,0,1,.77-2.17l5.92-6.37c2.89-3,4.33-5.31,4.3-6.9a1.31,1.31,0,0,0-.77-1.31,7.39,7.39,0,0,0-2.52-.3q-3.71,0-7.28.32l-.21-4a40,40,0,0,1,8.12-.83,12.18,12.18,0,0,1,6.08,1.19q2,1.19,2,4.4a8.81,8.81,0,0,1-.79,3.84,17.5,17.5,0,0,1-3.13,4.14l-6.2,6.45A19.92,19.92,0,0,1,61,31.28h7.25Z" transform="translate(-0.15 -0.1)"/></svg>