<svg id="b1c72665-c252-445f-8d4a-a61ce4a2542a" data-name="Calque 3" xmlns="http://www.w3.org/2000/svg" viewBox="0 0 40 27"><defs><style>.b289a618-17fc-41b0-b089-aa7cbcd4bc67{fill:#fff;}</style></defs><path id="bca19be9-bacb-4144-bc9d-519692d0f983" data-name="3-12" class="b289a618-17fc-41b0-b089-aa7cbcd4bc67" d="M39,0H1A1,1,0,0,0,0,1V26a1,1,0,0,0,1,1H39a1,1,0,0,0,1-1V1A1,1,0,0,0,39,0ZM9.7,19.7a5.54,5.54,0,0,1-3.68,1,36.42,36.42,0,0,1-4.74-.36L1.4,18c1.49.09,2.76.14,3.8.14a3.53,3.53,0,0,0,2-.41,1.9,1.9,0,0,0,.54-1.59,2.07,2.07,0,0,0-.44-1.47,2.31,2.31,0,0,0-1.68-.43H3V12.18H5.62c.8,0,1.32-.15,1.55-.45a2.21,2.21,0,0,0,.33-1.39c0-.65-.14-1.07-.42-1.25a3.59,3.59,0,0,0-1.72-.27c-1.15,0-2.37,0-3.68.08L1.54,6.7a27.12,27.12,0,0,1,4.34-.36A6.38,6.38,0,0,1,9.36,7a2.82,2.82,0,0,1,1,2.5A5.15,5.15,0,0,1,9.92,12,2.13,2.13,0,0,1,8.28,13v.08a2.68,2.68,0,0,1,1.89,1.05,4.42,4.42,0,0,1,.57,2.41A3.9,3.9,0,0,1,9.7,19.7Zm9.2-3.42h-6V14.34h6Zm7.28,4.12h-3V10.68a8,8,0,0,1,.12-1.5L20,10l-.36-2L23.14,6.6h3Zm12.54,0H28.94V18.7a1.74,1.74,0,0,1,.44-1.24l3.38-3.64q2.48-2.58,2.46-3.94a.74.74,0,0,0-.44-.75A4.34,4.34,0,0,0,33.34,9c-1.41,0-2.8.06-4.16.18l-.12-2.3a22.85,22.85,0,0,1,4.64-.48A7,7,0,0,1,37.17,7a2.67,2.67,0,0,1,1.15,2.52,5,5,0,0,1-.45,2.19,10.38,10.38,0,0,1-1.79,2.37L32.54,17.8a12.16,12.16,0,0,1,2-.14h4.14Z" transform="translate(0)"/></svg>