<svg id="a3f90292-9156-46fb-8e9c-36a7ea04d48b" data-name="Calque 3" xmlns="http://www.w3.org/2000/svg" viewBox="0 0 40 27"><defs><style>.a7b243b2-952f-4cf2-8326-b65597bd8195{fill:#fff;}</style></defs><g id="b45a4409-8fc3-4654-8dae-587884162085" data-name="3-10"><path class="a7b243b2-952f-4cf2-8326-b65597bd8195" d="M33.84,8.76a1.81,1.81,0,0,0-1.81,1,10,10,0,0,0-.47,3.77A10,10,0,0,0,32,17.27a1.81,1.81,0,0,0,1.81,1,1.87,1.87,0,0,0,1.86-1,9.76,9.76,0,0,0,.48-3.77,9.76,9.76,0,0,0-.48-3.77A1.87,1.87,0,0,0,33.84,8.76Z" transform="translate(0)"/><path class="a7b243b2-952f-4cf2-8326-b65597bd8195" d="M39,0H1A1,1,0,0,0,0,1V26a1,1,0,0,0,1,1H39a1,1,0,0,0,1-1V1A1,1,0,0,0,39,0ZM9.24,19.7a5.54,5.54,0,0,1-3.68,1A36.42,36.42,0,0,1,.82,20.3L.94,18c1.49.09,2.76.14,3.8.14a3.53,3.53,0,0,0,2-.41,1.9,1.9,0,0,0,.54-1.59,2.07,2.07,0,0,0-.44-1.47,2.31,2.31,0,0,0-1.68-.43H2.58V12.18H5.16c.8,0,1.32-.15,1.55-.45A2.21,2.21,0,0,0,7,10.34c0-.65-.14-1.07-.42-1.25A3.59,3.59,0,0,0,4.9,8.82c-1.15,0-2.37,0-3.68.08L1.08,6.7a27.12,27.12,0,0,1,4.34-.36A6.38,6.38,0,0,1,8.9,7a2.82,2.82,0,0,1,1,2.5A5.15,5.15,0,0,1,9.46,12,2.13,2.13,0,0,1,7.82,13v.08a2.68,2.68,0,0,1,1.89,1.05,4.42,4.42,0,0,1,.57,2.41A3.9,3.9,0,0,1,9.24,19.7Zm9.2-3.42h-6V14.34h6Zm7.28,4.12h-3V10.68a8,8,0,0,1,.12-1.5L19.58,10l-.36-2L22.68,6.6h3ZM38,19.06c-.79,1.07-2.17,1.6-4.14,1.6s-3.33-.53-4.12-1.6-1.18-2.92-1.18-5.56S29,9,29.74,7.94s2.16-1.6,4.12-1.6,3.35.53,4.14,1.6,1.18,2.92,1.18,5.56S38.79,18,38,19.06Z" transform="translate(0)"/></g></svg>