<svg id="e48a4a90-06a1-4616-b2f2-26ecb31b9638" data-name="Calque 3" xmlns="http://www.w3.org/2000/svg" viewBox="0 0 40 27"><defs><style>.e35ef3f5-edd9-4871-a7d5-9c13e65fa6a6{fill:#fff;}</style></defs><path id="ec0177c3-9c37-4610-b088-b45ca83b839a" data-name="3-4" class="e35ef3f5-edd9-4871-a7d5-9c13e65fa6a6" d="M39,0H1A1,1,0,0,0,0,1V26a1,1,0,0,0,1,1H39a1,1,0,0,0,1-1V1A1,1,0,0,0,39,0ZM13,19.7a5.54,5.54,0,0,1-3.68,1,36.42,36.42,0,0,1-4.74-.36L4.68,18c1.49.09,2.76.14,3.8.14a3.53,3.53,0,0,0,2-.41A1.9,1.9,0,0,0,11,16.16a2.07,2.07,0,0,0-.44-1.47,2.31,2.31,0,0,0-1.68-.43H6.32V12.18H8.9c.8,0,1.32-.15,1.55-.45a2.21,2.21,0,0,0,.33-1.39c0-.65-.14-1.07-.42-1.25a3.59,3.59,0,0,0-1.72-.27c-1.15,0-2.37,0-3.68.08L4.82,6.7a27.12,27.12,0,0,1,4.34-.36,6.38,6.38,0,0,1,3.48.7,2.82,2.82,0,0,1,1,2.5A5.15,5.15,0,0,1,13.2,12,2.13,2.13,0,0,1,11.56,13v.08a2.68,2.68,0,0,1,1.89,1.05A4.42,4.42,0,0,1,14,16.56,3.9,3.9,0,0,1,13,19.7Zm9.2-3.42h-6V14.34h6Zm13.26.8-1.68.28h0v3H30.9v-3H25.44a1.49,1.49,0,0,1-1.35-.7A1.58,1.58,0,0,1,24,15.12L27.56,6.6h2.88l-3.28,7.94c-.09.23-.1.39,0,.5a.48.48,0,0,0,.42.16H30.9V11.48l.5-2.2h2.32V15.2h1.72Z" transform="translate(0)"/></svg>