<svg id="bf20f19a-bd50-4a12-9860-8df865e8669a" data-name="3" xmlns="http://www.w3.org/2000/svg" viewBox="0 0 69.99 47.01"><defs><style>.b25564ee-d2c7-4b3f-8086-56814ae48901{fill:#fcfcfc;}</style></defs><path id="a6ff988f-10c3-450a-8445-7d029258b97d" data-name="3-4" class="b25564ee-d2c7-4b3f-8086-56814ae48901" d="M65.68.39a6.32,6.32,0,0,0-2-.28H6.51A6.36,6.36,0,0,0,.15,6.47V40.74A6.36,6.36,0,0,0,6.51,47.1H63.78a6.36,6.36,0,0,0,6.36-6.36V6.48A6.39,6.39,0,0,0,65.68.39ZM23.22,34.85q-1.89,1.68-6.44,1.68a63.8,63.8,0,0,1-8.3-.63l.21-4c2.61.16,4.83.25,6.65.25a6.1,6.1,0,0,0,3.5-.72,3.34,3.34,0,0,0,.95-2.78A3.63,3.63,0,0,0,19,26.08a4.1,4.1,0,0,0-2.94-.75H11.56V21.69h4.52c1.4,0,2.3-.26,2.71-.79a3.8,3.8,0,0,0,.58-2.43c0-1.14-.25-1.87-.74-2.19a6.37,6.37,0,0,0-3-.47c-2,0-4.15,0-6.44.14L8.94,12.1a47.38,47.38,0,0,1,7.59-.63q4.3,0,6.09,1.23t1.79,4.37a9,9,0,0,1-.81,4.23,3.7,3.7,0,0,1-2.87,1.86v.14A4.64,4.64,0,0,1,24,25.14a7.89,7.89,0,0,1,1,4.21C25.08,31.9,24.48,33.73,23.22,34.85Zm16.09-6H28.89V25.47H39.31Zm23.21,1.4-2.94.5h-.07v5.31H54.58V30.76H45a2.61,2.61,0,0,1-2.36-1.23,2.77,2.77,0,0,1-.19-2.7l6.26-14.9h5L48,25.82c-.16.4-.18.69,0,.88a.87.87,0,0,0,.73.27h5.85v-6.5l.87-3.86h4.06V27h3Z" transform="translate(-0.15 -0.1)"/></svg>