<svg id="f50ad9b5-fc95-42ea-b299-655ebd34ac16" data-name="3" xmlns="http://www.w3.org/2000/svg" viewBox="0 0 69.99 47.01"><defs><style>.adb88082-9028-4abf-8045-c5709af73f12{fill:#fcfcfc;}</style></defs><path id="bd096333-3c99-4a78-a75f-f06d5a629e94" data-name="3-5" class="adb88082-9028-4abf-8045-c5709af73f12" d="M65.68.39a6.32,6.32,0,0,0-2-.28H6.51A6.36,6.36,0,0,0,.15,6.47V40.74A6.36,6.36,0,0,0,6.51,47.1H63.78a6.36,6.36,0,0,0,6.36-6.36V6.48A6.39,6.39,0,0,0,65.68.39ZM24.9,34.85Q23,36.53,18.46,36.53a63.8,63.8,0,0,1-8.3-.63l.21-4c2.61.16,4.83.25,6.65.25a6.1,6.1,0,0,0,3.5-.72,3.34,3.34,0,0,0,.95-2.78,3.63,3.63,0,0,0-.77-2.58,4.11,4.11,0,0,0-2.95-.75H13.24V21.69h4.51c1.41,0,2.31-.26,2.72-.79A3.74,3.74,0,0,0,21,18.47c0-1.14-.24-1.87-.73-2.19a6.37,6.37,0,0,0-3-.47c-2,0-4.15,0-6.44.14l-.24-3.85a47.38,47.38,0,0,1,7.59-.63q4.3,0,6.09,1.23t1.78,4.37a9,9,0,0,1-.8,4.23,3.7,3.7,0,0,1-2.87,1.86v.14a4.64,4.64,0,0,1,3.31,1.84,7.89,7.89,0,0,1,1,4.21C26.76,31.9,26.16,33.73,24.9,34.85Zm16.1-6H30.57V25.47H41Zm11.4,7.63a48.28,48.28,0,0,1-8-.77l.49-4.13a60.93,60.93,0,0,0,6.23.42c1.75,0,2.93-.25,3.52-.77a3.5,3.5,0,0,0,1-2.66c.07-1.44-.26-2.38-1-2.8a13.52,13.52,0,0,0-4.62-.94L47,24.49a1.79,1.79,0,0,1-1.24-.63,1.85,1.85,0,0,1-.44-1.33l.59-10.6H60.1l-.17,4.12H50l-.28,4.38,3.47.42c2.78.3,4.74,1.11,5.9,2.41a8,8,0,0,1,1.73,5.43Q60.84,36.49,52.4,36.49Z" transform="translate(-0.15 -0.1)"/></svg>