<svg id="afd73560-d21e-4344-9be1-612b3075b9d5" data-name="Calque 3" xmlns="http://www.w3.org/2000/svg" viewBox="0 0 40 27"><defs><style>.b6f7e197-8969-4adf-b21a-a278dc495e58{fill:#fff;}</style></defs><path id="eaff42c5-35d7-401a-b605-56283555d2e8" data-name="3-5" class="b6f7e197-8969-4adf-b21a-a278dc495e58" d="M39,0H1A1,1,0,0,0,0,1V26a1,1,0,0,0,1,1H39a1,1,0,0,0,1-1V1A1,1,0,0,0,39,0ZM13.94,19.7a5.54,5.54,0,0,1-3.68,1,36.42,36.42,0,0,1-4.74-.36L5.64,18c1.49.09,2.76.14,3.8.14a3.53,3.53,0,0,0,2-.41A1.9,1.9,0,0,0,12,16.16a2.07,2.07,0,0,0-.44-1.47,2.31,2.31,0,0,0-1.68-.43H7.28V12.18H9.86c.8,0,1.32-.15,1.55-.45a2.21,2.21,0,0,0,.33-1.39c0-.65-.14-1.07-.42-1.25A3.59,3.59,0,0,0,9.6,8.82c-1.15,0-2.37,0-3.68.08L5.78,6.7a27.12,27.12,0,0,1,4.34-.36A6.38,6.38,0,0,1,13.6,7a2.82,2.82,0,0,1,1,2.5A5.15,5.15,0,0,1,14.16,12,2.13,2.13,0,0,1,12.52,13v.08a2.68,2.68,0,0,1,1.89,1.05A4.42,4.42,0,0,1,15,16.56,3.9,3.9,0,0,1,13.94,19.7Zm9.2-3.42h-6V14.34h6Zm6.52,4.36a28.32,28.32,0,0,1-4.6-.44l.28-2.36a34.84,34.84,0,0,0,3.56.24,3.26,3.26,0,0,0,2-.44,2,2,0,0,0,.55-1.52c0-.83-.15-1.36-.58-1.6A7.72,7.72,0,0,0,28.24,14l-1.68-.2a1,1,0,0,1-.71-.36,1.08,1.08,0,0,1-.25-.76l.34-6.06h8.12L34,9H28.3l-.16,2.5,2,.24a5.06,5.06,0,0,1,3.37,1.38,4.53,4.53,0,0,1,1,3.1Q34.48,20.64,29.66,20.64Z" transform="translate(0)"/></svg>