<svg id="e46fc031-95d7-4411-8cc4-6d1442734295" data-name="3" xmlns="http://www.w3.org/2000/svg" viewBox="0 0 69.99 47.01"><defs><style>.b79913af-58a4-411e-94c5-7a7e0687d475{fill:#fcfcfc;}</style></defs><g id="a6b1fffd-e500-450d-8394-1107d41b2628" data-name="3-6"><path class="b79913af-58a4-411e-94c5-7a7e0687d475" d="M53.09,24a6.88,6.88,0,0,0-3.82,1.27q0,4.54.67,5.82c.42.85,1.47,1.28,3.15,1.28,1.47,0,2.4-.32,2.8-1a7.38,7.38,0,0,0,.59-3.52,5,5,0,0,0-.68-3.08A3.49,3.49,0,0,0,53.09,24Z" transform="translate(-0.15 -0.1)"/><path class="b79913af-58a4-411e-94c5-7a7e0687d475" d="M65.68.39a6.32,6.32,0,0,0-2-.28H6.51A6.36,6.36,0,0,0,.15,6.47V40.74A6.36,6.36,0,0,0,6.51,47.1H63.78a6.36,6.36,0,0,0,6.36-6.36V6.48A6.39,6.39,0,0,0,65.68.39ZM24.21,34.85C23,36,20.81,36.53,17.77,36.53a63.66,63.66,0,0,1-8.29-.63l.21-4c2.61.16,4.83.25,6.65.25a6.1,6.1,0,0,0,3.5-.72,3.34,3.34,0,0,0,.94-2.78A3.59,3.59,0,0,0,20,26.08a4.06,4.06,0,0,0-2.94-.75H12.56V21.69h4.51c1.4,0,2.31-.26,2.72-.79a3.8,3.8,0,0,0,.57-2.43c0-1.14-.24-1.87-.73-2.19a6.37,6.37,0,0,0-3-.47q-3,0-6.44.14L9.93,12.1a47.41,47.41,0,0,1,7.6-.63q4.3,0,6.09,1.23t1.78,4.37a9,9,0,0,1-.8,4.23,3.72,3.72,0,0,1-2.87,1.86v.14A4.67,4.67,0,0,1,25,25.14a7.81,7.81,0,0,1,1,4.21Q26.1,33.17,24.21,34.85Zm16.1-6H29.88V25.47H40.31Zm20.86,2.7a7,7,0,0,1-1.24,2.68A5.11,5.11,0,0,1,57.34,36a14.37,14.37,0,0,1-4.29.54,11.4,11.4,0,0,1-5.51-1.06,5.88,5.88,0,0,1-2.64-3.64,27.73,27.73,0,0,1-.77-7.55,31.26,31.26,0,0,1,.42-5.56A12.68,12.68,0,0,1,45.72,15a5.51,5.51,0,0,1,2.06-2.19,8,8,0,0,1,2.79-1.05,20.7,20.7,0,0,1,3.64-.26,21.79,21.79,0,0,1,5.7.63l-.28,3.5c-1.21-.05-3-.07-5.42-.07-1.82,0-3.07.39-3.73,1.19s-1.06,2.5-1.17,5.14a7.58,7.58,0,0,1,5.32-1.75q3.91,0,5.4,1.73C61,23,61.52,25,61.52,27.82A17,17,0,0,1,61.17,31.56Z" transform="translate(-0.15 -0.1)"/></g></svg>