<svg id="b692f5e6-1c16-4a18-b64a-91d2ffef50b6" data-name="Calque 3" xmlns="http://www.w3.org/2000/svg" viewBox="0 0 40 27"><defs><style>.b306473c-3d73-4110-b956-a882a7c20554{fill:#fff;}</style></defs><g id="b970b284-9cc6-440c-bfe2-0ac0e589ad6a" data-name="3-6"><path class="b306473c-3d73-4110-b956-a882a7c20554" d="M30.05,13.52a4,4,0,0,0-2.18.72,9.49,9.49,0,0,0,.38,3.33c.24.49.84.73,1.8.73s1.37-.18,1.6-.55a4.13,4.13,0,0,0,.34-2A2.84,2.84,0,0,0,31.6,14,2,2,0,0,0,30.05,13.52Z" transform="translate(0)"/><path class="b306473c-3d73-4110-b956-a882a7c20554" d="M39,0H1A1,1,0,0,0,0,1V26a1,1,0,0,0,1,1H39a1,1,0,0,0,1-1V1A1,1,0,0,0,39,0ZM13.55,19.7a5.54,5.54,0,0,1-3.68,1,36.42,36.42,0,0,1-4.74-.36L5.25,18c1.49.09,2.76.14,3.8.14a3.53,3.53,0,0,0,2-.41,1.9,1.9,0,0,0,.54-1.59,2.07,2.07,0,0,0-.44-1.47,2.31,2.31,0,0,0-1.68-.43H6.89V12.18H9.47c.8,0,1.32-.15,1.55-.45a2.21,2.21,0,0,0,.33-1.39c0-.65-.14-1.07-.42-1.25a3.59,3.59,0,0,0-1.72-.27c-1.15,0-2.37,0-3.68.08L5.39,6.7a27.12,27.12,0,0,1,4.34-.36,6.38,6.38,0,0,1,3.48.7,2.82,2.82,0,0,1,1,2.5A5.15,5.15,0,0,1,13.77,12,2.13,2.13,0,0,1,12.13,13v.08A2.68,2.68,0,0,1,14,14.15a4.42,4.42,0,0,1,.57,2.41A3.9,3.9,0,0,1,13.55,19.7Zm9.2-3.42h-6V14.34h6Zm11.92,1.54A4,4,0,0,1,34,19.35a2.89,2.89,0,0,1-1.48,1,8.07,8.07,0,0,1-2.45.31A6.43,6.43,0,0,1,26.88,20,3.38,3.38,0,0,1,25.37,18a16.12,16.12,0,0,1-.44-4.31,17.92,17.92,0,0,1,.24-3.18,7.11,7.11,0,0,1,.67-2.1A3.23,3.23,0,0,1,27,7.11a4.66,4.66,0,0,1,1.59-.6,12.08,12.08,0,0,1,2.08-.15A12.44,12.44,0,0,1,34,6.72l-.16,2c-.69,0-1.73,0-3.1,0a2.7,2.7,0,0,0-2.13.68,5.42,5.42,0,0,0-.67,2.94,4.34,4.34,0,0,1,3-1,3.94,3.94,0,0,1,3.09,1,5.22,5.22,0,0,1,.85,3.39A9.85,9.85,0,0,1,34.67,17.82Z" transform="translate(0)"/></g></svg>