<svg id="e0bf64be-af23-450a-814d-a20a4022b95b" data-name="3" xmlns="http://www.w3.org/2000/svg" viewBox="0 0 69.99 47.01"><defs><style>.b871b460-b964-42b1-afb7-c241400246a0{fill:#fcfcfc;}</style></defs><path id="a5db9c43-7d15-49ca-ba28-64ce602c374a" data-name="3-7" class="b871b460-b964-42b1-afb7-c241400246a0" d="M65.68.39a6.32,6.32,0,0,0-2-.28H6.51A6.36,6.36,0,0,0,.15,6.47V40.74A6.36,6.36,0,0,0,6.51,47.1H63.78a6.36,6.36,0,0,0,6.36-6.36V6.48A6.39,6.39,0,0,0,65.68.39ZM25.6,34.85q-1.89,1.68-6.44,1.68a63.8,63.8,0,0,1-8.3-.63l.21-4c2.62.16,4.83.25,6.65.25a6.08,6.08,0,0,0,3.5-.72,3.34,3.34,0,0,0,1-2.78,3.63,3.63,0,0,0-.77-2.58,4.1,4.1,0,0,0-2.94-.75H13.94V21.69h4.52c1.4,0,2.3-.26,2.71-.79a3.8,3.8,0,0,0,.58-2.43c0-1.14-.25-1.87-.74-2.19a6.37,6.37,0,0,0-3-.47q-3,0-6.44.14l-.24-3.85a47.38,47.38,0,0,1,7.59-.63q4.31,0,6.09,1.23t1.79,4.37A9.1,9.1,0,0,1,26,21.31a3.7,3.7,0,0,1-2.87,1.85v.14a4.62,4.62,0,0,1,3.31,1.84,7.89,7.89,0,0,1,1,4.21C27.46,31.9,26.86,33.73,25.6,34.85Zm16.1-6H31.27v-3.4H41.7ZM60,14.76,52.65,36.08H47.4l6.13-17.5a10.94,10.94,0,0,1,1-2.28h-11l-.21-4.37H57.83a2.24,2.24,0,0,1,1.94.82A2,2,0,0,1,60,14.76Z" transform="translate(-0.15 -0.1)"/></svg>