<svg id="fee9bd51-9891-4eb0-8d89-e64f3fdee091" data-name="Calque 3" xmlns="http://www.w3.org/2000/svg" viewBox="0 0 40 27"><defs><style>.b166dea3-f035-429a-841e-3d2b82b19a6e{fill:#fff;}</style></defs><path id="f504076c-936c-4df6-babd-26dac72af29b" data-name="3-7" class="b166dea3-f035-429a-841e-3d2b82b19a6e" d="M39,0H1A1,1,0,0,0,0,1V26a1,1,0,0,0,1,1H39a1,1,0,0,0,1-1V1A1,1,0,0,0,39,0ZM14.34,19.7a5.53,5.53,0,0,1-3.68,1,36.42,36.42,0,0,1-4.74-.36L6,18c1.5.09,2.76.14,3.8.14a3.5,3.5,0,0,0,2-.41,1.9,1.9,0,0,0,.54-1.59,2.07,2.07,0,0,0-.44-1.47,2.31,2.31,0,0,0-1.68-.43H7.68V12.18h2.58c.8,0,1.32-.15,1.55-.45a2.15,2.15,0,0,0,.33-1.39c0-.65-.14-1.07-.42-1.25A3.59,3.59,0,0,0,10,8.82c-1.15,0-2.37,0-3.68.08L6.18,6.7a27.12,27.12,0,0,1,4.34-.36A6.38,6.38,0,0,1,14,7a2.82,2.82,0,0,1,1,2.5A5.15,5.15,0,0,1,14.56,12,2.13,2.13,0,0,1,12.92,13v.08a2.66,2.66,0,0,1,1.89,1.05,4.42,4.42,0,0,1,.57,2.41A3.9,3.9,0,0,1,14.34,19.7Zm9.2-3.42h-6V14.34h6ZM34,8.22,29.8,20.4h-3l3.5-10a6,6,0,0,1,.58-1.3H24.6l-.12-2.5h8.28a1.29,1.29,0,0,1,1.11.47A1.18,1.18,0,0,1,34,8.22Z" transform="translate(0)"/></svg>