<svg id="f2517faa-3178-4118-b8e3-64d1169ebf3c" data-name="3" xmlns="http://www.w3.org/2000/svg" viewBox="0 0 69.99 47.01"><defs><style>.e1eeb9a4-257f-4942-b7c9-152008f7a08d{fill:#fcfcfc;}</style></defs><g id="e52fadbf-3b75-468d-9183-56ede1c29163" data-name="3-8"><path class="e1eeb9a4-257f-4942-b7c9-152008f7a08d" d="M65.68.39a6.32,6.32,0,0,0-2-.28H6.51A6.36,6.36,0,0,0,.15,6.47V40.74A6.36,6.36,0,0,0,6.51,47.1H63.78a6.36,6.36,0,0,0,6.36-6.36V6.48A6.39,6.39,0,0,0,65.68.39ZM23.9,34.85Q22,36.53,17.46,36.53a63.8,63.8,0,0,1-8.3-.63l.21-4c2.62.16,4.83.24,6.65.24a6.09,6.09,0,0,0,3.5-.71,3.35,3.35,0,0,0,.95-2.79,3.61,3.61,0,0,0-.77-2.57,4.1,4.1,0,0,0-2.94-.75H12.24V21.69h4.52c1.4,0,2.3-.26,2.71-.79a3.8,3.8,0,0,0,.58-2.43c0-1.14-.25-1.87-.74-2.19a6.37,6.37,0,0,0-3-.47q-3,0-6.44.14L9.62,12.1a47.38,47.38,0,0,1,7.59-.63q4.3,0,6.09,1.22t1.79,4.38a9,9,0,0,1-.81,4.23,3.69,3.69,0,0,1-2.87,1.86v.14a4.62,4.62,0,0,1,3.31,1.84,7.89,7.89,0,0,1,1,4.21C25.76,31.9,25.16,33.73,23.9,34.85Zm16.1-6H29.57V25.47H40ZM60,35q-1.84,1.45-7.1,1.49t-7.11-1.45q-1.89-1.48-1.89-5,0-6,4.17-6.44v-.14a3.37,3.37,0,0,1-2.7-1.73,7.55,7.55,0,0,1-.87-3.8c0-2.35.57-4,1.73-5s3.38-1.46,6.67-1.46S58.39,12,59.54,13s1.74,2.63,1.74,5a7.35,7.35,0,0,1-.9,3.8,3.37,3.37,0,0,1-2.67,1.73v.14a3.77,3.77,0,0,1,3.22,1.89,9.69,9.69,0,0,1,.91,4.55Q61.84,33.59,60,35Z" transform="translate(-0.15 -0.1)"/><path class="e1eeb9a4-257f-4942-b7c9-152008f7a08d" d="M53,21.69a4.45,4.45,0,0,0,2.83-.61,3.43,3.43,0,0,0,.67-2.51,3.6,3.6,0,0,0-.69-2.6,4.35,4.35,0,0,0-2.85-.65A4.6,4.6,0,0,0,50,16a3.5,3.5,0,0,0-.72,2.6A3.23,3.23,0,0,0,50,21.06,4.79,4.79,0,0,0,53,21.69Z" transform="translate(-0.15 -0.1)"/><path class="e1eeb9a4-257f-4942-b7c9-152008f7a08d" d="M53,25.4a5.16,5.16,0,0,0-3.26.72,3.83,3.83,0,0,0-.8,2.85,3.6,3.6,0,0,0,.8,2.73,5.17,5.17,0,0,0,3.22.7A4.86,4.86,0,0,0,56,31.7,3.69,3.69,0,0,0,56.8,29c0-1.45-.25-2.4-.76-2.87S54.51,25.4,53,25.4Z" transform="translate(-0.15 -0.1)"/></g></svg>