<svg id="bba38abf-488e-4e42-be0c-3d4029424717" data-name="Calque 3" xmlns="http://www.w3.org/2000/svg" viewBox="0 0 40 27"><defs><style>.aa8cee68-68f7-4d82-93ad-251005de5037{fill:#fff;}</style></defs><g id="f0f5945b-dfa1-4a19-b63e-a3325376e019" data-name="3-8"><path class="aa8cee68-68f7-4d82-93ad-251005de5037" d="M30,14.3a3,3,0,0,0-1.86.41,2.16,2.16,0,0,0-.46,1.63,2,2,0,0,0,.46,1.56,3,3,0,0,0,1.84.4,2.76,2.76,0,0,0,1.78-.4,2.12,2.12,0,0,0,.44-1.56,2.26,2.26,0,0,0-.43-1.64A2.72,2.72,0,0,0,30,14.3Z" transform="translate(0)"/><path class="aa8cee68-68f7-4d82-93ad-251005de5037" d="M30,12.18a2.56,2.56,0,0,0,1.62-.35A2,2,0,0,0,32,10.4a2.08,2.08,0,0,0-.39-1.49A2.47,2.47,0,0,0,30,8.54a2.6,2.6,0,0,0-1.67.37,2,2,0,0,0-.41,1.49,1.84,1.84,0,0,0,.42,1.42A2.74,2.74,0,0,0,30,12.18Z" transform="translate(0)"/><path class="aa8cee68-68f7-4d82-93ad-251005de5037" d="M39,0H1A1,1,0,0,0,0,1V26a1,1,0,0,0,1,1H39a1,1,0,0,0,1-1V1A1,1,0,0,0,39,0ZM13.37,19.7a5.54,5.54,0,0,1-3.68,1A36.42,36.42,0,0,1,5,20.3L5.07,18c1.49.09,2.76.14,3.8.14a3.53,3.53,0,0,0,2-.41,1.9,1.9,0,0,0,.54-1.59A2.07,2.07,0,0,0,11,14.69a2.31,2.31,0,0,0-1.68-.43H6.71V12.18H9.29c.8,0,1.32-.15,1.55-.45a2.21,2.21,0,0,0,.33-1.39c0-.65-.14-1.07-.42-1.25A3.59,3.59,0,0,0,9,8.82c-1.15,0-2.37,0-3.68.08L5.21,6.7a27.12,27.12,0,0,1,4.34-.36A6.38,6.38,0,0,1,13,7a2.82,2.82,0,0,1,1,2.5A5.15,5.15,0,0,1,13.59,12,2.13,2.13,0,0,1,12,13v.08a2.68,2.68,0,0,1,1.89,1.05,4.42,4.42,0,0,1,.57,2.41A3.9,3.9,0,0,1,13.37,19.7Zm9.2-3.42h-6V14.34h6ZM34,19.81c-.71.55-2.06.84-4.06.85s-3.34-.26-4.06-.83A3.44,3.44,0,0,1,24.79,17c0-2.31.79-3.53,2.38-3.68V13.2a1.93,1.93,0,0,1-1.54-1,4.33,4.33,0,0,1-.5-2.17,3.54,3.54,0,0,1,1-2.85c.66-.55,1.93-.83,3.81-.83s3.15.28,3.81.83a3.54,3.54,0,0,1,1,2.85,4.22,4.22,0,0,1-.51,2.17,1.94,1.94,0,0,1-1.53,1v.08a2.15,2.15,0,0,1,1.84,1.08,5.45,5.45,0,0,1,.52,2.6A3.4,3.4,0,0,1,34,19.81Z" transform="translate(0)"/></g></svg>