<svg id="ba3cd846-64dd-415c-a360-ea3ee066320e" data-name="3" xmlns="http://www.w3.org/2000/svg" viewBox="0 0 69.99 47.01"><defs><style>.b8321833-cdf5-4b3a-8ae1-d4bbddefb85c{fill:#fcfcfc;}</style></defs><g id="fd763114-4448-4919-8b0d-8254af6724a0" data-name="3-9"><path class="b8321833-cdf5-4b3a-8ae1-d4bbddefb85c" d="M52.51,15.57c-1.45,0-2.39.33-2.83,1a6.51,6.51,0,0,0-.64,3.5,4.81,4.81,0,0,0,.69,3,3.26,3.26,0,0,0,2.64.89,7,7,0,0,0,3.82-1.33q0-4.52-.62-5.81T52.51,15.57Z" transform="translate(-0.15 -0.1)"/><path class="b8321833-cdf5-4b3a-8ae1-d4bbddefb85c" d="M65.68.39a6.32,6.32,0,0,0-2-.28H6.51A6.36,6.36,0,0,0,.15,6.47V40.74A6.36,6.36,0,0,0,6.51,47.1H63.78a6.36,6.36,0,0,0,6.36-6.36V6.48A6.39,6.39,0,0,0,65.68.39ZM24.44,34.85Q22.55,36.53,18,36.53a63.66,63.66,0,0,1-8.29-.63l.21-4c2.61.16,4.83.25,6.65.25a6,6,0,0,0,3.49-.72,3.31,3.31,0,0,0,1-2.78,3.63,3.63,0,0,0-.77-2.58,4.06,4.06,0,0,0-2.94-.75H12.79V21.69H17.3c1.4,0,2.3-.26,2.71-.79a3.8,3.8,0,0,0,.58-2.43c0-1.14-.24-1.87-.73-2.19a6.4,6.4,0,0,0-3-.47q-3,0-6.44.14l-.25-3.85a47.41,47.41,0,0,1,7.6-.63c2.87,0,4.89.41,6.09,1.23s1.78,2.27,1.78,4.37a9.1,9.1,0,0,1-.81,4.24A3.7,3.7,0,0,1,22,23.16v.14a4.62,4.62,0,0,1,3.3,1.84,7.8,7.8,0,0,1,1,4.21Q26.33,33.17,24.44,34.85Zm16.1-6H30.11v-3.4H40.54ZM60.79,30.3A7.77,7.77,0,0,1,59,34.17,6.33,6.33,0,0,1,55.92,36a18.44,18.44,0,0,1-4.67.47,26.21,26.21,0,0,1-6.19-.62l.31-3.54c1.31.05,3.25.07,5.84.07C53,32.4,54.29,32,55,31.09s1.08-2.56,1.17-5.06a7.58,7.58,0,0,1-5.36,1.82Q44,27.85,44,20.19c0-3.09.6-5.3,1.86-6.65s3.47-2,6.64-2a16.48,16.48,0,0,1,3.77.36A6.64,6.64,0,0,1,58.81,13a4.77,4.77,0,0,1,1.54,2.29,15.5,15.5,0,0,1,.73,3.45,45.42,45.42,0,0,1,.21,5A33.91,33.91,0,0,1,60.79,30.3Z" transform="translate(-0.15 -0.1)"/></g></svg>