<svg id="fbe2988e-2c1e-4dbb-82a2-03d4daf60fca" data-name="Calque 3" xmlns="http://www.w3.org/2000/svg" viewBox="0 0 40 27"><defs><style>.a33f1236-b0c3-40ae-88bb-7084cac168e3{fill:#fff;}</style></defs><g id="f2189e04-418b-450b-b125-68f49647d609" data-name="3-9"><path class="a33f1236-b0c3-40ae-88bb-7084cac168e3" d="M29.72,8.68c-.83,0-1.37.19-1.62.58a3.81,3.81,0,0,0-.36,2A2.78,2.78,0,0,0,28.13,13a1.85,1.85,0,0,0,1.51.51,3.94,3.94,0,0,0,2.18-.76,9.71,9.71,0,0,0-.35-3.32C31.24,8.93,30.65,8.68,29.72,8.68Z" transform="translate(0)"/><path class="a33f1236-b0c3-40ae-88bb-7084cac168e3" d="M39,0H1A1,1,0,0,0,0,1V26a1,1,0,0,0,1,1H39a1,1,0,0,0,1-1V1A1,1,0,0,0,39,0ZM13.68,19.7a5.54,5.54,0,0,1-3.68,1,36.42,36.42,0,0,1-4.74-.36L5.38,18c1.49.09,2.76.14,3.8.14a3.53,3.53,0,0,0,2-.41,1.9,1.9,0,0,0,.54-1.59,2.07,2.07,0,0,0-.44-1.47,2.31,2.31,0,0,0-1.68-.43H7V12.18H9.6c.8,0,1.32-.15,1.55-.45a2.21,2.21,0,0,0,.33-1.39c0-.65-.14-1.07-.42-1.25a3.59,3.59,0,0,0-1.72-.27c-1.15,0-2.37,0-3.68.08L5.52,6.7a27.12,27.12,0,0,1,4.34-.36,6.38,6.38,0,0,1,3.48.7,2.82,2.82,0,0,1,1,2.5A5.15,5.15,0,0,1,13.9,12,2.13,2.13,0,0,1,12.26,13v.08a2.68,2.68,0,0,1,1.89,1.05,4.42,4.42,0,0,1,.57,2.41A3.9,3.9,0,0,1,13.68,19.7Zm9.2-3.42h-6V14.34h6Zm11.57.82a4.47,4.47,0,0,1-1,2.21,3.63,3.63,0,0,1-1.75,1.06,10.64,10.64,0,0,1-2.67.27,15,15,0,0,1-3.54-.36l.18-2c.75,0,1.86,0,3.34,0a2.6,2.6,0,0,0,2.15-.75,5.29,5.29,0,0,0,.67-2.89,4.35,4.35,0,0,1-3.06,1q-3.85,0-3.86-4.38a5.43,5.43,0,0,1,1.06-3.8c.72-.77,2-1.16,3.8-1.16a9.17,9.17,0,0,1,2.15.21,3.78,3.78,0,0,1,1.43.66,2.74,2.74,0,0,1,.88,1.31,8.85,8.85,0,0,1,.42,2,27.48,27.48,0,0,1,.12,2.85A19.67,19.67,0,0,1,34.45,17.1Z" transform="translate(0)"/></g></svg>