<svg id="fd70f929-8e07-485a-806a-5f96cfef2bac" data-name="4" xmlns="http://www.w3.org/2000/svg" viewBox="0 0 69.99 47.01"><defs><style>.f814241b-4045-4b2d-ae2e-3c87be5132a6{fill:#fcfcfc;}</style></defs><path id="ecfaf344-914c-46c9-b8b5-2e8a507f2d25" data-name="4" class="f814241b-4045-4b2d-ae2e-3c87be5132a6" d="M65.68.39a6.32,6.32,0,0,0-2-.28H6.51A6.36,6.36,0,0,0,.15,6.47V40.74A6.36,6.36,0,0,0,6.51,47.1H63.78a6.36,6.36,0,0,0,6.36-6.36V6.48A6.39,6.39,0,0,0,65.68.39Zm-20,29.87-2.94.5h-.07v5.31H37.71V30.76H28.16a2.64,2.64,0,0,1-2.37-1.23,2.8,2.8,0,0,1-.19-2.7l6.27-14.9h5L31.17,25.82c-.17.4-.18.69,0,.88a.89.89,0,0,0,.74.27h5.84v-6.5l.88-3.86h4.06V27h3Z" transform="translate(-0.15 -0.1)"/></svg>