<svg id="b77eb71a-9da1-46f5-955d-22bf84eadab9" data-name="Calque 4" xmlns="http://www.w3.org/2000/svg" viewBox="0 0 40 27"><defs><style>.fb379d6d-0b73-4129-a8bd-d4e5ceaeac84{fill:#fff;}</style></defs><path id="bc808e61-4d0c-4224-ae77-0fd326116247" data-name="4" class="fb379d6d-0b73-4129-a8bd-d4e5ceaeac84" d="M39,0H1A1,1,0,0,0,0,1V26a1,1,0,0,0,1,1H39a1,1,0,0,0,1-1V1A1,1,0,0,0,39,0ZM25.8,17.08l-1.68.28h0v3H21.26v-3H15.8a1.49,1.49,0,0,1-1.35-.7,1.61,1.61,0,0,1-.11-1.54L17.92,6.6H20.8l-3.28,7.94c-.09.23-.1.39,0,.5a.48.48,0,0,0,.42.16h3.34V11.48l.5-2.2h2.32V15.2H25.8Z" transform="translate(0)"/></svg>