<svg id="a0848880-14e3-4a9a-8e3a-2ac5485d9e4b" data-name="Calque 4" xmlns="http://www.w3.org/2000/svg" viewBox="0 0 40 27"><defs><style>.ee1fcb00-ee55-4061-8507-3171ff25ae49{fill:#fff;}</style></defs><path id="a0b173b1-9c80-4196-bd3a-058312c68fef" data-name="4+" class="ee1fcb00-ee55-4061-8507-3171ff25ae49" d="M39,0H1A1,1,0,0,0,0,1V26a1,1,0,0,0,1,1H39a1,1,0,0,0,1-1V1A1,1,0,0,0,39,0ZM20.52,17.08l-1.68.28h0v3H16v-3H10.52a1.49,1.49,0,0,1-1.35-.7,1.61,1.61,0,0,1-.11-1.54L12.64,6.6h2.88l-3.28,7.94c-.09.23-.1.39,0,.5a.48.48,0,0,0,.42.16H16V11.48l.5-2.2H18.8V15.2h1.72Zm10.56-1.62H27.62V18.8H25.44V15.46H22V13.3h3.44V9.94h2.2V13.3h3.46Z" transform="translate(0)"/></svg>