<svg id="e506ef08-a6f0-4af9-bc86-ac66aef16485" data-name="4" xmlns="http://www.w3.org/2000/svg" viewBox="0 0 69.99 47.01"><defs><style>.b2b12cfb-cbe9-40a5-809b-7515b248f077{fill:#fcfcfc;}</style></defs><path id="a727ff6a-4468-46ad-a8c0-2a78186a3501" data-name="4+" class="b2b12cfb-cbe9-40a5-809b-7515b248f077" d="M65.68.39a6.32,6.32,0,0,0-2-.28H6.51A6.36,6.36,0,0,0,.15,6.47V40.74A6.36,6.36,0,0,0,6.51,47.1H63.78a6.36,6.36,0,0,0,6.36-6.36V6.48A6.39,6.39,0,0,0,65.68.39ZM36.42,30.26l-2.94.5h-.07v5.31H28.47V30.76H18.92a2.64,2.64,0,0,1-2.37-1.23,2.8,2.8,0,0,1-.19-2.7l6.27-14.9h5L21.93,25.82c-.17.4-.18.69,0,.88a.89.89,0,0,0,.74.27h5.84v-6.5l.88-3.86h4.06V27h3Zm18.47-2.83h-6v5.85H45V27.43H39V23.65h6V17.77h3.85v5.88h6Z" transform="translate(-0.15 -0.1)"/></svg>