<svg id="e5ebc47a-00a1-4150-a6a5-d42ce370bf81" data-name="Calque 4" xmlns="http://www.w3.org/2000/svg" viewBox="0 0 40 27"><defs><style>.bc75269d-c2a0-41e6-a17b-93970610fd68{fill:#fff;}</style></defs><path id="f10213ac-b2a3-41fe-b28e-72d29af5abb8" data-name="4-11" class="bc75269d-c2a0-41e6-a17b-93970610fd68" d="M39,0H1A1,1,0,0,0,0,1V26a1,1,0,0,0,1,1H39a1,1,0,0,0,1-1V1A1,1,0,0,0,39,0ZM14,17.08l-1.68.28h0v3H9.46v-3H4a1.49,1.49,0,0,1-1.35-.7,1.61,1.61,0,0,1-.11-1.54L6.12,6.6H9L5.72,14.54c-.09.23-.1.39,0,.5a.48.48,0,0,0,.42.16H9.46V11.48l.5-2.2h2.32V15.2H14Zm7.74-.8h-6V14.34h6ZM29,20.4H26V10.68a8,8,0,0,1,.12-1.5L22.88,10l-.36-2L26,6.6h3Zm8.58,0h-3V10.68a8,8,0,0,1,.12-1.5L31.46,10,31.1,8,34.56,6.6h3Z" transform="translate(0)"/></svg>