<svg id="b0e04b49-6ef4-479f-bc35-c6e55dd1a15b" data-name="4" xmlns="http://www.w3.org/2000/svg" viewBox="0 0 69.99 47.01"><defs><style>.ed61325a-b7c5-4643-b0f3-03133d8a5f77{fill:#fcfcfc;}</style></defs><g id="aa42f85f-aa40-4567-a6aa-b50dfc99387e" data-name="4-10"><path class="ed61325a-b7c5-4643-b0f3-03133d8a5f77" d="M60.49,15.94a3.08,3.08,0,0,0-3.07,1.65q-.8,1.65-.8,6.41t.8,6.41a3.08,3.08,0,0,0,3.07,1.65,3.2,3.2,0,0,0,3.17-1.65q.81-1.65.81-6.41t-.81-6.41A3.2,3.2,0,0,0,60.49,15.94Z" transform="translate(-0.15 -0.1)"/><path class="ed61325a-b7c5-4643-b0f3-03133d8a5f77" d="M65.68.39a6.32,6.32,0,0,0-2-.28H6.51A6.36,6.36,0,0,0,.15,6.47V40.74A6.36,6.36,0,0,0,6.51,47.1H63.78a6.36,6.36,0,0,0,6.36-6.36V6.48A6.39,6.39,0,0,0,65.68.39ZM21.16,30.09l-2.86.47h-.07v5.17H13.44V30.56H4.16a2.54,2.54,0,0,1-2.3-1.19,2.7,2.7,0,0,1-.18-2.62L7.76,12.27h4.9L7.08,25.77c-.16.38-.17.67,0,.85a.83.83,0,0,0,.71.27h5.68V20.57l.85-3.74h3.94V26.89h2.93Zm13.15-1.36H24.18v-3.3H34.31Zm12.38,7H41.52V19.21a13.23,13.23,0,0,1,.21-2.55l-5.48,1.42-.61-3.46,5.88-2.35h5.17Zm20.88-2.28c-1.34,1.82-3.69,2.72-7,2.72s-5.67-.9-7-2.72-2-5-2-9.45.67-7.64,2-9.45,3.68-2.72,7-2.72,5.7.9,7,2.72,2,5,2,9.45S68.9,31.64,67.57,33.45Z" transform="translate(-0.15 -0.1)"/></g></svg>