<svg id="bfc97b5e-ddbe-4afc-bd5c-28fa68019879" data-name="Calque 4" xmlns="http://www.w3.org/2000/svg" viewBox="0 0 40 27"><defs><style>.ef62724c-648b-483c-9789-632d75023b37{fill:#fff;}</style></defs><path id="a8493954-2f47-465f-b9c6-e7daf6b10384" data-name="4-12" class="ef62724c-648b-483c-9789-632d75023b37" d="M39,0H1A1,1,0,0,0,0,1V26a1,1,0,0,0,1,1H39a1,1,0,0,0,1-1V1A1,1,0,0,0,39,0ZM12,17.2l-1.68.28h0v3H7.48v-3H2a1.49,1.49,0,0,1-1.35-.7,1.61,1.61,0,0,1-.11-1.54L4.14,6.72H7L3.74,14.66c-.09.23-.1.39,0,.5a.48.48,0,0,0,.42.16H7.48V11.6L8,9.4H10.3v5.92H12Zm7.74-.8h-6V14.46h6ZM27,20.52H24V10.8a8,8,0,0,1,.12-1.5l-3.22.84-.36-2L24,6.72h3Zm12.54,0H29.8v-1.7a1.74,1.74,0,0,1,.44-1.24l3.38-3.64q2.49-2.58,2.46-3.94a.74.74,0,0,0-.44-.75,4.34,4.34,0,0,0-1.44-.17c-1.41,0-2.8.06-4.16.18L29.92,7a22.92,22.92,0,0,1,4.64-.48A7,7,0,0,1,38,7.16a2.67,2.67,0,0,1,1.15,2.52,5,5,0,0,1-.45,2.19,10.09,10.09,0,0,1-1.79,2.37L33.4,17.92a12.16,12.16,0,0,1,2-.14h4.14Z" transform="translate(0)"/></svg>