<svg id="a7c34714-476b-436d-8b11-8710326406e7" data-name="4" xmlns="http://www.w3.org/2000/svg" viewBox="0 0 69.99 47.01"><defs><style>.bf2b42fb-0b76-4916-b485-16ec304d9169{fill:#fcfcfc;}</style></defs><path id="ad61bc1c-abbf-4c14-ae73-108570c939e2" data-name="4-11" class="bf2b42fb-0b76-4916-b485-16ec304d9169" d="M65.68.39a6.32,6.32,0,0,0-2-.28H6.51A6.36,6.36,0,0,0,.15,6.47V40.74A6.36,6.36,0,0,0,6.51,47.1H63.78a6.36,6.36,0,0,0,6.36-6.36V6.48A6.39,6.39,0,0,0,65.68.39ZM25,30.26l-2.94.5H22v5.31H17.06V30.76H7.51a2.64,2.64,0,0,1-2.37-1.23A2.8,2.8,0,0,1,5,26.83l6.27-14.9h5L10.52,25.82c-.17.4-.18.69,0,.88a.89.89,0,0,0,.74.27h5.84v-6.5l.88-3.86H22V27h3Zm13.54-1.4H28.12V25.47H38.55Zm12.74,7.21H46v-17a14.06,14.06,0,0,1,.21-2.63l-5.64,1.47-.63-3.57L46,11.93h5.32Zm15,0H61v-17a13.26,13.26,0,0,1,.21-2.63l-5.64,1.47-.63-3.57L61,11.93H66.3Z" transform="translate(-0.15 -0.1)"/></svg>