<svg id="e8a46b5d-0b03-4651-a626-e1d38ce0a18b" data-name="Calque 4" xmlns="http://www.w3.org/2000/svg" viewBox="0 0 40 27"><defs><style>.a07dcef9-eed4-434a-b9b7-9aa89fcf0f27{fill:#fff;}</style></defs><g id="bb478bfd-1c32-48b8-9cac-17e62e833e59" data-name="4-10"><path class="a07dcef9-eed4-434a-b9b7-9aa89fcf0f27" d="M34.56,8.81a1.8,1.8,0,0,0-1.8,1,9.87,9.87,0,0,0-.46,3.73,9.87,9.87,0,0,0,.46,3.73,1.8,1.8,0,0,0,1.8,1,1.86,1.86,0,0,0,1.84-1,9.81,9.81,0,0,0,.47-3.73,9.81,9.81,0,0,0-.47-3.73A1.86,1.86,0,0,0,34.56,8.81Z" transform="translate(0)"/><path class="a07dcef9-eed4-434a-b9b7-9aa89fcf0f27" d="M39,0H1A1,1,0,0,0,0,1V26a1,1,0,0,0,1,1H39a1,1,0,0,0,1-1V1A1,1,0,0,0,39,0ZM11.65,17,10,17.32h0v3H7.15v-3H1.75a1.49,1.49,0,0,1-1.34-.69A1.59,1.59,0,0,1,.3,15.1L3.85,6.67H6.7L3.45,14.53c-.09.22-.1.39,0,.49a.48.48,0,0,0,.42.16h3.3V11.5l.5-2.18H10v5.86h1.7Zm7.66-.79h-5.9V14.33h5.9Zm7.21,4.08h-3V10.71a7.94,7.94,0,0,1,.12-1.49l-3.19.84-.36-2,3.43-1.37h3ZM38.67,19c-.78,1.06-2.14,1.59-4.09,1.59s-3.3-.53-4.08-1.59-1.17-2.89-1.17-5.5S29.72,9.05,30.5,8s2.14-1.59,4.08-1.59,3.31.53,4.09,1.59,1.17,2.89,1.17,5.5S39.45,18,38.67,19Z" transform="translate(0)"/></g></svg>