<svg id="bbb2993e-7d0b-479f-8671-55aca58e4523" data-name="4" xmlns="http://www.w3.org/2000/svg" viewBox="0 0 69.99 47.01"><defs><style>.a39056f0-b1f8-4b61-a259-c4c7bf6fb7e4{fill:#fcfcfc;}</style></defs><path id="b651c922-707c-4d8c-b6d8-f5f95f31eeb6" data-name="4-12" class="a39056f0-b1f8-4b61-a259-c4c7bf6fb7e4" d="M65.68.39a6.32,6.32,0,0,0-2-.28H6.51A6.36,6.36,0,0,0,.15,6.47V40.74A6.36,6.36,0,0,0,6.51,47.1H63.78a6.36,6.36,0,0,0,6.36-6.36V6.48A6.39,6.39,0,0,0,65.68.39ZM21.54,30.47,18.6,31h-.07v5.31H13.6V31H4a2.61,2.61,0,0,1-2.36-1.23A2.77,2.77,0,0,1,1.49,27l6.26-14.9h5L7.05,26c-.16.4-.17.69,0,.88a.87.87,0,0,0,.73.27H13.6v-6.5l.87-3.86h4.06V27.18h3Zm13.55-1.4H24.66V25.68H35.09Zm12.73,7.21H42.51v-17a13.26,13.26,0,0,1,.21-2.63l-5.64,1.47-.63-3.57,6.06-2.41h5.31Zm21.95,0H52.65v-3a3,3,0,0,1,.77-2.17l5.92-6.37q4.33-4.51,4.31-6.9a1.33,1.33,0,0,0-.78-1.31,7.36,7.36,0,0,0-2.51-.3q-3.72,0-7.29.32l-.21-4A40.06,40.06,0,0,1,61,11.72a12.14,12.14,0,0,1,6.07,1.19q2,1.18,2,4.4a8.81,8.81,0,0,1-.79,3.84,17.5,17.5,0,0,1-3.13,4.14L59,31.74a20,20,0,0,1,3.58-.25h7.24Z" transform="translate(-0.15 -0.1)"/></svg>