<svg id="acf42ce9-9950-4f3d-bfd8-11dbfec855ad" data-name="4" xmlns="http://www.w3.org/2000/svg" viewBox="0 0 69.99 47.01"><defs><style>.aac3d3d1-fb8b-4c42-bba8-1b07ca90e204{fill:#fcfcfc;}</style></defs><path id="bc28ad79-73b4-4a79-a7f6-2db95669cdba" data-name="4-5" class="aac3d3d1-fb8b-4c42-bba8-1b07ca90e204" d="M65.68.39a6.32,6.32,0,0,0-2-.28H6.51A6.36,6.36,0,0,0,.15,6.47V40.74A6.36,6.36,0,0,0,6.51,47.1H63.78a6.36,6.36,0,0,0,6.36-6.36V6.48A6.39,6.39,0,0,0,65.68.39ZM29,30.05l-2.94.5H26v5.31H21V30.55H11.46A2.61,2.61,0,0,1,9.1,29.32a2.77,2.77,0,0,1-.19-2.7l6.26-14.9h5L14.47,25.61c-.16.4-.17.69,0,.88a.87.87,0,0,0,.73.27H21v-6.5l.87-3.85H26V26.76h3Zm13.55-1.39H32.08v-3.4H42.51Zm11.4,7.62a48.28,48.28,0,0,1-8-.77l.5-4.12q3.89.41,6.22.41c1.75,0,2.93-.25,3.52-.77a3.52,3.52,0,0,0,1-2.66c.06-1.44-.27-2.38-1-2.8a13.77,13.77,0,0,0-4.62-.94l-2.94-.35a1.79,1.79,0,0,1-1.24-.63,1.85,1.85,0,0,1-.44-1.33l.59-10.6H61.61l-.17,4.12H51.53l-.28,4.38,3.47.42c2.78.3,4.74,1.11,5.9,2.41a8,8,0,0,1,1.73,5.43Q62.35,36.28,53.91,36.28Z" transform="translate(-0.15 -0.1)"/></svg>