<svg id="b67901cf-893c-439f-a8f9-b7ecc868326d" data-name="Calque 4" xmlns="http://www.w3.org/2000/svg" viewBox="0 0 40 27"><defs><style>.ae455558-7652-43fe-9cf4-bcc9bc01092c{fill:#fff;}</style></defs><path id="e610950b-9e83-45ab-a09f-6f4b99442722" data-name="4-5" class="ae455558-7652-43fe-9cf4-bcc9bc01092c" d="M39,0H1A1,1,0,0,0,0,1V26a1,1,0,0,0,1,1H39a1,1,0,0,0,1-1V1A1,1,0,0,0,39,0ZM16.26,17l-1.68.28h0v3H11.72v-3H6.26a1.49,1.49,0,0,1-1.35-.7A1.61,1.61,0,0,1,4.8,15L8.38,6.48h2.88L8,14.42c-.09.23-.1.39,0,.5a.48.48,0,0,0,.42.16h3.34V11.36l.5-2.2h2.32v5.92h1.72Zm7.74-.8H18V14.22h6Zm6.52,4.36a28.42,28.42,0,0,1-4.6-.44l.28-2.36a34.84,34.84,0,0,0,3.56.24,3.26,3.26,0,0,0,2-.44A2,2,0,0,0,32.32,16c0-.83-.15-1.36-.58-1.6a7.6,7.6,0,0,0-2.64-.54l-1.68-.2a1,1,0,0,1-.71-.36,1.08,1.08,0,0,1-.25-.76l.34-6.06h8.12l-.1,2.36H29.16L29,11.34l2,.24A5.06,5.06,0,0,1,34.35,13a4.53,4.53,0,0,1,1,3.1C35.34,19,33.74,20.52,30.52,20.52Z" transform="translate(0)"/></svg>