<svg id="b6beb2a7-bfbd-4b64-abc7-08b3c5780981" data-name="4" xmlns="http://www.w3.org/2000/svg" viewBox="0 0 69.99 47.01"><defs><style>.f95d42ab-6bd0-4a47-8763-79d2dc24b0a5{fill:#fcfcfc;}</style></defs><g id="a5f58cf4-c15b-437c-9aa3-98d39389d5c8" data-name="4-6"><path class="f95d42ab-6bd0-4a47-8763-79d2dc24b0a5" d="M54.6,24a6.91,6.91,0,0,0-3.82,1.27q0,4.54.67,5.82c.42.85,1.47,1.28,3.15,1.28,1.47,0,2.4-.32,2.8-1A7.38,7.38,0,0,0,58,27.92a5,5,0,0,0-.68-3.08A3.47,3.47,0,0,0,54.6,24Z" transform="translate(-0.15 -0.1)"/><path class="f95d42ab-6bd0-4a47-8763-79d2dc24b0a5" d="M65.68.39a6.32,6.32,0,0,0-2-.28H6.51A6.36,6.36,0,0,0,.15,6.47V40.74A6.36,6.36,0,0,0,6.51,47.1H63.78a6.36,6.36,0,0,0,6.36-6.36V6.48A6.39,6.39,0,0,0,65.68.39ZM28.28,30.26l-2.94.5h-.07v5.31H20.33V30.76H10.78a2.61,2.61,0,0,1-2.36-1.23,2.8,2.8,0,0,1-.2-2.7l6.27-14.9h5L13.79,25.82c-.17.4-.18.69,0,.88a.89.89,0,0,0,.74.27h5.84v-6.5l.88-3.86h4.06V27h3Zm13.54-1.4H31.39V25.47H41.82Zm20.86,2.7a6.87,6.87,0,0,1-1.24,2.68A5.06,5.06,0,0,1,58.85,36a14.37,14.37,0,0,1-4.29.54,11.4,11.4,0,0,1-5.51-1.06,5.88,5.88,0,0,1-2.64-3.64,27.73,27.73,0,0,1-.77-7.55,31.26,31.26,0,0,1,.42-5.56A12.68,12.68,0,0,1,47.23,15a5.47,5.47,0,0,1,2.07-2.19,7.91,7.91,0,0,1,2.78-1.05,20.7,20.7,0,0,1,3.64-.26,21.74,21.74,0,0,1,5.7.63l-.28,3.5c-1.21-.05-3-.07-5.42-.07-1.82,0-3.06.39-3.73,1.19s-1.06,2.5-1.17,5.14a7.58,7.58,0,0,1,5.32-1.75q3.91,0,5.41,1.73C62.54,23,63,25,63,27.82A16.44,16.44,0,0,1,62.68,31.56Z" transform="translate(-0.15 -0.1)"/></g></svg>