<svg id="b3539bb4-e185-45d8-93a5-664d20ef0aec" data-name="Calque 4" xmlns="http://www.w3.org/2000/svg" viewBox="0 0 40 27"><defs><style>.fc800fd6-fda7-4d56-8b04-0134514dd243{fill:#fff;}</style></defs><g id="bb3345a3-bea1-45a8-9ef6-c7eb0899ded5" data-name="4-6"><path class="fc800fd6-fda7-4d56-8b04-0134514dd243" d="M39,0H1A1,1,0,0,0,0,1V26a1,1,0,0,0,1,1H39a1,1,0,0,0,1-1V1A1,1,0,0,0,39,0ZM15.87,17.08l-1.68.28h0v3H11.33v-3H5.87a1.49,1.49,0,0,1-1.35-.7,1.61,1.61,0,0,1-.11-1.54L8,6.6h2.88L7.59,14.54c-.09.23-.1.39,0,.5A.48.48,0,0,0,8,15.2h3.34V11.48l.5-2.2h2.32V15.2h1.72Zm7.74-.8h-6V14.34h6Zm11.92,1.54a4,4,0,0,1-.71,1.53,2.89,2.89,0,0,1-1.48,1,8,8,0,0,1-2.45.31A6.49,6.49,0,0,1,27.74,20,3.42,3.42,0,0,1,26.23,18a16.12,16.12,0,0,1-.44-4.31A17.92,17.92,0,0,1,26,10.46a7.41,7.41,0,0,1,.67-2.1,3.23,3.23,0,0,1,1.18-1.25,4.66,4.66,0,0,1,1.59-.6,12.16,12.16,0,0,1,2.08-.15,12.39,12.39,0,0,1,3.26.36l-.16,2c-.69,0-1.72,0-3.1,0a2.7,2.7,0,0,0-2.13.68,5.42,5.42,0,0,0-.67,2.94,4.35,4.35,0,0,1,3-1,3.92,3.92,0,0,1,3.09,1,5.22,5.22,0,0,1,.85,3.39A9.26,9.26,0,0,1,35.53,17.82Z" transform="translate(0)"/><path class="fc800fd6-fda7-4d56-8b04-0134514dd243" d="M30.91,13.52a4,4,0,0,0-2.18.72,9.74,9.74,0,0,0,.38,3.33c.24.49.84.73,1.8.73s1.38-.18,1.6-.55a4.13,4.13,0,0,0,.34-2A2.84,2.84,0,0,0,32.46,14,2,2,0,0,0,30.91,13.52Z" transform="translate(0)"/></g></svg>