<svg id="b8cdbeb8-01b4-47ac-a9ef-f2ffe7e66faa" data-name="Calque 4" xmlns="http://www.w3.org/2000/svg" viewBox="0 0 40 27"><defs><style>.b9ff9b50-9abc-449e-9372-42f0f5c5e3da{fill:#fff;}</style></defs><path id="e871fb53-313a-40e0-bcb4-bc3eafd34a46" data-name="4-7" class="b9ff9b50-9abc-449e-9372-42f0f5c5e3da" d="M39,0H1A1,1,0,0,0,0,1V26a1,1,0,0,0,1,1H39a1,1,0,0,0,1-1V1A1,1,0,0,0,39,0ZM16.66,17.08,15,17.36h0v3H12.12v-3H6.66a1.49,1.49,0,0,1-1.35-.7,1.61,1.61,0,0,1-.11-1.54L8.78,6.6h2.88L8.38,14.54c-.09.23-.1.39,0,.5a.48.48,0,0,0,.42.16h3.34V11.48l.5-2.2h2.32V15.2h1.72Zm7.74-.8h-6V14.34h6ZM34.84,8.22,30.66,20.4h-3l3.5-10a6.52,6.52,0,0,1,.58-1.3H25.46l-.12-2.5h8.28a1.29,1.29,0,0,1,1.11.47A1.15,1.15,0,0,1,34.84,8.22Z" transform="translate(0)"/></svg>