<svg id="adbe8d23-f600-43e9-8797-5ef83ea1e73c" data-name="4" xmlns="http://www.w3.org/2000/svg" viewBox="0 0 69.99 47.01"><defs><style>.a45e1c6a-4440-4e03-b377-2141eca70ea2{fill:#fcfcfc;}</style></defs><path id="a0089c33-1e63-4718-9f61-59607070427e" data-name="4-7" class="a45e1c6a-4440-4e03-b377-2141eca70ea2" d="M65.68.39a6.32,6.32,0,0,0-2-.28H6.51A6.36,6.36,0,0,0,.15,6.47V40.74A6.36,6.36,0,0,0,6.51,47.1H63.78a6.36,6.36,0,0,0,6.36-6.36V6.48A6.39,6.39,0,0,0,65.68.39Zm-36,29.87-2.94.5h-.07v5.31H21.72V30.76H12.16A2.62,2.62,0,0,1,9.8,29.53a2.8,2.8,0,0,1-.19-2.7l6.26-14.9h5L15.17,25.82c-.16.4-.17.69,0,.88a.87.87,0,0,0,.73.27h5.85v-6.5l.87-3.86h4.06V27h3Zm13.55-1.4H32.78V25.47H43.21Zm18.27-14.1L54.16,36.07H48.91L55,18.57a11.08,11.08,0,0,1,1-2.27h-11l-.21-4.37H59.34a2.27,2.27,0,0,1,1.95.82A2.07,2.07,0,0,1,61.48,14.76Z" transform="translate(-0.15 -0.1)"/></svg>