<svg id="ba2fc7a1-0ee4-4381-800e-27e82bbd3626" data-name="4" xmlns="http://www.w3.org/2000/svg" viewBox="0 0 69.99 47.01"><defs><style>.e8bd5e6b-78df-47e1-85e2-514320568807{fill:#fcfcfc;}</style></defs><g id="ae219c68-4d55-4b86-b20b-02c0a86b43c6" data-name="4-8"><path class="e8bd5e6b-78df-47e1-85e2-514320568807" d="M54.46,25.38a5.16,5.16,0,0,0-3.26.72A3.83,3.83,0,0,0,50.4,29a3.57,3.57,0,0,0,.8,2.73,5.17,5.17,0,0,0,3.22.7,4.86,4.86,0,0,0,3.12-.7A3.66,3.66,0,0,0,58.31,29a4,4,0,0,0-.75-2.87A4.86,4.86,0,0,0,54.46,25.38Z" transform="translate(-0.15 -0.1)"/><path class="e8bd5e6b-78df-47e1-85e2-514320568807" d="M54.46,21.67a4.45,4.45,0,0,0,2.83-.61,3.4,3.4,0,0,0,.67-2.5A3.67,3.67,0,0,0,57.28,16a4.4,4.4,0,0,0-2.86-.65A4.6,4.6,0,0,0,51.5,16a3.51,3.51,0,0,0-.72,2.61A3.22,3.22,0,0,0,51.52,21,4.79,4.79,0,0,0,54.46,21.67Z" transform="translate(-0.15 -0.1)"/><path class="e8bd5e6b-78df-47e1-85e2-514320568807" d="M65.68.39a6.32,6.32,0,0,0-2-.28H6.51A6.36,6.36,0,0,0,.15,6.47V40.74A6.36,6.36,0,0,0,6.51,47.1H63.78a6.36,6.36,0,0,0,6.36-6.36V6.48A6.39,6.39,0,0,0,65.68.39ZM28,30.25,25,30.74H25v5.32H20V30.74H10.46A2.62,2.62,0,0,1,8.1,29.51a2.78,2.78,0,0,1-.19-2.69l6.26-14.91h5L13.47,25.8c-.16.4-.17.69,0,.88a.87.87,0,0,0,.73.28H20V20.45l.87-3.85H25V27h3Zm13.55-1.4H31.08v-3.4H41.51Zm20,6.17q-1.85,1.45-7.1,1.49c-3.48,0-5.85-.46-7.11-1.45s-1.89-2.67-1.89-5q0-6.06,4.17-6.44v-.14a3.38,3.38,0,0,1-2.7-1.74A7.54,7.54,0,0,1,46,17.93q0-3.54,1.73-5t6.67-1.45q4.94,0,6.67,1.45t1.73,5a7.43,7.43,0,0,1-.89,3.79,3.41,3.41,0,0,1-2.68,1.74v.14a3.77,3.77,0,0,1,3.22,1.89A9.66,9.66,0,0,1,63.35,30C63.35,32.39,62.73,34.06,61.49,35Z" transform="translate(-0.15 -0.1)"/></g></svg>