<svg id="a7cdba47-b094-43e1-865e-daa85cb0179d" data-name="Calque 4" xmlns="http://www.w3.org/2000/svg" viewBox="0 0 40 27"><defs><style>.f90981ab-1dbb-4947-9ad4-3e731c84d22b{fill:#fff;}</style></defs><g id="b41802db-f3a2-4771-b94e-e79b620399f9" data-name="4-8"><path class="f90981ab-1dbb-4947-9ad4-3e731c84d22b" d="M39,0H1A1,1,0,0,0,0,1V26a1,1,0,0,0,1,1H39a1,1,0,0,0,1-1V1A1,1,0,0,0,39,0ZM15.69,17.07,14,17.35h0v3H11.15v-3H5.69a1.49,1.49,0,0,1-1.35-.7,1.61,1.61,0,0,1-.11-1.54L7.81,6.59h2.88L7.41,14.53c-.09.23-.1.39,0,.5a.48.48,0,0,0,.42.16h3.34V11.47l.5-2.2H14v5.92h1.72Zm7.74-.8h-6V14.33h6ZM34.85,19.8c-.7.55-2.06.84-4.06.85s-3.34-.26-4.06-.83A3.44,3.44,0,0,1,25.65,17c0-2.31.8-3.53,2.38-3.68v-.08a2,2,0,0,1-1.54-1A4.33,4.33,0,0,1,26,10a3.54,3.54,0,0,1,1-2.85c.66-.55,1.93-.83,3.81-.83s3.15.28,3.81.83a3.54,3.54,0,0,1,1,2.85,4.22,4.22,0,0,1-.51,2.17,1.94,1.94,0,0,1-1.53,1v.08a2.14,2.14,0,0,1,1.84,1.08,5.45,5.45,0,0,1,.52,2.6A3.4,3.4,0,0,1,34.85,19.8Z" transform="translate(0)"/><path class="f90981ab-1dbb-4947-9ad4-3e731c84d22b" d="M30.83,14.29A3,3,0,0,0,29,14.7a2.2,2.2,0,0,0-.46,1.63A2.07,2.07,0,0,0,29,17.89a3,3,0,0,0,1.84.4,2.74,2.74,0,0,0,1.78-.4A2.08,2.08,0,0,0,33,16.33a2.26,2.26,0,0,0-.43-1.64A2.69,2.69,0,0,0,30.83,14.29Z" transform="translate(0)"/><path class="f90981ab-1dbb-4947-9ad4-3e731c84d22b" d="M30.83,12.17a2.56,2.56,0,0,0,1.62-.35,1.93,1.93,0,0,0,.38-1.43,2.08,2.08,0,0,0-.39-1.49,2.47,2.47,0,0,0-1.63-.37,2.62,2.62,0,0,0-1.67.37,2,2,0,0,0-.41,1.49,1.84,1.84,0,0,0,.42,1.42A2.74,2.74,0,0,0,30.83,12.17Z" transform="translate(0)"/></g></svg>