<svg id="becf0419-c786-4c7e-97c9-3e3dad70b73f" data-name="4" xmlns="http://www.w3.org/2000/svg" viewBox="0 0 69.99 47.01"><defs><style>.e2ef370b-51a0-443e-867e-dc52524e8e09{fill:#fcfcfc;}</style></defs><g id="fa390e0b-ff07-4ba2-b0c8-cdb1871f2f1d" data-name="4-9"><path class="e2ef370b-51a0-443e-867e-dc52524e8e09" d="M54,15.57c-1.45,0-2.39.33-2.83,1a6.51,6.51,0,0,0-.64,3.5,4.81,4.81,0,0,0,.69,3,3.26,3.26,0,0,0,2.64.89,6.92,6.92,0,0,0,3.82-1.33q0-4.52-.62-5.81T54,15.57Z" transform="translate(-0.15 -0.1)"/><path class="e2ef370b-51a0-443e-867e-dc52524e8e09" d="M65.68.39a6.32,6.32,0,0,0-2-.28H6.51A6.36,6.36,0,0,0,.15,6.47V40.74A6.36,6.36,0,0,0,6.51,47.1H63.78a6.36,6.36,0,0,0,6.36-6.36V6.48A6.39,6.39,0,0,0,65.68.39ZM28.51,30.26l-2.94.5H25.5v5.31H20.56V30.76H11a2.64,2.64,0,0,1-2.37-1.23,2.8,2.8,0,0,1-.19-2.7l6.27-14.9h5L14,25.82c-.17.4-.18.69,0,.88a.89.89,0,0,0,.74.27h5.84v-6.5l.88-3.86H25.5V27h3Zm13.54-1.4H31.62V25.47H42.05ZM62.3,30.3a7.85,7.85,0,0,1-1.8,3.87A6.4,6.4,0,0,1,57.43,36a18.44,18.44,0,0,1-4.67.47,26.16,26.16,0,0,1-6.19-.63l.31-3.53c1.31.05,3.25.07,5.84.07,1.83,0,3.08-.44,3.77-1.31s1.08-2.56,1.17-5.06a7.58,7.58,0,0,1-5.36,1.82q-6.75,0-6.75-7.67c0-3.08.6-5.29,1.86-6.65s3.47-2,6.64-2a16.42,16.42,0,0,1,3.77.36A6.64,6.64,0,0,1,60.32,13a4.77,4.77,0,0,1,1.54,2.29,15,15,0,0,1,.73,3.45,45.3,45.3,0,0,1,.21,5A33.91,33.91,0,0,1,62.3,30.3Z" transform="translate(-0.15 -0.1)"/></g></svg>