<svg id="a461c3cb-2c10-43b4-843c-6d87981dc975" data-name="Calque 4" xmlns="http://www.w3.org/2000/svg" viewBox="0 0 40 27"><defs><style>.a0d02858-2c7c-4042-a775-083a480bb972{fill:#fff;}</style></defs><g id="ff803f99-0115-4650-a20a-8e974d545b43" data-name="4-9"><path class="a0d02858-2c7c-4042-a775-083a480bb972" d="M30.58,8.68A1.83,1.83,0,0,0,29,9.26a3.81,3.81,0,0,0-.36,2A2.78,2.78,0,0,0,29,13a1.87,1.87,0,0,0,1.51.51,3.91,3.91,0,0,0,2.18-.76,9.45,9.45,0,0,0-.35-3.32C32.1,8.93,31.52,8.68,30.58,8.68Z" transform="translate(0)"/><path class="a0d02858-2c7c-4042-a775-083a480bb972" d="M39,0H1A1,1,0,0,0,0,1V26a1,1,0,0,0,1,1H39a1,1,0,0,0,1-1V1A1,1,0,0,0,39,0ZM16,17.08l-1.68.28h0v3H11.46v-3H6a1.49,1.49,0,0,1-1.35-.7,1.61,1.61,0,0,1-.11-1.54L8.12,6.6H11L7.72,14.54c-.09.23-.1.39,0,.5a.48.48,0,0,0,.42.16h3.34V11.48l.5-2.2h2.32V15.2H16Zm7.74-.8h-6V14.34h6Zm11.57.82a4.38,4.38,0,0,1-1,2.21,3.58,3.58,0,0,1-1.75,1.06,10.64,10.64,0,0,1-2.67.27,15.07,15.07,0,0,1-3.54-.36l.18-2c.75,0,1.86,0,3.34,0A2.6,2.6,0,0,0,32,17.55a5.2,5.2,0,0,0,.67-2.89,4.31,4.31,0,0,1-3.06,1q-3.86,0-3.86-4.38a5.43,5.43,0,0,1,1.06-3.8c.72-.77,2-1.16,3.8-1.16a9.11,9.11,0,0,1,2.15.21,3.71,3.71,0,0,1,1.43.66,2.74,2.74,0,0,1,.88,1.31,8.85,8.85,0,0,1,.42,2,27.48,27.48,0,0,1,.12,2.85A18.87,18.87,0,0,1,35.31,17.1Z" transform="translate(0)"/></g></svg>