<svg id="fc8824e7-218e-4b49-9635-992633f44e27" data-name="5" xmlns="http://www.w3.org/2000/svg" viewBox="0 0 69.99 47.01"><defs><style>.ec45bdf5-0032-4d07-a239-d659ce3ee07d{fill:#fcfcfc;}</style></defs><path id="a47b19ad-2e1c-4aa8-8d41-b8e819fdbf40" data-name="5" class="ec45bdf5-0032-4d07-a239-d659ce3ee07d" d="M65.68.39a6.32,6.32,0,0,0-2-.28H6.51A6.36,6.36,0,0,0,.15,6.47V40.74A6.36,6.36,0,0,0,6.51,47.1H63.78a6.36,6.36,0,0,0,6.36-6.36V6.48A6.39,6.39,0,0,0,65.68.39ZM35.31,36.28a48.09,48.09,0,0,1-8-.77l.49-4.12c2.59.27,4.66.41,6.23.41,1.75,0,2.92-.25,3.51-.77a3.52,3.52,0,0,0,1-2.66c.07-1.44-.27-2.38-1-2.8a13.77,13.77,0,0,0-4.62-.94l-2.94-.35a1.79,1.79,0,0,1-1.24-.63,1.85,1.85,0,0,1-.44-1.33l.6-10.6H43l-.18,4.12h-9.9l-.28,4.38,3.46.42c2.78.3,4.74,1.11,5.9,2.41a8,8,0,0,1,1.73,5.43Q43.74,36.28,35.31,36.28Z" transform="translate(-0.15 -0.1)"/></svg>