<svg id="a1da4caf-f7bf-4d81-93df-5a5a763cc458" data-name="Calque 5" xmlns="http://www.w3.org/2000/svg" viewBox="0 0 40 27"><defs><style>.b04100ea-8564-46bc-93c6-cc1a7f1cbf0c{fill:#fff;}</style></defs><path id="f05b49b8-f68e-4429-ad23-79aae708ecb4" data-name="5" class="b04100ea-8564-46bc-93c6-cc1a7f1cbf0c" d="M39,0H1A1,1,0,0,0,0,1V26a1,1,0,0,0,1,1H39a1,1,0,0,0,1-1V1A1,1,0,0,0,39,0ZM19.89,20.52a28.32,28.32,0,0,1-4.6-.44l.28-2.36a34.84,34.84,0,0,0,3.56.24,3.26,3.26,0,0,0,2-.44A2,2,0,0,0,21.69,16c0-.83-.15-1.36-.58-1.6a7.72,7.72,0,0,0-2.64-.54l-1.68-.2a1,1,0,0,1-.71-.36,1.08,1.08,0,0,1-.25-.76l.34-6.06h8.12l-.1,2.36H18.53l-.16,2.5,2,.24A5.06,5.06,0,0,1,23.72,13a4.53,4.53,0,0,1,1,3.1Q24.71,20.52,19.89,20.52Z" transform="translate(0)"/></svg>