<svg id="a041e45b-8fd2-47f4-8bd6-37f8fc56b604" data-name="5" xmlns="http://www.w3.org/2000/svg" viewBox="0 0 69.99 47.01"><defs><style>.a7ad56e4-a1ac-4452-8e29-e99255250f33{fill:#fcfcfc;}</style></defs><path id="b0116d1d-5247-4895-bf43-549039ddaf58" data-name="5+" class="a7ad56e4-a1ac-4452-8e29-e99255250f33" d="M65.68.39a6.32,6.32,0,0,0-2-.28H6.51A6.36,6.36,0,0,0,.15,6.47V40.74A6.36,6.36,0,0,0,6.51,47.1H63.78a6.36,6.36,0,0,0,6.36-6.36V6.48A6.39,6.39,0,0,0,65.68.39ZM25.88,36.28a48.09,48.09,0,0,1-8-.77l.48-4.12c2.6.27,4.67.41,6.23.41,1.75,0,2.93-.25,3.52-.77a3.52,3.52,0,0,0,1-2.66c.06-1.44-.27-2.38-1-2.8a13.77,13.77,0,0,0-4.62-.94l-2.94-.35a1.79,1.79,0,0,1-1.24-.63,1.85,1.85,0,0,1-.44-1.33l.6-10.6H33.58l-.18,4.12H23.5l-.28,4.38,3.46.42c2.78.3,4.74,1.11,5.9,2.41a8,8,0,0,1,1.73,5.43Q34.31,36.28,25.88,36.28Zm27.29-9.06H47.12v5.85H43.31V27.22H37.25V23.44h6V17.56h3.85v5.88h6.05Z" transform="translate(-0.15 -0.1)"/></svg>