<svg id="b58506ad-1257-4832-8672-91ddcd4bfda6" data-name="Calque 5" xmlns="http://www.w3.org/2000/svg" viewBox="0 0 40 27"><defs><style>.b88a7cab-13f3-40eb-aa20-185ba8ab1f86{fill:#fff;}</style></defs><path id="af30ac59-7e8d-4705-bbce-0cdf69552e8f" data-name="5+" class="b88a7cab-13f3-40eb-aa20-185ba8ab1f86" d="M39,0H1A1,1,0,0,0,0,1V26a1,1,0,0,0,1,1H39a1,1,0,0,0,1-1V1A1,1,0,0,0,39,0ZM14.5,20.52a28.32,28.32,0,0,1-4.6-.44l.28-2.36a34.84,34.84,0,0,0,3.56.24,3.26,3.26,0,0,0,2-.44A2,2,0,0,0,16.3,16c0-.83-.15-1.36-.58-1.6a7.72,7.72,0,0,0-2.64-.54l-1.68-.2a1,1,0,0,1-.71-.36,1.08,1.08,0,0,1-.25-.76l.34-6.06H18.9l-.1,2.36H13.14L13,11.34l2,.24A5.06,5.06,0,0,1,18.33,13a4.53,4.53,0,0,1,1,3.1Q19.32,20.52,14.5,20.52Zm15.6-5.18H26.64v3.34H24.46V15.34H21V13.18h3.44V9.82h2.2v3.36H30.1Z" transform="translate(0)"/></svg>