<svg id="fbbd8c05-b5be-4cff-bcad-a9c744b9f857" data-name="5" xmlns="http://www.w3.org/2000/svg" viewBox="0 0 69.99 47.01"><defs><style>.ad7bfba2-e317-49d4-b16a-888563fb6433{fill:#fcfcfc;}</style></defs><path id="fabb9aa8-70c7-4c85-b791-6bdd3061a8a8" data-name="5-12" class="ad7bfba2-e317-49d4-b16a-888563fb6433" d="M65.68.39a6.32,6.32,0,0,0-2-.28H6.51A6.36,6.36,0,0,0,.15,6.47V40.74A6.36,6.36,0,0,0,6.51,47.1H63.78a6.36,6.36,0,0,0,6.36-6.36V6.48A6.39,6.39,0,0,0,65.68.39ZM11,36.49a48.19,48.19,0,0,1-8-.77l.49-4.13A60.93,60.93,0,0,0,9.67,32c1.75,0,2.92-.25,3.52-.77a3.58,3.58,0,0,0,1-2.66c.07-1.44-.27-2.38-1-2.8a13.52,13.52,0,0,0-4.62-.94l-2.94-.35a1.81,1.81,0,0,1-1.25-.63,1.84,1.84,0,0,1-.43-1.33l.59-10.6H18.7l-.17,4.12H8.62l-.28,4.38,3.47.42c2.77.3,4.74,1.11,5.89,2.41a7.91,7.91,0,0,1,1.74,5.43Q19.44,36.49,11,36.49Zm22.36-7.63H22.94V25.47H33.36ZM46.1,36.07H40.78v-17A14.06,14.06,0,0,1,41,16.44l-5.63,1.47-.63-3.57,6.05-2.41H46.1Zm21.95,0H50.93v-3a3,3,0,0,1,.77-2.17l5.92-6.37c2.89-3,4.33-5.31,4.3-6.9a1.31,1.31,0,0,0-.77-1.31,7.39,7.39,0,0,0-2.52-.3q-3.71,0-7.28.32l-.21-4a40,40,0,0,1,8.12-.83,12.18,12.18,0,0,1,6.08,1.19q2,1.19,2,4.4a8.81,8.81,0,0,1-.79,3.84,17.5,17.5,0,0,1-3.13,4.14l-6.2,6.45a19.92,19.92,0,0,1,3.57-.25h7.25Z" transform="translate(-0.15 -0.1)"/></svg>