<svg id="a592cefa-ae50-4fec-ba67-2de7dd08e9d4" data-name="5" xmlns="http://www.w3.org/2000/svg" viewBox="0 0 69.99 47.01"><defs><style>.ae4ca57a-85e1-45f6-aa52-86e985f3ca7f{fill:#fcfcfc;}</style></defs><path id="ab9aeeaa-0371-4dc8-942a-661f3b91e70c" data-name="5-11" class="ae4ca57a-85e1-45f6-aa52-86e985f3ca7f" d="M65.68.39a6.32,6.32,0,0,0-2-.28H6.51A6.36,6.36,0,0,0,.15,6.47V40.74A6.36,6.36,0,0,0,6.51,47.1H63.78a6.36,6.36,0,0,0,6.36-6.36V6.48A6.39,6.39,0,0,0,65.68.39ZM14.47,36.28a48.09,48.09,0,0,1-8-.77l.49-4.12c2.59.27,4.66.41,6.23.41,1.75,0,2.92-.25,3.51-.77a3.52,3.52,0,0,0,1-2.66c.07-1.44-.27-2.38-1-2.8A13.77,13.77,0,0,0,12,24.63L9,24.28a1.79,1.79,0,0,1-1.24-.63,1.85,1.85,0,0,1-.44-1.33L8,11.72H22.17L22,15.84h-9.9l-.28,4.38,3.46.42c2.78.3,4.74,1.11,5.9,2.41a8,8,0,0,1,1.73,5.43Q22.9,36.28,14.47,36.28Zm22.36-7.62H26.4v-3.4H36.83Zm12.74,7.2H44.25v-17a14.06,14.06,0,0,1,.21-2.63L38.82,17.7l-.63-3.57,6.06-2.41h5.32Zm15,0H59.27v-17a13.26,13.26,0,0,1,.21-2.63L53.84,17.7l-.63-3.57,6.06-2.41h5.31Z" transform="translate(-0.15 -0.1)"/></svg>