<svg id="f25fb195-d444-454b-876b-e87b4b6cf04f" data-name="5" xmlns="http://www.w3.org/2000/svg" viewBox="0 0 69.99 47.01"><defs><style>.bdf99869-c820-41a0-a2f2-831944294787{fill:#fcfcfc;}</style></defs><g id="ba477ffa-1a38-4b6d-9d5b-0861c105c28b" data-name="5-10"><path class="bdf99869-c820-41a0-a2f2-831944294787" d="M59.51,15.7a3.19,3.19,0,0,0-3.17,1.7q-.83,1.7-.82,6.6t.82,6.6a3.19,3.19,0,0,0,3.17,1.7,3.27,3.27,0,0,0,3.25-1.7q.84-1.7.84-6.6t-.84-6.6A3.27,3.27,0,0,0,59.51,15.7Z" transform="translate(-0.15 -0.1)"/><path class="bdf99869-c820-41a0-a2f2-831944294787" d="M65.68.39a6.32,6.32,0,0,0-2-.28H6.51A6.36,6.36,0,0,0,.15,6.47V40.74A6.36,6.36,0,0,0,6.51,47.1H63.78a6.36,6.36,0,0,0,6.36-6.36V6.48A6.39,6.39,0,0,0,65.68.39ZM10.2,36.49a48.09,48.09,0,0,1-8-.77l.49-4.13A60.75,60.75,0,0,0,8.87,32c1.75,0,2.92-.25,3.51-.77a3.54,3.54,0,0,0,1-2.66c.07-1.44-.27-2.38-1-2.8a13.52,13.52,0,0,0-4.62-.94l-2.94-.35a1.79,1.79,0,0,1-1.24-.63,1.85,1.85,0,0,1-.44-1.33l.6-10.6H17.9l-.18,4.12H7.82l-.28,4.38,3.46.42c2.78.3,4.74,1.11,5.9,2.41a8,8,0,0,1,1.73,5.43Q18.63,36.49,10.2,36.49Zm22.36-7.63H22.13V25.47H32.56ZM45.3,36.07H40v-17a14.06,14.06,0,0,1,.21-2.63l-5.64,1.47-.63-3.57L40,11.93H45.3Zm21.49-2.34c-1.38,1.87-3.79,2.8-7.25,2.8s-5.83-.93-7.21-2.8S50.27,28.62,50.27,24s.69-7.86,2.06-9.73,3.78-2.8,7.21-2.8,5.87.93,7.25,2.8,2.06,5.11,2.06,9.73S68.17,31.86,66.79,33.73Z" transform="translate(-0.15 -0.1)"/></g></svg>