<svg id="f45a1967-7ffc-4c6c-8b23-da3f96aab670" data-name="5" xmlns="http://www.w3.org/2000/svg" viewBox="0 0 69.99 47.01"><defs><style>.b39717d7-8273-4270-ae39-b90b68d26459{fill:#fcfcfc;}</style></defs><g id="ac6bae2f-226d-40dc-b3c8-a73cbe616cba" data-name="5-6"><path class="b39717d7-8273-4270-ae39-b90b68d26459" d="M52.88,24a6.91,6.91,0,0,0-3.82,1.27q0,4.54.67,5.82c.42.85,1.47,1.28,3.15,1.28,1.47,0,2.4-.32,2.8-1a7.38,7.38,0,0,0,.59-3.52,5,5,0,0,0-.68-3.08A3.47,3.47,0,0,0,52.88,24Z" transform="translate(-0.51 -0.49)"/><path class="b39717d7-8273-4270-ae39-b90b68d26459" d="M66,.78a6.38,6.38,0,0,0-2-.27H23.86v0l-17,0A6.35,6.35,0,0,0,.51,6.86V41.14a6.35,6.35,0,0,0,6.35,6.35h17v0h40.3a6.35,6.35,0,0,0,6.35-6.36V6.88A6.39,6.39,0,0,0,66,.78ZM17.74,36.49a48.09,48.09,0,0,1-8-.77l.49-4.13a60.75,60.75,0,0,0,6.23.42c1.75,0,2.92-.25,3.52-.77a3.58,3.58,0,0,0,1-2.66c.07-1.44-.27-2.38-1-2.8a13.4,13.4,0,0,0-4.62-.94l-2.94-.35a1.81,1.81,0,0,1-1.24-.63,1.9,1.9,0,0,1-.44-1.33l.6-10.6H25.44l-.18,4.12h-9.9l-.28,4.38,3.46.42c2.78.3,4.75,1.11,5.9,2.41a7.9,7.9,0,0,1,1.73,5.43Q26.17,36.49,17.74,36.49ZM40.1,28.86H29.67V25.47H40.1ZM61,31.56a7,7,0,0,1-1.24,2.68A5.11,5.11,0,0,1,57.13,36a14.37,14.37,0,0,1-4.29.54,11.4,11.4,0,0,1-5.51-1.06,5.88,5.88,0,0,1-2.64-3.64,27.73,27.73,0,0,1-.77-7.55,31.26,31.26,0,0,1,.42-5.56A12.68,12.68,0,0,1,45.51,15a5.51,5.51,0,0,1,2.06-2.19,8,8,0,0,1,2.79-1.05A20.7,20.7,0,0,1,54,11.51a21.74,21.74,0,0,1,5.7.63l-.28,3.5c-1.21-.05-3-.07-5.42-.07-1.82,0-3.06.39-3.73,1.19s-1.06,2.5-1.17,5.14a7.58,7.58,0,0,1,5.32-1.75q3.91,0,5.4,1.73c1,1.16,1.49,3.13,1.49,5.94A17,17,0,0,1,61,31.56Z" transform="translate(-0.51 -0.49)"/></g></svg>