<svg id="f1a74cf4-4ca8-4dbb-ba1a-043d5fcf9aee" data-name="5" xmlns="http://www.w3.org/2000/svg" viewBox="0 0 69.99 47.01"><defs><style>.e5119962-b739-42db-b0ce-e7fa9c4191c5{fill:#fcfcfc;}</style></defs><path id="ac44f40e-5fc1-448d-8a7b-7a316ba2d086" data-name="5-7" class="e5119962-b739-42db-b0ce-e7fa9c4191c5" d="M65.68.39a6.32,6.32,0,0,0-2-.28H6.51A6.36,6.36,0,0,0,.15,6.47V40.74A6.36,6.36,0,0,0,6.51,47.1H63.78a6.36,6.36,0,0,0,6.36-6.36V6.48A6.39,6.39,0,0,0,65.68.39ZM19.12,36.28a48.28,48.28,0,0,1-8-.77l.49-4.12q3.89.41,6.23.41c1.75,0,2.93-.25,3.52-.77a3.52,3.52,0,0,0,1-2.66c.07-1.44-.27-2.38-1-2.8a13.77,13.77,0,0,0-4.62-.94l-2.94-.35a1.81,1.81,0,0,1-1.25-.63A1.84,1.84,0,0,1,12,22.32l.59-10.6H26.82l-.17,4.12H16.74l-.28,4.38,3.47.42c2.77.3,4.74,1.11,5.89,2.41a7.91,7.91,0,0,1,1.74,5.43Q27.56,36.28,19.12,36.28Zm22.37-7.62H31.06v-3.4H41.49ZM59.76,14.55,52.44,35.86H47.19l6.13-17.5a11.08,11.08,0,0,1,1-2.27h-11l-.21-4.37H57.62a2.27,2.27,0,0,1,2,.82A2.07,2.07,0,0,1,59.76,14.55Z" transform="translate(-0.15 -0.1)"/></svg>