<svg id="a8c1a317-cd63-4173-b7b4-5f6f08e4bc65" data-name="5" xmlns="http://www.w3.org/2000/svg" viewBox="0 0 69.99 47.01"><defs><style>.ff59e6c3-686f-4eb5-94d3-64b1783c57b6{fill:#fcfcfc;}</style></defs><g id="a0ee1203-ef01-4835-bf3f-7c4cfdb6a68e" data-name="5-8"><path class="ff59e6c3-686f-4eb5-94d3-64b1783c57b6" d="M52.74,21.67a4.45,4.45,0,0,0,2.83-.61,3.4,3.4,0,0,0,.67-2.5A3.61,3.61,0,0,0,55.55,16a4.35,4.35,0,0,0-2.85-.65,4.6,4.6,0,0,0-2.92.65,3.51,3.51,0,0,0-.72,2.61A3.22,3.22,0,0,0,49.8,21,4.79,4.79,0,0,0,52.74,21.67Z" transform="translate(-0.15 -0.1)"/><path class="ff59e6c3-686f-4eb5-94d3-64b1783c57b6" d="M65.68.39a6.32,6.32,0,0,0-2-.28H6.51A6.36,6.36,0,0,0,.15,6.47V40.74A6.36,6.36,0,0,0,6.51,47.1H63.78a6.36,6.36,0,0,0,6.36-6.36V6.48A6.39,6.39,0,0,0,65.68.39ZM17.42,36.48a49.37,49.37,0,0,1-8.05-.77l.49-4.13a60.93,60.93,0,0,0,6.23.42c1.75,0,2.93-.26,3.52-.77a3.52,3.52,0,0,0,1-2.66c.07-1.45-.27-2.38-1-2.8a13.45,13.45,0,0,0-4.62-.95L12,24.47a1.69,1.69,0,0,1-1.24-.63,1.79,1.79,0,0,1-.44-1.33l.59-10.6H25.12L25,16H15l-.28,4.37,3.47.42c2.77.31,4.74,1.11,5.9,2.42a7.91,7.91,0,0,1,1.73,5.42Q25.86,36.49,17.42,36.48Zm22.37-7.63H29.36v-3.4H39.79Zm20,6.17q-1.85,1.45-7.1,1.49c-3.48,0-5.85-.46-7.11-1.45s-1.89-2.67-1.89-5q0-6.06,4.17-6.44v-.14a3.38,3.38,0,0,1-2.7-1.74,7.54,7.54,0,0,1-.87-3.79c0-2.36.57-4,1.73-5s3.38-1.45,6.67-1.45,5.51.48,6.66,1.45,1.74,2.63,1.74,5a7.33,7.33,0,0,1-.9,3.79,3.38,3.38,0,0,1-2.67,1.74v.14a3.77,3.77,0,0,1,3.22,1.89A9.66,9.66,0,0,1,61.63,30C61.63,32.39,61,34.06,59.77,35Z" transform="translate(-0.15 -0.1)"/><path class="ff59e6c3-686f-4eb5-94d3-64b1783c57b6" d="M52.74,25.38a5.16,5.16,0,0,0-3.26.72,3.83,3.83,0,0,0-.8,2.85,3.57,3.57,0,0,0,.8,2.73,5.17,5.17,0,0,0,3.22.7,4.86,4.86,0,0,0,3.12-.7A3.66,3.66,0,0,0,56.59,29a4,4,0,0,0-.76-2.87A4.8,4.8,0,0,0,52.74,25.38Z" transform="translate(-0.15 -0.1)"/></g></svg>