<svg id="ecf79f83-7c14-458c-bb58-45f0aa085d5e" data-name="5" xmlns="http://www.w3.org/2000/svg" viewBox="0 0 69.99 47.01"><defs><style>.e7c8922f-834b-4d07-99f9-f5603be4852f{fill:#fcfcfc;}</style></defs><g id="ee56955e-bbe6-4064-93e1-309be151531a" data-name="5-9"><path class="e7c8922f-834b-4d07-99f9-f5603be4852f" d="M52.3,15.57c-1.45,0-2.39.33-2.83,1a6.51,6.51,0,0,0-.64,3.5,4.81,4.81,0,0,0,.69,3,3.26,3.26,0,0,0,2.64.89A6.92,6.92,0,0,0,56,22.67q0-4.52-.62-5.81T52.3,15.57Z" transform="translate(-0.15 -0.1)"/><path class="e7c8922f-834b-4d07-99f9-f5603be4852f" d="M65.68.39a6.32,6.32,0,0,0-2-.28H6.51A6.36,6.36,0,0,0,.15,6.47V40.74A6.36,6.36,0,0,0,6.51,47.1H63.78a6.36,6.36,0,0,0,6.36-6.36V6.48A6.39,6.39,0,0,0,65.68.39ZM18,36.49a48.09,48.09,0,0,1-8-.77l.49-4.13a60.75,60.75,0,0,0,6.23.42c1.75,0,2.92-.25,3.51-.77a3.54,3.54,0,0,0,1-2.66c.07-1.44-.27-2.38-1-2.8a13.52,13.52,0,0,0-4.62-.94l-2.94-.35a1.79,1.79,0,0,1-1.24-.63,1.85,1.85,0,0,1-.44-1.33l.6-10.6H25.67l-.18,4.12h-9.9l-.28,4.38,3.46.42c2.78.3,4.74,1.11,5.9,2.41a8,8,0,0,1,1.73,5.43Q26.4,36.49,18,36.49Zm22.36-7.63H29.9V25.47H40.33ZM60.58,30.3a7.77,7.77,0,0,1-1.81,3.87A6.33,6.33,0,0,1,55.71,36a18.44,18.44,0,0,1-4.67.47,26.16,26.16,0,0,1-6.19-.63l.31-3.53c1.31.05,3.25.07,5.84.07,1.82,0,3.08-.44,3.77-1.31s1.08-2.56,1.17-5.06a7.58,7.58,0,0,1-5.36,1.82q-6.75,0-6.75-7.67c0-3.08.6-5.29,1.86-6.65s3.47-2,6.64-2a16.48,16.48,0,0,1,3.77.36A6.64,6.64,0,0,1,58.6,13a4.77,4.77,0,0,1,1.54,2.29,15.5,15.5,0,0,1,.73,3.45,45.3,45.3,0,0,1,.21,5A33.91,33.91,0,0,1,60.58,30.3Z" transform="translate(-0.15 -0.1)"/></g></svg>