<svg id="f82bc499-0c25-4eac-ba29-83fc3bb5123b" data-name="Calque 6" xmlns="http://www.w3.org/2000/svg" viewBox="0 0 40 27"><defs><style>.afaadfa9-55a7-4d92-a283-81d3717899df{fill:#fff;}</style></defs><g id="a7ee4340-d268-4dd0-b7ca-3e5a04c86379" data-name="6"><path class="afaadfa9-55a7-4d92-a283-81d3717899df" d="M20.15,13.52a4,4,0,0,0-2.18.72,9.49,9.49,0,0,0,.38,3.33c.24.49.84.73,1.8.73s1.37-.18,1.6-.55a4.13,4.13,0,0,0,.34-2A2.84,2.84,0,0,0,21.7,14,2,2,0,0,0,20.15,13.52Z" transform="translate(0)"/><path class="afaadfa9-55a7-4d92-a283-81d3717899df" d="M39,0H1A1,1,0,0,0,0,1V26a1,1,0,0,0,1,1H39a1,1,0,0,0,1-1V1A1,1,0,0,0,39,0ZM24.77,17.82a4,4,0,0,1-.71,1.53,2.89,2.89,0,0,1-1.48,1,8.07,8.07,0,0,1-2.45.31A6.43,6.43,0,0,1,17,20,3.38,3.38,0,0,1,15.47,18,16.12,16.12,0,0,1,15,13.64a17.92,17.92,0,0,1,.24-3.18,7.11,7.11,0,0,1,.67-2.1,3.23,3.23,0,0,1,1.18-1.25,4.66,4.66,0,0,1,1.59-.6,12.08,12.08,0,0,1,2.08-.15,12.44,12.44,0,0,1,3.26.36l-.16,2c-.69,0-1.73,0-3.1,0a2.7,2.7,0,0,0-2.13.68A5.42,5.42,0,0,0,18,12.3a4.34,4.34,0,0,1,3-1,3.94,3.94,0,0,1,3.09,1A5.22,5.22,0,0,1,25,15.68,9.85,9.85,0,0,1,24.77,17.82Z" transform="translate(0)"/></g></svg>