<svg id="e5d64177-1f48-432f-9283-6ee5c04c29fd" data-name="6" xmlns="http://www.w3.org/2000/svg" viewBox="0 0 69.99 47.01"><defs><style>.b57bfc6b-37b4-4831-a734-8d3dfd44d39d{fill:#fcfcfc;}</style></defs><g id="e7f9df36-e087-4d8c-99f3-4bcefbab666c" data-name="6"><path class="b57bfc6b-37b4-4831-a734-8d3dfd44d39d" d="M35.76,24A6.91,6.91,0,0,0,32,25.3q0,4.54.66,5.82c.42.85,1.47,1.28,3.15,1.28,1.47,0,2.41-.32,2.8-1a7.23,7.23,0,0,0,.6-3.52,4.94,4.94,0,0,0-.69-3.08A3.48,3.48,0,0,0,35.76,24Z" transform="translate(-0.15 -0.1)"/><path class="b57bfc6b-37b4-4831-a734-8d3dfd44d39d" d="M65.68.39a6.32,6.32,0,0,0-2-.28H6.51A6.36,6.36,0,0,0,.15,6.47V40.74A6.36,6.36,0,0,0,6.51,47.1H63.78a6.36,6.36,0,0,0,6.36-6.36V6.48A6.39,6.39,0,0,0,65.68.39ZM43.85,31.56a7.16,7.16,0,0,1-1.24,2.68A5.11,5.11,0,0,1,40,36a14.46,14.46,0,0,1-4.29.54,11.34,11.34,0,0,1-5.51-1.06,5.93,5.93,0,0,1-2.65-3.64,28.1,28.1,0,0,1-.77-7.54,31.3,31.3,0,0,1,.42-5.57A12.36,12.36,0,0,1,28.4,15a5.51,5.51,0,0,1,2.06-2.19,8,8,0,0,1,2.78-1.05,20.77,20.77,0,0,1,3.64-.26,21.82,21.82,0,0,1,5.71.63l-.28,3.5c-1.22-.05-3-.07-5.43-.07-1.82,0-3.06.39-3.72,1.19S32.1,19.26,32,21.9a7.62,7.62,0,0,1,5.32-1.75q3.93,0,5.41,1.73t1.49,5.94A17,17,0,0,1,43.85,31.56Z" transform="translate(-0.15 -0.1)"/></g></svg>