<svg id="b7774ecf-fb15-47ce-9874-ef8acb47c047" data-name="Calque 6" xmlns="http://www.w3.org/2000/svg" viewBox="0 0 40 27"><defs><style>.a55e4622-31b6-4a60-9b6d-83ca47f37c98{fill:#fff;}</style></defs><g id="ff2849aa-df8f-41e4-a04b-ae4ff7363d07" data-name="6+"><path class="a55e4622-31b6-4a60-9b6d-83ca47f37c98" d="M39,0H1A1,1,0,0,0,0,1V26a1,1,0,0,0,1,1H39a1,1,0,0,0,1-1V1A1,1,0,0,0,39,0ZM19.4,17.82a4,4,0,0,1-.71,1.53,2.89,2.89,0,0,1-1.48,1,8.07,8.07,0,0,1-2.45.31A6.43,6.43,0,0,1,11.61,20,3.38,3.38,0,0,1,10.1,18a16.12,16.12,0,0,1-.44-4.31,17.92,17.92,0,0,1,.24-3.18,7.11,7.11,0,0,1,.67-2.1,3.23,3.23,0,0,1,1.18-1.25,4.66,4.66,0,0,1,1.59-.6,12.08,12.08,0,0,1,2.08-.15,12.44,12.44,0,0,1,3.26.36l-.16,2c-.69,0-1.73,0-3.1,0a2.7,2.7,0,0,0-2.13.68,5.42,5.42,0,0,0-.67,2.94,4.34,4.34,0,0,1,3-1,3.94,3.94,0,0,1,3.09,1,5.22,5.22,0,0,1,.85,3.39A9.85,9.85,0,0,1,19.4,17.82Zm10.94-2.36H26.88V18.8H24.7V15.46H21.24V13.3h3.44V9.94h2.2V13.3h3.46Z" transform="translate(0)"/><path class="a55e4622-31b6-4a60-9b6d-83ca47f37c98" d="M14.78,13.52a4,4,0,0,0-2.18.72A9.49,9.49,0,0,0,13,17.57c.24.49.84.73,1.8.73s1.37-.18,1.6-.55a4.13,4.13,0,0,0,.34-2A2.84,2.84,0,0,0,16.33,14,2,2,0,0,0,14.78,13.52Z" transform="translate(0)"/></g></svg>