<svg id="fb1a9be0-0079-4d40-9aa0-19e3755c6560" data-name="6" xmlns="http://www.w3.org/2000/svg" viewBox="0 0 69.99 47.01"><defs><style>.bfe5ae5c-d5c8-4109-abd1-e8e46462cdc2{fill:#fcfcfc;}</style></defs><g id="a6437b25-7440-4100-988a-cafcdcb0fc96" data-name="6+"><path class="bfe5ae5c-d5c8-4109-abd1-e8e46462cdc2" d="M26.37,24a6.88,6.88,0,0,0-3.82,1.27c0,3,.25,5,.67,5.82s1.47,1.28,3.15,1.28c1.46,0,2.4-.32,2.8-1a7.38,7.38,0,0,0,.59-3.52,5,5,0,0,0-.68-3.08A3.49,3.49,0,0,0,26.37,24Z" transform="translate(-0.15 -0.1)"/><path class="bfe5ae5c-d5c8-4109-abd1-e8e46462cdc2" d="M65.68.39a6.32,6.32,0,0,0-2-.28H6.51A6.36,6.36,0,0,0,.15,6.47V40.74A6.36,6.36,0,0,0,6.51,47.1H63.78a6.36,6.36,0,0,0,6.36-6.36V6.48A6.39,6.39,0,0,0,65.68.39ZM34.45,31.56a7,7,0,0,1-1.24,2.68A5.11,5.11,0,0,1,30.62,36a14.37,14.37,0,0,1-4.29.54,11.37,11.37,0,0,1-5.51-1.06,5.93,5.93,0,0,1-2.65-3.64,28.21,28.21,0,0,1-.76-7.55,31.26,31.26,0,0,1,.42-5.56A12.68,12.68,0,0,1,19,15a5.51,5.51,0,0,1,2.06-2.19,8.05,8.05,0,0,1,2.78-1.05,20.9,20.9,0,0,1,3.65-.26,21.79,21.79,0,0,1,5.7.63l-.28,3.5c-1.21-.05-3-.07-5.42-.07-1.82,0-3.07.39-3.73,1.19s-1.06,2.5-1.18,5.14a7.63,7.63,0,0,1,5.33-1.75q3.91,0,5.4,1.73C34.3,23,34.8,25,34.8,27.82A17,17,0,0,1,34.45,31.56Zm19.14-4.13H47.54v5.85H43.73V27.43H37.67V23.65h6V17.77h3.85v5.88h6.05Z" transform="translate(-0.15 -0.1)"/></g></svg>