<svg id="aad103ef-aac8-45ff-9c8a-554309bac9a7" data-name="6" xmlns="http://www.w3.org/2000/svg" viewBox="0 0 69.99 47.01"><defs><style>.a87c56e3-7fe5-4b2b-bdae-1ba7011d726e{fill:#fcfcfc;}</style></defs><g id="b08856a9-1aff-4eda-aa2d-22ed160a557d" data-name="6-11"><path class="a87c56e3-7fe5-4b2b-bdae-1ba7011d726e" d="M15,24a6.88,6.88,0,0,0-3.82,1.27c0,3,.25,5,.67,5.82S13.28,32.4,15,32.4c1.47,0,2.4-.32,2.8-1a7.38,7.38,0,0,0,.59-3.52,5,5,0,0,0-.68-3.08A3.49,3.49,0,0,0,15,24Z" transform="translate(-0.15 -0.1)"/><path class="a87c56e3-7fe5-4b2b-bdae-1ba7011d726e" d="M65.68.39a6.32,6.32,0,0,0-2-.28H6.51A6.36,6.36,0,0,0,.15,6.47V40.74A6.36,6.36,0,0,0,6.51,47.1H63.78a6.36,6.36,0,0,0,6.36-6.36V6.48A6.39,6.39,0,0,0,65.68.39ZM23,31.56a7,7,0,0,1-1.24,2.68A5.11,5.11,0,0,1,19.21,36a14.37,14.37,0,0,1-4.29.54,11.37,11.37,0,0,1-5.51-1.06,5.88,5.88,0,0,1-2.64-3.64A27.73,27.73,0,0,1,6,24.24a31.26,31.26,0,0,1,.42-5.56A12.68,12.68,0,0,1,7.59,15a5.51,5.51,0,0,1,2.06-2.19,8,8,0,0,1,2.79-1.05,20.7,20.7,0,0,1,3.64-.26,21.79,21.79,0,0,1,5.7.63l-.28,3.5c-1.21-.05-3-.07-5.42-.07-1.82,0-3.07.39-3.73,1.19s-1.06,2.5-1.17,5.14a7.58,7.58,0,0,1,5.32-1.75q3.91,0,5.4,1.73c1,1.16,1.49,3.13,1.49,5.94A17,17,0,0,1,23,31.56Zm14.21-2.7H26.82V25.47H37.25ZM50,36.07H44.67v-17a14.06,14.06,0,0,1,.21-2.63l-5.64,1.47-.63-3.57,6.06-2.41H50Zm15,0H59.69v-17a13.26,13.26,0,0,1,.21-2.63l-5.64,1.47-.63-3.57,6.06-2.41H65Z" transform="translate(-0.15 -0.1)"/></g></svg>