<svg id="bc4985e0-9b6e-421e-8053-e2e9e44e5b68" data-name="6" xmlns="http://www.w3.org/2000/svg" viewBox="0 0 69.99 47.01"><defs><style>.baee97da-654e-4b02-b99e-2c20b65a5869{fill:#fcfcfc;}</style></defs><g id="f0d4eba6-61ff-42db-93e6-f6d00bca1135" data-name="6-10"><path class="baee97da-654e-4b02-b99e-2c20b65a5869" d="M10.69,24A6.88,6.88,0,0,0,6.87,25.3c0,3,.25,5,.67,5.82S9,32.4,10.69,32.4c1.47,0,2.4-.32,2.8-1a7.38,7.38,0,0,0,.59-3.52,5,5,0,0,0-.68-3.08A3.49,3.49,0,0,0,10.69,24Z" transform="translate(-0.15 -0.1)"/><path class="baee97da-654e-4b02-b99e-2c20b65a5869" d="M59.93,15.7a3.19,3.19,0,0,0-3.17,1.7q-.82,1.7-.82,6.6t.82,6.6a3.19,3.19,0,0,0,3.17,1.7,3.28,3.28,0,0,0,3.25-1.7Q64,28.9,64,24t-.84-6.6A3.28,3.28,0,0,0,59.93,15.7Z" transform="translate(-0.15 -0.1)"/><path class="baee97da-654e-4b02-b99e-2c20b65a5869" d="M65.68.39a6.32,6.32,0,0,0-2-.28H6.51A6.36,6.36,0,0,0,.15,6.47V40.74A6.36,6.36,0,0,0,6.51,47.1H63.78a6.36,6.36,0,0,0,6.36-6.36V6.48A6.39,6.39,0,0,0,65.68.39ZM18.77,31.56a7,7,0,0,1-1.24,2.68A5.11,5.11,0,0,1,14.94,36a14.37,14.37,0,0,1-4.29.54,11.37,11.37,0,0,1-5.51-1.06A5.88,5.88,0,0,1,2.5,31.79a27.73,27.73,0,0,1-.77-7.55,31.26,31.26,0,0,1,.42-5.56A12.68,12.68,0,0,1,3.32,15a5.51,5.51,0,0,1,2.06-2.19,8,8,0,0,1,2.79-1.05,20.7,20.7,0,0,1,3.64-.26,21.79,21.79,0,0,1,5.7.63l-.28,3.5c-1.21-.05-3-.07-5.42-.07-1.82,0-3.07.39-3.73,1.19S7,19.26,6.91,21.9a7.58,7.58,0,0,1,5.32-1.75q3.91,0,5.4,1.73c1,1.16,1.49,3.13,1.49,5.94A17,17,0,0,1,18.77,31.56ZM33,28.86H22.55V25.47H33Zm12.74,7.21H40.4v-17a14.06,14.06,0,0,1,.21-2.63L35,17.91l-.63-3.57,6.06-2.41h5.32Zm21.49-2.34c-1.38,1.87-3.79,2.8-7.25,2.8s-5.83-.93-7.21-2.8S50.69,28.62,50.69,24s.69-7.86,2.06-9.73,3.78-2.8,7.21-2.8,5.87.93,7.25,2.8,2.06,5.11,2.06,9.73S68.59,31.86,67.21,33.73Z" transform="translate(-0.15 -0.1)"/></g></svg>