<svg id="bba0bc1f-3d54-46c4-8bb0-e2d10206bcbb" data-name="6" xmlns="http://www.w3.org/2000/svg" viewBox="0 0 69.99 47.01"><defs><style>.bafba610-9f8b-45b7-96d2-7e2cd1082d67{fill:#fcfcfc;}</style></defs><g id="bf161e0f-d81c-4c9a-b5b0-ae2f4d96767b" data-name="6-12"><path class="bafba610-9f8b-45b7-96d2-7e2cd1082d67" d="M11.49,24A6.85,6.85,0,0,0,7.68,25.3q0,4.54.66,5.82c.42.85,1.47,1.28,3.15,1.28,1.47,0,2.4-.32,2.8-1a7.23,7.23,0,0,0,.6-3.52,4.94,4.94,0,0,0-.69-3.08A3.47,3.47,0,0,0,11.49,24Z" transform="translate(-0.15 -0.1)"/><path class="bafba610-9f8b-45b7-96d2-7e2cd1082d67" d="M65.68.39a6.32,6.32,0,0,0-2-.28H6.51A6.36,6.36,0,0,0,.15,6.47V40.74A6.36,6.36,0,0,0,6.51,47.1H63.78a6.36,6.36,0,0,0,6.36-6.36V6.48A6.39,6.39,0,0,0,65.68.39ZM19.58,31.56a7,7,0,0,1-1.25,2.68A5.06,5.06,0,0,1,15.74,36a14.35,14.35,0,0,1-4.28.54,11.41,11.41,0,0,1-5.52-1.06A5.88,5.88,0,0,1,3.3,31.79a28.13,28.13,0,0,1-.77-7.55A31.26,31.26,0,0,1,3,18.68,12.68,12.68,0,0,1,4.12,15a5.47,5.47,0,0,1,2.07-2.19A7.91,7.91,0,0,1,9,11.77a20.7,20.7,0,0,1,3.64-.26,21.82,21.82,0,0,1,5.71.63L18,15.64c-1.22-.05-3-.07-5.43-.07-1.82,0-3.06.39-3.73,1.19s-1.05,2.5-1.17,5.14A7.6,7.6,0,0,1,13,20.15c2.61,0,4.42.58,5.41,1.73s1.48,3.13,1.48,5.94A17.1,17.1,0,0,1,19.58,31.56Zm14.21-2.7H23.36V25.47H33.79Zm12.73,7.21H41.21v-17a13.26,13.26,0,0,1,.21-2.63l-5.64,1.47-.63-3.57,6.06-2.41h5.31Zm21.95,0H51.35v-3a3,3,0,0,1,.77-2.17L58,24.56c2.89-3,4.33-5.31,4.3-6.9a1.31,1.31,0,0,0-.77-1.31,7.39,7.39,0,0,0-2.52-.3q-3.7,0-7.28.32l-.21-4a40,40,0,0,1,8.12-.83,12.16,12.16,0,0,1,6.08,1.19q2,1.19,2,4.4A8.81,8.81,0,0,1,67,20.94a17.5,17.5,0,0,1-3.13,4.14l-6.2,6.45a19.92,19.92,0,0,1,3.57-.25h7.25Z" transform="translate(-0.15 -0.1)"/></g></svg>