<svg id="a1e431ef-0721-4e4c-9203-86ba0199fa24" data-name="6" xmlns="http://www.w3.org/2000/svg" viewBox="0 0 69.99 47.01"><defs><style>.e8790842-8ea5-47d2-b273-b24f29562a7a{fill:#fcfcfc;}</style></defs><g id="f347abff-18f9-42bb-8b63-372e6a238dfe" data-name="6-7"><path class="e8790842-8ea5-47d2-b273-b24f29562a7a" d="M19.61,24A6.85,6.85,0,0,0,15.8,25.3q0,4.54.66,5.82c.42.85,1.47,1.28,3.15,1.28,1.47,0,2.41-.32,2.8-1a7.23,7.23,0,0,0,.6-3.52,5,5,0,0,0-.68-3.08A3.5,3.5,0,0,0,19.61,24Z" transform="translate(-0.15 -0.1)"/><path class="e8790842-8ea5-47d2-b273-b24f29562a7a" d="M65.68.39a6.32,6.32,0,0,0-2-.28H6.51A6.36,6.36,0,0,0,.15,6.47V40.74A6.36,6.36,0,0,0,6.51,47.1H63.78a6.36,6.36,0,0,0,6.36-6.36V6.48A6.39,6.39,0,0,0,65.68.39Zm-38,31.17a7.16,7.16,0,0,1-1.24,2.68A5.11,5.11,0,0,1,23.87,36a14.46,14.46,0,0,1-4.29.54,11.41,11.41,0,0,1-5.52-1.06,6,6,0,0,1-2.64-3.64,28.13,28.13,0,0,1-.77-7.55,31.26,31.26,0,0,1,.42-5.56A12.68,12.68,0,0,1,12.24,15a5.53,5.53,0,0,1,2.07-2.19,7.91,7.91,0,0,1,2.78-1.05,20.77,20.77,0,0,1,3.64-.26,21.82,21.82,0,0,1,5.71.63l-.28,3.5c-1.22-.05-3-.07-5.43-.07-1.82,0-3.06.39-3.72,1.19S16,19.26,15.83,21.9a7.62,7.62,0,0,1,5.32-1.75q3.93,0,5.41,1.73c1,1.16,1.49,3.13,1.49,5.94A17,17,0,0,1,27.7,31.56Zm14.21-2.7H31.48V25.47H41.91Zm18.27-14.1L52.86,36.07H47.61l6.13-17.5a10.57,10.57,0,0,1,1-2.27h-11l-.21-4.37H58a2.24,2.24,0,0,1,1.94.82A2,2,0,0,1,60.18,14.76Z" transform="translate(-0.15 -0.1)"/></g></svg>