<svg id="f3bf2a40-3cf9-43ee-b8fd-47fdadc9deb0" data-name="6" xmlns="http://www.w3.org/2000/svg" viewBox="0 0 69.99 47.01"><defs><style>.a2369b28-85da-4bd0-9e33-dbf7c376bb10{fill:#fcfcfc;}</style></defs><g id="b78f7bd7-e49a-4917-87cc-6c8e8e95e7e9" data-name="6-8"><path class="a2369b28-85da-4bd0-9e33-dbf7c376bb10" d="M53.16,25.38a5.16,5.16,0,0,0-3.26.72A3.83,3.83,0,0,0,49.1,29a3.57,3.57,0,0,0,.8,2.73,5.17,5.17,0,0,0,3.22.7,4.86,4.86,0,0,0,3.12-.7A3.66,3.66,0,0,0,57,29a4,4,0,0,0-.75-2.87A4.86,4.86,0,0,0,53.16,25.38Z" transform="translate(-0.15 -0.1)"/><path class="a2369b28-85da-4bd0-9e33-dbf7c376bb10" d="M53.16,21.67A4.45,4.45,0,0,0,56,21.06a3.4,3.4,0,0,0,.67-2.5A3.61,3.61,0,0,0,56,16a4.35,4.35,0,0,0-2.85-.65A4.6,4.6,0,0,0,50.2,16a3.51,3.51,0,0,0-.72,2.61A3.22,3.22,0,0,0,50.22,21,4.79,4.79,0,0,0,53.16,21.67Z" transform="translate(-0.15 -0.1)"/><path class="a2369b28-85da-4bd0-9e33-dbf7c376bb10" d="M17.91,24a6.91,6.91,0,0,0-3.81,1.26q0,4.54.66,5.82c.42.86,1.47,1.28,3.15,1.28,1.47,0,2.41-.32,2.8-1a7.2,7.2,0,0,0,.6-3.52,5,5,0,0,0-.68-3.08A3.54,3.54,0,0,0,17.91,24Z" transform="translate(-0.15 -0.1)"/><path class="a2369b28-85da-4bd0-9e33-dbf7c376bb10" d="M65.68.39a6.32,6.32,0,0,0-2-.28H6.51A6.36,6.36,0,0,0,.15,6.47V40.74A6.36,6.36,0,0,0,6.51,47.1H63.78a6.36,6.36,0,0,0,6.36-6.36V6.48A6.39,6.39,0,0,0,65.68.39ZM26,31.54a7.09,7.09,0,0,1-1.24,2.68,5.11,5.11,0,0,1-2.59,1.71,14.11,14.11,0,0,1-4.29.55,11.4,11.4,0,0,1-5.52-1.07,6,6,0,0,1-2.64-3.64A28.1,28.1,0,0,1,9,24.23a31.3,31.3,0,0,1,.42-5.57A12.46,12.46,0,0,1,10.55,15a5.51,5.51,0,0,1,2.06-2.19,8,8,0,0,1,2.78-1.05A20.77,20.77,0,0,1,19,11.49a21.82,21.82,0,0,1,5.71.63l-.28,3.5c-1.22,0-3-.07-5.43-.07-1.82,0-3.06.39-3.72,1.19s-1.06,2.51-1.18,5.14a7.67,7.67,0,0,1,5.32-1.75q3.93,0,5.41,1.73t1.49,5.94A17,17,0,0,1,26,31.54Zm14.21-2.69H29.78v-3.4H40.21Zm20,6.17q-1.84,1.45-7.1,1.49c-3.48,0-5.85-.46-7.11-1.45s-1.89-2.67-1.89-5q0-6.06,4.17-6.44v-.14a3.38,3.38,0,0,1-2.7-1.74,7.54,7.54,0,0,1-.87-3.79c0-2.36.57-4,1.73-5s3.38-1.45,6.67-1.45,5.51.48,6.67,1.45,1.73,2.63,1.73,5a7.33,7.33,0,0,1-.9,3.79,3.38,3.38,0,0,1-2.67,1.74v.14a3.77,3.77,0,0,1,3.22,1.89A9.66,9.66,0,0,1,62.05,30C62.05,32.39,61.43,34.06,60.19,35Z" transform="translate(-0.15 -0.1)"/></g></svg>