<svg id="ba2cc900-3b97-4d47-a503-9f18aa89c276" data-name="6" xmlns="http://www.w3.org/2000/svg" viewBox="0 0 69.99 47.01"><defs><style>.ab031de1-3355-49b4-b13c-cea0b536b74e{fill:#fcfcfc;}</style></defs><g id="bb7fd76f-2484-4f7e-962a-203c4a561b5b" data-name="6-9"><path class="ab031de1-3355-49b4-b13c-cea0b536b74e" d="M18.46,24a6.88,6.88,0,0,0-3.82,1.27c0,3,.25,5,.67,5.82s1.47,1.28,3.15,1.28c1.47,0,2.4-.32,2.8-1a7.38,7.38,0,0,0,.59-3.52,5,5,0,0,0-.68-3.08A3.49,3.49,0,0,0,18.46,24Z" transform="translate(-0.15 -0.1)"/><path class="ab031de1-3355-49b4-b13c-cea0b536b74e" d="M52.72,15.57c-1.45,0-2.39.33-2.83,1a6.51,6.51,0,0,0-.64,3.5,4.81,4.81,0,0,0,.69,3,3.26,3.26,0,0,0,2.64.89,6.92,6.92,0,0,0,3.82-1.33q0-4.52-.62-5.81T52.72,15.57Z" transform="translate(-0.15 -0.1)"/><path class="ab031de1-3355-49b4-b13c-cea0b536b74e" d="M65.68.39a6.32,6.32,0,0,0-2-.28H6.51A6.36,6.36,0,0,0,.15,6.47V40.74A6.36,6.36,0,0,0,6.51,47.1H63.78a6.36,6.36,0,0,0,6.36-6.36V6.48A6.39,6.39,0,0,0,65.68.39ZM26.54,31.56a7,7,0,0,1-1.24,2.68A5.11,5.11,0,0,1,22.71,36a14.37,14.37,0,0,1-4.29.54,11.37,11.37,0,0,1-5.51-1.06,5.88,5.88,0,0,1-2.64-3.64,27.73,27.73,0,0,1-.77-7.55,31.26,31.26,0,0,1,.42-5.56A12.68,12.68,0,0,1,11.09,15a5.51,5.51,0,0,1,2.06-2.19,8,8,0,0,1,2.79-1.05,20.7,20.7,0,0,1,3.64-.26,21.79,21.79,0,0,1,5.7.63L25,15.64c-1.21-.05-3-.07-5.42-.07-1.82,0-3.07.39-3.73,1.19s-1.06,2.5-1.17,5.14A7.58,7.58,0,0,1,20,20.15q3.91,0,5.4,1.73c1,1.16,1.49,3.13,1.49,5.94A17,17,0,0,1,26.54,31.56Zm14.21-2.7H30.32V25.47H40.75ZM61,30.3a7.85,7.85,0,0,1-1.8,3.87A6.4,6.4,0,0,1,56.13,36a18.44,18.44,0,0,1-4.67.47,26.16,26.16,0,0,1-6.19-.63l.31-3.53c1.31.05,3.25.07,5.84.07,1.82,0,3.08-.44,3.77-1.31s1.08-2.56,1.17-5.06A7.58,7.58,0,0,1,51,27.85q-6.75,0-6.75-7.67c0-3.08.6-5.29,1.86-6.65s3.47-2,6.64-2a16.42,16.42,0,0,1,3.77.36A6.64,6.64,0,0,1,59,13a4.77,4.77,0,0,1,1.54,2.29,15,15,0,0,1,.73,3.45,45.3,45.3,0,0,1,.21,5A33.91,33.91,0,0,1,61,30.3Z" transform="translate(-0.15 -0.1)"/></g></svg>