<svg id="a09d6ec0-f189-4c95-9d33-33d359290af3" data-name="7" xmlns="http://www.w3.org/2000/svg" viewBox="0 0 69.99 47.01"><defs><style>.a63acc87-6bd1-4ebf-b1b7-3ff6447b17ce{fill:#fcfcfc;}</style></defs><path id="b96c3035-26c6-494f-afea-428c2c7b7bc6" data-name="7" class="a63acc87-6bd1-4ebf-b1b7-3ff6447b17ce" d="M65.68.39a6.32,6.32,0,0,0-2-.28H6.51A6.36,6.36,0,0,0,.15,6.47V40.74A6.36,6.36,0,0,0,6.51,47.1H63.78a6.36,6.36,0,0,0,6.36-6.36V6.48A6.39,6.39,0,0,0,65.68.39Zm-22,14.37L36.41,36.07H31.16l6.13-17.5a11.08,11.08,0,0,1,1-2.27h-11l-.21-4.37H41.59a2.27,2.27,0,0,1,1.95.82A2.07,2.07,0,0,1,43.73,14.76Z" transform="translate(-0.15 -0.1)"/></svg>