<svg id="acb78010-755b-4bc7-80ee-24eba56df5db" data-name="Calque 7" xmlns="http://www.w3.org/2000/svg" viewBox="0 0 40 27"><defs><style>.a32c59d3-935b-4fa0-bcde-41fcb06c95cc{fill:#fff;}</style></defs><path id="f244ed46-b769-47ac-b5c1-36f7900bba0a" data-name="7" class="a32c59d3-935b-4fa0-bcde-41fcb06c95cc" d="M39,0H1A1,1,0,0,0,0,1V26a1,1,0,0,0,1,1H39a1,1,0,0,0,1-1V1A1,1,0,0,0,39,0ZM24.7,8.22,20.52,20.4h-3l3.5-10a6,6,0,0,1,.58-1.3H15.32L15.2,6.6h8.28a1.29,1.29,0,0,1,1.11.47A1.18,1.18,0,0,1,24.7,8.22Z" transform="translate(0)"/></svg>