<svg id="fb67663f-2dc8-4404-8431-1c23075d1761" data-name="Calque 7" xmlns="http://www.w3.org/2000/svg" viewBox="0 0 40 27"><defs><style>.e1698051-99ee-498c-a8a4-4f5534083f70{fill:#fff;}</style></defs><path id="bf389c07-6104-4a09-999c-543ac0901910" data-name="7+" class="e1698051-99ee-498c-a8a4-4f5534083f70" d="M39,0H1A1,1,0,0,0,0,1V26a1,1,0,0,0,1,1H39a1,1,0,0,0,1-1V1A1,1,0,0,0,39,0ZM19.68,8.22,15.5,20.4h-3l3.5-10a6,6,0,0,1,.58-1.3H10.3l-.12-2.5h8.28a1.29,1.29,0,0,1,1.11.47A1.18,1.18,0,0,1,19.68,8.22Zm10.14,7.24H26.36V18.8H24.18V15.46H20.72V13.3h3.44V9.94h2.2V13.3h3.46Z" transform="translate(0)"/></svg>