<svg id="eacfc17f-0b94-451e-a929-e57eefab1532" data-name="7" xmlns="http://www.w3.org/2000/svg" viewBox="0 0 69.99 47.01"><defs><style>.ea25d5f8-b2e2-4e3d-aa1c-228d95dc4fca{fill:#fcfcfc;}</style></defs><path id="bb14929f-06f5-42b2-a491-66a9fcc651c7" data-name="7+" class="ea25d5f8-b2e2-4e3d-aa1c-228d95dc4fca" d="M65.68.39a6.32,6.32,0,0,0-2-.28H6.51A6.36,6.36,0,0,0,.15,6.47V40.74A6.36,6.36,0,0,0,6.51,47.1H63.78a6.36,6.36,0,0,0,6.36-6.36V6.48A6.39,6.39,0,0,0,65.68.39ZM34.94,14.76,27.63,36.07H22.38l6.12-17.5a11.08,11.08,0,0,1,1-2.27h-11l-.21-4.37H32.8a2.27,2.27,0,0,1,2,.82A2,2,0,0,1,34.94,14.76ZM52.68,27.43h-6v5.85H42.82V27.43H36.76V23.65h6V17.77h3.85v5.88h6Z" transform="translate(-0.15 -0.1)"/></svg>