<svg id="a0233604-f40b-4882-bb87-3894a51d9843" data-name="7" xmlns="http://www.w3.org/2000/svg" viewBox="0 0 69.99 47.01"><defs><style>.ab38e38f-e8a5-4857-b4f2-c1da705e7545{fill:#fcfcfc;}</style></defs><g id="b4c351a7-fddc-472e-9c06-d2c657de5ae5" data-name="7-10"><path class="ab38e38f-e8a5-4857-b4f2-c1da705e7545" d="M58.93,15.7a3.19,3.19,0,0,0-3.17,1.7c-.54,1.13-.82,3.33-.82,6.6s.28,5.47.82,6.6a3.19,3.19,0,0,0,3.17,1.7,3.29,3.29,0,0,0,3.26-1.7Q63,28.9,63,24t-.84-6.6A3.29,3.29,0,0,0,58.93,15.7Z" transform="translate(-0.15 -0.1)"/><path class="ab38e38f-e8a5-4857-b4f2-c1da705e7545" d="M65.68.39a6.32,6.32,0,0,0-2-.28H6.51A6.36,6.36,0,0,0,.15,6.47V40.74A6.36,6.36,0,0,0,6.51,47.1H63.78a6.36,6.36,0,0,0,6.36-6.36V6.48A6.39,6.39,0,0,0,65.68.39ZM19.35,14.76,12,36.07H6.78l6.13-17.5a11.08,11.08,0,0,1,1-2.27h-11l-.21-4.37H17.21a2.27,2.27,0,0,1,1.95.82A2.07,2.07,0,0,1,19.35,14.76ZM32,28.86H21.55V25.47H32Zm12.74,7.21H39.4v-17a14.06,14.06,0,0,1,.21-2.63L34,17.91l-.63-3.57,6-2.41h5.32Zm21.49-2.34c-1.37,1.87-3.79,2.8-7.24,2.8s-5.84-.93-7.21-2.8S49.69,28.62,49.69,24s.69-7.86,2.07-9.73,3.78-2.8,7.21-2.8,5.87.93,7.24,2.8,2.07,5.11,2.07,9.73S67.59,31.86,66.21,33.73Z" transform="translate(-0.15 -0.1)"/></g></svg>