<svg id="ec0da271-f3d1-4b2e-931e-c4fd63ab123e" data-name="7" xmlns="http://www.w3.org/2000/svg" viewBox="0 0 69.99 47.01"><defs><style>.f23dcd33-f6f2-4ffb-a64a-a12f6aaf420b{fill:#fcfcfc;}</style></defs><path id="f0c149d3-d8e1-403f-9bf5-2ad5daba27bf" data-name="7-11" class="f23dcd33-f6f2-4ffb-a64a-a12f6aaf420b" d="M65.68.39a6.32,6.32,0,0,0-2-.28H6.51A6.36,6.36,0,0,0,.15,6.47V40.74A6.36,6.36,0,0,0,6.51,47.1H63.78a6.36,6.36,0,0,0,6.36-6.36V6.48A6.39,6.39,0,0,0,65.68.39ZM23.62,14.76,16.3,36.07H11.05l6.13-17.5a11.08,11.08,0,0,1,1-2.27H7.2L7,11.93H21.48a2.27,2.27,0,0,1,1.95.82A2.07,2.07,0,0,1,23.62,14.76Zm12.63,14.1H25.82V25.47H36.25ZM49,36.07H43.67v-17a14.06,14.06,0,0,1,.21-2.63l-5.63,1.47-.63-3.57,6.05-2.41H49Zm15,0H58.69v-17a14.06,14.06,0,0,1,.21-2.63l-5.64,1.47-.63-3.57,6.06-2.41H64Z" transform="translate(-0.15 -0.1)"/></svg>