<svg id="fb425b0b-e341-4a3e-be27-36e64f12911e" data-name="7" xmlns="http://www.w3.org/2000/svg" viewBox="0 0 69.99 47.01"><defs><style>.fbeb82ca-4717-4a5c-b10d-b545f10750f7{fill:#fcfcfc;}</style></defs><path id="aaa28249-eee1-48ad-abd7-154fd246da4e" data-name="7-12" class="fbeb82ca-4717-4a5c-b10d-b545f10750f7" d="M65.68.39a6.32,6.32,0,0,0-2-.28H6.51A6.36,6.36,0,0,0,.15,6.47V40.74A6.36,6.36,0,0,0,6.51,47.1H63.78a6.36,6.36,0,0,0,6.36-6.36V6.48A6.39,6.39,0,0,0,65.68.39ZM20.15,15,12.84,36.28H7.59l6.12-17.5a10.58,10.58,0,0,1,1-2.27h-11l-.21-4.37H18A2.26,2.26,0,0,1,20,13,2,2,0,0,1,20.15,15Zm12.64,14.1H22.36V25.68H32.79Zm12.74,7.21H40.21v-17a14.06,14.06,0,0,1,.21-2.63l-5.64,1.47-.63-3.57,6.06-2.41h5.32Zm21.94,0H50.36v-3a3,3,0,0,1,.77-2.17L57,24.77c2.9-3,4.33-5.31,4.31-6.9a1.32,1.32,0,0,0-.77-1.31,7.39,7.39,0,0,0-2.52-.3c-2.48,0-4.9.11-7.28.32l-.21-4a39.89,39.89,0,0,1,8.12-.83,12.14,12.14,0,0,1,6.07,1.19q2,1.18,2,4.4A8.81,8.81,0,0,1,66,21.15a17.5,17.5,0,0,1-3.13,4.14l-6.19,6.45a19.77,19.77,0,0,1,3.57-.25h7.24Z" transform="translate(-0.15 -0.1)"/></svg>