<svg id="efaa21be-0fbd-434c-918d-bb7afbe87a9a" data-name="7" xmlns="http://www.w3.org/2000/svg" viewBox="0 0 69.99 47.01"><defs><style>.a7840f55-fbdf-4665-ae38-3bdf300c876e{fill:#fcfcfc;}</style></defs><g id="ac38352e-44bf-4b79-8850-8fa347400c8d" data-name="7-8"><path class="a7840f55-fbdf-4665-ae38-3bdf300c876e" d="M52.16,25.38a5.18,5.18,0,0,0-3.26.72A3.83,3.83,0,0,0,48.1,29a3.57,3.57,0,0,0,.8,2.73,5.19,5.19,0,0,0,3.22.7,4.84,4.84,0,0,0,3.12-.7A3.66,3.66,0,0,0,56,29a4,4,0,0,0-.75-2.87A4.84,4.84,0,0,0,52.16,25.38Z" transform="translate(-0.15 -0.1)"/><path class="a7840f55-fbdf-4665-ae38-3bdf300c876e" d="M52.16,21.67A4.43,4.43,0,0,0,55,21.06a3.4,3.4,0,0,0,.67-2.5A3.67,3.67,0,0,0,55,16a4.4,4.4,0,0,0-2.86-.65A4.6,4.6,0,0,0,49.2,16a3.51,3.51,0,0,0-.72,2.61A3.22,3.22,0,0,0,49.22,21,4.79,4.79,0,0,0,52.16,21.67Z" transform="translate(-0.15 -0.1)"/><path class="a7840f55-fbdf-4665-ae38-3bdf300c876e" d="M65.68.39a6.32,6.32,0,0,0-2-.28H6.51A6.36,6.36,0,0,0,.15,6.47V40.74A6.36,6.36,0,0,0,6.51,47.1H63.78a6.36,6.36,0,0,0,6.36-6.36V6.48A6.39,6.39,0,0,0,65.68.39ZM26.58,14.74,19.26,36.06H14l6.13-17.5a10.66,10.66,0,0,1,1-2.28h-11L10,11.91H24.44a2.24,2.24,0,0,1,1.94.82A2,2,0,0,1,26.58,14.74ZM39.21,28.85H28.78v-3.4H39.21Zm20,6.17q-1.84,1.45-7.1,1.49c-3.48,0-5.85-.46-7.11-1.45s-1.88-2.67-1.88-5c0-4,1.38-6.19,4.16-6.44v-.14a3.4,3.4,0,0,1-2.7-1.74,7.54,7.54,0,0,1-.87-3.79q0-3.54,1.73-5t6.67-1.45q4.94,0,6.67,1.45t1.73,5a7.43,7.43,0,0,1-.89,3.79,3.41,3.41,0,0,1-2.68,1.74v.14a3.77,3.77,0,0,1,3.22,1.89A9.54,9.54,0,0,1,61.05,30C61.05,32.39,60.43,34.06,59.19,35Z" transform="translate(-0.15 -0.1)"/></g></svg>