<svg id="fc544e16-30f2-4515-9f21-8b0cbad5570c" data-name="7" xmlns="http://www.w3.org/2000/svg" viewBox="0 0 69.99 47.01"><defs><style>.f95447b4-ea67-4053-9771-989b77ee9186{fill:#fcfcfc;}</style></defs><g id="b4bea0df-40e9-4267-ba58-d69fd90b334a" data-name="7-9"><path class="f95447b4-ea67-4053-9771-989b77ee9186" d="M51.72,15.57c-1.44,0-2.39.33-2.83,1a6.43,6.43,0,0,0-.63,3.5,4.75,4.75,0,0,0,.68,3,3.26,3.26,0,0,0,2.64.89,6.9,6.9,0,0,0,3.82-1.33c0-3-.21-5-.61-5.81S53.36,15.57,51.72,15.57Z" transform="translate(-0.15 -0.1)"/><path class="f95447b4-ea67-4053-9771-989b77ee9186" d="M65.68.39a6.32,6.32,0,0,0-2-.28H6.51A6.36,6.36,0,0,0,.15,6.47V40.74A6.36,6.36,0,0,0,6.51,47.1H63.78a6.36,6.36,0,0,0,6.36-6.36V6.48A6.39,6.39,0,0,0,65.68.39ZM27.12,14.76,19.8,36.07H14.55l6.13-17.5a11.08,11.08,0,0,1,1-2.27h-11l-.21-4.37H25a2.27,2.27,0,0,1,1.95.82A2.07,2.07,0,0,1,27.12,14.76Zm12.63,14.1H29.32V25.47H39.75ZM60,30.3a7.85,7.85,0,0,1-1.8,3.87A6.42,6.42,0,0,1,55.14,36a18.53,18.53,0,0,1-4.68.47,26.22,26.22,0,0,1-6.19-.63l.31-3.53c1.31.05,3.26.07,5.85.07,1.82,0,3.07-.44,3.76-1.31s1.08-2.56,1.17-5.06A7.56,7.56,0,0,1,50,27.85q-6.76,0-6.76-7.67c0-3.08.6-5.29,1.86-6.65s3.47-2,6.65-2a16.38,16.38,0,0,1,3.76.36A6.64,6.64,0,0,1,58,13a4.77,4.77,0,0,1,1.54,2.29,15.48,15.48,0,0,1,.74,3.45,47.94,47.94,0,0,1,.21,5A33.79,33.79,0,0,1,60,30.3Z" transform="translate(-0.15 -0.1)"/></g></svg>