<svg id="ada799f6-984e-4426-bf54-798d933c533c" data-name="Calque 8" xmlns="http://www.w3.org/2000/svg" viewBox="0 0 40 27"><defs><style>.ea0a92aa-d9e4-49d8-b70b-3352d15f3373{fill:#fff;}</style></defs><path class="ea0a92aa-d9e4-49d8-b70b-3352d15f3373" d="M20.05,12.17a2.56,2.56,0,0,0,1.62-.35,2,2,0,0,0,.38-1.43,2.08,2.08,0,0,0-.39-1.49A2.47,2.47,0,0,0,20,8.53a2.6,2.6,0,0,0-1.67.37A2,2,0,0,0,18,10.39a1.84,1.84,0,0,0,.42,1.42A2.74,2.74,0,0,0,20.05,12.17Z" transform="translate(0)"/><path class="ea0a92aa-d9e4-49d8-b70b-3352d15f3373" d="M20.05,14.29a3,3,0,0,0-1.86.41,2.16,2.16,0,0,0-.46,1.63,2,2,0,0,0,.46,1.56,3,3,0,0,0,1.84.4,2.76,2.76,0,0,0,1.78-.4,2.12,2.12,0,0,0,.44-1.56,2.26,2.26,0,0,0-.43-1.64A2.72,2.72,0,0,0,20.05,14.29Z" transform="translate(0)"/><path class="ea0a92aa-d9e4-49d8-b70b-3352d15f3373" d="M39,0H1A1,1,0,0,0,0,1V26a1,1,0,0,0,1,1H39a1,1,0,0,0,1-1V1A1,1,0,0,0,39,0ZM24.07,19.8c-.71.55-2.06.84-4.06.85s-3.34-.26-4.06-.83A3.44,3.44,0,0,1,14.87,17c0-2.31.79-3.53,2.38-3.68v-.08a1.93,1.93,0,0,1-1.54-1,4.33,4.33,0,0,1-.5-2.17,3.54,3.54,0,0,1,1-2.85c.66-.55,1.93-.83,3.81-.83s3.15.28,3.81.83a3.54,3.54,0,0,1,1,2.85,4.22,4.22,0,0,1-.51,2.17,1.94,1.94,0,0,1-1.53,1v.08a2.15,2.15,0,0,1,1.84,1.08,5.45,5.45,0,0,1,.52,2.6A3.4,3.4,0,0,1,24.07,19.8Z" transform="translate(0)"/></svg>