<svg id="efceeda6-334f-4246-bf86-971e1e03dfc6" data-name="8" xmlns="http://www.w3.org/2000/svg" viewBox="0 0 69.99 47.01"><defs><style>.b9a69348-33be-4e27-92de-821245ef6ef9{fill:#fcfcfc;}</style></defs><g id="aeba4b0d-42f9-4e61-a938-994cb2ea5091" data-name="8"><path class="b9a69348-33be-4e27-92de-821245ef6ef9" d="M35.59,25.38a5.16,5.16,0,0,0-3.26.72,3.83,3.83,0,0,0-.8,2.85,3.57,3.57,0,0,0,.8,2.73,5.17,5.17,0,0,0,3.22.7,4.86,4.86,0,0,0,3.12-.7A3.66,3.66,0,0,0,39.44,29a4,4,0,0,0-.75-2.87A4.86,4.86,0,0,0,35.59,25.38Z" transform="translate(-0.15 -0.1)"/><path class="b9a69348-33be-4e27-92de-821245ef6ef9" d="M35.59,21.67a4.45,4.45,0,0,0,2.83-.61,3.4,3.4,0,0,0,.67-2.5A3.67,3.67,0,0,0,38.41,16a4.4,4.4,0,0,0-2.86-.65,4.6,4.6,0,0,0-2.92.65,3.51,3.51,0,0,0-.72,2.61A3.22,3.22,0,0,0,32.65,21,4.79,4.79,0,0,0,35.59,21.67Z" transform="translate(-0.15 -0.1)"/><path class="b9a69348-33be-4e27-92de-821245ef6ef9" d="M65.68.39a6.32,6.32,0,0,0-2-.28H6.51A6.36,6.36,0,0,0,.15,6.47V40.74A6.36,6.36,0,0,0,6.51,47.1H63.78a6.36,6.36,0,0,0,6.36-6.36V6.48A6.39,6.39,0,0,0,65.68.39ZM42.62,35q-1.84,1.45-7.1,1.49c-3.48,0-5.85-.46-7.11-1.45s-1.89-2.67-1.89-5q0-6.06,4.17-6.44v-.14A3.38,3.38,0,0,1,28,21.72a7.54,7.54,0,0,1-.87-3.79q0-3.54,1.73-5t6.67-1.45q4.93,0,6.67,1.45t1.73,5A7.43,7.43,0,0,1,43,21.72a3.41,3.41,0,0,1-2.68,1.74v.14a3.77,3.77,0,0,1,3.22,1.89A9.66,9.66,0,0,1,44.48,30C44.48,32.39,43.86,34.06,42.62,35Z" transform="translate(-0.15 -0.1)"/></g></svg>