<svg id="ee517711-9a65-48d3-948f-c33134354f59" data-name="8" xmlns="http://www.w3.org/2000/svg" viewBox="0 0 69.99 47.01"><defs><style>.f1bed034-ff23-4b93-8944-0832f6e24802{fill:#fcfcfc;}</style></defs><g id="ae25de4a-e1ac-4083-a6e3-527fde783d5c" data-name="8+"><path class="f1bed034-ff23-4b93-8944-0832f6e24802" d="M26,25.38c-1.63,0-2.72.24-3.25.72A3.79,3.79,0,0,0,21.9,29a3.53,3.53,0,0,0,.81,2.73,5.15,5.15,0,0,0,3.22.7,4.83,4.83,0,0,0,3.11-.7A3.62,3.62,0,0,0,29.81,29a4,4,0,0,0-.75-2.87A4.82,4.82,0,0,0,26,25.38Z" transform="translate(-0.15 -0.1)"/><path class="f1bed034-ff23-4b93-8944-0832f6e24802" d="M26,21.67a4.49,4.49,0,0,0,2.84-.61,3.45,3.45,0,0,0,.66-2.5A3.62,3.62,0,0,0,28.78,16a4.37,4.37,0,0,0-2.85-.65A4.58,4.58,0,0,0,23,16a3.51,3.51,0,0,0-.72,2.61A3.22,3.22,0,0,0,23,21,4.79,4.79,0,0,0,26,21.67Z" transform="translate(-0.15 -0.1)"/><path class="f1bed034-ff23-4b93-8944-0832f6e24802" d="M65.68.39a6.32,6.32,0,0,0-2-.28H6.51A6.36,6.36,0,0,0,.15,6.47V40.74A6.36,6.36,0,0,0,6.51,47.1H63.78a6.36,6.36,0,0,0,6.36-6.36V6.48A6.39,6.39,0,0,0,65.68.39ZM33,35q-1.86,1.45-7.11,1.49t-7.1-1.45c-1.26-1-1.89-2.67-1.89-5q0-6.06,4.16-6.44v-.14a3.37,3.37,0,0,1-2.69-1.74,7.43,7.43,0,0,1-.88-3.79q0-3.54,1.74-5t6.66-1.45c3.29,0,5.52.48,6.67,1.45s1.73,2.63,1.73,5a7.33,7.33,0,0,1-.89,3.79,3.4,3.4,0,0,1-2.68,1.74v.14a3.75,3.75,0,0,1,3.22,1.89A9.54,9.54,0,0,1,34.85,30C34.85,32.39,34.23,34.06,33,35Zm21.1-7.61H48.05v5.85H44.23V27.41h-6V23.63h6V17.75h3.85v5.88H54.1Z" transform="translate(-0.15 -0.1)"/></g></svg>