<svg id="b47a3615-8e12-4ac9-88f2-7428ea96edc2" data-name="8" xmlns="http://www.w3.org/2000/svg" viewBox="0 0 69.99 47.01"><defs><style>.ec3682c2-506c-430b-a5c6-15327f76b5e9{fill:#fcfcfc;}</style></defs><g id="a793c452-66fa-421e-8a7b-2293df831e82" data-name="8-11"><path class="ec3682c2-506c-430b-a5c6-15327f76b5e9" d="M14.55,21.67a4.49,4.49,0,0,0,2.84-.61,3.45,3.45,0,0,0,.66-2.5A3.62,3.62,0,0,0,17.37,16a4.37,4.37,0,0,0-2.85-.65A4.58,4.58,0,0,0,11.6,16a3.51,3.51,0,0,0-.72,2.61A3.22,3.22,0,0,0,11.61,21,4.79,4.79,0,0,0,14.55,21.67Z" transform="translate(-0.15 -0.1)"/><path class="ec3682c2-506c-430b-a5c6-15327f76b5e9" d="M14.55,25.38c-1.63,0-2.72.24-3.25.72A3.79,3.79,0,0,0,10.49,29a3.53,3.53,0,0,0,.81,2.73,5.15,5.15,0,0,0,3.22.7,4.83,4.83,0,0,0,3.11-.7A3.62,3.62,0,0,0,18.4,29a4,4,0,0,0-.75-2.87A4.82,4.82,0,0,0,14.55,25.38Z" transform="translate(-0.15 -0.1)"/><path class="ec3682c2-506c-430b-a5c6-15327f76b5e9" d="M65.68.39a6.32,6.32,0,0,0-2-.28H6.51A6.36,6.36,0,0,0,.15,6.47V40.74A6.36,6.36,0,0,0,6.51,47.1H63.78a6.36,6.36,0,0,0,6.36-6.36V6.48A6.39,6.39,0,0,0,65.68.39ZM21.59,35q-1.86,1.45-7.11,1.49c-3.47,0-5.84-.46-7.1-1.45s-1.89-2.67-1.89-5q0-6.06,4.16-6.44v-.14A3.37,3.37,0,0,1,7,21.72a7.54,7.54,0,0,1-.88-3.79q0-3.54,1.74-5t6.66-1.45c3.29,0,5.52.48,6.67,1.45s1.73,2.63,1.73,5A7.33,7.33,0,0,1,22,21.72a3.4,3.4,0,0,1-2.68,1.74v.14a3.75,3.75,0,0,1,3.22,1.89A9.54,9.54,0,0,1,23.44,30C23.44,32.39,22.82,34.06,21.59,35Zm16.17-6.17H27.33v-3.4H37.76ZM50.5,36.06H45.18v-17a14.13,14.13,0,0,1,.21-2.63l-5.64,1.47-.63-3.57,6.06-2.41H50.5Zm15,0H60.19v-17a14.13,14.13,0,0,1,.21-2.63l-5.63,1.47-.63-3.57,6-2.41h5.32Z" transform="translate(-0.15 -0.1)"/></g></svg>