<svg id="b6282004-b1a7-4af1-b642-a576e263d03d" data-name="8" xmlns="http://www.w3.org/2000/svg" viewBox="0 0 69.99 47.01"><defs><style>.b9ea3e29-9c4a-46c7-9943-ee86803a0703{fill:#fcfcfc;}</style></defs><g id="aa289f10-bbe8-46fb-8a5c-bbfb5af8ae6d" data-name="8-10"><path class="b9ea3e29-9c4a-46c7-9943-ee86803a0703" d="M60.44,15.7a3.18,3.18,0,0,0-3.17,1.7q-.83,1.7-.82,6.6t.82,6.6a3.18,3.18,0,0,0,3.17,1.69,3.27,3.27,0,0,0,3.25-1.69q.84-1.7.84-6.6t-.84-6.6A3.28,3.28,0,0,0,60.44,15.7Z" transform="translate(-0.15 -0.1)"/><path class="b9ea3e29-9c4a-46c7-9943-ee86803a0703" d="M10.28,21.69a4.47,4.47,0,0,0,2.84-.61,3.48,3.48,0,0,0,.66-2.51A3.61,3.61,0,0,0,13.1,16a4.35,4.35,0,0,0-2.85-.65A4.58,4.58,0,0,0,7.33,16a3.5,3.5,0,0,0-.72,2.6,3.23,3.23,0,0,0,.73,2.49A4.79,4.79,0,0,0,10.28,21.69Z" transform="translate(-0.15 -0.1)"/><path class="b9ea3e29-9c4a-46c7-9943-ee86803a0703" d="M10.28,25.4A5.14,5.14,0,0,0,7,26.12,3.79,3.79,0,0,0,6.22,29,3.56,3.56,0,0,0,7,31.7a5.17,5.17,0,0,0,3.22.7,4.83,4.83,0,0,0,3.11-.7A3.65,3.65,0,0,0,14.13,29a4,4,0,0,0-.75-2.87C12.88,25.63,11.85,25.4,10.28,25.4Z" transform="translate(-0.15 -0.1)"/><path class="b9ea3e29-9c4a-46c7-9943-ee86803a0703" d="M65.68.39a6.32,6.32,0,0,0-2-.28H6.51A6.36,6.36,0,0,0,.15,6.47V40.74A6.36,6.36,0,0,0,6.51,47.1H63.78a6.36,6.36,0,0,0,6.36-6.36V6.48A6.39,6.39,0,0,0,65.68.39ZM17.32,35q-1.86,1.45-7.11,1.49t-7.1-1.45q-1.89-1.48-1.89-5,0-6,4.16-6.44v-.14a3.36,3.36,0,0,1-2.69-1.73,7.55,7.55,0,0,1-.88-3.8q0-3.53,1.74-5t6.66-1.46c3.29,0,5.52.49,6.67,1.46s1.73,2.63,1.73,5a7.35,7.35,0,0,1-.89,3.8A3.39,3.39,0,0,1,15,23.47v.14a3.75,3.75,0,0,1,3.22,1.89,9.57,9.57,0,0,1,.91,4.55Q19.17,33.59,17.32,35Zm16.17-6.18H23.06V25.47H33.49Zm12.74,7.21H40.91v-17a14,14,0,0,1,.21-2.62l-5.64,1.47-.63-3.57,6.06-2.42h5.32Zm21.49-2.34c-1.38,1.87-3.79,2.8-7.25,2.8s-5.83-.93-7.21-2.8S51.2,28.62,51.2,24s.69-7.86,2.06-9.73,3.78-2.8,7.21-2.8,5.87.93,7.25,2.8,2.06,5.11,2.06,9.73S69.09,31.86,67.72,33.73Z" transform="translate(-0.15 -0.1)"/></g></svg>