<svg id="ac140720-9d39-4663-986c-3a3856badf1b" data-name="8" xmlns="http://www.w3.org/2000/svg" viewBox="0 0 69.99 47.01"><defs><style>.a4ea84a6-ca0e-48fa-ac9d-cb0022b07586{fill:#fcfcfc;}</style></defs><g id="ba0aa42b-37d9-4b02-bc34-623878868c09" data-name="8-12"><path class="a4ea84a6-ca0e-48fa-ac9d-cb0022b07586" d="M11.09,21.67a4.45,4.45,0,0,0,2.83-.61,3.4,3.4,0,0,0,.67-2.5A3.67,3.67,0,0,0,13.91,16a4.4,4.4,0,0,0-2.86-.65A4.6,4.6,0,0,0,8.13,16a3.51,3.51,0,0,0-.72,2.61A3.22,3.22,0,0,0,8.15,21,4.79,4.79,0,0,0,11.09,21.67Z" transform="translate(-0.15 -0.1)"/><path class="a4ea84a6-ca0e-48fa-ac9d-cb0022b07586" d="M11.09,25.38a5.16,5.16,0,0,0-3.26.72A3.83,3.83,0,0,0,7,29a3.57,3.57,0,0,0,.8,2.73,5.17,5.17,0,0,0,3.22.7,4.86,4.86,0,0,0,3.12-.7A3.66,3.66,0,0,0,14.94,29a4,4,0,0,0-.75-2.87A4.86,4.86,0,0,0,11.09,25.38Z" transform="translate(-0.15 -0.1)"/><path class="a4ea84a6-ca0e-48fa-ac9d-cb0022b07586" d="M65.68.39a6.32,6.32,0,0,0-2-.28H6.51A6.36,6.36,0,0,0,.15,6.47V40.74A6.36,6.36,0,0,0,6.51,47.1H63.78a6.36,6.36,0,0,0,6.36-6.36V6.48A6.39,6.39,0,0,0,65.68.39ZM18.12,35q-1.85,1.45-7.1,1.49c-3.48,0-5.85-.46-7.11-1.45S2,32.39,2,30Q2,24,6.19,23.6v-.14a3.38,3.38,0,0,1-2.7-1.74,7.54,7.54,0,0,1-.87-3.79q0-3.54,1.73-5T11,11.49q4.94,0,6.67,1.45t1.73,5a7.33,7.33,0,0,1-.9,3.79,3.38,3.38,0,0,1-2.67,1.74v.14a3.77,3.77,0,0,1,3.22,1.89A9.54,9.54,0,0,1,20,30C20,32.39,19.36,34.06,18.12,35Zm16.17-6.17H23.86v-3.4H34.29ZM47,36.06H41.71v-17a14.13,14.13,0,0,1,.21-2.63l-5.63,1.47-.63-3.57,6.05-2.41H47Zm22,0H51.86v-3a3,3,0,0,1,.77-2.17l5.92-6.37q4.34-4.51,4.3-6.89a1.32,1.32,0,0,0-.77-1.32A7.72,7.72,0,0,0,59.56,16q-3.7,0-7.28.31l-.21-4a40,40,0,0,1,8.12-.84,12.11,12.11,0,0,1,6.07,1.19q2,1.19,2,4.41a8.94,8.94,0,0,1-.79,3.83,18,18,0,0,1-3.13,4.15l-6.2,6.44a19.92,19.92,0,0,1,3.57-.25H69Z" transform="translate(-0.15 -0.1)"/></g></svg>