<svg id="ba99c7cd-a9b9-4d41-99d7-6e49ba3eaafa" data-name="8" xmlns="http://www.w3.org/2000/svg" viewBox="0 0 69.99 47.01"><defs><style>.be3e217b-5ba6-404d-ad69-7a1ef795a8da{fill:#fcfcfc;}</style></defs><g id="ed2ef8d0-f1ba-4954-baff-a3924f12011b" data-name="8-9"><path class="be3e217b-5ba6-404d-ad69-7a1ef795a8da" d="M53.23,15.55c-1.45,0-2.39.34-2.84,1a6.65,6.65,0,0,0-.63,3.5,4.86,4.86,0,0,0,.68,3,3.27,3.27,0,0,0,2.65.89,6.89,6.89,0,0,0,3.81-1.33c0-3-.2-4.94-.61-5.81S54.86,15.55,53.23,15.55Z" transform="translate(-0.15 -0.1)"/><path class="be3e217b-5ba6-404d-ad69-7a1ef795a8da" d="M65.68.39a6.32,6.32,0,0,0-2-.28H6.51A6.36,6.36,0,0,0,.15,6.47V40.74A6.36,6.36,0,0,0,6.51,47.1H63.78a6.36,6.36,0,0,0,6.36-6.36V6.48A6.39,6.39,0,0,0,65.68.39ZM25.09,35Q23.23,36.48,18,36.51c-3.47,0-5.84-.46-7.1-1.45S9,32.39,9,30Q9,24,13.15,23.6v-.14a3.37,3.37,0,0,1-2.69-1.74,7.43,7.43,0,0,1-.88-3.79q0-3.54,1.74-5T18,11.49c3.29,0,5.52.48,6.67,1.45s1.73,2.63,1.73,5a7.33,7.33,0,0,1-.89,3.79,3.4,3.4,0,0,1-2.68,1.74v.14A3.75,3.75,0,0,1,26,25.49,9.54,9.54,0,0,1,26.94,30C26.94,32.39,26.32,34.06,25.09,35Zm16.17-6.17H30.83v-3.4H41.26Zm20.25,1.43a7.77,7.77,0,0,1-1.81,3.87A6.33,6.33,0,0,1,56.64,36a18.43,18.43,0,0,1-4.67.48,26.25,26.25,0,0,1-6.2-.63l.32-3.54c1.3,0,3.25.07,5.84.07,1.82,0,3.08-.44,3.76-1.31s1.08-2.56,1.18-5.06a7.54,7.54,0,0,1-5.36,1.82q-6.75,0-6.75-7.66,0-4.62,1.85-6.65c1.26-1.36,3.48-2,6.65-2a16.32,16.32,0,0,1,3.76.36A6.62,6.62,0,0,1,59.53,13a4.84,4.84,0,0,1,1.54,2.29,15.62,15.62,0,0,1,.73,3.45,48.07,48.07,0,0,1,.21,5A34.66,34.66,0,0,1,61.51,30.28Z" transform="translate(-0.15 -0.1)"/><path class="be3e217b-5ba6-404d-ad69-7a1ef795a8da" d="M18.05,25.38c-1.63,0-2.72.24-3.25.72A3.79,3.79,0,0,0,14,29a3.53,3.53,0,0,0,.81,2.73,5.15,5.15,0,0,0,3.22.7,4.83,4.83,0,0,0,3.11-.7A3.62,3.62,0,0,0,21.9,29a4,4,0,0,0-.75-2.87A4.82,4.82,0,0,0,18.05,25.38Z" transform="translate(-0.15 -0.1)"/><path class="be3e217b-5ba6-404d-ad69-7a1ef795a8da" d="M18.05,21.67a4.49,4.49,0,0,0,2.84-.61,3.45,3.45,0,0,0,.66-2.5A3.62,3.62,0,0,0,20.87,16,4.37,4.37,0,0,0,18,15.3,4.58,4.58,0,0,0,15.1,16a3.51,3.51,0,0,0-.72,2.61A3.22,3.22,0,0,0,15.11,21,4.79,4.79,0,0,0,18.05,21.67Z" transform="translate(-0.15 -0.1)"/></g></svg>