<svg id="ae2cddac-c3c7-4906-9e4c-82e48ec303ff" data-name="Calque 9" xmlns="http://www.w3.org/2000/svg" viewBox="0 0 40 27"><defs><style>.b2ee967e-f153-4174-a180-ff3867b6ac29{fill:#fff;}</style></defs><g id="bdc741c9-74e0-44e8-b27f-97d256577c0d" data-name="9"><path class="b2ee967e-f153-4174-a180-ff3867b6ac29" d="M19.91,8.68c-.83,0-1.37.19-1.62.58a3.81,3.81,0,0,0-.36,2A2.78,2.78,0,0,0,18.32,13a1.85,1.85,0,0,0,1.51.51A3.94,3.94,0,0,0,22,12.74a9.71,9.71,0,0,0-.35-3.32C21.43,8.93,20.84,8.68,19.91,8.68Z" transform="translate(0)"/><path class="b2ee967e-f153-4174-a180-ff3867b6ac29" d="M39,0H1A1,1,0,0,0,0,1V26a1,1,0,0,0,1,1H39a1,1,0,0,0,1-1V1A1,1,0,0,0,39,0ZM24.64,17.1a4.47,4.47,0,0,1-1,2.21,3.63,3.63,0,0,1-1.75,1.06,10.64,10.64,0,0,1-2.67.27,15,15,0,0,1-3.54-.36l.18-2c.75,0,1.86,0,3.34,0a2.6,2.6,0,0,0,2.15-.75A5.29,5.29,0,0,0,22,14.66a4.35,4.35,0,0,1-3.06,1q-3.86,0-3.86-4.38a5.43,5.43,0,0,1,1.06-3.8c.72-.77,2-1.16,3.8-1.16a9.17,9.17,0,0,1,2.15.21,3.78,3.78,0,0,1,1.43.66,2.74,2.74,0,0,1,.88,1.31,8.85,8.85,0,0,1,.42,2,27.48,27.48,0,0,1,.12,2.85A19.67,19.67,0,0,1,24.64,17.1Z" transform="translate(0)"/></g></svg>