<svg id="aaeab36d-53a1-4f14-a420-a3e9ca3021f8" data-name="9" xmlns="http://www.w3.org/2000/svg" viewBox="0 0 69.99 47.01"><defs><style>.a5ecfee8-74e9-4b79-81ad-d307e1456f33{fill:#fcfcfc;}</style></defs><g id="ad3f5377-8171-4f26-b554-0636f220c8e9" data-name="9"><path class="a5ecfee8-74e9-4b79-81ad-d307e1456f33" d="M35.34,15.57c-1.44,0-2.39.33-2.83,1a6.43,6.43,0,0,0-.63,3.5,4.75,4.75,0,0,0,.68,3A3.26,3.26,0,0,0,35.2,24,6.9,6.9,0,0,0,39,22.67c0-3-.21-5-.61-5.81S37,15.57,35.34,15.57Z" transform="translate(-0.15 -0.1)"/><path class="a5ecfee8-74e9-4b79-81ad-d307e1456f33" d="M65.68.39a6.32,6.32,0,0,0-2-.28H6.51A6.36,6.36,0,0,0,.15,6.47V40.74A6.36,6.36,0,0,0,6.51,47.1H63.78a6.36,6.36,0,0,0,6.36-6.36V6.48A6.39,6.39,0,0,0,65.68.39ZM43.62,30.3a7.85,7.85,0,0,1-1.8,3.87A6.42,6.42,0,0,1,38.76,36a18.53,18.53,0,0,1-4.68.47,26.22,26.22,0,0,1-6.19-.63l.31-3.53c1.31.05,3.26.07,5.85.07,1.82,0,3.07-.44,3.76-1.31S38.89,28.53,39,26a7.56,7.56,0,0,1-5.35,1.82q-6.76,0-6.76-7.67c0-3.08.6-5.29,1.86-6.65s3.47-2,6.65-2a16.38,16.38,0,0,1,3.76.36A6.57,6.57,0,0,1,41.64,13a4.77,4.77,0,0,1,1.54,2.29,15.48,15.48,0,0,1,.74,3.45,47.94,47.94,0,0,1,.21,5A33.79,33.79,0,0,1,43.62,30.3Z" transform="translate(-0.15 -0.1)"/></g></svg>