<svg id="f5a22569-16a0-4cfe-8178-c3432dd52b1f" data-name="Calque 9" xmlns="http://www.w3.org/2000/svg" viewBox="0 0 40 27"><defs><style>.b7c2ab0c-a97d-4259-b2d4-d6851561422b{fill:#fff;}</style></defs><g id="b6130027-7962-44e6-90cb-cc8ebd271770" data-name="9+"><path class="b7c2ab0c-a97d-4259-b2d4-d6851561422b" d="M14.41,8.68c-.83,0-1.37.19-1.62.58a3.81,3.81,0,0,0-.36,2A2.78,2.78,0,0,0,12.82,13a1.85,1.85,0,0,0,1.51.51,3.94,3.94,0,0,0,2.18-.76,9.71,9.71,0,0,0-.35-3.32C15.93,8.93,15.34,8.68,14.41,8.68Z" transform="translate(0)"/><path class="b7c2ab0c-a97d-4259-b2d4-d6851561422b" d="M39,0H1A1,1,0,0,0,0,1V26a1,1,0,0,0,1,1H39a1,1,0,0,0,1-1V1A1,1,0,0,0,39,0ZM19.14,17.1a4.47,4.47,0,0,1-1,2.21,3.63,3.63,0,0,1-1.75,1.06,10.64,10.64,0,0,1-2.67.27,15,15,0,0,1-3.54-.36l.18-2c.75,0,1.86,0,3.34,0a2.6,2.6,0,0,0,2.15-.75,5.29,5.29,0,0,0,.67-2.89,4.35,4.35,0,0,1-3.06,1q-3.86,0-3.86-4.38a5.43,5.43,0,0,1,1.06-3.8c.72-.77,2-1.16,3.8-1.16a9.17,9.17,0,0,1,2.15.21A3.78,3.78,0,0,1,18,7.23a2.74,2.74,0,0,1,.88,1.31,8.85,8.85,0,0,1,.42,2,27.48,27.48,0,0,1,.12,2.85A19.67,19.67,0,0,1,19.14,17.1Zm11.29-1.64H27V18.8H24.79V15.46H21.33V13.3h3.44V9.94H27V13.3h3.46Z" transform="translate(0)"/></g></svg>