<svg id="ed57334b-c350-41d5-9b10-d02379262a63" data-name="9" xmlns="http://www.w3.org/2000/svg" viewBox="0 0 69.99 47.01"><defs><style>.e98dc022-b967-4742-92ef-a5b86cbbc157{fill:#fcfcfc;}</style></defs><g id="e41bfb6d-a38c-46e2-9aa1-e8825ed97322" data-name="9+"><path class="e98dc022-b967-4742-92ef-a5b86cbbc157" d="M25.72,15.57c-1.45,0-2.39.33-2.84,1a6.62,6.62,0,0,0-.63,3.5,4.81,4.81,0,0,0,.69,3,3.23,3.23,0,0,0,2.64.89,6.89,6.89,0,0,0,3.81-1.33q0-4.52-.61-5.81T25.72,15.57Z" transform="translate(-0.51 -0.1)"/><path class="e98dc022-b967-4742-92ef-a5b86cbbc157" d="M66,.39a6.39,6.39,0,0,0-2-.28H6.86A6.35,6.35,0,0,0,.51,6.47V40.74A6.35,6.35,0,0,0,6.86,47.1H64.14a6.35,6.35,0,0,0,6.35-6.36V6.48A6.37,6.37,0,0,0,66,.39ZM34,30.3a7.77,7.77,0,0,1-1.81,3.87A6.33,6.33,0,0,1,29.13,36a18.49,18.49,0,0,1-4.67.47,26.31,26.31,0,0,1-6.2-.63l.32-3.53c1.3.05,3.25.07,5.84.07,1.82,0,3.08-.44,3.77-1.31s1.07-2.56,1.17-5.06A7.58,7.58,0,0,1,24,27.85q-6.75,0-6.75-7.67c0-3.08.59-5.29,1.85-6.65s3.48-2,6.65-2a16.48,16.48,0,0,1,3.77.36A6.64,6.64,0,0,1,32,13a4.84,4.84,0,0,1,1.54,2.29,15.5,15.5,0,0,1,.73,3.45,47.94,47.94,0,0,1,.21,5A34.73,34.73,0,0,1,34,30.3Zm19.75-2.87h-6v5.85H43.88V27.43H37.83V23.65h6V17.77H47.7v5.88h6Z" transform="translate(-0.51 -0.1)"/></g></svg>