<svg id="a276d690-6fcb-4fa2-88b2-0c3892670a31" data-name="9" xmlns="http://www.w3.org/2000/svg" viewBox="0 0 69.99 47.01"><defs><style>.f0a59d37-bdcb-4436-b748-d851aedeff64{fill:#fcfcfc;}</style></defs><g id="a7833786-2cdb-45f7-a75b-f7a6a81cfb5f" data-name="9-10"><path class="f0a59d37-bdcb-4436-b748-d851aedeff64" d="M60.09,15.7a3.18,3.18,0,0,0-3.17,1.7q-.83,1.7-.82,6.6t.82,6.6a3.18,3.18,0,0,0,3.17,1.7,3.28,3.28,0,0,0,3.25-1.7q.84-1.7.84-6.6t-.84-6.6A3.28,3.28,0,0,0,60.09,15.7Z" transform="translate(-0.15 -0.1)"/><path class="f0a59d37-bdcb-4436-b748-d851aedeff64" d="M10,15.57c-1.45,0-2.39.33-2.84,1a6.62,6.62,0,0,0-.63,3.5,4.81,4.81,0,0,0,.69,3A3.23,3.23,0,0,0,9.9,24a6.89,6.89,0,0,0,3.81-1.33q0-4.52-.61-5.81T10,15.57Z" transform="translate(-0.15 -0.1)"/><path class="f0a59d37-bdcb-4436-b748-d851aedeff64" d="M65.68.39a6.32,6.32,0,0,0-2-.28H6.51A6.36,6.36,0,0,0,.15,6.47V40.74A6.36,6.36,0,0,0,6.51,47.1H63.78a6.36,6.36,0,0,0,6.36-6.36V6.48A6.39,6.39,0,0,0,65.68.39ZM18.32,30.3a7.77,7.77,0,0,1-1.81,3.87A6.33,6.33,0,0,1,13.45,36a18.49,18.49,0,0,1-4.67.47,26.31,26.31,0,0,1-6.2-.63l.32-3.53c1.3.05,3.25.07,5.84.07,1.82,0,3.08-.44,3.77-1.31s1.07-2.56,1.17-5.06a7.58,7.58,0,0,1-5.36,1.82q-6.75,0-6.75-7.67c0-3.08.59-5.29,1.85-6.65s3.48-2,6.65-2a16.48,16.48,0,0,1,3.77.36A6.64,6.64,0,0,1,16.34,13a4.84,4.84,0,0,1,1.54,2.29,15.5,15.5,0,0,1,.73,3.45,47.94,47.94,0,0,1,.21,5A34.73,34.73,0,0,1,18.32,30.3Zm14.82-1.44H22.71V25.47H33.14Zm12.74,7.21H40.56v-17a14.06,14.06,0,0,1,.21-2.63l-5.64,1.47-.63-3.57,6.06-2.41h5.32Zm21.49-2.34c-1.38,1.87-3.79,2.8-7.25,2.8s-5.83-.93-7.21-2.8S50.85,28.62,50.85,24s.69-7.86,2.06-9.73,3.78-2.8,7.21-2.8,5.87.93,7.25,2.8,2.06,5.11,2.06,9.73S68.74,31.86,67.37,33.73Z" transform="translate(-0.15 -0.1)"/></g></svg>