<svg id="b843cf08-7f8d-4424-9264-22cc55a22a33" data-name="9" xmlns="http://www.w3.org/2000/svg" viewBox="0 0 69.99 47.01"><defs><style>.b98a35a1-fb53-47a4-a25f-baac2d718ffb{fill:#fcfcfc;}</style></defs><g id="ae9956e5-e705-4aa2-a5ad-593a6cbfdc3f" data-name="9-11"><path class="b98a35a1-fb53-47a4-a25f-baac2d718ffb" d="M65.68.39a6.32,6.32,0,0,0-2-.28H6.51A6.36,6.36,0,0,0,.15,6.47V40.74A6.36,6.36,0,0,0,6.51,47.1H63.78a6.36,6.36,0,0,0,6.36-6.36V6.48A6.39,6.39,0,0,0,65.68.39ZM22.59,30.3a7.77,7.77,0,0,1-1.81,3.87A6.33,6.33,0,0,1,17.72,36a18.49,18.49,0,0,1-4.67.47,26.31,26.31,0,0,1-6.2-.63l.32-3.53c1.3.05,3.25.07,5.84.07,1.82,0,3.08-.44,3.77-1.31S17.85,28.53,18,26a7.58,7.58,0,0,1-5.36,1.82q-6.75,0-6.75-7.67c0-3.08.59-5.29,1.85-6.65s3.48-2,6.65-2a16.48,16.48,0,0,1,3.77.36A6.64,6.64,0,0,1,20.61,13a4.84,4.84,0,0,1,1.54,2.29,15.5,15.5,0,0,1,.73,3.45,47.94,47.94,0,0,1,.21,5A34.73,34.73,0,0,1,22.59,30.3Zm14.82-1.44H27V25.47H37.41Zm12.74,7.21H44.83v-17A14.06,14.06,0,0,1,45,16.44L39.4,17.91l-.63-3.57,6.06-2.41h5.32Zm15,0H59.84v-17a14.06,14.06,0,0,1,.21-2.63l-5.63,1.47-.63-3.57,6.05-2.41h5.32Z" transform="translate(-0.15 -0.1)"/><path class="b98a35a1-fb53-47a4-a25f-baac2d718ffb" d="M14.31,15.57c-1.45,0-2.39.33-2.84,1a6.62,6.62,0,0,0-.63,3.5,4.81,4.81,0,0,0,.69,3,3.23,3.23,0,0,0,2.64.89A6.89,6.89,0,0,0,18,22.67q0-4.52-.61-5.81T14.31,15.57Z" transform="translate(-0.15 -0.1)"/></g></svg>