<svg id="f72382e3-4099-470e-8d8d-c0eb44a84c62" data-name="9" xmlns="http://www.w3.org/2000/svg" viewBox="0 0 69.99 47.01"><defs><style>.bd364273-4306-42cf-ba60-6e981b0cf805{fill:#fcfcfc;}</style></defs><g id="b9d12030-9f83-472c-bfba-edc8cb77100d" data-name="9-12"><path class="bd364273-4306-42cf-ba60-6e981b0cf805" d="M10.84,15.57c-1.44,0-2.39.33-2.83,1a6.43,6.43,0,0,0-.63,3.5,4.75,4.75,0,0,0,.68,3A3.26,3.26,0,0,0,10.7,24a6.9,6.9,0,0,0,3.82-1.33c0-3-.21-5-.61-5.81S12.48,15.57,10.84,15.57Z" transform="translate(-0.15 -0.1)"/><path class="bd364273-4306-42cf-ba60-6e981b0cf805" d="M65.68.39a6.32,6.32,0,0,0-2-.28H6.51A6.36,6.36,0,0,0,.15,6.47V40.74A6.36,6.36,0,0,0,6.51,47.1H63.78a6.36,6.36,0,0,0,6.36-6.36V6.48A6.39,6.39,0,0,0,65.68.39ZM19.12,30.3a7.85,7.85,0,0,1-1.8,3.87A6.42,6.42,0,0,1,14.26,36a18.53,18.53,0,0,1-4.68.47,26.22,26.22,0,0,1-6.19-.63l.31-3.53c1.31.05,3.26.07,5.85.07,1.82,0,3.07-.44,3.76-1.31s1.08-2.56,1.17-5.06a7.56,7.56,0,0,1-5.35,1.82q-6.76,0-6.76-7.67c0-3.08.6-5.29,1.86-6.65s3.47-2,6.65-2a16.38,16.38,0,0,1,3.76.36A6.57,6.57,0,0,1,17.14,13a4.77,4.77,0,0,1,1.54,2.29,15.48,15.48,0,0,1,.74,3.45,47.94,47.94,0,0,1,.21,5A33.79,33.79,0,0,1,19.12,30.3Zm14.82-1.44H23.51V25.47H33.94Zm12.74,7.21H41.36v-17a14.06,14.06,0,0,1,.21-2.63l-5.63,1.47-.63-3.57,6-2.41h5.32Zm21.95,0H51.51v-3a3,3,0,0,1,.77-2.17l5.92-6.37q4.34-4.51,4.3-6.9a1.31,1.31,0,0,0-.77-1.31,7.39,7.39,0,0,0-2.52-.3q-3.7,0-7.28.32l-.21-4a40,40,0,0,1,8.12-.83,12.11,12.11,0,0,1,6.07,1.19q2,1.19,2,4.4a9,9,0,0,1-.79,3.84A17.78,17.78,0,0,1,64,25.08l-6.2,6.45a19.92,19.92,0,0,1,3.57-.25h7.25Z" transform="translate(-0.15 -0.1)"/></g></svg>