<svg id="e4f4efab-60a1-4fa0-a709-14f91cfb117f" data-name="Calque 1" xmlns="http://www.w3.org/2000/svg" viewBox="0 0 69.99 47.01"><defs><style>.ad7f5b7b-d21c-4faa-8525-3d7a6b80a6ca{fill:#fcfcfc;}</style></defs><path id="fa212ddd-698e-4db1-a39b-1904a7a4a165" data-name="action" class="ad7f5b7b-d21c-4faa-8525-3d7a6b80a6ca" d="M66,.78a6.38,6.38,0,0,0-2-.27H23.86v0l-17,0A6.35,6.35,0,0,0,.51,6.86V41.14a6.35,6.35,0,0,0,6.35,6.35h17v0h40.3a6.35,6.35,0,0,0,6.35-6.36V6.88A6.39,6.39,0,0,0,66,.78ZM55.92,44.93a2.85,2.85,0,0,1-2.87,2H43.53s0-.06,0-.1l7.94-2.35s0-.09,0-.13l-9.55.23,8.31-7.82c0-.05-.06-.08-.08-.13l-10,4.94c1.33-4.8,2.61-9.46,3.9-14.11l-.09,0L36.72,37c-1.25-5.55-2.47-11-3.7-16.4h-.14c-.2,5.88-.4,11.76-.59,17.78l-8.52-6.56a.26.26,0,0,1-.09.05l5.54,10.94-7.71.38,0,.14c2.26,1.17,4.51,2.35,6.78,3.51a.27.27,0,0,0,0,.12h-.55c-2.54,0-5.1-.11-7.64,0a5.07,5.07,0,0,1-5-4,7.74,7.74,0,0,1-.11-2.71,4.94,4.94,0,0,1,6-3.91l.48.07a9.32,9.32,0,0,1-1.93-4,5.37,5.37,0,0,1,2.24-5.78A5.68,5.68,0,0,1,28,26.45a8.15,8.15,0,0,1,.78.57c-.43-1.32-.91-2.61-1.27-3.93a11.73,11.73,0,0,1-.07-6.72,6.35,6.35,0,0,1,5.66-4.57,6.28,6.28,0,0,1,6.46,5.14,12.23,12.23,0,0,1,.05,5.83,2.67,2.67,0,0,0-.05.41,6.59,6.59,0,0,1,4.3-2,5.44,5.44,0,0,1,5.74,4.08,6.85,6.85,0,0,1-1.51,6c-.15.2-.31.4-.55.69,2.8-1.06,5.13-.71,6.77,1.85,1.22,1.92.8,4.06-1.08,6.43a15.62,15.62,0,0,1,1.83,1A3.09,3.09,0,0,1,55.92,44.93Zm9.47-.64c-.08.33-.14.67-.24,1a2.31,2.31,0,0,1-2.62,1.62,2.27,2.27,0,0,1-1.87-2.55,5.71,5.71,0,0,0-1.59-5.25A.92.92,0,0,1,58.85,38a7.93,7.93,0,0,0,0-6.07,7.62,7.62,0,0,0-4.16-4c-1.31-.58-1.3-.6-1.09-2a8.7,8.7,0,0,0-6.1-9.7,11.68,11.68,0,0,0-4-.13c-.49.05-.66-.06-.74-.56a15,15,0,0,0-1.38-4.85,8.88,8.88,0,0,0-8.77-5c-3.61.15-6,2.2-7.64,5.31a12.35,12.35,0,0,0-1.05,7c.1.9.21,1.81.32,2.75l-2.08.45a8.3,8.3,0,0,0-6.78,7,12.26,12.26,0,0,0,.35,4.63,1.41,1.41,0,0,0,0,.25c-.29.17-.57.33-.86.47a7.52,7.52,0,0,0-4.61,7.94,10.56,10.56,0,0,0,.44,2.28,2.36,2.36,0,0,1-1.47,3.1A2.28,2.28,0,0,1,6.3,45.11c-.28-1-.47-1.94-.69-2.93v-2.8c.22-1,.4-1.94.69-2.87a11,11,0,0,1,4-5.59.82.82,0,0,0,.35-.79,12.75,12.75,0,0,1,3-9,12.89,12.89,0,0,1,5.09-3.69.65.65,0,0,0,.48-.72,15.66,15.66,0,0,1,3-10.08C25.05,2.87,28.82.8,33.62,1a13.64,13.64,0,0,1,12.72,9.7,1,1,0,0,0,1,.79A11.6,11.6,0,0,1,54,14.79,13.22,13.22,0,0,1,58.22,23s0,.09,0,.12c-.2,1.18.48,1.79,1.32,2.5a12,12,0,0,1,4.29,11.66.93.93,0,0,0,.06.6,10.22,10.22,0,0,1,1.41,4,.44.44,0,0,0,.08.15Z" transform="translate(-0.51 -0.49)"/></svg>