<svg id="ad893fc9-a954-45d2-80dc-82a1fb49cbd2" data-name="action" xmlns="http://www.w3.org/2000/svg" viewBox="0 0 69.99 47.01"><defs><style>.a98474ef-fb1a-401c-856b-c0b95b42287d{fill:#fcfcfc;}</style></defs><path id="e45737da-c57a-4676-8690-7050a220c6a4" data-name="actionplatformer" class="a98474ef-fb1a-401c-856b-c0b95b42287d" d="M66,.78a6.38,6.38,0,0,0-2-.27H23.86v0l-17,0A6.35,6.35,0,0,0,.51,6.86V41.14a6.35,6.35,0,0,0,6.35,6.35h17v0h40.3a6.35,6.35,0,0,0,6.35-6.36V6.88A6.39,6.39,0,0,0,66,.78ZM39.62,3a3.75,3.75,0,0,1,2-1.91A4.26,4.26,0,0,1,42.89,1a2.39,2.39,0,0,1,1.42.34,3.26,3.26,0,0,1,1.47,1.57,3.38,3.38,0,0,1-.59,3.73,4.07,4.07,0,0,1-1.69,1,3.37,3.37,0,0,1-3.79-1.84,2.56,2.56,0,0,1-.29-1.46A2.59,2.59,0,0,1,39.62,3ZM20.18,25.88A2.09,2.09,0,0,1,21.25,25a14.94,14.94,0,0,0,6.42-4.15,19.19,19.19,0,0,0,3.52-5,23.36,23.36,0,0,1,2.91-4.57l.4-.51-.33-.1c-.18-.05-.66-.16-1.06-.24s-.92-.2-1.17-.27l-1.12-.31c-3-.76-5.89-1.8-6.4-2.28A2.23,2.23,0,0,1,24,5a1.43,1.43,0,0,1,.86-.9,2,2,0,0,1,1.58.09c1.76.64,3.16,1.12,4.05,1.38L32,6c.26.08.7.19,1,.26l1,.24c.3.08.81.19,1.13.24l.86.19a12.57,12.57,0,0,0,1.3.23l1.4.22c.2,0,.65.13,1,.18a3.22,3.22,0,0,1,2,1.18l.48.55,1.44,0A8.39,8.39,0,0,0,47,8.58a14.17,14.17,0,0,0,2.22-1.17,2.81,2.81,0,0,1,1.42-.58,2,2,0,0,1,1.27.65,2.13,2.13,0,0,1,.56,1.64c-.06,1-.59,1.5-2.54,2.54A14.48,14.48,0,0,1,46.34,13a10,10,0,0,1-3,.26l-1.88,0-.59.53a17.47,17.47,0,0,0-2.47,2.89l-.6.87,1.29.42c4.94,1.64,7.86,4.15,8.71,7.51a2.31,2.31,0,0,1-.33,2.39c-1.13,1.31-3.13,1-3.42-.58a6.31,6.31,0,0,0-.89-2.21c-1.31-2-4.39-3.4-9.09-4.24L33,20.67l-.18.26A22.49,22.49,0,0,1,25,27.75a7.74,7.74,0,0,1-3.2,1.06c-.64,0-.74,0-1-.25a4,4,0,0,1-.54-.6A1.5,1.5,0,0,1,20,26.88,1.79,1.79,0,0,1,20.18,25.88ZM58.56,47H12.44V38.26H32V29.53h8.73v8.73H58.56Z" transform="translate(-0.51 -0.49)"/></svg>