<svg id="b3433c85-b5f0-4690-b677-e6a6750aa27c" data-name="action" xmlns="http://www.w3.org/2000/svg" viewBox="0 0 69.99 47.01"><defs><style>.e9749139-1669-4b2a-9b21-1c36bb19ca21{fill:#fcfcfc;}</style></defs><g id="acd5d36a-d2f3-47d9-87f5-06de7fddf27f" data-name="actionfighting"><path class="e9749139-1669-4b2a-9b21-1c36bb19ca21" d="M37.23,12.75h-.16l-.54.06L30,24.41c.63,1.9,2.09,2.54,4.08,2.35l6.52-11.6C39.72,13.94,38.8,12.79,37.23,12.75Z" transform="translate(-0.51 -0.49)"/><path class="e9749139-1669-4b2a-9b21-1c36bb19ca21" d="M23.22,25c-1.33,1.3-2.58,2.66-2.14,4.76L31.4,34.35c1.87-1,2.43-2.65,2.14-4.76Z" transform="translate(-0.51 -0.49)"/><path class="e9749139-1669-4b2a-9b21-1c36bb19ca21" d="M28.07,24.12l5.8-10.06c-.89-1.21-1.81-2.36-3.38-2.4h-.16a3.38,3.38,0,0,0-.53.05l-5.8,10C24.63,23.67,26.08,24.31,28.07,24.12Z" transform="translate(-0.51 -0.49)"/><path class="e9749139-1669-4b2a-9b21-1c36bb19ca21" d="M47.46,21.26a3.2,3.2,0,0,0-.52,0l-5.42,9.38c.67,1.82,2.12,2.48,4.07,2.35L51,23.65C50.07,22.43,49.1,21.26,47.46,21.26Z" transform="translate(-0.51 -0.49)"/><path class="e9749139-1669-4b2a-9b21-1c36bb19ca21" d="M43,15.88h-.16a3.38,3.38,0,0,0-.53,0L35.83,27.39c.64,1.9,2.09,2.55,4.08,2.35l6.42-11.45C45.44,17.07,44.52,15.92,43,15.88Z" transform="translate(-0.51 -0.49)"/><path class="e9749139-1669-4b2a-9b21-1c36bb19ca21" d="M66,.78a6.38,6.38,0,0,0-2-.27H23.86v0l-17,0A6.35,6.35,0,0,0,.51,6.86V41.14a6.35,6.35,0,0,0,6.35,6.35h17v0h40.3a6.35,6.35,0,0,0,6.35-6.36V6.88A6.39,6.39,0,0,0,66,.78ZM58.1,36c-7.23-3.11-9.31,0-8.47,7.26C42.31,38.42,35,41.3,29.34,47c.74-9.94-4.63-9.56-12.39-5.18C24.77,31,18,30.06,12.85,28c6-3,8.12-7.89,4.34-13,3.78-1.17,12-.12,2.54-14h0C31.51,13.59,36,8.81,39.24,1.31,41,11.53,44.59,12.09,49.38,6.87c-.29,7.25.82,13.33,8.77,13.64C53.55,24.64,50.34,28.87,58.1,36Z" transform="translate(-0.51 -0.49)"/></g></svg>