<svg id="b4373b04-402b-4c2f-b516-bcdfbb7a4be6" data-name="action" xmlns="http://www.w3.org/2000/svg" viewBox="0 0 69.99 47.01"><defs><style>.e29b9b70-47aa-4aa2-a54d-cc52f6e345fd{fill:#fcfcfc;}</style></defs><g id="bd6433f9-b554-4a57-9647-b64e0e510137" data-name="actionfirstpersonshooter"><path class="e29b9b70-47aa-4aa2-a54d-cc52f6e345fd" d="M45.77,22.09c.43-.57.66-.64,2.11-.68l1.29,0-.07-.33c0-.19-.15-.63-.26-1a14,14,0,0,0-9.39-9.39c-.37-.11-.81-.23-1-.26l-.34-.06,0,1.28c0,1.45-.12,1.69-.68,2.11l-.32.25H33.91l-.32-.25c-.57-.43-.64-.66-.68-2.11,0-.89-.06-1.28-.13-1.27a15.15,15.15,0,0,0-3,1,14.27,14.27,0,0,0-7.24,7.58A17.41,17.41,0,0,0,21.9,21l-.06.34,1.28,0c1.45,0,1.69.12,2.11.68l.25.32v3.18l-.25.32c-.42.56-.66.64-2.11.68l-1.28,0,.06.34c0,.18.15.62.26,1a14,14,0,0,0,9.39,9.39c.37.11.81.23,1,.26l.33.07,0-1.29c0-1.45.11-1.68.68-2.11l.32-.25h3.18l.32.25c.56.42.64.66.68,2.11l0,1.28.34-.06c.18,0,.62-.15,1-.26A14.07,14.07,0,0,0,48.84,28c.11-.37.23-.81.26-1l.06-.34-1.28,0c-1.45,0-1.69-.12-2.11-.68l-.25-.32V22.41Zm-7.42,3.22a3.33,3.33,0,0,1-1.57,1.53,3.17,3.17,0,0,1-2.56,0,3.33,3.33,0,0,1-1.57-1.53A2.41,2.41,0,0,1,32.4,24a2.59,2.59,0,0,1,.25-1.32,3.76,3.76,0,0,1,1.71-1.59,3.57,3.57,0,0,1,2.26,0,3.65,3.65,0,0,1,1.73,1.59A2.59,2.59,0,0,1,38.6,24,2.41,2.41,0,0,1,38.35,25.31Z" transform="translate(-0.51 -0.49)"/><path class="e29b9b70-47aa-4aa2-a54d-cc52f6e345fd" d="M66,.78a6.38,6.38,0,0,0-2-.27H23.86v0l-17,0A6.35,6.35,0,0,0,.51,6.86V41.14a6.35,6.35,0,0,0,6.35,6.35h17v0h40.3a6.35,6.35,0,0,0,6.35-6.36V6.88A6.39,6.39,0,0,0,66,.78Zm-7.73,25c-.42.69-.82.82-2.63.82-1.27,0-1.31-.24-1.31.18A18.11,18.11,0,0,1,53.59,30a21.31,21.31,0,0,1-2,4.27,19.1,19.1,0,0,1-10.06,7.8,17.91,17.91,0,0,1-3.23.78c-.16,0-.17.08-.2,1.5s-.05,1.53-.25,1.88c-.37.66-1,.75-2.35.75s-1.5,0-1.78-.19c-.69-.42-.82-.82-.82-2.63,0-1.27.26-1.31-.18-1.31a17.08,17.08,0,0,1-3.23-.78,21.05,21.05,0,0,1-4.27-2,19.18,19.18,0,0,1-7.8-10,18.06,18.06,0,0,1-.78-3.27c0-.18.51-.18-1.31-.18s-2.21-.13-2.63-.82c-.17-.28-.19-.45-.19-1.79s0-1.51.19-1.79c.42-.69.82-.82,2.63-.82,1.27,0,1.31.25,1.31-.18a19,19,0,0,1,.78-3.27,21.18,21.18,0,0,1,2-4.23A19.09,19.09,0,0,1,32.71,5.13c.18,0,.18.51.18-1.31s.13-2.21.82-2.63C34,1,34.16,1,35.5,1s1.51,0,1.79.19c.69.42.82.82.82,2.61V5.09l1.11.2a20.49,20.49,0,0,1,6.57,2.63A19.1,19.1,0,0,1,53.59,18a18.11,18.11,0,0,1,.78,3.23c0,.18-.51.18,1.31.18s2.21.13,2.63.82c.17.28.19.45.19,1.79S58.48,25.51,58.31,25.79Z" transform="translate(-0.51 -0.49)"/></g></svg>