<svg id="bf568b14-d31b-41ab-9b0b-fcbc82f6a973" data-name="action" xmlns="http://www.w3.org/2000/svg" viewBox="0 0 69.99 47.01"><defs><style>.e2f483e2-ff8c-4813-90d8-a9d6dcf3bc09{fill:#fcfcfc;}</style></defs><g id="a08c4667-b61b-4899-9325-8ab7dcdf31ec" data-name="actionrythm"><path class="e2f483e2-ff8c-4813-90d8-a9d6dcf3bc09" d="M35.91,31.1c1.65,0,8.68,0,9.1-.09.17.28-1.16-5.43-1.65-7.08C43.23,23.79,37.14,29.92,35.91,31.1Z" transform="translate(-0.51 -0.49)"/><path class="e2f483e2-ff8c-4813-90d8-a9d6dcf3bc09" d="M39.2,6.13c-2.83-3-8.66-3-11.55-.13-1.48,6.07-4.92,19.83-5.91,25,0,.05,2.52.09,5.51.1l5.44,0c1.86-1.87,9.33-9.4,9.84-10C43.28,22.14,39.78,9.24,39.2,6.13ZM36.47,26.56l-6.2-.06V24.26h6.11C36.4,24.68,36.48,26.45,36.47,26.56Zm0-5.46H30.27V18.85h6.22Zm0-5.41H30.27V13.35h6.22Zm0-5.5H30.27V7.94h6.22Z" transform="translate(-0.51 -0.49)"/><path class="e2f483e2-ff8c-4813-90d8-a9d6dcf3bc09" d="M66,.78a6.38,6.38,0,0,0-2-.27H23.86v0l-17,0A6.35,6.35,0,0,0,.51,6.86V41.14a6.35,6.35,0,0,0,6.35,6.35h17v0h40.3a6.35,6.35,0,0,0,6.35-6.36V6.88A6.39,6.39,0,0,0,66,.78ZM46.28,44.47c-.17,3.46-5.15,3.3-5-.06H25.54c-.09,3.47-5.1,3.43-5,0-3.11,0-5.24.09-5-3.74V39.23H51.22C51.26,43.73,50.85,44.52,46.28,44.47ZM50.18,17a28.44,28.44,0,0,0-4.28,4.29c-.06.27,0,.71,3.08,13.61.43,1.8.75,3.3.72,3.34-1.4.09-28.94.15-32.7,0,.28-1.71,6.53-27.82,8-33.75,4.09-4.68,12.77-4.6,16.62.06.18,0,3.5,14.47,3.49,13.91.24,0,2.73-2.56,3.33-3.12-1.92-4.41,4-7.75,6.59-3.54l.31.52C55.86,16,53.56,18,50.18,17Z" transform="translate(-0.51 -0.49)"/></g></svg>