<svg id="b549ff5e-7a2a-4abe-88e4-f1a68dcbbea6" data-name="action" xmlns="http://www.w3.org/2000/svg" viewBox="0 0 69.99 47.01"><defs><style>.b501b280-d100-4d4d-81c3-17791b4e3e97{fill:#fcfcfc;}</style></defs><g id="a6f79742-b7e3-4731-8439-182c97ac54ad" data-name="actionshootemup"><path class="b501b280-d100-4d4d-81c3-17791b4e3e97" d="M39.19,12.55A6.1,6.1,0,0,0,37,11.34a6.33,6.33,0,0,0-2.77-.06A7.08,7.08,0,0,0,31,13.35a1.44,1.44,0,0,0,.14,1.92,1.41,1.41,0,0,0,1.44.47,2.88,2.88,0,0,0,.93-.59c1.44-1.25,2.63-1.25,4,0,.87.8,1.52,1,2.33.14S40.41,13.53,39.19,12.55Z" transform="translate(-0.51 -0.49)"/><path class="b501b280-d100-4d4d-81c3-17791b4e3e97" d="M66,.78a6.38,6.38,0,0,0-2-.27H23.86v0l-17,0A6.35,6.35,0,0,0,.51,6.86V41.14a6.35,6.35,0,0,0,6.35,6.35h17v0h40.3a6.35,6.35,0,0,0,6.35-6.36V6.88A6.39,6.39,0,0,0,66,.78ZM28.11,32.24l0,8.51-3.91.61c-2.15.33-4.07.6-4.26.6a1.71,1.71,0,0,1-1.34-.69c-.12-.18-.89-1.4-1.7-2.72l-1.46-2.38V24.75l.22-.33a1.73,1.73,0,0,1,2-.57,1.76,1.76,0,0,1,.87,1,23.07,23.07,0,0,1,.09,2.4v2.06l3.11-5.55c1.71-3,3.14-5.54,3.17-5.54s.77,1.24,1.65,2.74l1.59,2.74Zm11.75-9.45,0,9,0,9-1.33,1-1.35,1v1.46c0,1.55-.06,1.81-.43,2.22a1.64,1.64,0,0,1-2.38,0c-.37-.41-.43-.67-.43-2.22V42.81l-1.35-1-1.33-1,0-9,0-9L28.9,19c-1.23-2.11-2.23-3.81-2.23-3.91S33.86,2.12,34.18,1.65a1.74,1.74,0,0,1,.51-.46,1.94,1.94,0,0,1,1.51-.07,2.11,2.11,0,0,1,.48.39c.24.25,7.65,13.38,7.65,13.55s-1,1.8-2.23,3.91ZM55.58,36.17l-1.46,2.38c-.81,1.32-1.58,2.54-1.7,2.72a1.71,1.71,0,0,1-1.34.69c-.19,0-2.11-.27-4.26-.6l-3.91-.61,0-8.51,0-8.51L44.46,21c.88-1.5,1.62-2.74,1.65-2.74s1.45,2.48,3.15,5.51l3.09,5.5,0-2.2c0-2.36.07-2.5.56-2.94a1.67,1.67,0,0,1,2.41.3l.22.33Z" transform="translate(-0.51 -0.49)"/></g></svg>