<svg id="b8d18169-6856-461b-80d7-488fcce500bc" data-name="action" xmlns="http://www.w3.org/2000/svg" viewBox="0 0 69.99 47.01"><defs><style>.f3aed437-2a5a-4be5-8bd8-eb770eec119f{fill:#fcfcfc;}</style></defs><g id="a72f1d80-d167-4dc3-a287-f0ebf8f0279b" data-name="actionshootwithgun"><path class="f3aed437-2a5a-4be5-8bd8-eb770eec119f" d="M31.5,21.14a3.37,3.37,0,0,0,1-.4.57.57,0,0,0,0-.86c-.28-.26-.58-.22-2.94.4-3.12.81-2.93.8-2.93,1a2.12,2.12,0,0,0,.35,1l1.86-.48Z" transform="translate(-0.51 -0.49)"/><path class="f3aed437-2a5a-4be5-8bd8-eb770eec119f" d="M18.14,29.3a1.09,1.09,0,0,0-.93-.41,1,1,0,0,0-.89.41,1,1,0,0,0-.41.95c0,.48-.27.27.35.89a1.26,1.26,0,0,0,2,0,.94.94,0,0,0,.36-.89C18.58,29.76,18.54,29.68,18.14,29.3Z" transform="translate(-0.51 -0.49)"/><path class="f3aed437-2a5a-4be5-8bd8-eb770eec119f" d="M31.67,17.24c.29-.34.29-.41,0-.73a.75.75,0,0,0-.49-.25c-.36,0-5.23,1.34-5.32,1.43a1.87,1.87,0,0,0,.23,1.1,18.8,18.8,0,0,0,2.72-.6C31,17.61,31.47,17.45,31.67,17.24Z" transform="translate(-0.51 -0.49)"/><path class="f3aed437-2a5a-4be5-8bd8-eb770eec119f" d="M36.07,24.37a.76.76,0,0,0-.2-.28c-.34-.34-1.16-.26-3.14.24-1.31.34-1.73.49-1.75.63a6.85,6.85,0,0,0,1.87,2c1,.78,1.07,1.48.16,1.71a3.61,3.61,0,0,1-2.74-.74,5.19,5.19,0,0,1-1.38-1.28L28.33,26l-.25.24c-.54.51-.26,1.84.59,2.76a3.75,3.75,0,0,0,3.95.91,4.23,4.23,0,0,0,2.26-1.23,4.59,4.59,0,0,0,1.29-3.81C36.13,24.66,36.09,24.42,36.07,24.37Z" transform="translate(-0.51 -0.49)"/><path class="f3aed437-2a5a-4be5-8bd8-eb770eec119f" d="M66,.78a6.38,6.38,0,0,0-2-.27H23.86v0l-17,0A6.35,6.35,0,0,0,.51,6.86V41.14a6.35,6.35,0,0,0,6.35,6.35h17v0h40.3a6.35,6.35,0,0,0,6.35-6.36V6.88A6.39,6.39,0,0,0,66,.78ZM23.08,31c-1.55.52-1.73,1.49-.94,5,.72,3.2.84,4.84.46,6.35-.46,1.78-1.36,2.58-3.48,3.08-.49.12-2.06.52-3.49.91a14.72,14.72,0,0,1-3.38.69,2.75,2.75,0,0,1-2.74-1.68c-.62-1.16-.7-2.2-.7-4.58s0-2.58.26-3.42a19.09,19.09,0,0,1,2.55-4.9,12.91,12.91,0,0,0,1.22-2.14A3.85,3.85,0,0,0,12.72,29a4.19,4.19,0,0,1,.22-2.94,3.37,3.37,0,0,1,1.86-1.27,7.62,7.62,0,0,1,2.93.19,14.57,14.57,0,0,1,5.62,3.23c.67.69.81,1,.81,1.57S23.86,30.72,23.08,31Zm24-14.74a19.54,19.54,0,0,1-1.92.54c-3.6.89-7.77,2-7.85,2.07A23.62,23.62,0,0,0,38,21.74c.67,2.6.73,2.56.73,3.89A6.18,6.18,0,0,1,37.87,29a7.1,7.1,0,0,1-5.8,3.73,5.89,5.89,0,0,1-4.49-1.1,7.11,7.11,0,0,1-1.86-2.42,7.36,7.36,0,0,0-2.15-2.66c-2.06-1.67-3.81-2.42-7.5-3.21-.31-.07-.43-.15-.45-.31s.11-.3.63-.62c.81-.51,1.44-1,1.44-1.29s-.54-.73-.93-.81a6.15,6.15,0,0,0-1.39.07c-1.21.16-1.49.1-1.83-.41a1,1,0,0,1,0-1.24c.58-1,3-1.72,5.69-1.83l.63,0,.05-.42a2.31,2.31,0,0,1,1-1.57c.25-.14,2.59-.8,5.91-1.67,7.91-2.06,11.34-3,12.14-3.2l.69-.19,1-1.34c.51-.74,1-1.4,1.09-1.47a2.36,2.36,0,0,1,.61-.28c.58-.18.55-.18.8,0a2.54,2.54,0,0,1,.43,1,3.84,3.84,0,0,0,.31.87,1.43,1.43,0,0,0,.73,0c.54-.11.65-.11.79,0s1.93,6.81,1.93,7.29A.47.47,0,0,1,47.07,16.24Zm.18-4.52c-.41-1.4-.53-1.9-.45-2s.3-.18.81-.2.72-.08.74-.15.09-.62.16-1.22a4.44,4.44,0,0,1,.22-1.23c.06-.07-.07-.13.14-.13s.47.27,1,1a6.09,6.09,0,0,0,.71.88s.57-.38,1.2-.85c1.21-.88,1.55-1,1.61-.51a3.43,3.43,0,0,1-.4,1.1c-.36.7-.4.83-.26.91a11.08,11.08,0,0,0,2.11.18.36.36,0,0,1,.23.59,6.6,6.6,0,0,1-1.11.63c-.68.33-1,.53-1,.66a4.06,4.06,0,0,0,.79,1c.57.61.78.93.76,1.08,0,.34-.37.34-1.67,0a6.26,6.26,0,0,0-1.27-.23c-.09,0-.17.34-.22.92a6.4,6.4,0,0,1-.12.95c-.14.22-.54,0-1.19-.54s-1-.75-1.26-.47c-.07.08-.06.16-.44.16S48,14.24,47.25,11.72ZM62,8.65c-.11.08-1.15.74-2.33,1.44C57.17,11.6,57,11.74,57,11.9s.92,1.12,2,2.36a18.4,18.4,0,0,1,2.14,2.58,1,1,0,0,1-1,1.29c-.22,0-1.38-.31-5-1.33-.77-.22-1.1-.28-1.17-.19a9.81,9.81,0,0,0-.22,1.68,13.91,13.91,0,0,1-.23,1.9.89.89,0,0,1-.91.66c-.43,0-.9-.45-2.78-2.7-1.41-1.68-1.6-2-1.36-2.58a1,1,0,0,1,.84-.57c.36,0,.73.3,1.52,1.22a4.34,4.34,0,0,0,.94.92,2.24,2.24,0,0,0,.15-.76c.13-1.46.17-1.61.47-1.92a1,1,0,0,1,.59-.3,20.92,20.92,0,0,1,2,.48,13.42,13.42,0,0,0,1.81.43,8.64,8.64,0,0,0-1-1.22c-1.46-1.67-1.6-1.74-1.6-2.25s.31-.8,1.58-1.57c1.07-.66,1.16-1,.29-1-1.33,0-1.85-.11-2.15-.47s-.3-.63.18-2.09a6.52,6.52,0,0,0,.36-1.29c0-.05-.26.09-2,1.42-1,.77-1,.87-1.56.87s-.76-.22-1.68-1.55c-.33-.48-.65-.82-.69-.78a8.3,8.3,0,0,0-.26,1.44c-.17,1.22-.21,1.39-.47,1.64a.93.93,0,0,1-1.55-.31,30.55,30.55,0,0,1,.81-6.39,1,1,0,0,1,1.46-.11c.12.1.73,1,1.37,1.87A15.94,15.94,0,0,0,51.22,5c.06,0,1.08-.78,2.27-1.74s2.33-1.85,2.53-2a1,1,0,0,1,1.38.06c.45.46.41.83-.43,3.26-.4,1.17-.73,2.15-.73,2.21s-.64.08,2.66.08,3.29,0,3.29,1C62.19,8.32,62.15,8.53,62,8.65Z" transform="translate(-0.51 -0.49)"/></g></svg>