<svg id="f14b9da5-4587-4d64-99b7-f5675300b31a" data-name="action" xmlns="http://www.w3.org/2000/svg" viewBox="0 0 69.99 47.01"><defs><style>.e8e3a554-2595-4e4d-a48b-30382d6e36ce{fill:#fcfcfc;}</style></defs><path id="af8d7805-7ed9-45c8-8c25-3865fd975db3" data-name="actionplatformshooter" class="e8e3a554-2595-4e4d-a48b-30382d6e36ce" d="M66,.78a6.38,6.38,0,0,0-2-.27H23.86v0l-17,0A6.35,6.35,0,0,0,.51,6.86V41.14a6.35,6.35,0,0,0,6.35,6.35h17v0h40.3a6.35,6.35,0,0,0,6.35-6.36V6.88A6.39,6.39,0,0,0,66,.78ZM28,1.17h0a4.61,4.61,0,0,1,2.55,0,4.06,4.06,0,0,1,2.79,3.31A4.11,4.11,0,1,1,28,1.17ZM55.36,11c-.37.67-.49.69-3,.75l-2.2,0L49,14.23c-.67,1.32-1.3,2.49-1.39,2.6a1.53,1.53,0,0,1-1.74.26,1.46,1.46,0,0,1-.52-.55,4.33,4.33,0,0,0-.24-.42s-1.42.17-3.12.42-3.31.46-3.58.46a25.35,25.35,0,0,1-2.65-.41c-1.19-.21-2.17-.38-2.19-.36s.08,2,.21,4.5L34,25.21l2.59,4.68c1.43,2.57,2.64,4.86,2.7,5.08s.09,1.91.07,5.16l0,4.76-.23.5A2.63,2.63,0,0,1,36.61,47a2.07,2.07,0,0,1-1.22-.18A2.81,2.81,0,0,1,34,45.55l-.26-.48,0-4.36,0-4.36-1.85-3.29L30,29.76l-1.61,3.66c-.88,2-1.72,3.89-1.86,4.18-.3.59-5.77,8.18-6.25,8.65A2.38,2.38,0,0,1,18.4,47,1.91,1.91,0,0,1,17,46.73a2.72,2.72,0,0,1-1.43-1.62A3.21,3.21,0,0,1,15.71,43c.11-.22,1.42-2.07,2.92-4.13l2.72-3.73,2-4.59,2-4.58,0-.91-.05-.91-3.5-1.67c-1.92-.92-3.66-1.8-3.84-2a2.13,2.13,0,0,1-.77-1.58,2.28,2.28,0,0,1,.95-2.12c.18-.11,1.78-.9,3.54-1.72l3.21-1.51.27-.57a3.52,3.52,0,0,1,2.75-2,16.72,16.72,0,0,1,2,0,41.58,41.58,0,0,1,6.56,1l1.93.36,3.21-.47c3.09-.46,3.21-.48,3.06-.64a1.81,1.81,0,0,1-.09-1.4l.13-.27-.57,0a1.07,1.07,0,0,1-.8-.25,1,1,0,0,1,.26-1.57c.23-.11,1-.13,4.67-.11l4.39,0,.27.31a.73.73,0,0,1,.24.69l0,.39h.65c1.12,0,1.64.4,1.71,1.31A1.17,1.17,0,0,1,55.36,11Z" transform="translate(-0.51 -0.49)"/></svg>