<svg id="b288ca94-9263-478a-8806-11f019a8bc7f" data-name="Calque 1" xmlns="http://www.w3.org/2000/svg" viewBox="0 0 69.99 47.01"><defs><style>.a37e96ed-aa26-4d60-b67e-404923b95d1b{fill:#fcfcfc;}</style></defs><g id="f4a4dc1f-c1ce-4f86-9a7f-a8a1f65b8c1d" data-name="actionbattleroyale"><path class="a37e96ed-aa26-4d60-b67e-404923b95d1b" d="M55.21,23.11A19.74,19.74,0,0,0,36.39,4.29V7.34H34.61v-3A19.74,19.74,0,0,0,15.79,23.11h3.05v1.78H15.79A19.74,19.74,0,0,0,34.61,43.71V40.66h1.78v3.05A19.74,19.74,0,0,0,55.21,24.89H52.16V23.11ZM43.43,38.87H27.57a16.7,16.7,0,0,1,5.36-17.2,6.35,6.35,0,1,1,5.14,0A16.73,16.73,0,0,1,43.43,38.87Z" transform="translate(-0.51 -0.49)"/><path class="a37e96ed-aa26-4d60-b67e-404923b95d1b" d="M66,.78a6.38,6.38,0,0,0-2-.27H23.86v0l-17,0A6.35,6.35,0,0,0,.51,6.86V41.14a6.35,6.35,0,0,0,6.35,6.35h17v0h40.3a6.35,6.35,0,0,0,6.35-6.36V6.88A6.39,6.39,0,0,0,66,.78ZM58.5,24.89H57a21.5,21.5,0,0,1-20.6,20.6V47H34.61V45.49A21.5,21.5,0,0,1,14,24.89H12.5V23.11H14a21.5,21.5,0,0,1,20.6-20.6V1h1.78V2.51A21.5,21.5,0,0,1,57,23.11H58.5Z" transform="translate(-0.51 -0.49)"/></g></svg>