<svg id="ef71593e-0416-48a3-8acd-008f111a00d7" data-name="Calque 1" xmlns="http://www.w3.org/2000/svg" viewBox="0 0 69.99 47.01"><defs><style>.a9c4d965-860d-4eca-b320-c2f821af7bb1{fill:#fcfcfc;}</style></defs><path id="a8b01e08-62be-4331-932f-2a34f83f6d73" data-name="actionbeatemup" class="a9c4d965-860d-4eca-b320-c2f821af7bb1" d="M66,.78a6.38,6.38,0,0,0-2-.27H23.86v0l-17,0A6.35,6.35,0,0,0,.51,6.86V41.14a6.35,6.35,0,0,0,6.35,6.35h17v0h40.3a6.35,6.35,0,0,0,6.35-6.36V6.88A6.39,6.39,0,0,0,66,.78ZM51.41,5.69a4.43,4.43,0,0,1,3.19.46A4.55,4.55,0,0,1,56.19,8a2.83,2.83,0,0,1,.3,1.7,2.86,2.86,0,0,1-.3,1.7,4.25,4.25,0,0,1-2,2,2.89,2.89,0,0,1-1.48.38,4.06,4.06,0,0,1-4.41-4.07A4.17,4.17,0,0,1,51.41,5.69ZM12.41,8a3.83,3.83,0,0,1-.73-2.62A3,3,0,0,1,12,3.86a4.18,4.18,0,0,1,2.76-2.27,4.75,4.75,0,0,1,2.39.15,4.16,4.16,0,0,1,2.55,4.84A4.12,4.12,0,0,1,12.41,8ZM57.35,28.13a2.45,2.45,0,0,1-1.77-.51c-.61-.51-.71-.84-1.06-3.79-.18-1.47-.35-2.71-.39-2.74a19.88,19.88,0,0,0-2.82-1.22s-.86,1.14-1.83,2.45l-2.43,3.22-.66.84L46.9,30l.5,3.66-.33,4.71c-.16,2.6-.36,4.91-.41,5.14a2.61,2.61,0,0,1-3,1.86A2.64,2.64,0,0,1,42,44.31c-.52-.82-.52-.76-.18-5.82l.31-4.62-.62-4.55c-.35-2.51-.6-4.63-.57-4.71s0-.15-.06-.15-1-.32-2-.7-1.93-.69-1.94-.67a2.72,2.72,0,0,0,.25.58,1.83,1.83,0,0,1,.25,1.26,2.44,2.44,0,0,1-.87,1.85,2.22,2.22,0,0,1-1.72.6,2.15,2.15,0,0,1-1.11-.21c-.33-.18-2.25-1.78-4.25-3.57-.19-.17-.22-.16-2.07.52a23.36,23.36,0,0,0-2.52,1.08l-.65.39.05.38c0,.22.2,2.12.4,4.22A29.67,29.67,0,0,1,25,34.45c0,.27-1.13,2.57-2.67,5.71-2.4,4.9-2.6,5.28-3,5.67a2.5,2.5,0,0,1-2.95.34A2.62,2.62,0,0,1,15,43.6a39.91,39.91,0,0,1,2.43-5.32l2.36-4.84-.23-2.33a12.78,12.78,0,0,0-.64-3.63c-2.68-8.42-4.24-13.53-4.24-14a2.1,2.1,0,0,1,1.41-1.95l1.9-.71c.82-.31,1.67-.64,1.91-.71l.93-.32.51-.18,1-2.72c.53-1.5,1.07-2.91,1.18-3.16a2.26,2.26,0,0,1,1.15-1,2.36,2.36,0,0,1,2.33.39,2.27,2.27,0,0,1,.78,1.7c0,.54-.14,1-1.33,4.28-.73,2-1.42,3.83-1.54,4a2.71,2.71,0,0,1-1.57,1,2.46,2.46,0,0,0-.57.17s1.4,5.38,1.46,5.43A15.16,15.16,0,0,0,26.11,19s-.07-.22-.25-.44a2.57,2.57,0,0,1,.81-3.92,1.85,1.85,0,0,1,1.14-.27c.63,0,.93.09,7.11,2.35,3.53,1.31,6.46,2.35,6.47,2.33s.54-.71,1.15-1.54L43.67,16l-.81-.34a25.11,25.11,0,0,0-4.28-1.09c-3.73-.78-3.93-.86-4.42-1.5a1.87,1.87,0,0,1-.43-1.44,2.19,2.19,0,0,1,1.21-2c.7-.37.92-.35,4.78.46l3.62.77,2.06.88c1.13.48,2.12.93,2.2,1,.25.23,4.93,2.52,7.44,3.64a11.2,11.2,0,0,1,2.89,1.53,2.28,2.28,0,0,1,.53.79c.14.47.86,6,.86,7.18A2.22,2.22,0,0,1,57.35,28.13Z" transform="translate(-0.51 -0.49)"/></svg>