<svg id="a0fa1f1e-123c-490a-9f87-a8b88ba877b5" data-name="action" xmlns="http://www.w3.org/2000/svg" viewBox="0 0 69.99 47.01"><defs><style>.bf8effc7-ac40-4e80-9e3b-2943a411f45c{fill:#fcfcfc;}</style></defs><g id="bd3ba686-2fe7-405e-86b6-cdd976c50712" data-name="actionstealth"><path class="bf8effc7-ac40-4e80-9e3b-2943a411f45c" d="M6.39,45.85c1.33-2,2-3.71,5.45-6.51,9.83-4.42,22.08-20.79,22.08-20.79,1.47-2.09,3.06-4.13,4.52-6.2,0,0,.6-6.6-2-6.81a9,9,0,0,1,8.32-5H23.86v0l-17,0A6.35,6.35,0,0,0,.51,6.86V41.14a6.35,6.35,0,0,0,6.35,6.35h.78C7.11,47.45,5.86,46.87,6.39,45.85Z" transform="translate(-0.51 -0.49)"/><path class="bf8effc7-ac40-4e80-9e3b-2943a411f45c" d="M66,.78a6.38,6.38,0,0,0-2-.27H45a12.19,12.19,0,0,1,9.44,4.83C48.8,7,46.12,11.78,45.31,13.53c2.81.44,5.59,5.75,6.86,7.39a44.64,44.64,0,0,0,7.23,1.57c.54.07,3.3-1.19,3.89-.86,2.65,1.53.93,1.55.61,4.05-2.15,1.84-4.94-1.29-5.55-1.19-3.07.51-4.37.88-7.79-.48a14.9,14.9,0,0,1-4.38-4.59v0c-.89,2.87-2.86,5.47-5.88,8.47,3.38-.56,9.9-.35,10,.47.88,6.06.84,8.89-.58,15.83l5.17,1.38-.08,1.8L46,47.22c.4-6.49-.41-7-.85-13.25-3.63,1.39-7,1.08-10.92,1.5-2.72,5.63.21,9.87-2,11-1.32.69-10.3-2.2-14.63-4.79-1-.6-2.37.74-3.95,1.36-2.71,1.83-3,3.12-5.83,4.42a.29.29,0,0,1-.14,0H23.84v0h40.3a6.35,6.35,0,0,0,6.35-6.36V6.88A6.39,6.39,0,0,0,66,.78Zm-17,12.69-1.22-.94s1.43-3.83,7.21-6.24C50.26,12.87,49.07,13.47,49.07,13.47ZM63.3,30a11.59,11.59,0,0,0-1.5-1.16c-1.57,3.79-3,7.44-5.56,10.62l-.61.73.11-.94A44.09,44.09,0,0,1,59.23,27.7a8.48,8.48,0,0,0-1.89-.2l.58-1.41h0l2.48,1-3,8.62,3.94-8.24,2.54,1Z" transform="translate(-0.51 -0.49)"/></g></svg>