<svg xmlns="http://www.w3.org/2000/svg" viewBox="0 0 69.99 47.01"><defs><style>.b6527a05-885b-4304-941e-19c0c36371a0{fill:#fcfcfc;}</style></defs><g id="ad1e8661-4834-41cd-b8cc-8c747df55d2f" data-name="adventure"><g id="f9e1a307-42de-4d74-9ac6-2990a90ff15f" data-name="adventure"><path class="b6527a05-885b-4304-941e-19c0c36371a0" d="M26.11,20.76a1.16,1.16,0,0,0-.53-.23,3.8,3.8,0,0,0-1.28.61,1.91,1.91,0,0,1-.41.25,5.18,5.18,0,0,0-.75.56,1.21,1.21,0,0,0-.44.85c-.07.57.13,1.08.39,1.08.11,0,.19,0,.19-.09s.19-.11.42-.15a1.47,1.47,0,0,0,.86-.52c.24-.25.32-.46.58-.46s.77-.55.95-1a2.7,2.7,0,0,1,.26-.54C26.4,21,26.29,20.89,26.11,20.76Z" transform="translate(-0.51 -0.49)"/><path class="b6527a05-885b-4304-941e-19c0c36371a0" d="M30.31,24.88c-.12-.1-.21-.18-.21-.34s-.11-.29-1-1.28c-.5-.53-.78-.53-1.14,0s-.33.6-.18.6.12.11.15.25a3.6,3.6,0,0,0,.42.75,3.61,3.61,0,0,1,.36.61A2,2,0,0,0,29,26c.2.23.36.36.36.52s.61.63.82.63.2.05.2.12.05,0,.11-.05a.33.33,0,0,1,.24-.17.16.16,0,0,0,.15-.16c0-.08,0-.15.1-.15s-.12-1-.32-1.37A1.72,1.72,0,0,0,30.31,24.88Z" transform="translate(-0.51 -0.49)"/><path class="b6527a05-885b-4304-941e-19c0c36371a0" d="M33.65,30.29a2.07,2.07,0,0,1-.5-.4.91.91,0,0,0-.86-.41,1.1,1.1,0,0,0-.47.05s0,.09,0,.14a.36.36,0,0,1-.08.18c-.16.15-.07.46.3,1,.74,1.13,1.42,1.57,2.09,1.36.31-.12.32-.13.28-.59S33.88,30.29,33.65,30.29Z" transform="translate(-0.51 -0.49)"/><path class="b6527a05-885b-4304-941e-19c0c36371a0" d="M20.51,25.46a1.07,1.07,0,0,0-1.25.15,5.4,5.4,0,0,1-.71.47,2.68,2.68,0,0,0-1.23,1.53,1.55,1.55,0,0,0,0,.54c.13.2.72.23,1.18.05a3.07,3.07,0,0,0,1.29-1c.58-.59.75-.82.85-1.27S20.69,25.58,20.51,25.46Z" transform="translate(-0.51 -0.49)"/><path class="b6527a05-885b-4304-941e-19c0c36371a0" d="M16,29.62a1.22,1.22,0,0,0-1.1,0A1.37,1.37,0,0,0,14,31.4c.22.43.36.47.94.28a2,2,0,0,0,1.2-1.17.67.67,0,0,1,.16-.37C16.48,30,16.34,29.76,16,29.62Z" transform="translate(-0.51 -0.49)"/><path class="b6527a05-885b-4304-941e-19c0c36371a0" d="M46,24.75a1.17,1.17,0,0,0-1-.06c-.4.12-.92.41-.92.52s.16,0-.17.14a2.12,2.12,0,0,0-1,1.06c-.1.23-.22.42-.27.42s-.08,0,0,.1,0,.12-.05.16-.11.44.16.71a1,1,0,0,0,1.19.12,1.63,1.63,0,0,1,.29-.23,11.77,11.77,0,0,0,1.42-1.16,2.25,2.25,0,0,0,.71-1.39C46.28,25,46.18,24.86,46,24.75Z" transform="translate(-0.51 -0.49)"/><path class="b6527a05-885b-4304-941e-19c0c36371a0" d="M40.56,28.78a1.76,1.76,0,0,0-1.81.43,3.32,3.32,0,0,1-.67.49c-.13.06-.25.17-.25.21s-.16.16-.35.25a.76.76,0,0,0-.42.41.29.29,0,0,1-.25.23c-.11,0-.2.06-.2.14a.2.2,0,0,1-.11.19c-.06,0-.13.24-.16.51s0,.48.21.64a2.2,2.2,0,0,0,1.64,0,3.93,3.93,0,0,0,.86-.63,7.4,7.4,0,0,1,.83-.68c.82-.49,1.19-1.09,1.07-1.76A.49.49,0,0,0,40.56,28.78Z" transform="translate(-0.51 -0.49)"/><path class="b6527a05-885b-4304-941e-19c0c36371a0" d="M57.05,15.37a4.77,4.77,0,0,0-2.53.27,11.29,11.29,0,0,1-1.8.47.42.42,0,0,1-.41-.16c-.1-.12-.25-.3-.35-.4a3.16,3.16,0,0,1-.38-.64,8.44,8.44,0,0,0-1.2-2c-.43-.44-.63-.5-1.05-.29a1.55,1.55,0,0,0-.61,1.06c0,.12,0,.25-.1.28a.58.58,0,0,0-.1.37c0,.16,0,.29.1.29s.1.1.1.21A5.28,5.28,0,0,0,49.18,16a7.38,7.38,0,0,1,.46,1.11c0,.08-.25.21-.63.32a3.13,3.13,0,0,0-.7.27,8.6,8.6,0,0,1-2,.29.84.84,0,0,0-.65.25,4.57,4.57,0,0,1-.58.43.86.86,0,0,0-.38.44.56.56,0,0,1-.16.32c-.14.1.21.59.57.76a8.73,8.73,0,0,0,4.15-.46,3.41,3.41,0,0,1,.81-.21l.64-.12.39.44a4.61,4.61,0,0,1,.61.9,4.77,4.77,0,0,0,.29.51,3.64,3.64,0,0,1,.34.61c1.11,2.19,1.37,2.46,2.37,2.48.42,0,.49,0,.8-.39s.34-.41.12-1.28a8.72,8.72,0,0,0-1-2,6.86,6.86,0,0,1-.35-.61,3.59,3.59,0,0,0-.37-.61,1.18,1.18,0,0,1-.14-.37c-.06-.31,0-.32.54-.44a2.1,2.1,0,0,0,.64-.22A4.79,4.79,0,0,1,56,18a7.26,7.26,0,0,0,1.12-.35l.35-.29a1.18,1.18,0,0,0,.33-.61A1.25,1.25,0,0,0,57.05,15.37Z" transform="translate(-0.51 -0.49)"/><path class="b6527a05-885b-4304-941e-19c0c36371a0" d="M66,.78a6.38,6.38,0,0,0-2-.27H23.86v0l-17,0A6.35,6.35,0,0,0,.51,6.86V41.14a6.35,6.35,0,0,0,6.35,6.35h17v0h40.3a6.35,6.35,0,0,0,6.35-6.36V6.88A6.39,6.39,0,0,0,66,.78ZM61.49,14c0,1.82-.06,4-.12,4.74s-.14,3.39-.14,6.87c0,9.7-.25,14.51-.82,16.19a4.26,4.26,0,0,0-.29,2.1c0,1.39-.16,2-.57,2.48s-1.17.37-1.82-.31c-.17-.17-.3-.31-.49-.31s-.69-.46-1-.95a1.68,1.68,0,0,0-.53-.44A2.32,2.32,0,0,1,55,43.8a3.33,3.33,0,0,0-.68-.63c-.21-.13-1.46-1.29-2.78-2.57S48.83,38,48.46,37.74l-.7-.52-.36.2a5.39,5.39,0,0,0-.88.59c-.27.21-.69.5-.91.66a3.47,3.47,0,0,0-.56.4,2.33,2.33,0,0,1-.48.32,10.9,10.9,0,0,0-1.06.78,10,10,0,0,1-1.2.89,8.42,8.42,0,0,0-1,.71c-.27.25-.88.72-1.34,1s-1.17.87-1.58,1.22a5,5,0,0,1-2.57,1.39c-.31,0-.43-.08-.51-.25s.1-.24-.17-.24a15.13,15.13,0,0,1-3.11-1.71,17.09,17.09,0,0,0-1.69-1.13c-.54-.31-1.89-1.12-3-1.82s-2.33-1.4-2.72-1.6L24,38.3l-.82.55c-1.82,1.22-3.33,2.51-8,6.84a11.3,11.3,0,0,1-1.37,1.16,2.51,2.51,0,0,1-.89.15c-.66,0-.9-.13-1.1-.62-.12-.28-.72-.59-.9-.48s-.22,0-.4-.14c-.43-.27-.55-.87-.52-2.8a22.18,22.18,0,0,0-.1-2.39c-.28-2.22-.33-4.33-.35-16.22,0-10.63,0-12.36.12-12.51A3.75,3.75,0,0,0,10,11l.16-.68.81-.49c.44-.26,2.71-1.44,5-2.61s4.82-2.49,5.54-2.92a11.08,11.08,0,0,1,1.83-.93l1.07-.27a3.58,3.58,0,0,1,2.34.22A37.85,37.85,0,0,1,31,5.41a50.77,50.77,0,0,0,5.26,3.18l.46.21.2-.2a2,2,0,0,1,.49-.36,6,6,0,0,0,.71-.5c.22-.2,1.32-1,2.44-1.68L43.68,4a24.34,24.34,0,0,0,2-1.54c1.1-1,1.48-1.25,1.85-1.36A1.85,1.85,0,0,1,48,1a2.4,2.4,0,0,1,1.24.7,10,10,0,0,0,1.93,1.48A35.91,35.91,0,0,1,54.5,5.51a7,7,0,0,0,1,.67c1.15.64,2.73,1.64,3.31,2.06a10.26,10.26,0,0,1,2.4,2l.29.43Z" transform="translate(-0.51 -0.49)"/><path class="b6527a05-885b-4304-941e-19c0c36371a0" d="M50,20.61c-.14-.06-.25-.16-.25-.21s-.14-.08-.31-.08-.3.05-.3.1a1.34,1.34,0,0,1-.46.37c-.26.14-.46.29-.46.34s-.12.14-.26.21a1.87,1.87,0,0,0-.86,1.34c0,.22,0,.39.1.39a.1.1,0,0,1,.09.12c0,.08.11.14.32.16a.81.81,0,0,0,.66-.22,5.12,5.12,0,0,1,.63-.44c.19-.1.34-.2.34-.24s.16-.17.36-.3C50.22,21.77,50.46,20.82,50,20.61Z" transform="translate(-0.51 -0.49)"/></g></g></svg>