<svg xmlns="http://www.w3.org/2000/svg" viewBox="0 0 69.99 47.01"><defs><style>.b16a3494-dae1-4822-904a-e0dee6e93913{fill:#fcfcfc;}</style></defs><g id="a16e03b5-d15a-4eec-88cf-1ee9bfb53621" data-name="adventure"><g id="bef666fd-2133-44b5-8b2a-d6091eb39222" data-name="adventuresurvivalhorror"><path class="b16a3494-dae1-4822-904a-e0dee6e93913" d="M66,.78a6.38,6.38,0,0,0-2-.27H23.86v0l-17,0A6.35,6.35,0,0,0,.51,6.86V41.14a6.35,6.35,0,0,0,6.35,6.35h17v0h40.3a6.35,6.35,0,0,0,6.35-6.36V6.88A6.39,6.39,0,0,0,66,.78ZM23.14,14.26c-1.27-.33-1.79-.84-2.86-2.79-1.4-2.58-1.53-4.32-.48-6.34a6.54,6.54,0,0,1,3.09-2.78,8,8,0,0,1,2.76-1.2A7.16,7.16,0,0,1,26.72,1a6,6,0,0,1,4.84,2.49c.16.24,1,1.64,1.76,3.13C34.59,9,34.8,9.4,34.84,9.89c.1,1.22-.4,1.87-2.17,2.82-.58.3-1.08.58-1.1.59a6.28,6.28,0,0,0,.57,1,6.23,6.23,0,0,1,.57.94s-1.29,0-2.82,0l-2.78,0-.49-.72-.49-.74-.5.26A3.53,3.53,0,0,1,23.14,14.26Zm22.27,8a17.37,17.37,0,0,1,1.71,1.88,2.69,2.69,0,0,1,0,2.1,2.39,2.39,0,0,1-2.35,1.25c-.7-.11-1.15-.42-2.12-1.39l-.91-.91H30.33l-1.57-1.59c-1.69-1.72-1.92-1.86-1.92-3a2.24,2.24,0,0,1,1.85-2.25c.95-.19,1.57.1,2.8,1.28l1,1,6.27,0c3.45,0,6,0,5.71.07l-.55.07ZM43.35,44.62c-.07,0-2.17-2.38-4.67-5.25S34,34.16,33.93,34.13s-3.39.47-4.41.69l-.3.06v8l.69.63a4.5,4.5,0,0,1,1.5,2.83l.08.66h-7V35.6c0-6.27,0-11.39.09-11.39s1.08,1,2.31,2.23l2.23,2.24h9.11v2.86l3,3.52,3,3.53H45a4.7,4.7,0,0,1,2.8.89,4.51,4.51,0,0,1,.71.59A51.67,51.67,0,0,1,43.35,44.62Zm8.52-24.71a2.22,2.22,0,0,1-2,2c-.93.1-1.43-.15-2.58-1.27l-1-.94h-4c-2.21,0-4.14,0-4.28-.06s-.31-.24-.44-.54a7,7,0,0,0-3.92-3.56c-.45-.16-.75-.31-.66-.34a3,3,0,0,1,.32-.11c.08,0,3.51-.06,7.62-.07h7.46L50,16.67C51.76,18.52,52,18.87,51.87,19.91Z" transform="translate(-0.51 -0.49)"/><path class="b16a3494-dae1-4822-904a-e0dee6e93913" d="M28.61,7.35a1.6,1.6,0,0,0,.61-3,2.1,2.1,0,0,0-.69-.22,1.64,1.64,0,0,0-1.41,2.45A1.54,1.54,0,0,0,28.61,7.35Z" transform="translate(-0.51 -0.49)"/></g></g></svg>