<svg xmlns="http://www.w3.org/2000/svg" viewBox="0 0 69.99 47.01"><defs><style>.b75e4340-1e54-4dbf-a139-06c25e1b3c31{fill:#fcfcfc;}</style></defs><g id="bb547555-8ee6-4873-a51e-f831cfe29f97" data-name="adventure"><g id="bb24d3bc-5cc0-4942-afa1-95fcb6f56667" data-name="adventureinteractivemovie"><polygon class="b75e4340-1e54-4dbf-a139-06c25e1b3c31" points="32.7 29.17 26.82 29.17 26.82 33.7 23.52 33.7 23.52 31.23 16.51 31.23 16.51 38.24 23.52 38.24 23.52 35.87 26.82 35.87 26.82 40.41 32.7 40.41 32.7 42.88 39.71 42.88 39.71 35.87 32.7 35.87 32.7 38.24 28.99 38.24 28.99 31.33 32.7 31.33 32.7 33.7 39.71 33.7 39.71 30.2 39.71 26.69 32.7 26.69 32.7 29.17"/><path class="b75e4340-1e54-4dbf-a139-06c25e1b3c31" d="M66,.78a6.38,6.38,0,0,0-2-.27H23.86v0l-17,0A6.35,6.35,0,0,0,.51,6.86V41.14a6.35,6.35,0,0,0,6.35,6.35h17v0h40.3a6.35,6.35,0,0,0,6.35-6.36V6.88A6.39,6.39,0,0,0,66,.78ZM9.12,11.3a8,8,0,0,1,.24-2.73A9.4,9.4,0,0,1,12.05,4a10.22,10.22,0,0,1,5.74-2.89,11.67,11.67,0,0,1,5.74.8,10.44,10.44,0,0,1,5.87,7.5l.13.62.09-.53a11.34,11.34,0,0,1,1.15-3.26,10.28,10.28,0,0,1,18.92,2.5A8.22,8.22,0,0,1,50,11.25a8,8,0,0,1-.27,2.54,9.94,9.94,0,0,1-2.55,4.57,9.17,9.17,0,0,1-3,2.16,9.43,9.43,0,0,1-4,1,9.89,9.89,0,0,1-7.58-2.86,9.43,9.43,0,0,1-2.18-3,11,11,0,0,1-.83-2.73c0-.24,0-.25-.08-.06s-.16.55-.27,1a10.09,10.09,0,0,1-5.46,6.7,9.11,9.11,0,0,1-4.08,1A10.17,10.17,0,0,1,9.36,14,7.93,7.93,0,0,1,9.12,11.3ZM47.65,42.92a5.4,5.4,0,0,1-4,4c-.77.16-27.42.16-28.2,0A5.58,5.58,0,0,1,12,44.34c-.68-1.27-.65-1.91-.65-10.32s0-8.61.21-9.23a7.17,7.17,0,0,1,.55-1.15A5.89,5.89,0,0,1,13.74,22a6.7,6.7,0,0,1,1,.36,11.81,11.81,0,0,0,9.1.05,11.16,11.16,0,0,0,1.38-.67l.55-.34s3.72,0,3.72,0h3.73l.88.46a11.12,11.12,0,0,0,5.69,1.43,12.12,12.12,0,0,0,5.18-1.18c.31-.12.35-.11.89.3a5.56,5.56,0,0,1,1.64,2.27l.24.59,0,8.56Q47.76,42.4,47.65,42.92Zm14.23-8.75v9l-.28.57a2,2,0,0,1-1.93,1.16H59l-4.73-2.74-4.74-2.75V29.11l4.59-2.67c2.53-1.46,4.74-2.7,4.9-2.75a2.18,2.18,0,0,1,2.12.46C61.93,24.85,61.88,24.17,61.88,34.17Z" transform="translate(-0.51 -0.49)"/><path class="b75e4340-1e54-4dbf-a139-06c25e1b3c31" d="M40.33,15.33A4.15,4.15,0,0,0,43.45,13a2.93,2.93,0,0,0,.33-1.72,2.91,2.91,0,0,0-.32-1.7,4.37,4.37,0,0,0-1.94-2,2.87,2.87,0,0,0-1.61-.36,3.62,3.62,0,0,0-2.29.51A4.18,4.18,0,0,0,35.67,12,4.19,4.19,0,0,0,40.33,15.33Z" transform="translate(-0.51 -0.49)"/><path class="b75e4340-1e54-4dbf-a139-06c25e1b3c31" d="M18.68,15.33a2.81,2.81,0,0,0,1.46-.05,4.1,4.1,0,0,0,2.94-2.4,2.93,2.93,0,0,0,.26-1.63,3.15,3.15,0,0,0-.27-1.63A4.75,4.75,0,0,0,21,7.53a3.32,3.32,0,0,0-1.62-.33,3.12,3.12,0,0,0-1.58.22,4.14,4.14,0,0,0-1.73,1.21A4.18,4.18,0,0,0,18.68,15.33Z" transform="translate(-0.51 -0.49)"/></g></g></svg>