<svg id="a8e12c8b-6f8d-438f-8ab2-57cc05af1c35" data-name="adventure" xmlns="http://www.w3.org/2000/svg" viewBox="0 0 69.99 47.01"><defs><style>.b6a5ea91-f52f-467f-94f2-88dad1980f32{fill:#fcfcfc;}</style></defs><g id="bcea78ec-2c5c-496e-875b-7f0c8755a3d9" data-name="adventuretext"><path class="b6a5ea91-f52f-467f-94f2-88dad1980f32" d="M20.39,20.17a1.18,1.18,0,0,0-.56,1.15c.17.46,1.32.11,2.14-.67.62-.6.84-1.08.57-1.28S21.63,19.28,20.39,20.17Z" transform="translate(-0.51 -0.49)"/><path class="b6a5ea91-f52f-467f-94f2-88dad1980f32" d="M18.67,22.51a1.48,1.48,0,0,0-1.75.59,1.88,1.88,0,0,0-.21.41,1.4,1.4,0,0,0,.27.38l.26.32.53-.2c.58-.24.86-.5.95-.88,0-.14-.06-.25.15-.25S18.93,22.6,18.67,22.51Z" transform="translate(-0.51 -0.49)"/><path class="b6a5ea91-f52f-467f-94f2-88dad1980f32" d="M27.35,15.83c-.3-.22-.49-.18-1.36.22-1.39.65-1.72,1-1.53,1.7.08.24-.08.36.28.36a2.48,2.48,0,0,0,1.32-.52,2.38,2.38,0,0,1,.63-.42,1.45,1.45,0,0,0,.63-.55C27.61,16.15,27.61,16,27.35,15.83Z" transform="translate(-0.51 -0.49)"/><polygon class="b6a5ea91-f52f-467f-94f2-88dad1980f32" points="40.14 38.74 42.76 38.74 42.76 44.91 45.19 44.91 45.19 38.74 47.72 38.74 47.72 37.76 47.72 36.78 40.14 36.78 40.14 38.74"/><path class="b6a5ea91-f52f-467f-94f2-88dad1980f32" d="M31.11,19c-.05,0-.15-.12-.23-.27a4.81,4.81,0,0,0-.66-.79c-.61-.63-.94-.7-1.26-.25s-.2.48.33,1.19c.91,1.21,1.19,1.51,1.49,1.66s.36.13.54,0,.35-.28.35-.53S31.24,19,31.11,19Z" transform="translate(-0.51 -0.49)"/><polygon class="b6a5ea91-f52f-467f-94f2-88dad1980f32" points="23.03 38.74 25.65 38.74 25.65 44.91 28.08 44.91 28.08 38.74 30.61 38.74 30.61 37.76 30.61 36.78 23.03 36.78 23.03 38.74"/><path class="b6a5ea91-f52f-467f-94f2-88dad1980f32" d="M37.66,41.21l1.19-1.85c.66-1,1.23-1.91,1.28-2s-.23-.11-1.28-.11H37.52l-.7,1.26c-.61,1.09-.72,1.23-.83,1.1s-.39-.65-.74-1.26l-.62-1.1h-2.7l.22.34c.12.2.67,1.05,1.22,1.89a14.28,14.28,0,0,1,1,1.65c0,.06-.6,1-1.35,2.16l-1.35,2,1.27,0a11.46,11.46,0,0,0,1.39,0,9.25,9.25,0,0,0,.88-1.31,6.54,6.54,0,0,1,.84-1.22s.42.61.85,1.31l.77,1.26h2.78l-1.4-2.1Z" transform="translate(-0.51 -0.49)"/><path class="b6a5ea91-f52f-467f-94f2-88dad1980f32" d="M39.83,21.84a1.54,1.54,0,0,0-1.43.32c-.18.13-.58.38-.9.58s-.59.38-.59.46,0,.14-.22.14-.26.09-.37.39c-.19.48-.09.69.37.82a2.14,2.14,0,0,0,1.6-.35l1-.7c.8-.52,1.06-.93.84-1.34A.7.7,0,0,0,39.83,21.84Z" transform="translate(-0.51 -0.49)"/><path class="b6a5ea91-f52f-467f-94f2-88dad1980f32" d="M53.44,11.8a6.74,6.74,0,0,0-1.76.25c-1.42.38-1.46.38-1.74.09a10.61,10.61,0,0,1-.8-1.17,4.57,4.57,0,0,0-.91-1.15,1.41,1.41,0,0,0-.43-.22,1.2,1.2,0,0,0-.79.7c-.28.57-.22,1,.26,1.79.35.6.57,1.15.46,1.15l-.92.23a11.15,11.15,0,0,1-1.63.29,2.16,2.16,0,0,0-1.23.38,1.83,1.83,0,0,0-.6.57c-.07.22-.05.28.15.49s.31.24,1.15.26a6.58,6.58,0,0,0,1.61-.15c.38-.1,1.08-.25,1.56-.35,1.1-.21.9-.37,2.39,1.93.28.44.58.91.66,1.05a1.42,1.42,0,0,0,1.19.58.77.77,0,0,0,.76-.33c.21-.21.3-.38.26-.47a6.21,6.21,0,0,1-.23-.58A6.85,6.85,0,0,0,52.21,16a8.65,8.65,0,0,1-1-1.65,3.5,3.5,0,0,1,.45-.12c.53-.11,2.12-.56,2.44-.69a.87.87,0,0,0,.42-1.45C54.32,11.8,54.29,11.79,53.44,11.8Z" transform="translate(-0.51 -0.49)"/><path class="b6a5ea91-f52f-467f-94f2-88dad1980f32" d="M66,.78a6.38,6.38,0,0,0-2-.27H23.86v0l-17,0A6.35,6.35,0,0,0,.51,6.86V41.14a6.35,6.35,0,0,0,6.35,6.35h17v0h40.3a6.35,6.35,0,0,0,6.35-6.36V6.88A6.39,6.39,0,0,0,66,.78Zm-15.67,45-.22.39a1.88,1.88,0,0,1-.6.59l-.37.21H22.57l-.38-.22a2.14,2.14,0,0,1-.6-.6c-.2-.38-.2-.39-.2-4.89V36.76l.22-.36a2,2,0,0,1,.58-.58l.37-.23H49.18l.37.21a1.81,1.81,0,0,1,.6.6l.22.38Zm7.5-25.65c-.12,8.19-.27,10.4-.8,11.55a3.07,3.07,0,0,0-.24,1.54,3.22,3.22,0,0,1-.18,1.37A1,1,0,0,1,55,35c-.23-.17-.28-.32-.54-.32a1.3,1.3,0,0,1-.85-.6A1.23,1.23,0,0,0,53,33.6a2.81,2.81,0,0,1-.72-.52,1.43,1.43,0,0,0-.47-.39,2.44,2.44,0,0,1-.59-.41c-.27-.23-.62-.51-.79-.63S49.62,31,49,30.41a22.64,22.64,0,0,0-2.51-2c-.25-.16-.39-.19-.55-.12a18,18,0,0,0-2,1.21,2.73,2.73,0,0,1-.56.32,7,7,0,0,0-.83.54c-.29.21-.79.54-1.1.72-.62.36-2.19,1.39-3.29,2.16a5.12,5.12,0,0,1-2.29,1.12c-.38,0-.47,0-.5-.19s-.11-.19-.18-.19a6,6,0,0,1-1-.37,9.61,9.61,0,0,0-.89-.38,2.7,2.7,0,0,1-.58-.38c-.29-.21-1.35-.81-2.36-1.35s-2.3-1.2-2.87-1.5-1.24-.66-1.51-.78L25.51,29l-.68.4a61.77,61.77,0,0,0-6.58,4.89,10.51,10.51,0,0,1-1.1.84c-.57.4-.53.44-1.15.44s-.83-.1-1-.47a.53.53,0,0,0-.49-.32,2.86,2.86,0,0,1-.65-.19c-.4-.18-.52-.66-.48-1.82a12,12,0,0,0-.14-2.25c-.17-1.27-.19-2-.22-11.28,0-8.86,0-10,.11-10.16a3,3,0,0,0,.28-.69l.14-.47,1.56-.75c.87-.41,2.25-1,3.07-1.38,2.53-1.07,4-1.72,5.19-2.36a6.19,6.19,0,0,1,3.73-1,11.26,11.26,0,0,1,3,1A27.44,27.44,0,0,1,33,5.06a20.54,20.54,0,0,0,3.55,1.73.4.4,0,0,0,.29-.15,2.33,2.33,0,0,1,.41-.29A2.13,2.13,0,0,0,37.7,6a4.63,4.63,0,0,1,.7-.44c1.32-.7,5-2.88,5.59-3.27.32-.25.89-.64,1.22-.89a1.64,1.64,0,0,1,2.43.22,8,8,0,0,0,1,.71c.94.51,2.61,1.51,3.12,1.89a12.52,12.52,0,0,0,1.13.67c1.43.73,2.36,1.23,2.74,1.47A11.77,11.77,0,0,1,57.85,8C58.07,8.32,58.07,7.08,57.87,20.16Z" transform="translate(-0.51 -0.49)"/><path class="b6a5ea91-f52f-467f-94f2-88dad1980f32" d="M44.59,18.83a1,1,0,0,0-1.11,0c-1.37.62-2.26,1.8-1.73,2.28a1.13,1.13,0,0,0,1.09,0,8,8,0,0,0,1.77-1.44C44.88,19.18,44.88,19,44.59,18.83Z" transform="translate(-0.51 -0.49)"/><path class="b6a5ea91-f52f-467f-94f2-88dad1980f32" d="M47.85,15.64c-.29-.12-.46-.14-.51-.07a3.74,3.74,0,0,1-.7.47c-.83.5-1,.77-1,1.26,0,0,0,.39,0,.38h.42a1.83,1.83,0,0,0,1.1-.45c.78-.52,1-.83,1-1.18S48.16,15.76,47.85,15.64Z" transform="translate(-0.51 -0.49)"/><path class="b6a5ea91-f52f-467f-94f2-88dad1980f32" d="M33.85,23c-.62-.54-.44-.59-1.09-.59s-.71.43-.16,1.17a1.72,1.72,0,0,0,1.77.83c.18-.06.21-.11.18-.44S34.46,23.53,33.85,23Z" transform="translate(-0.51 -0.49)"/></g></svg>