<svg xmlns="http://www.w3.org/2000/svg" viewBox="0 0 69.99 47.01"><defs><style>.a8b0188a-1b5f-4ae7-98a5-a54162b7f425{fill:#fcfcfc;}</style></defs><g id="fcf1f0a9-31cc-4b1e-99f6-0b95018aa4a2" data-name="adventure"><g id="aa464c69-ea83-4ed1-9a40-8439768afa82" data-name="adventurerealtime3d"><path class="a8b0188a-1b5f-4ae7-98a5-a54162b7f425" d="M27.35,15.83c-.3-.22-.49-.18-1.36.22-1.39.65-1.72,1-1.53,1.7.08.24-.08.36.28.36a2.48,2.48,0,0,0,1.32-.52,2.38,2.38,0,0,1,.63-.42,1.45,1.45,0,0,0,.63-.55C27.61,16.15,27.61,16,27.35,15.83Z" transform="translate(-0.51 -0.49)"/><path class="a8b0188a-1b5f-4ae7-98a5-a54162b7f425" d="M20.39,20.17a1.18,1.18,0,0,0-.56,1.15c.17.46,1.32.11,2.14-.67.62-.6.84-1.08.57-1.28S21.63,19.28,20.39,20.17Z" transform="translate(-0.51 -0.49)"/><path class="a8b0188a-1b5f-4ae7-98a5-a54162b7f425" d="M31.11,19c-.05,0-.15-.12-.23-.27a4.81,4.81,0,0,0-.66-.79c-.61-.63-.94-.7-1.26-.25s-.2.48.33,1.19c.91,1.21,1.19,1.51,1.49,1.66s.36.13.54,0,.35-.28.35-.53S31.24,19,31.11,19Z" transform="translate(-0.51 -0.49)"/><path class="a8b0188a-1b5f-4ae7-98a5-a54162b7f425" d="M18.67,22.51a1.48,1.48,0,0,0-1.75.59,1.88,1.88,0,0,0-.21.41,1.4,1.4,0,0,0,.27.38l.26.32.53-.2c.58-.24.86-.5.95-.88,0-.14-.06-.25.15-.25S18.93,22.6,18.67,22.51Z" transform="translate(-0.51 -0.49)"/><path class="a8b0188a-1b5f-4ae7-98a5-a54162b7f425" d="M33.85,23c-.62-.54-.44-.59-1.09-.59s-.71.43-.16,1.17a1.72,1.72,0,0,0,1.77.83c.18-.06.21-.11.18-.44S34.46,23.53,33.85,23Z" transform="translate(-0.51 -0.49)"/><path class="a8b0188a-1b5f-4ae7-98a5-a54162b7f425" d="M34.18,41.35a2,2,0,0,0-.56-.29c-.15,0-.26-.08-.26-.11a2.3,2.3,0,0,1,.41-.41,1.62,1.62,0,0,0,.62-1.69,1.86,1.86,0,0,0-1.06-1.36,3.12,3.12,0,0,0-1.66-.28,4,4,0,0,0-1.65.14,2.47,2.47,0,0,0-1.38,1.08c-.45.78-.46.75.69,1l1,.19.12-.36c.14-.48-.22-.73.93-.73s1.09,1.68-.07,1.84c-.39.05-.4.06-.45.48a6.74,6.74,0,0,0-.06.72v.3l.47,0A1.05,1.05,0,0,1,32.61,43c0,.84-.5,1.31-1.26,1.21a1,1,0,0,1-.87-.82.54.54,0,0,0-.12-.31,13.24,13.24,0,0,0-2.14.29,3.55,3.55,0,0,0,.62,1.21,2.61,2.61,0,0,0,.84.62,3.13,3.13,0,0,0,1.62.34c1.75.07,2.7-.37,3.26-1.5A2.07,2.07,0,0,0,34.18,41.35Z" transform="translate(-0.51 -0.49)"/><path class="a8b0188a-1b5f-4ae7-98a5-a54162b7f425" d="M41.13,37.41a15.44,15.44,0,0,0-2.7-.13H36.25v8.13h2A9.11,9.11,0,0,0,41.77,45a3.61,3.61,0,0,0,1.56-1.62c.26-.55.26-.74.26-2a4.46,4.46,0,0,0-.21-2A3.06,3.06,0,0,0,41.13,37.41Zm-.67,6a4.65,4.65,0,0,1-1,.18l-.77,0V39l.68,0c1.3.08,1.73.51,1.81,1.85S41,43.15,40.46,43.41Z" transform="translate(-0.51 -0.49)"/><path class="a8b0188a-1b5f-4ae7-98a5-a54162b7f425" d="M66,.78a6.38,6.38,0,0,0-2-.27H23.86v0l-17,0A6.35,6.35,0,0,0,.51,6.86V41.14a6.35,6.35,0,0,0,6.35,6.35h17v0h40.3a6.35,6.35,0,0,0,6.35-6.36V6.88A6.39,6.39,0,0,0,66,.78ZM45.49,46.18a2,2,0,0,1-.6.6l-.38.22H27.25l-.38-.22a2,2,0,0,1-.6-.6c-.21-.38-.21-.39-.21-4.89V36.76l.23-.36a2,2,0,0,1,.58-.58l.36-.23H44.51l.38.23a1.81,1.81,0,0,1,.6.6c.21.37.21.38.21,4.88S45.7,45.8,45.49,46.18Zm12.38-26c-.12,8.19-.27,10.4-.8,11.55a3.07,3.07,0,0,0-.24,1.54,3.22,3.22,0,0,1-.18,1.37A1,1,0,0,1,55,35c-.23-.17-.28-.32-.54-.32a1.3,1.3,0,0,1-.85-.6A1.23,1.23,0,0,0,53,33.6a2.81,2.81,0,0,1-.72-.52,1.43,1.43,0,0,0-.47-.39,2.44,2.44,0,0,1-.59-.41c-.27-.23-.62-.51-.79-.63S49.62,31,49,30.41a22.64,22.64,0,0,0-2.51-2c-.25-.16-.39-.19-.55-.12a18,18,0,0,0-2,1.21,2.73,2.73,0,0,1-.56.32,7,7,0,0,0-.83.54c-.29.21-.79.54-1.1.72-.62.36-2.19,1.39-3.29,2.16a5.12,5.12,0,0,1-2.29,1.12c-.38,0-.47,0-.5-.19s-.11-.19-.18-.19a6,6,0,0,1-1-.37,9.61,9.61,0,0,0-.89-.38,2.7,2.7,0,0,1-.58-.38c-.29-.21-1.35-.81-2.36-1.35s-2.3-1.2-2.87-1.5-1.24-.66-1.51-.78L25.51,29l-.68.4a61.77,61.77,0,0,0-6.58,4.89,10.51,10.51,0,0,1-1.1.84c-.57.4-.53.44-1.15.44s-.83-.1-1-.47a.53.53,0,0,0-.49-.32,2.86,2.86,0,0,1-.65-.19c-.4-.18-.52-.66-.48-1.82a12,12,0,0,0-.14-2.25c-.17-1.27-.19-2-.22-11.28,0-8.86,0-10,.11-10.16a3,3,0,0,0,.28-.69l.14-.47,1.56-.75c.87-.41,2.25-1,3.07-1.38,2.53-1.07,4-1.72,5.19-2.36a6.19,6.19,0,0,1,3.73-1,11.26,11.26,0,0,1,3,1A27.44,27.44,0,0,1,33,5.06a20.54,20.54,0,0,0,3.55,1.73.4.4,0,0,0,.29-.15,2.33,2.33,0,0,1,.41-.29A2.13,2.13,0,0,0,37.7,6a4.63,4.63,0,0,1,.7-.44c1.32-.7,5-2.88,5.59-3.27.32-.25.89-.64,1.22-.89a1.64,1.64,0,0,1,2.43.22,8,8,0,0,0,1,.71c.94.51,2.61,1.51,3.12,1.89a12.52,12.52,0,0,0,1.13.67c1.43.73,2.36,1.23,2.74,1.47A11.77,11.77,0,0,1,57.85,8C58.07,8.32,58.07,7.08,57.87,20.16Z" transform="translate(-0.51 -0.49)"/><path class="a8b0188a-1b5f-4ae7-98a5-a54162b7f425" d="M53.44,11.8a6.74,6.74,0,0,0-1.76.25c-1.42.38-1.46.38-1.74.09a10.61,10.61,0,0,1-.8-1.17,4.57,4.57,0,0,0-.91-1.15,1.41,1.41,0,0,0-.43-.22,1.2,1.2,0,0,0-.79.7c-.28.57-.22,1,.26,1.79.35.6.57,1.15.46,1.15l-.92.23a11.15,11.15,0,0,1-1.63.29,2.16,2.16,0,0,0-1.23.38,1.83,1.83,0,0,0-.6.57c-.07.22-.05.28.15.49s.31.24,1.15.26a6.58,6.58,0,0,0,1.61-.15c.38-.1,1.08-.25,1.56-.35,1.1-.21.9-.37,2.39,1.93l.66,1.05a1.42,1.42,0,0,0,1.19.58.77.77,0,0,0,.76-.33c.21-.21.3-.38.26-.47a6.21,6.21,0,0,1-.23-.58A6.85,6.85,0,0,0,52.21,16a8.65,8.65,0,0,1-1-1.65,3.5,3.5,0,0,1,.45-.12c.53-.11,2.12-.56,2.44-.69a.87.87,0,0,0,.42-1.45C54.32,11.8,54.29,11.79,53.44,11.8Z" transform="translate(-0.51 -0.49)"/><path class="a8b0188a-1b5f-4ae7-98a5-a54162b7f425" d="M47.85,15.64c-.29-.12-.46-.14-.51-.07a3.74,3.74,0,0,1-.7.47c-.83.5-1,.77-1,1.26,0,0,0,.39,0,.38h.42a1.83,1.83,0,0,0,1.1-.45c.78-.52,1-.83,1-1.18S48.16,15.76,47.85,15.64Z" transform="translate(-0.51 -0.49)"/><path class="a8b0188a-1b5f-4ae7-98a5-a54162b7f425" d="M44.59,18.83a1,1,0,0,0-1.11,0c-1.37.62-2.26,1.8-1.73,2.28a1.13,1.13,0,0,0,1.09,0,8,8,0,0,0,1.77-1.44C44.88,19.18,44.88,19,44.59,18.83Z" transform="translate(-0.51 -0.49)"/><path class="a8b0188a-1b5f-4ae7-98a5-a54162b7f425" d="M39.83,21.84a1.54,1.54,0,0,0-1.43.32c-.18.13-.58.38-.9.58s-.59.38-.59.46,0,.14-.22.14-.26.09-.37.39c-.19.48-.09.69.37.82a2.14,2.14,0,0,0,1.6-.35l1-.7c.8-.52,1.06-.93.84-1.34A.7.7,0,0,0,39.83,21.84Z" transform="translate(-0.51 -0.49)"/></g></g></svg>