<svg id="aa0e851d-8012-484d-8698-4f0d8e2c8214" data-name="adventure" xmlns="http://www.w3.org/2000/svg" viewBox="0 0 69.99 47.01"><defs><style>.a63f3e64-5062-4bd2-9555-1fa021798d8d{fill:#fcfcfc;}</style></defs><g id="a88bb28f-3406-4e4a-b44d-d0ca96e5e661" data-name="adventurevisualnovel"><path class="a63f3e64-5062-4bd2-9555-1fa021798d8d" d="M50.41,20.13c-.5-.25-.58-.23-1.53.41-1.1.73-1.32,1-1.26,1.58,0,.4.09.47.39.5a4.56,4.56,0,0,0,2.17-1.15C50.82,21,50.91,20.4,50.41,20.13Z" transform="translate(-0.51 -0.49)"/><path class="a63f3e64-5062-4bd2-9555-1fa021798d8d" d="M14.91,28.23a1.84,1.84,0,0,0-1.75.91c-.22.45-.21.48.11.8s.38.34.85.2a3.14,3.14,0,0,0,.84-.42c.37-.29.69-1.12.51-1.3A1.47,1.47,0,0,0,14.91,28.23Z" transform="translate(-0.51 -0.49)"/><path class="a63f3e64-5062-4bd2-9555-1fa021798d8d" d="M30.2,24.15c-.13-.09-.23-.2-.23-.28a3.8,3.8,0,0,0-.63-.8c-.75-.82-1.24-1-1.63-.51-.25.28-.26.35-.11.71a11,11,0,0,0,1.75,2.36c.45.45.57.51.92.44s.6-.27.6-.63A2.16,2.16,0,0,0,30.2,24.15Z" transform="translate(-0.51 -0.49)"/><path class="a63f3e64-5062-4bd2-9555-1fa021798d8d" d="M25.74,20.32c-.38-.31-.43-.29-1.43.17-1.74.8-2.3,1.4-2,2.15.11.31.21.4.47.4a3.12,3.12,0,0,0,1.62-.76c.14-.14.14-.27.41-.27s.92-.62,1.1-1.05S26,20.54,25.74,20.32Z" transform="translate(-0.51 -0.49)"/><path class="a63f3e64-5062-4bd2-9555-1fa021798d8d" d="M19.94,24.58c-.4-.22-.8-.13-1.61.32-1,.55-1.61,1.2-1.65,1.67-.06.92,1.39.65,2.58-.49C20.05,25.34,20.31,24.77,19.94,24.58Z" transform="translate(-0.51 -0.49)"/><path class="a63f3e64-5062-4bd2-9555-1fa021798d8d" d="M49.45,19.46c1.64-.4,1.68-.4,2-.17a12.81,12.81,0,0,1,2,2.78c.69,1.09,1.19,1.48,2,1.48a1,1,0,0,0,.88-.37l.35-.36-.25-.71a11.74,11.74,0,0,0-1-1.89c-.72-1.09-1-1.66-.9-1.74s.65-.19,1.39-.38c1.89-.51,2.42-.7,2.64-1a.9.9,0,0,0-.21-1.3c-.5-.42-1.45-.45-2.83-.08-.52.15-1.26.34-1.64.42l-.7.14-.37-.44a10.05,10.05,0,0,1-.88-1.29,6.42,6.42,0,0,0-1-1.26c-.49-.42-.62-.46-1-.24a2,2,0,0,0-.69,1.49A5.17,5.17,0,0,0,49.65,16a6.12,6.12,0,0,1,.51,1.17,11.2,11.2,0,0,1-3,.72c-1.61.17-2.68,1.11-2,1.76C45.56,20,47.29,20,49.45,19.46Z" transform="translate(-0.51 -0.49)"/><path class="a63f3e64-5062-4bd2-9555-1fa021798d8d" d="M46.45,24.93c.33-.56.3-.8-.08-1a1.06,1.06,0,0,0-.62-.15,4.52,4.52,0,0,0-1.81.81,4,4,0,0,0-1.24,1.62c0,.26.22.65.83.65A6.28,6.28,0,0,0,46.45,24.93Z" transform="translate(-0.51 -0.49)"/><path class="a63f3e64-5062-4bd2-9555-1fa021798d8d" d="M66,.78a6.38,6.38,0,0,0-2-.27H23.86v0l-17,0A6.35,6.35,0,0,0,.51,6.86V41.14a6.35,6.35,0,0,0,6.35,6.35h17v0h40.3a6.35,6.35,0,0,0,6.35-6.36V6.88A6.39,6.39,0,0,0,66,.78ZM17.08,44H2.57V7.47H7.33V40.36l5.25.08c9.39.13,13.09.76,18,3.08l1,.47Zm14.68-2.19c-1.3-.63-3.06-1.37-3.91-1.67-3.63-1.23-9.22-1.93-15.66-1.93H9.52V4h3.33c11,0,17.47,1.29,20.42,4.05l.7.64,0,10.27,0,10.25-.63-.52a1.56,1.56,0,0,0-1.1-.51c-.4,0-.51.05-.57.28-.12.44-.12.41.44,1.12a2.18,2.18,0,0,0,1.61,1H34v6c0,3.28,0,6.06.07,6.18A8,8,0,0,1,31.76,41.81Zm5.21,1c0-.12.07-2.82.07-6V30.93l.75-.15a3.07,3.07,0,0,0,1.05-.43c.18-.14.71-.51,1.19-.82,1.12-.73,1.37-1.22.95-1.8-.13-.18-.34-.24-.82-.23a1.85,1.85,0,0,0-1.28.45,13.65,13.65,0,0,1-1.15.74,1.46,1.46,0,0,0-.6.51c0,.11-.06-4.47-.09-10.16V8.66L37.73,8c2.45-2.24,7-3.46,14.43-3.9,1,0,3.49-.11,5.57-.14h3.75V38.21H58.81c-6.44,0-12,.7-15.66,1.93-.85.3-2.61,1-3.91,1.67A8,8,0,0,1,37,42.77Zm31.46-17V44h-29l1-.47c4.94-2.32,8.64-3,18-3.08l5.24-.08V7.47h4.76Z" transform="translate(-0.51 -0.49)"/></g></svg>