<svg id="e6d6b83c-d6c6-421e-a43c-ac9daaca1d7e" data-name="board" xmlns="http://www.w3.org/2000/svg" viewBox="0 0 69.99 47.01"><defs><style>.ea74563b-33a9-4f08-a619-9da49f1ed0e5{fill:#fcfcfc;}</style></defs><g id="eb1d4f38-eab9-4d7a-803b-77aa116b1fd0" data-name="board"><path class="ea74563b-33a9-4f08-a619-9da49f1ed0e5" d="M66,.78a6.38,6.38,0,0,0-2-.27H23.86v0l-17,0A6.35,6.35,0,0,0,.51,6.86V41.14a6.35,6.35,0,0,0,6.35,6.35h17v0h40.3a6.35,6.35,0,0,0,6.35-6.36V6.88A6.39,6.39,0,0,0,66,.78ZM48.43,47h-37V39.6h37Zm5.76-15.84s-3.3-4.49-4.88-5.39C48,25,44.23,24.52,42.38,24.29l-8.32-9.48-1.48,1.31,4.58,5.21a.35.35,0,0,1,0,.08c-4.41,7.17,2.83,13,8.44,16.25H14.32C15.41-1.29,40.26,4.21,40.26,4.21v0L42,5.1c3.93-5.38,7.55-3.92,7.55-3.92L46.87,7.71l4.39,2.35.36,4.06,7.94,13.42Z" transform="translate(-0.51 -0.49)"/></g></svg>