<svg xmlns="http://www.w3.org/2000/svg" viewBox="0 0 69.99 47.01"><defs><style>.fff40254-f733-4258-850a-b3e4c30ae9a7{fill:#fcfcfc;}</style></defs><g id="a30f1ef0-6bad-4f0d-9bdc-2745524629ad" data-name="casino"><g id="fb05f816-9b29-4a7a-8f23-e409e42feec3" data-name="casino"><path class="fff40254-f733-4258-850a-b3e4c30ae9a7" d="M20.73,19.42a1.71,1.71,0,0,0,.3-.64,16.17,16.17,0,0,1,2.94-5l.71-.81-1.48-.85-2-1.14-.5-.28-.58.71a21,21,0,0,0-3,5.07l-.29.71,1.91,1.1C19.78,18.92,20.69,19.42,20.73,19.42Z" transform="translate(-0.51 -0.49)"/><path class="fff40254-f733-4258-850a-b3e4c30ae9a7" d="M20.91,28.83a6.4,6.4,0,0,0-.33-.91c-.06-.06-3.89,2.17-3.93,2.27a17,17,0,0,0,1.16,2.86A29.89,29.89,0,0,0,20,36.48l.25.3,1.84-1.06c1-.58,1.89-1.11,2-1.17s.07-.19-.29-.6A15.93,15.93,0,0,1,20.91,28.83Z" transform="translate(-0.51 -0.49)"/><path class="fff40254-f733-4258-850a-b3e4c30ae9a7" d="M31.86,9.05c.07,0,.49-.12.92-.21a22.5,22.5,0,0,1,5.44,0c.44.09.85.18.92.21s.13-.22.12-2.26l0-2.33-1-.14a22.79,22.79,0,0,0-6.06.08l-.41.07,0,2.32C31.73,8.83,31.74,9.1,31.86,9.05Z" transform="translate(-0.51 -0.49)"/><path class="fff40254-f733-4258-850a-b3e4c30ae9a7" d="M39.14,39c-.07,0-.48.12-.92.21a22.5,22.5,0,0,1-5.44,0c-.43-.09-.85-.18-.92-.21s-.13.22-.11,2.26l0,2.33,1,.14a19,19,0,0,0,2.74.16,18.94,18.94,0,0,0,2.74-.16l1-.14,0-2.33C39.27,39.17,39.27,38.9,39.14,39Z" transform="translate(-0.51 -0.49)"/><path class="fff40254-f733-4258-850a-b3e4c30ae9a7" d="M50,18.78a1.61,1.61,0,0,0,.29.64c.06,0,.95-.5,2-1.11l1.9-1.1-.3-.71a20.07,20.07,0,0,0-2.39-4.29c-.27-.36-.66-.84-.86-1.07l-.36-.42-2,1.14-2,1.13.71.81A16.21,16.21,0,0,1,50,18.78Z" transform="translate(-0.51 -0.49)"/><path class="fff40254-f733-4258-850a-b3e4c30ae9a7" d="M52.6,29.11c-1-.55-1.87-1.07-2-1.14s-.21-.11-.24,0-.16.5-.31.95a16.09,16.09,0,0,1-2.85,5c-.36.41-.41.5-.3.6s.95.59,2,1.17l1.82,1.06.26-.31A27.35,27.35,0,0,0,53.19,33a20.65,20.65,0,0,0,1.18-2.81A16.45,16.45,0,0,0,52.6,29.11Z" transform="translate(-0.51 -0.49)"/><path class="fff40254-f733-4258-850a-b3e4c30ae9a7" d="M47.68,24a8.94,8.94,0,0,0-.22-2.7,12.46,12.46,0,0,0-5.15-7.45,11.55,11.55,0,0,0-4-1.77,9.21,9.21,0,0,0-2.57-.26,9.7,9.7,0,0,0-3.59.39,12.44,12.44,0,0,0-6.83,5,11.48,11.48,0,0,0-1.78,4A8.93,8.93,0,0,0,23.33,24a9,9,0,0,0,.21,2.7,12.48,12.48,0,0,0,5.15,7.45,11.48,11.48,0,0,0,4,1.78,8.39,8.39,0,0,0,2.79.24,8.46,8.46,0,0,0,2.8-.24,11.51,11.51,0,0,0,4-1.78,12.43,12.43,0,0,0,5.15-7.45A8.94,8.94,0,0,0,47.68,24Zm-7.42,4.38a4.71,4.71,0,0,1-3.43,2.48c-.25.06-.25-.06-.25.8s-.18,1.26-.67,1.47a1,1,0,0,1-1,0c-.45-.24-.64-.65-.64-1.38,0-.34.21-.61-.06-.61a20.83,20.83,0,0,1-2.3-.41c-.81-.24-1.23-.48-1.23-1.51a1.23,1.23,0,0,1,1.72-1.27c2.82.78,4.66.38,4.66-1,0-.7-.58-1.24-1.82-1.72a18.55,18.55,0,0,1-2.55-1.07A3.77,3.77,0,0,1,30.56,20a4.2,4.2,0,0,1,3.13-3.22l.64-.2v-.45c0-1,.3-1.53.91-1.67a1.13,1.13,0,0,1,1.3.54,2.21,2.21,0,0,1,.13.83v.58l.84.1c1.06.13,1.43.24,1.75.51a1.32,1.32,0,0,1,.45,1.26,1.07,1.07,0,0,1-.3.76c-.4.42-.76.47-1.64.26a5.84,5.84,0,0,0-2.92,0,1,1,0,0,0-.59,1.56c.3.43.83.73,2.37,1.35a8.47,8.47,0,0,1,3,1.65A4,4,0,0,1,40.26,28.38Z" transform="translate(-0.51 -0.49)"/><path class="fff40254-f733-4258-850a-b3e4c30ae9a7" d="M66,.78a6.38,6.38,0,0,0-2-.27H23.86v0l-17,0A6.35,6.35,0,0,0,.51,6.86V41.14a6.35,6.35,0,0,0,6.35,6.35h17v0h40.3a6.35,6.35,0,0,0,6.35-6.36V6.88A6.39,6.39,0,0,0,66,.78ZM58.29,27.37a30.75,30.75,0,0,1-1.15,4.49,24,24,0,0,1-5.66,8.71C47.09,44.74,47.35,47,35.5,47A23,23,0,0,1,12.58,26.27a32.63,32.63,0,0,1,.14-5.68,23.77,23.77,0,0,1,2.16-6.79,22.68,22.68,0,0,1,7.77-8.89,23.13,23.13,0,0,1,10.2-3.77h0c.5-.07,1.63-.12,2.52-.13a23,23,0,0,1,23,20.39A29.77,29.77,0,0,1,58.29,27.37Z" transform="translate(-0.51 -0.49)"/></g></g></svg>