<svg id="f658a20a-7b09-4598-8338-80b13dc8b247" data-name="Calque 4" xmlns="http://www.w3.org/2000/svg" viewBox="0 0 69.99 47.01"><defs><style>.fa5fa5d5-0aa6-4321-875c-d0fd6744847c{fill:#fcfcfc;}</style></defs><g id="f2a390e1-3363-423a-863c-1f25da9a3a39" data-name="casual"><path class="fa5fa5d5-0aa6-4321-875c-d0fd6744847c" d="M26.73,15l-1,3.62c9.36-9.44,24.3,3.19,12.73,13.63L42.83,31l2.92-11-8-8.06Z" transform="translate(-0.51 -0.49)"/><path class="fa5fa5d5-0aa6-4321-875c-d0fd6744847c" d="M18.8,10.54h0c2.84,3.41,1.4,13.05-3.52,16L19.05,25,22,13.49Z" transform="translate(-0.51 -0.49)"/><path class="fa5fa5d5-0aa6-4321-875c-d0fd6744847c" d="M28.45,37.75l-7.55-8c4.1,5.61,6.33,9.6,6.84,13.92Z" transform="translate(-0.51 -0.49)"/><path class="fa5fa5d5-0aa6-4321-875c-d0fd6744847c" d="M48.88,40.6l-2.36-2.4h0c-.73,2-2.86,3-8.79,5.58Z" transform="translate(-0.51 -0.49)"/><path class="fa5fa5d5-0aa6-4321-875c-d0fd6744847c" d="M66,.78a6.38,6.38,0,0,0-2-.27H23.86v0l-17,0A6.35,6.35,0,0,0,.51,6.86V41.14a6.35,6.35,0,0,0,6.35,6.35h17v0h40.3a6.35,6.35,0,0,0,6.35-6.36V6.88A6.39,6.39,0,0,0,66,.78ZM58.19,17.23l-9.26.85L40.06,9.19l2.63-7.44Zm-10.46,2.2L44.28,32.34,31.4,35.8,22,26.37l3.45-12.91L38.32,10ZM41.05,1h0l-2.5,7.06-.19,0L25.28,11.64,19.66,6.71ZM18.24,7.86h0l5.53,4.85L20.16,26.17l-7.65,3ZM28.62,46.62,13,31l7.93-3.15,9.4,9.42Zm1.76.38,1.7-9.5,12.63-3.4h0l7.13,7.18ZM58.47,19,52.91,39.78l-6.9-7,3.48-13,9-.82h0Z" transform="translate(-0.51 -0.49)"/><path class="fa5fa5d5-0aa6-4321-875c-d0fd6744847c" d="M37.81,6.19l.84-3.26L27.4,5.76C34.14,4.54,37.78,4.69,37.81,6.19Z" transform="translate(-0.51 -0.49)"/><path class="fa5fa5d5-0aa6-4321-875c-d0fd6744847c" d="M49.85,17l5.69-.74L43.59,4.34C46.73,8.2,51.42,15,49.85,17Z" transform="translate(-0.51 -0.49)"/><path class="fa5fa5d5-0aa6-4321-875c-d0fd6744847c" d="M54,31.61l2.83-11.24h0l-5.8.45C54,22.81,54.62,24.94,54,31.61Z" transform="translate(-0.51 -0.49)"/></g></svg>