<svg id="e4c8741a-d43a-4d53-930d-99981d1cb7eb" data-name="Calque 1" xmlns="http://www.w3.org/2000/svg" viewBox="0 0 69.99 47.01"><defs><style>.ad7df1f4-d3b3-45c8-873b-2373131723a1{fill:#fcfcfc;}</style></defs><g id="f032010c-3968-4883-968a-1765aeeb5e1f" data-name="compilation"><path class="ad7df1f4-d3b3-45c8-873b-2373131723a1" d="M13.85,37.49a2.8,2.8,0,0,0,2.56-1.58,2.3,2.3,0,0,0,.28-1.3A2.66,2.66,0,0,0,15.07,32h0a2.88,2.88,0,0,0-3.7,4.14A2.72,2.72,0,0,0,13.85,37.49Z" transform="translate(-0.51 -0.49)"/><path class="ad7df1f4-d3b3-45c8-873b-2373131723a1" d="M58.3,33.47a3.48,3.48,0,0,0-1.48-1.74,1.67,1.67,0,0,0-1.61,0,2.6,2.6,0,0,0-1.16,1.58,4,4,0,0,0,.24,2.33c.91,1.94,2.94,2.2,3.89.51A3.7,3.7,0,0,0,58.3,33.47Z" transform="translate(-0.51 -0.49)"/><path class="ad7df1f4-d3b3-45c8-873b-2373131723a1" d="M66,.78a6.38,6.38,0,0,0-2-.27H23.86v0l-17,0A6.35,6.35,0,0,0,.51,6.86V41.14a6.35,6.35,0,0,0,6.35,6.35h17v0h40.3a6.35,6.35,0,0,0,6.35-6.36V6.88A6.39,6.39,0,0,0,66,.78ZM18.59,46.37H9.11V42.45h9.48Zm0-5.78H9.11V8.32h9.48Zm0-34.13H9.11V1.62h9.48ZM32.82,46.37H20.45V41.75l1.11-.36a17.86,17.86,0,0,1,3.38-.73c.17,0,1.12,0,2.11,0a11.41,11.41,0,0,1,5.29.87l.48.25Zm-.17-6.76A21.85,21.85,0,0,0,30,38.93a20.5,20.5,0,0,0-2.94-.13,17.19,17.19,0,0,0-5.42.67l-1.13.3s-.05-5.23-.05-11.61V16.55l.24.07a19.41,19.41,0,0,0,7,.95,12.9,12.9,0,0,0,4.48-.68,5.28,5.28,0,0,1,.6-.22s0,.59,0,11.51S32.81,39.68,32.65,39.61Zm.17-25-.33.2c-1,.63-2.92,1-5.44,1a16.13,16.13,0,0,1-6-1l-.59-.21V11.1H32.82ZM45.2,46.37H35.61V42.45H45.2Zm0-5.78H35.61V37.7H45.2Zm0-4.74H35.61V13.06H45.2Zm0-24.64H35.61V8.32H45.2Zm0-4.75H35.61V1.62H45.2Zm2.16.93c-.09-.15-1-4.53-.92-4.58s1.49-.35,3.24-.71,3.23-.63,3.27-.6,1,4.58.95,4.64-1.49.34-3.25.7A15.18,15.18,0,0,1,47.36,7.39Zm.41,2c0-.11.63-.28,2.66-.69l3.22-.67c.31-.07.55-.15.63-.07s6.52,31.56,6.48,31.6S54.23,41,54.21,41,47.77,9.54,47.77,9.43ZM61.89,45.17s-6,1.29-6.38,1.33c-.13,0-.24-.39-.54-1.84a16,16,0,0,1-.33-1.89s1.42-.33,3.1-.68,3.16-.65,3.25-.66a.24.24,0,0,1,.23.16C61.34,42,61.93,45.14,61.89,45.17Z" transform="translate(-0.51 -0.49)"/></g></svg>