<svg id="b301d721-52b8-4373-96b3-c88472646d5b" data-name="Calque 1" xmlns="http://www.w3.org/2000/svg" viewBox="0 0 69.99 47.01"><defs><style>.bfd3d96e-04b5-48b8-a35f-ceab74731896{fill:#fcfcfc;}</style></defs><g id="a3e21d0c-07c0-4b57-ab75-5853da8b7986" data-name="demoscene"><path class="bfd3d96e-04b5-48b8-a35f-ceab74731896" d="M18.45,17.7c-.21-.06-.27.06-.73,1.6a24.81,24.81,0,0,0-.82,7.89l.08,1,3.08,1.11c1.7.61,3.11,1.09,3.13,1.08s.07-.54.15-1.17A38.11,38.11,0,0,1,25,21.64a10,10,0,0,0,.4-1.41S23.84,19.64,22,19Z" transform="translate(-0.51 -0.49)"/><path class="bfd3d96e-04b5-48b8-a35f-ceab74731896" d="M41.69,6.74l.39-1a8.45,8.45,0,0,0,.39-1.17c0-.06-.2-.19-.45-.27-1.79-.53-2.19-.56-3.33-.2a9.86,9.86,0,0,0-1.84.84,40.7,40.7,0,0,0,3.8,1.46Z" transform="translate(-0.51 -0.49)"/><path class="bfd3d96e-04b5-48b8-a35f-ceab74731896" d="M30.39,10.65a3,3,0,0,0,.68-.74,24.49,24.49,0,0,1,5-4.74L36.43,5l-1.28-.44c-2-.71-2.3-.82-2.3-1a.16.16,0,0,0-.32,0c0,.07-.28.22-.62.33a22.29,22.29,0,0,0-7,4.05c-.43.36-.54.5-.42.57S30.26,10.65,30.39,10.65Z" transform="translate(-0.51 -0.49)"/><path class="bfd3d96e-04b5-48b8-a35f-ceab74731896" d="M33.25,3.36s0-.06-.14,0-.15,0-.06.06A.18.18,0,0,0,33.25,3.36Z" transform="translate(-0.51 -0.49)"/><path class="bfd3d96e-04b5-48b8-a35f-ceab74731896" d="M35.66,12.76l-4.18-1.52-1-.36-.69,1a37.08,37.08,0,0,0-2.56,4.48,37.9,37.9,0,0,0-1.58,3.73c.08.07,9.83,3.59,9.86,3.56S39,14.07,38.94,14,37.41,13.4,35.66,12.76Z" transform="translate(-0.51 -0.49)"/><path class="bfd3d96e-04b5-48b8-a35f-ceab74731896" d="M36.36,35.25l4.22,1.54.2-.23a40.47,40.47,0,0,0,2.83-4.78,33,33,0,0,0,1.85-4.23,6.24,6.24,0,0,0-.89-.35l-4.9-1.78c-2.21-.81-4-1.47-4.06-1.47s-3.43,9.39-3.44,9.57S32.94,34,36.36,35.25Z" transform="translate(-0.51 -0.49)"/><path class="bfd3d96e-04b5-48b8-a35f-ceab74731896" d="M46.91,8.52c0,.08.3.24.68.37s1.19.42,1.82.66l1.16.42-.51-.65A13.06,13.06,0,0,0,47.23,6.9c-.44-.3-1-.68-1.33-.84l-.52-.31.5.72A7.35,7.35,0,0,1,46.91,8.52Z" transform="translate(-0.51 -0.49)"/><path class="bfd3d96e-04b5-48b8-a35f-ceab74731896" d="M47.82,17.91a40.44,40.44,0,0,1-2,9.05l-.19.51.55.17,3.53,1.27C52.45,29.91,53,30.08,53,30s.16-.64.37-1.35a24.79,24.79,0,0,0,.88-8.12l-.08-1-1-.34L50.06,18l-2.12-.77A3.84,3.84,0,0,0,47.82,17.91Z" transform="translate(-0.51 -0.49)"/><path class="bfd3d96e-04b5-48b8-a35f-ceab74731896" d="M40.54,10.35l-1.28,3.51c0,.08,0,.14.09.14s2,.68,4.26,1.5L47.72,17l.08-.72a24.81,24.81,0,0,0-.69-6.78l-.23-.76-.61-.2c-.34-.1-1.44-.5-2.46-.87S41.92,7,41.87,7A33.63,33.63,0,0,0,40.54,10.35Z" transform="translate(-0.51 -0.49)"/><path class="bfd3d96e-04b5-48b8-a35f-ceab74731896" d="M51.23,10.46c-.37-.39-.35-.29.07.37A23,23,0,0,1,54.19,19c.07.37.11.42.84.69a2.55,2.55,0,0,0,.83.22,21.64,21.64,0,0,0-4.63-9.43Z" transform="translate(-0.51 -0.49)"/><path class="bfd3d96e-04b5-48b8-a35f-ceab74731896" d="M43.67,38.07c-1.56-.58-2.87-1-2.93-1a9,9,0,0,0-1,1.1,27.89,27.89,0,0,1-4.05,3.95,4.6,4.6,0,0,0-.77.61,14.56,14.56,0,0,0,3,1.17c.29.11.5.41.27.41l-.89.17a18.29,18.29,0,0,1-2.16.25l-1.36.09,1.54,0a17.71,17.71,0,0,0,3.49-.27l.27-.07-.31-.1c-.16-.07-.28-.17-.27-.22a4.85,4.85,0,0,1,1.06-.48A22.37,22.37,0,0,0,46,40c.61-.51.79-.72.68-.78S45.24,38.63,43.67,38.07Z" transform="translate(-0.51 -0.49)"/><path class="bfd3d96e-04b5-48b8-a35f-ceab74731896" d="M34.25,42.72s-.58-.24-1.24-.48-1.73-.64-2.4-.87L29.4,41,29,42.15a12,12,0,0,0-.44,1.32c0,.07.33.22.75.35a4.34,4.34,0,0,0,1.92,0,14.71,14.71,0,0,0,1.92-.49C33.86,43.08,34.34,42.8,34.25,42.72Z" transform="translate(-0.51 -0.49)"/><path class="bfd3d96e-04b5-48b8-a35f-ceab74731896" d="M54.13,30.67h0l-1.06-.39c-.12-.05-.22.09-.37.55A22.64,22.64,0,0,1,50.58,35,19.19,19.19,0,0,1,48,38.23l-.9.94.9.32a2.44,2.44,0,0,0,1.06.24,25.89,25.89,0,0,0,3-3.16,24.48,24.48,0,0,0,2.4-4.08C55.13,30.89,55.15,31.05,54.13,30.67Z" transform="translate(-0.51 -0.49)"/><path class="bfd3d96e-04b5-48b8-a35f-ceab74731896" d="M66,.78a6.38,6.38,0,0,0-2-.27H23.86v0l-17,0A6.35,6.35,0,0,0,.51,6.86V41.14a6.35,6.35,0,0,0,6.35,6.35h17v0h40.3a6.35,6.35,0,0,0,6.35-6.36V6.88A6.39,6.39,0,0,0,66,.78ZM57.78,28.22a22.66,22.66,0,0,1-4.42,9.83,40.86,40.86,0,0,1-3.59,3.62,22.14,22.14,0,0,1-10.05,4.61,41,41,0,0,1-8.44,0,22.14,22.14,0,0,1-10-4.61,40.86,40.86,0,0,1-3.59-3.62,22.66,22.66,0,0,1-4.42-9.83,41,41,0,0,1,0-8.44,22.1,22.1,0,0,1,4.62-10,39.45,39.45,0,0,1,3.61-3.59,22.25,22.25,0,0,1,9.83-4.4l1.36-.21c.15,0,1.58,0,3.18,0A18.15,18.15,0,0,1,42,2.27a22,22,0,0,1,7.73,4.07A40.75,40.75,0,0,1,53.36,10a22.72,22.72,0,0,1,4.42,9.83A41,41,0,0,1,57.78,28.22Z" transform="translate(-0.51 -0.49)"/><path class="bfd3d96e-04b5-48b8-a35f-ceab74731896" d="M18.16,17.44l.1-.23a23.09,23.09,0,0,1,2-4.11,21.91,21.91,0,0,1,2.81-3.64l.9-1-.77-.28A3.46,3.46,0,0,0,22.34,8,27.91,27.91,0,0,0,19,11.43a25,25,0,0,0-2.41,4.13,6.91,6.91,0,0,0-.43,1.1s.48.21,1,.41Z" transform="translate(-0.51 -0.49)"/><path class="bfd3d96e-04b5-48b8-a35f-ceab74731896" d="M16.92,28.68c-.07-.33-.13-.41-.48-.53s-.63-.21-.91-.32l-.5-.2.06.35c0,.18.22.91.41,1.59a22.48,22.48,0,0,0,3.76,7.37,1.69,1.69,0,0,0,.54.36l.4.16-.4-.62A22.18,22.18,0,0,1,16.92,28.68Z" transform="translate(-0.51 -0.49)"/><path class="bfd3d96e-04b5-48b8-a35f-ceab74731896" d="M30.57,37.32c.68-1.85,1.25-3.44,1.29-3.51s0-.13-.09-.13-1.56-.52-3.29-1.15L24.35,31l-1-.36-.06.88a26.93,26.93,0,0,0,.26,4.61,23.78,23.78,0,0,0,.58,2.55c.05.17.25.28.68.41s1.45.51,2.46.89,1.9.69,1.95.69A35.36,35.36,0,0,0,30.57,37.32Z" transform="translate(-0.51 -0.49)"/><path class="bfd3d96e-04b5-48b8-a35f-ceab74731896" d="M24.3,39.47c-.12-.42-.19-.49-.63-.64-.27-.08-1-.33-1.52-.54l-1.29-.45-.26-.08.26.36A17.64,17.64,0,0,0,25.11,42c1.57.91,1.6.93.82.08A7.56,7.56,0,0,1,24.3,39.47Z" transform="translate(-0.51 -0.49)"/></g></svg>