<svg id="aa018aeb-84ee-4d83-acc5-f878dfe6933c" data-name="Calque 1" xmlns="http://www.w3.org/2000/svg" viewBox="0 0 69.99 47.01"><defs><style>.aaad6ab2-4933-4fbb-a578-4d4a0561bc7b{fill:#fcfcfc;}</style></defs><g id="bec74457-1ea5-435a-a7ed-af65b40d5af7" data-name="digitalcard"><path class="aaad6ab2-4933-4fbb-a578-4d4a0561bc7b" d="M48.61,18.33A4.15,4.15,0,0,0,45,19.55l-.56.56L44,19.66a4.25,4.25,0,0,0-1.72-1.14,4.15,4.15,0,0,0-4.83,1.64,3.41,3.41,0,0,0-.7,2.54,10.06,10.06,0,0,0,1.32,4.73,15.68,15.68,0,0,0,3.28,4.32c1.73,1.74,2,1.94,3,1.88a2.86,2.86,0,0,0,.9-.2A18,18,0,0,0,48,31a15.17,15.17,0,0,0,4.18-8.07A4.29,4.29,0,0,0,48.61,18.33Z" transform="translate(-0.51 -0.49)"/><path class="aaad6ab2-4933-4fbb-a578-4d4a0561bc7b" d="M34.94,9.17l-.22-.66H33.6l-.74,2.32c-.41,1.28-.76,2.39-.77,2.46s.07.13.38.13h.41l.2-.64a4.83,4.83,0,0,0,.19-.74c0-.07.26-.1.86-.08L35,12l.21.72.23.72h.9l-.58-1.79C35.42,10.66,35.06,9.54,34.94,9.17Zm-.79,2.21a1.64,1.64,0,0,1-.69-.08,6.76,6.76,0,0,1,.23-.79,6.66,6.66,0,0,0,.23-.8,2,2,0,0,1,.1-.33c0-.14.11-.23.14-.2s.68,2.08.69,2.17A3.7,3.7,0,0,1,34.15,11.38Z" transform="translate(-0.51 -0.49)"/><path class="aaad6ab2-4933-4fbb-a578-4d4a0561bc7b" d="M41.88,5.72h7.91V5.51a3.79,3.79,0,0,0-1-1.75,3.9,3.9,0,0,0-1-.69c-1-.5-1-.5-12.42,1.31-5.61.89-10.39,1.67-10.61,1.72a4.32,4.32,0,0,0-1.71,1.15,4,4,0,0,0-.76,1.81c0,.41.46,3.78,2.46,16.52,2.79,17.79,2.57,16.66,3.48,17.56A3.19,3.19,0,0,0,30,44h.27l-.21-.44a4.5,4.5,0,0,1-.31-.94c-.14-.65-.15-32.61,0-33.33a4.48,4.48,0,0,1,3.62-3.51C33.74,5.76,37,5.72,41.88,5.72Z" transform="translate(-0.51 -0.49)"/><path class="aaad6ab2-4933-4fbb-a578-4d4a0561bc7b" d="M25.72,42.18c-.17-.54-5-31.44-5.13-32.47a6,6,0,0,1,.88-3.27c.05-.1,0-.09-2.92.35s-3.32.57-4.07,1.36a3.4,3.4,0,0,0-1,2.16c0,.51.48,3.95,2.44,16.38,1.36,8.65,2.5,15.83,2.52,16a4.53,4.53,0,0,0,1,1.68,3.32,3.32,0,0,0,2.16.9,42.35,42.35,0,0,0,5.13-.69l.25-.06L26.65,44A5.16,5.16,0,0,1,25.72,42.18Z" transform="translate(-0.51 -0.49)"/><path class="aaad6ab2-4933-4fbb-a578-4d4a0561bc7b" d="M56,38.66l-.2.69-.21.71-.84,0-.85,0-.23-.68-.22-.66h-.41c-.22,0-.41,0-.41.06s.35,1.15.76,2.46l.77,2.39h1.13l.76-2.39c.41-1.31.76-2.42.76-2.46s-.19-.06-.4-.06ZM55.42,41a11.6,11.6,0,0,1-.64,2s-.11-.17-.17-.39c-.11-.41-.41-1.4-.51-1.67s0-.16.65-.16h.71Z" transform="translate(-0.51 -0.49)"/><path class="aaad6ab2-4933-4fbb-a578-4d4a0561bc7b" d="M66,.78a6.38,6.38,0,0,0-2-.27H23.86v0l-17,0A6.35,6.35,0,0,0,.51,6.86V41.14a6.35,6.35,0,0,0,6.35,6.35h17v0h40.3a6.35,6.35,0,0,0,6.35-6.36V6.88A6.39,6.39,0,0,0,66,.78ZM59.1,43a4.56,4.56,0,0,1-2.92,3c-.54.16-1,.17-11.68.17s-11.14,0-11.68-.17c-.94-.29-3-.15-7,.49-3.45.55-4.37.62-5.29.38a5.41,5.41,0,0,1-3.71-3.74c-.08-.29-1.25-7.59-2.6-16.22-1.69-10.81-2.46-15-2.46-16.42a4.74,4.74,0,0,1,1.58-3.65,4.77,4.77,0,0,1,2.36-1.39c.26,0,5.39-.81,11.41-1.68S39.72,1.93,41.76,1.6C46.1.91,46.86.86,48,1.22a5.65,5.65,0,0,1,2.44,1.64,5.81,5.81,0,0,1,1.15,2.6l0,.26h1.75a7.13,7.13,0,0,1,3.48.51,4.35,4.35,0,0,1,2.19,2.63c.19.58.19,2.3.19,17.12S59.23,42.57,59.1,43Z" transform="translate(-0.51 -0.49)"/></g></svg>