<svg id="b15306a4-03e8-49a9-bb75-c80a5557701b" data-name="Calque 1" xmlns="http://www.w3.org/2000/svg" viewBox="0 0 69.99 47.01"><defs><style>.f3e622d5-656e-4c36-a53a-c13addf88814{fill:#fcfcfc;}</style></defs><g id="b8fc95e3-4413-42e8-90c0-aa0844461ab6" data-name="educative"><path class="f3e622d5-656e-4c36-a53a-c13addf88814" d="M53,13l0,.39h1.56c1.78,0,1.85,0,1.85-.74v-.37H54.89C53.18,12.27,53,12.33,53,13Z" transform="translate(-0.51 -0.49)"/><path class="f3e622d5-656e-4c36-a53a-c13addf88814" d="M50.08,10.72a1.69,1.69,0,0,0-.5-2.36,2.84,2.84,0,0,0-2.4,0,1.44,1.44,0,0,0-.79,1.7.7.7,0,0,0,.75.47c.26,0,.29,0,.35-.39.1-.54.32-.86.76-.86a.54.54,0,0,1,.59.7c-.08.44-.63,1.05-1.78,2a7,7,0,0,0-1,.91c0,.08-.05-.12-.05.56s.19.72,2.12.72,2,0,2-.73V13H47.88l.38-.3A7.46,7.46,0,0,0,50.08,10.72Z" transform="translate(-0.51 -0.49)"/><path class="f3e622d5-656e-4c36-a53a-c13addf88814" d="M36.3,8.17c-1.6,0-1.72,0-1.9.17a.78.78,0,0,0-.19.58V9.3h1a4,4,0,0,1,1.06.07s-.45.91-1,1.94-1,2-1.1,2.13c-.16.41.11.67.73.73l.5.05.36-.8c.2-.45.78-1.67,1.3-2.73A7.8,7.8,0,0,0,38,8.48l0-.28Z" transform="translate(-0.51 -0.49)"/><path class="f3e622d5-656e-4c36-a53a-c13addf88814" d="M42.46,10.83v-.52c0-.41-.05-.58-.2-.72a.59.59,0,0,0-.47-.19c-.23,0-.27,0-.33.29a5,5,0,0,0-.06.72v.42h-.48c-.57,0-.86.23-.86.68v.28h1.25l-.05.45a1.39,1.39,0,0,0,.06.71c.13.23.69.47.83.34a2.58,2.58,0,0,0,.11-.76l.05-.69.55,0c.6,0,.72-.11.77-.59l0-.34-.59,0Z" transform="translate(-0.51 -0.49)"/><path class="f3e622d5-656e-4c36-a53a-c13addf88814" d="M66,.78a6.38,6.38,0,0,0-2-.27H23.86v0l-17,0A6.35,6.35,0,0,0,.51,6.86V41.14a6.35,6.35,0,0,0,6.35,6.35h17v0h40.3a6.35,6.35,0,0,0,6.35-6.36V6.88A6.39,6.39,0,0,0,66,.78ZM13.67,19.86a8.73,8.73,0,0,1,4.86-5.07,12.65,12.65,0,0,1,2.25-.64h0a13.28,13.28,0,0,1,3.31.22,11.05,11.05,0,0,1,2.79,1.27,9.65,9.65,0,0,1,3.19,4,9.12,9.12,0,0,1-.82,8.14,9.67,9.67,0,0,1-3.94,3.28,7.28,7.28,0,0,1-3.48.62,6.47,6.47,0,0,1-2.35-.27A8.84,8.84,0,0,1,13.67,19.86ZM22,47c-9.81,0-10.85,0-10.91-.15a12.39,12.39,0,0,1,0-2.68c.05-.59.14-3.08.21-5.56s.15-4.55.19-4.6a17.44,17.44,0,0,1,2.17-.36L17,33.2c1.89-.27,1.74-.3,2.33.42.76.92,2.63,3.07,2.71,3.1a21.51,21.51,0,0,0,1.63-1.85A15.91,15.91,0,0,1,25.37,33c.09,0,.76.09,1.5.2a53.38,53.38,0,0,1,5.51.83s.13,2.13.19,4.63.13,5.41.17,6.45L32.8,47ZM59.87,12.71c-.87,3.68-5.29,6.83-12.43,8.85-1.88.54-5,1.28-7.57,1.78s-6.13,1.14-6.33,1.1,0-.4,1.12-2.29c.71-1.23,1.31-2.3,1.33-2.35s-.21-.22-.51-.37a11.36,11.36,0,0,1-5.38-5.55A7.15,7.15,0,0,1,30.42,8C32.22,4.27,37.1,1.58,43,1.05h0a27.7,27.7,0,0,1,5,.15C54,2.05,58.75,5.38,59.83,9.57A7.91,7.91,0,0,1,59.87,12.71Z" transform="translate(-0.51 -0.49)"/><path class="f3e622d5-656e-4c36-a53a-c13addf88814" d="M53.3,10.77v.35h1.58c1.76,0,1.77,0,1.77-.71v-.34H55.14C53.41,10.07,53.3,10.12,53.3,10.77Z" transform="translate(-0.51 -0.49)"/></g></svg>