<svg id="eb34b225-706e-40f1-96a9-5a8dbba1f3d8" data-name="Calque 1" xmlns="http://www.w3.org/2000/svg" viewBox="0 0 69.99 47.01"><defs><style>.fd649cc5-35fb-4100-8d5b-8962b42c0bc6{fill:#fcfcfc;}</style></defs><g id="a0e85d85-3ce4-40c8-a672-716454e5fdd3" data-name="flipper"><path class="fd649cc5-35fb-4100-8d5b-8962b42c0bc6" d="M28.75,9c.24-.21.3-.36.36-.93A3.21,3.21,0,0,1,32.05,5.1c.57-.06.72-.12.93-.36a.79.79,0,0,0,0-1c-.42-.51-2.21-.22-3.33.55a6.87,6.87,0,0,0-1.53,1.61c-.58,1-.82,2.55-.45,3A.73.73,0,0,0,28.75,9Z" transform="translate(-0.51 -0.49)"/><path class="fd649cc5-35fb-4100-8d5b-8962b42c0bc6" d="M66,.78a6.38,6.38,0,0,0-2-.27H23.86v0l-17,0A6.35,6.35,0,0,0,.51,6.86V41.14a6.35,6.35,0,0,0,6.35,6.35h17v0h40.3a6.35,6.35,0,0,0,6.35-6.36V6.88A6.39,6.39,0,0,0,66,.78ZM41.8,19.71l1-.35h0l1-.34,0,1.45a6.45,6.45,0,0,1-.76,3.67,10.85,10.85,0,0,1-3.27,3.27,6.89,6.89,0,0,1-3.8.78,6.81,6.81,0,0,1-3.79-.78,11.16,11.16,0,0,1-3-2.75l-.4-.61L30,23.66l1.13-.38.2.28a6.42,6.42,0,0,0,3.45,2.32,4.1,4.1,0,0,0,2.5,0,5.82,5.82,0,0,0,4.29-4.29,5.71,5.71,0,0,0,.21-1.31Zm-2.1-5.83v-.57l1-.35,1-.34,0,1.45A6.45,6.45,0,0,1,41,17.74,10.85,10.85,0,0,1,37.75,21a6.89,6.89,0,0,1-3.8.78A6.81,6.81,0,0,1,30.16,21a11.16,11.16,0,0,1-3-2.75l-.4-.61,1.13-.39,1.13-.38.2.28a6.42,6.42,0,0,0,3.45,2.32,4.1,4.1,0,0,0,2.5,0,5.82,5.82,0,0,0,4.29-4.29A5.71,5.71,0,0,0,39.7,13.88ZM31,1.85a8.23,8.23,0,0,1,3.25.09,6.69,6.69,0,0,1,4,9.58,7.29,7.29,0,0,1-2.7,2.7A6.66,6.66,0,1,1,31,1.85Zm3.84,43.84c-1.75.9-7,.74-13.76-.4-4.15-.7-6.82-1.34-7.92-1.89a6.27,6.27,0,0,1-2.91-3.32A8.08,8.08,0,0,1,10,36.8a6.15,6.15,0,0,1,4.53-4.56,7.12,7.12,0,0,1,3.18.15A75.4,75.4,0,0,1,30.2,39.2C35.08,42.5,36.66,44.74,34.79,45.69Zm24.57-1.84a6.1,6.1,0,0,1-6.51,1.34,85.06,85.06,0,0,1-10.4-4.37c-6-3-8.42-5.18-7.29-6.53.6-.7,2.26-1.18,4.89-1.39a84.32,84.32,0,0,1,14.61.6c2.67.37,3.47.7,4.69,1.93a5.5,5.5,0,0,1,1.75,4.19A4.71,4.71,0,0,1,59.36,43.85Z" transform="translate(-0.51 -0.49)"/></g></svg>