<svg id="e0c03a43-e0a6-4458-acd1-1f66625182f3" data-name="Calque 1" xmlns="http://www.w3.org/2000/svg" viewBox="0 0 69.99 47.01"><defs><style>.f8153d75-785d-4f15-9578-cc45f92ae11f{fill:#fcfcfc;}</style></defs><path id="b2a99d37-b36a-462a-8a2b-10ff700a29f0" data-name="party" class="f8153d75-785d-4f15-9578-cc45f92ae11f" d="M66,.78a6.38,6.38,0,0,0-2-.27H23.86v0l-17,0A6.35,6.35,0,0,0,.51,6.86V41.14a6.35,6.35,0,0,0,6.35,6.35h17v0h40.3a6.35,6.35,0,0,0,6.35-6.36V6.88A6.39,6.39,0,0,0,66,.78Zm-21.61,1a6.67,6.67,0,0,1,2.41-.2,7,7,0,0,1,3.63.81,8.71,8.71,0,0,1,4.77,5.83,9.9,9.9,0,0,1,0,4.3,8.78,8.78,0,0,1-2.59,4.3,8.67,8.67,0,0,1-3.91,2.15,11.14,11.14,0,0,1-4.19,0,11.35,11.35,0,0,1-2.88-1.3A9.07,9.07,0,0,1,38.22,13,8.88,8.88,0,0,1,44.43,1.75Zm-8.68,19A5.38,5.38,0,0,1,40.86,25,5.49,5.49,0,0,1,31,29.33a5.45,5.45,0,0,1-.81-4.41,5.54,5.54,0,0,1,4.27-4.11A8.29,8.29,0,0,1,35.75,20.77Zm-20-12.58a8.88,8.88,0,0,1,6.39-6.44,9.83,9.83,0,0,1,4.25,0A9,9,0,0,1,33,8.2a9.72,9.72,0,0,1,0,4.16,8.87,8.87,0,0,1-6.22,6.49,6.68,6.68,0,0,1-2.33.27,7,7,0,0,1-4-.93,6.37,6.37,0,0,1-2-1.39,8.75,8.75,0,0,1-2.6-4.31A9.9,9.9,0,0,1,15.76,8.19ZM25.18,43,23.37,43a38.16,38.16,0,0,1-4.53-.37c-.19-.06-1-.2-1.73-.31a52,52,0,0,1-7-1.7l-.71-.24,0-5.35a44.43,44.43,0,0,1,.13-6.19,11.08,11.08,0,0,1,3.08-5.76,11.33,11.33,0,0,1,6-3.2c1-.16,10.13-.21,11.24-.05a8.45,8.45,0,0,1,2.4.72s-.15.17-.34.29a7.42,7.42,0,0,0-.94.82A6.59,6.59,0,0,0,29.06,27a6.8,6.8,0,0,0,1.76,3.7l.5.52-.64.23a8.48,8.48,0,0,0-4.54,3.79c-.78,1.46-1,2.49-1,5.56Zm19.5,1.85A21.94,21.94,0,0,1,39,46.38a34.22,34.22,0,0,1-6.23-.05,42.29,42.29,0,0,1-6.47-1.41c-.17-.09-.18-.31-.15-3.64l0-3.55.28-.82A7.37,7.37,0,0,1,31,32.34c.47-.15,1-.29,1.12-.32s1.78,0,3.62,0l3.38,0,.91.32a7.32,7.32,0,0,1,4.48,4.48l.32.91,0,3.5,0,3.49Zm17-9.75,0,5.25-.92.29a48.26,48.26,0,0,1-13,2.25l-1.79,0-.06-2.65a23.63,23.63,0,0,0-.18-3.17,13,13,0,0,0-1.25-2.68,8.11,8.11,0,0,0-4.33-3.09c-.33,0-.25-.25.27-.81a6.7,6.7,0,0,0,1.47-2.82,7.31,7.31,0,0,0-.55-4.55,7.93,7.93,0,0,0-1.82-2.09c-.35-.26-.65-.44-.65-.56a7.44,7.44,0,0,1,2.15-.67c1-.17,10-.22,11.21,0A11.42,11.42,0,0,1,59,23.68a10.29,10.29,0,0,1,2.09,3.66C61.64,28.82,61.67,29.31,61.64,35.13Z" transform="translate(-0.51 -0.49)"/></svg>