<svg id="a1c02801-dfbb-43c6-921c-eb0b716dea50" data-name="Calque 1" xmlns="http://www.w3.org/2000/svg" viewBox="0 0 69.99 47.01"><defs><style>.f359e4e4-9355-435b-81cf-d50694bc014c{fill:#fcfcfc;}</style></defs><path id="f5175010-9ea9-4cd6-ab22-231db25b9392" data-name="puzzleandlogic" class="f359e4e4-9355-435b-81cf-d50694bc014c" d="M66,.78a6.38,6.38,0,0,0-2-.27H23.86v0l-17,0A6.35,6.35,0,0,0,.51,6.86V41.14a6.35,6.35,0,0,0,6.35,6.35h17v0h40.3a6.35,6.35,0,0,0,6.35-6.36V6.88A6.39,6.39,0,0,0,66,.78ZM35.5,15.31l.74.59a4.41,4.41,0,1,0,3.13-7.56A4.74,4.74,0,0,0,36,9.76a2.22,2.22,0,0,1-.46.35s0-1.94,0-4.3V1.5H46c6.31,0,10.63,0,10.76.08a2.36,2.36,0,0,1,1,1c.16.33.17.89.17,10.87V24H53.83c-2.3,0-4.18,0-4.18,0a5.54,5.54,0,0,0,.43.69c.23.35.53.84.66,1.09a4.49,4.49,0,0,1-5,6.4,4.6,4.6,0,0,1-3.35-3.39,5.83,5.83,0,0,1,.17-2.57,10.23,10.23,0,0,1,.78-1.36l.57-.86-4.19,0L35.5,24ZM34.09,46.5H24.26c-5.88,0-9.93,0-10.06-.08a2.36,2.36,0,0,1-1-1C13,45.07,13,46,13,35.27s0-10.11.51-10.69S14.09,24,17.9,24c1.89,0,3.45,0,3.45,0a5.54,5.54,0,0,0-.43-.69c-.84-1.25-1.15-1.11-1.15-3.14A4.48,4.48,0,0,1,27.46,17a4.47,4.47,0,0,1,1.27,3.12,4.89,4.89,0,0,1-1.1,3.08l-.5.75,3.48,0,3.48,0V27c0,2.78,0,3-.15,2.91a6.44,6.44,0,0,0-3.71-.29,6.05,6.05,0,0,0-4,3.48,4.86,4.86,0,0,0-.42,2.2,5.27,5.27,0,0,0,.63,2.64,6,6,0,0,0,3.9,3,6.35,6.35,0,0,0,3.1-.15l.63-.23Zm23.4-.58a2.08,2.08,0,0,1-.59.41c-.33.16-.82.17-10.87.17H35.5V42.33c0-2.3,0-4.18-.06-4.18a8.5,8.5,0,0,0-.85.52c-1.88,1.21-3.36,1.37-5.05.56a5.22,5.22,0,0,1-1.9-1.89,4.48,4.48,0,0,1,4-6.57,4.65,4.65,0,0,1,2.88,1c.49.33.91.6.94.6s0-1.58,0-3.52V25.32h5.91l0,.19c0,.12-.13.48-.23.82a6.52,6.52,0,0,0-.1,2.72,7.72,7.72,0,0,0,.51,1.36,4.32,4.32,0,0,0,1.07,1.49,5.78,5.78,0,0,0,2.31,1.49,4.19,4.19,0,0,0,1.79.23,4.39,4.39,0,0,0,1.84-.24,6,6,0,0,0,3.76-3.8,4.87,4.87,0,0,0,.19-1.8,4.56,4.56,0,0,0-.43-2.31c-.06-.14.11-.15,2.93-.15h3v9.84C58,46,58,45.34,57.49,45.92Z" transform="translate(-0.51 -0.49)"/></svg>