<svg id="ec057310-0156-43fc-b0e1-96bdd67cdad6" data-name="Calque 1" xmlns="http://www.w3.org/2000/svg" viewBox="0 0 69.99 47.01"><defs><style>.fdf288f7-12ff-444c-b6ad-d3a2c826814a{fill:#fcfcfc;}</style></defs><g id="a902bc0c-264d-4ff2-9ed9-52b6fe41540d" data-name="rpg"><path class="fdf288f7-12ff-444c-b6ad-d3a2c826814a" d="M24.77,22.75a4.84,4.84,0,0,0,1.54-2,4.47,4.47,0,0,0,.55-2.45,1.83,1.83,0,0,0-1.14-1.49,1.7,1.7,0,0,0-.76-.16h-.14a2,2,0,0,0-1,.3,2.27,2.27,0,0,0-.47.41A2,2,0,0,0,23,18a2,2,0,0,0-.16,1.68,1.8,1.8,0,0,0,.93,1,1.4,1.4,0,0,0,1,.12,2.32,2.32,0,0,0,.53-.25l-.16.32A2.63,2.63,0,0,1,24.2,22a1,1,0,0,1-.9,0,.75.75,0,0,1-.49-.59,1.09,1.09,0,0,1,.08-.61L22,20.37a1.93,1.93,0,0,0-.09,1.32,1.7,1.7,0,0,0,1,1.16A1.86,1.86,0,0,0,24.77,22.75Zm.42-2.82a.93.93,0,0,1-.83,0,1,1,0,0,1-.53-.62,1.26,1.26,0,0,1,.12-.94,1.21,1.21,0,0,1,.63-.63,1,1,0,0,1,.42-.11,1,1,0,0,1,.95.74,1.29,1.29,0,0,1-.1.88A1.45,1.45,0,0,1,25.19,19.93Z" transform="translate(-0.51 -0.49)"/><path class="fdf288f7-12ff-444c-b6ad-d3a2c826814a" d="M16.37,23c-.19,0-.19.7-.58.23s-.2,1.07.29,1.24c.29.67,0,1.52.1,2.26s-.29,1.9.39,2.58v-6C16.47,23.07,16.47,23,16.37,23Z" transform="translate(-0.51 -0.49)"/><path class="fdf288f7-12ff-444c-b6ad-d3a2c826814a" d="M32.08,37.06c-.19.33-.58.3-.87.31s-.88.29-.49.57,1.07-.1,1.56,0V40.9h1.27V36.67l-.4,0A1.49,1.49,0,0,0,32.08,37.06Z" transform="translate(-0.51 -0.49)"/><path class="fdf288f7-12ff-444c-b6ad-d3a2c826814a" d="M18.23,27.43c-.29-.15-.39-.08-.39.07,0-.42,0-1,.29-1.3a2.9,2.9,0,0,1,.35.82,1.24,1.24,0,0,0,.53.86c.12-.28,0-.4-.29-1.64-.2-.35-.49-1.1-.88-1a.58.58,0,0,0-.3.09,11,11,0,0,0-.19,3.58c.19,1,.29,2.36,1.37,2.93l.19-.11A5.44,5.44,0,0,0,18.23,27.43ZM17.94,30c-.1-.55-.3-1.34.09-1.79a1.37,1.37,0,0,1,.2.35,2.26,2.26,0,0,1,.29,1.6C18.62,31,18.13,30.55,17.94,30Z" transform="translate(-0.51 -0.49)"/><path class="fdf288f7-12ff-444c-b6ad-d3a2c826814a" d="M45.82,8.69a1.85,1.85,0,0,0-.39-.89,2.2,2.2,0,0,0-1-.69A1.88,1.88,0,0,0,43.35,7a2.35,2.35,0,0,0-.8.37,1.38,1.38,0,0,0-.26-.6,1.57,1.57,0,0,0-.36-.37,2,2,0,0,0-.55-.31,2.68,2.68,0,0,0-.89-.2,1.29,1.29,0,0,0-.28,0,1.81,1.81,0,0,0-.83.34l-.3.32a2.81,2.81,0,0,0-.2.38,1.94,1.94,0,0,0-.11.8,1.52,1.52,0,0,0,.34.81,1.61,1.61,0,0,0,.42.4,3.15,3.15,0,0,0,.61.33,1.93,1.93,0,0,0,1,.15,1.5,1.5,0,0,0,.67-.28,2.62,2.62,0,0,0,.33.82,1.87,1.87,0,0,0,.88.65,2.23,2.23,0,0,0,1.2.18,2,2,0,0,0,.89-.38,1.87,1.87,0,0,0,.34-.35,1.34,1.34,0,0,0,.23-.42,1.41,1.41,0,0,0,.11-.46A1.62,1.62,0,0,0,45.82,8.69Zm-4-.6a.66.66,0,0,1-.5.44,1.12,1.12,0,0,1-.78-.07A1.15,1.15,0,0,1,39.91,8a.69.69,0,0,1-.06-.68.72.72,0,0,1,.5-.46l.27,0v0a1,1,0,0,1,.47.08,1.36,1.36,0,0,1,.63.48A.69.69,0,0,1,41.78,8.09Zm3,1.18a.83.83,0,0,1-.57.54,1.32,1.32,0,0,1-.83-.06,1.23,1.23,0,0,1-.71-.59.91.91,0,0,1,0-.74,1,1,0,0,1,.53-.53.87.87,0,0,1,.31-.07h0a1.48,1.48,0,0,1,.62.12,1.25,1.25,0,0,1,.64.53A.82.82,0,0,1,44.75,9.27Z" transform="translate(-0.51 -0.49)"/><path class="fdf288f7-12ff-444c-b6ad-d3a2c826814a" d="M30.82,6.4h-.1c-.51,0-1.56,0-1.27.86.39-.11,1.27-.31,1.17.33a1.89,1.89,0,0,1-2.34.56,3.44,3.44,0,0,0-3-.12v2.38c1.17-.47,1-.25,1.08-1.74.19-.59,1.17.11,1.46.33a3.29,3.29,0,0,0,2.15-.18,3.22,3.22,0,0,0,1.75-1.45C31.88,6.75,31.28,6.4,30.82,6.4Z" transform="translate(-0.51 -0.49)"/><path class="fdf288f7-12ff-444c-b6ad-d3a2c826814a" d="M45.2,22.31,48.15,21l.61,1.37,1-.46-.62-1.36.69-.32-.4-.89-.7.32-1.87-4.15-.64.28-.3.15-.08,0-.17.08c-.44,2.72-.73,4.54-.87,5.43Zm1.24-5.08L47,18.35l.8,1.75L45.83,21C46.09,19.42,46.28,18.17,46.44,17.23Z" transform="translate(-0.51 -0.49)"/><path class="fdf288f7-12ff-444c-b6ad-d3a2c826814a" d="M33.18,24.74a12.14,12.14,0,0,0,1.89-1.09V30.5h1.52V22.28H35.07a14.48,14.48,0,0,1-1.89,1.1l-.62.27V25Z" transform="translate(-0.51 -0.49)"/><path class="fdf288f7-12ff-444c-b6ad-d3a2c826814a" d="M25,39.06c1,.29,1.46,1.2,2.05,1.91a3.25,3.25,0,0,0,1.76,1.34l-2.54-3c-.2-.23-.68-.68-1-.68-.09,0-.09.07-.09.25C24.47,38.43,24.08,38.57,25,39.06Z" transform="translate(-0.51 -0.49)"/><path class="fdf288f7-12ff-444c-b6ad-d3a2c826814a" d="M40.08,39a2.56,2.56,0,0,0-1.87-.9,1.93,1.93,0,0,0-1.05.09c-.49.23-.39-.43-.1-.6a3.64,3.64,0,0,1,1.43,0c.38-.05.76,0,1.14,0s.47-.47.32-.77h-2.5a4.76,4.76,0,0,1-1,0l-.1,0c-.29,0-.49.28-.49.71a5.16,5.16,0,0,1-.29,1.22c0,.48.58.53.88.43.58,0,1.17-.4,1.72-.18a.74.74,0,0,1,.68.76c0,.4-.39.61-.75.66s-1,.16-1.26-.2-.69-.35-1-.34c-.49,0-.49.41-.19.65a2.62,2.62,0,0,0,1.95.7,2.85,2.85,0,0,0,.71-.12,2.41,2.41,0,0,0,1.78-1A1,1,0,0,0,40.08,39Z" transform="translate(-0.51 -0.49)"/><path class="fdf288f7-12ff-444c-b6ad-d3a2c826814a" d="M54.62,26.56c.45-.74.22.68.09,1s-.54,1.26-.64.55c-.41.41-.68,1.11-.12,1.51a.79.79,0,0,0,.36-.24c1.06-1.57.94-3.58.95-5.4.1-.4-.11-1-.46-1.08h0a.62.62,0,0,0-.36.21,5.46,5.46,0,0,0-.68,4.25C54,27.83,54.68,27,54.62,26.56Zm-.37-2.19c.07-.26.17-.36.27-.36s.42.51.3.83c-.12.48-.15,1.22-.64,1.41A2.89,2.89,0,0,1,54.25,24.37Z" transform="translate(-0.51 -0.49)"/><path class="fdf288f7-12ff-444c-b6ad-d3a2c826814a" d="M52.44,27.55v4.13l.43-.65c0-1.94.36-5.34-.08-5.37-.17,0-.47.5-.95,1.8C51.55,28.44,52,28.28,52.44,27.55Z" transform="translate(-0.51 -0.49)"/><path class="fdf288f7-12ff-444c-b6ad-d3a2c826814a" d="M66,.78a6.38,6.38,0,0,0-2-.27H23.86v0l-17,0A6.35,6.35,0,0,0,.51,6.86V41.14a6.35,6.35,0,0,0,6.35,6.35h17v0h40.3a6.35,6.35,0,0,0,6.35-6.36V6.88A6.39,6.39,0,0,0,66,.78ZM36.28,1,53.43,12l-17.15-.37ZM55.07,13.56,48.13,32.38,36.87,13.16ZM46.93,33.43H24.08L35.5,13.89ZM34.72,1V11.59L17.54,12Zm-.59,12.16L22.91,32.38l-7-18.82Zm-18.54,4,6.05,16.34-6.05.56Zm9,23-2.44-3.09a1.91,1.91,0,0,0-1-.61c-.1,0-.1.08,0,.25-.69-.26-1.18-.38-.3.26a3.79,3.79,0,0,1,1.86,1.62c.19.3.48.59.68.86l-6.25-4L22.42,35l8.49,9.27ZM24.47,35h22l-11,12ZM48.53,38.9a2.92,2.92,0,0,0,.21-.28c.53-.16,1.42-1.28.44-.54l1.23-1.56c.29-.31.35-.42.27-.41a10.57,10.57,0,0,0-1.07.56,36.87,36.87,0,0,0-3.9,3.47l1.11-.59c.74-.45,1.08-.56.56.09l-7.27,4.65L44,40a7.45,7.45,0,0,0,.8-.4L43,42c1.23-.59,1.88-1.88,2.8-2.84.22-.31,1-1,.75-1a1.18,1.18,0,0,0-.42.18,14.17,14.17,0,0,1-1.66,1.22L48.6,35l5.25.48Zm-1.63.37L48.44,38c.28-.22,1-.81,1-.79s-.08.12-.34.37A5.94,5.94,0,0,1,46.9,39.27Zm8.51-5.2-6-.56,6-16.34Z" transform="translate(-0.51 -0.49)"/></g></svg>