<svg id="bf90dbce-6aec-410b-be98-c0f99cd7ae57" data-name="Calque 1" xmlns="http://www.w3.org/2000/svg" viewBox="0 0 69.99 47.01"><defs><style>.af314575-ba22-486d-ab3b-aa6ed4cea41a{fill:#fcfcfc;}</style></defs><g id="f186fca4-e3ae-4aa3-a62d-15af1be2c6ea" data-name="rpgaction"><path class="af314575-ba22-486d-ab3b-aa6ed4cea41a" d="M66,.78a6.38,6.38,0,0,0-2-.27H23.86v0l-17,0A6.35,6.35,0,0,0,.51,6.86V41.14a6.35,6.35,0,0,0,6.35,6.35h17v0h40.3a6.35,6.35,0,0,0,6.35-6.36V6.88A6.39,6.39,0,0,0,66,.78ZM44.54,15.64l2.58,4.76,1.74-6.79,2.41,7.74L54,9.35l.89,14.86,3.31-3.81.12,18L56.82,30l-12.34-8.8ZM29.88,46.83l6.46-4.21L24.11,40.15l9.7-1.79-11-2.64,10.15-.4-5.55-1.85,3.47-.39L28.17,30.9h0l3.34.17,10,14.47L49.91,47Zm12.54-3.12L22.18,15.14a31.27,31.27,0,0,0-3.83,6.13L15.8,18.72a28.81,28.81,0,0,1,4.1-6.8L15.82,6.17a4.64,4.64,0,0,1-1.36.7l-1.9-3A2.68,2.68,0,0,1,15.46,1h0l3,1.9a4.74,4.74,0,0,1-.71,1.37l5.75,4.06a28.9,28.9,0,0,1,7-4.26L33,6.62a33.71,33.71,0,0,0-6.31,4L55.25,30.88l3.19,16Z" transform="translate(-0.51 -0.49)"/><path class="af314575-ba22-486d-ab3b-aa6ed4cea41a" d="M25.05,12h0c-.5.47-1,1-1.46,1.47L42.43,34.85l6.42,2.46L46.39,30.9Z" transform="translate(-0.51 -0.49)"/></g></svg>