<svg id="e1c6635c-8937-4c7f-b7e9-f6af8bb51e1f" data-name="Calque 1" xmlns="http://www.w3.org/2000/svg" viewBox="0 0 69.99 47.01"><defs><style>.bc84479c-2a10-4bab-b0e8-2308516d2a23{fill:#fcfcfc;}</style></defs><path id="be30f44d-4970-488d-8151-01c16191fe2f" data-name="rpgdungeoncrawler" class="bc84479c-2a10-4bab-b0e8-2308516d2a23" d="M66,.78a6.38,6.38,0,0,0-2-.27H23.86v0l-17,0A6.35,6.35,0,0,0,.51,6.86V41.14a6.35,6.35,0,0,0,6.35,6.35h17v0h40.3a6.35,6.35,0,0,0,6.35-6.36V6.88A6.39,6.39,0,0,0,66,.78ZM38.63,30.61c0,4.42,0,4.47-.23,4.84A2.24,2.24,0,0,1,37,36.56c-.31.08-2.59.09-7.46.08-7,0-7,0-7.37-.23A2.25,2.25,0,0,1,21,34.48a2,2,0,0,1,.7-1.6c.65-.54.67-.54,6.91-.54h5.68V26.16l-7.78,0c-4.3,0-8.26,0-8.81,0l-1,0v16.6l9.73,0c9.06,0,9.73,0,10,.19a2.17,2.17,0,0,1-.12,3.9c-.44.17-22.17.17-22.6,0a2,2,0,0,1-1-1l-.19-.4V24c0-17.81,0-21.52.12-21.76a2.07,2.07,0,0,1,1-1C14,1,13.35,1,20.84,1s7.21,0,7.77.52a2.23,2.23,0,0,1-.08,3.22c-.63.48-.57.47-6.38.48H16.73V21.84H44.2l0-5.33c0-5,0-5.33.2-5.63a2.27,2.27,0,0,1,1.94-1.2,2,2,0,0,1,1.55.64c.64.61.6-.17.6,12.86s0,12.14-.64,12.84a2.15,2.15,0,0,1-3.45-.62c-.16-.3-.17-.63-.2-4.79l0-4.46H38.65ZM58.3,45.86a2.29,2.29,0,0,1-1.1,1c-.16.06-.33.09-7.08.09s-6.84,0-7.23-.19a2.14,2.14,0,0,1,.34-3.94c.18-.05,2.46-.09,5.67-.09h5.37V5.22H38.64V9.83c0,5,0,5.14-.48,5.75a2.07,2.07,0,0,1-.7.54l-.47.24H30.3c-4.45,0-6.82,0-7-.1A2.36,2.36,0,0,1,22,15.14c-.1-.21-.17,0-.17-.9a2,2,0,0,1,1.37-2c.17-.07,2.1-.1,5.68-.1h5.42l0-4.84c0-4.77,0-4.82.22-5.19a2.39,2.39,0,0,1,1.06-1C35.85,1,37.91,1,46.56,1H57.2l.37.26a2.29,2.29,0,0,1,.62.62l.26.37,0,21.58,0,21.59Z" transform="translate(-0.51 -0.49)"/></svg>