<svg id="b1730c5b-fa48-4a05-9f80-8f0b8cd79c1c" data-name="Calque 1" xmlns="http://www.w3.org/2000/svg" viewBox="0 0 69.99 47.01"><defs><style>.b0845baa-9d44-49bf-b03b-03530c794a5d{fill:#fcfcfc;}</style></defs><path class="b0845baa-9d44-49bf-b03b-03530c794a5d" d="M66,.78a6.38,6.38,0,0,0-2-.27H23.86v0l-17,0A6.35,6.35,0,0,0,.51,6.86V41.14a6.35,6.35,0,0,0,6.35,6.35h17v0h40.3a6.35,6.35,0,0,0,6.35-6.36V6.88A6.39,6.39,0,0,0,66,.78ZM49.41,1.5c1.93,0,3.66,2,3.66,4.6s-1.73,4.6-3.66,4.6-3.66-1.95-3.66-4.6S47.47,1.5,49.41,1.5Zm-13.9,0c1.92,0,3.66,2,3.66,4.6s-1.74,4.6-3.66,4.6-3.67-1.95-3.67-4.6S33.58,1.5,35.51,1.5ZM21.6,1.5c1.94,0,3.66,2,3.66,4.6s-1.72,4.6-3.66,4.6-3.67-1.95-3.67-4.6S19.67,1.5,21.6,1.5ZM57.41,29.91c-.8-4.48-1.81-10.45-3.5-11.78v9.16l.43,19.21H52L50.27,27.19H48.39L46.65,46.5H44.31l.44-19.21L43.92,18H40.85l-.75,9.22.44,19.21H38.21L36.45,27.16H34.57L32.81,46.47H30.49l.44-19.21L30.17,18H27.1l-.83,9.25.44,19.21H24.38L22.63,27.19H20.75L19,46.5H16.66l.44-19.21V18.13c-1.7,1.33-2.71,7.3-3.51,11.78l-1.84-1.85c-.1-3.32,1.41-12.85,4.63-14.71,6.79-.23,12.44-.23,19.13-.44,6.69.21,12.34.21,19.11.44,3.23,1.86,4.73,11.39,4.63,14.71Z" transform="translate(-0.51 -0.49)"/></svg>