<svg id="ad523775-b125-433c-a1cb-1a51b1089753" data-name="Calque 1" xmlns="http://www.w3.org/2000/svg" viewBox="0 0 69.99 47.01"><defs><style>.b3ca0f3e-dd1c-4ba9-beae-aef4657dba7b{fill:#fcfcfc;}</style></defs><g id="e2f84431-73bb-485b-ab0e-57f21a9c41d1" data-name="rpgjapanese"><path class="b3ca0f3e-dd1c-4ba9-beae-aef4657dba7b" d="M66,.78a6.38,6.38,0,0,0-2-.27H23.86v0l-17,0A6.35,6.35,0,0,0,.51,6.86V41.14a6.35,6.35,0,0,0,6.35,6.35h17v0h40.3a6.35,6.35,0,0,0,6.35-6.36V6.88A6.39,6.39,0,0,0,66,.78Zm-40.72.73h0a9.78,9.78,0,0,1,8.08,15.27l-4.79,0-.22.58c-.46,1.15-1,2.35-1.62,3.57a10.08,10.08,0,0,1-1.44.11,9.77,9.77,0,1,1,0-19.54Zm-14.54,45L12.19,45A100.06,100.06,0,0,0,29.52,19.14l.24-.53H42.81l.22.6c3,8.32,10,17.08,16.17,25.84l1,1.45Z" transform="translate(-0.51 -0.49)"/><path class="b3ca0f3e-dd1c-4ba9-beae-aef4657dba7b" d="M43.82,29.29l-4-4.89-2.48,6.52-.74-6.52-2.52,4.89-2.19-4.46-2,4.46L29,24.39h0A102.61,102.61,0,0,1,14.89,44.66h41.8C52,38.08,46.91,31.45,43.53,24.81Z" transform="translate(-0.51 -0.49)"/></g></svg>