<svg id="b92045d1-236d-4e08-96b8-838eca7697a7" data-name="Calque 1" xmlns="http://www.w3.org/2000/svg" viewBox="0 0 69.99 47.01"><defs><style>.aa105d7d-b954-4fca-acce-4e446d0e350a{fill:#fcfcfc;}</style></defs><g id="edd78c8d-08d5-4840-a4b4-2c2c33890014" data-name="rpgmmo"><path class="aa105d7d-b954-4fca-acce-4e446d0e350a" d="M25.45,24.86a1.75,1.75,0,0,0-1.74,1.75,1.72,1.72,0,0,0,.79,1.47v2.86h1.87V28.1a1.4,1.4,0,0,0,.83-1.49A1.75,1.75,0,0,0,25.45,24.86Z" transform="translate(-0.51 -0.49)"/><path class="aa105d7d-b954-4fca-acce-4e446d0e350a" d="M66,.78a6.38,6.38,0,0,0-2-.27H23.86v0l-17,0A6.35,6.35,0,0,0,.51,6.86V41.14a6.35,6.35,0,0,0,6.35,6.35h17v0h40.3a6.35,6.35,0,0,0,6.35-6.36V6.88A6.39,6.39,0,0,0,66,.78Zm-18,8.06h0a4.91,4.91,0,0,1,.68.06l2.64.89a11.2,11.2,0,0,0-1.35.58C44.56,13.11,40.29,19.8,39.9,26l-4.6-1.56c.14-5.49,4.28-12.16,9.13-14.6A8.21,8.21,0,0,1,48.05,8.84ZM16,38.54,11.86,37.1V18.43L16,19.84ZM11.87,16.46C12.07,11,16.2,4.38,21,2A8,8,0,0,1,24.71,1h0l.54,0,2.22.75a13.66,13.66,0,0,0-1.31.57C20.73,5.08,16.46,11.71,16,17.87ZM33.44,44.61,17.87,39.19V20.47h0l2.6.88V33.27l10.07,3.4V24.78l2.9,1ZM22.33,31.94V22h0l6.35,2.16v9.94ZM17.88,18.49C18.07,13,22.19,6.43,27,4a8.25,8.25,0,0,1,3.63-1h0a5.68,5.68,0,0,1,.84.09L44.86,7.58a13.88,13.88,0,0,0-1.27.57c-5.46,2.75-9.73,9.45-10.12,15.64ZM39.93,46.86l-4.64-1.61V26.39h0L39.93,28Zm19.2-7.18L41.81,47V28.15l17.32-7.32ZM41.76,26.15c.35-5.4,4.4-11.75,9.1-14.12a8,8,0,0,1,3.52-1h0a4.42,4.42,0,0,1,1.1.13l.47.16a3.23,3.23,0,0,1,.75.41c1.35,1,2.39,3.2,2.43,7.08Z" transform="translate(-0.51 -0.49)"/></g></svg>