<svg id="b5b9416f-f65b-4aca-87ae-264f3222a84a" data-name="Calque 1" xmlns="http://www.w3.org/2000/svg" viewBox="0 0 69.99 47.01"><defs><style>.acf7c60b-602b-4766-91fb-efea38feb30b{fill:#fcfcfc;}</style></defs><g id="f5ce0da1-72c6-4af6-aac1-527770786bde" data-name="rpgtactical"><polygon class="acf7c60b-602b-4766-91fb-efea38feb30b" points="26.77 26.02 32.63 26.02 35.7 20.75 32.82 15.73 32.82 15.74 26.79 15.74 23.78 20.9 26.77 26.02"/><polygon class="acf7c60b-602b-4766-91fb-efea38feb30b" points="22 9.87 15.97 9.87 12.97 15.02 15.96 20.17 21.99 20.17 24.98 15.03 22 9.87"/><polygon class="acf7c60b-602b-4766-91fb-efea38feb30b" points="54.26 13.21 57.25 8.07 54.27 2.91 48.24 2.91 45.23 8.06 48.23 13.21 54.26 13.21"/><polygon class="acf7c60b-602b-4766-91fb-efea38feb30b" points="32.57 27.95 26.53 27.95 23.53 33.08 26.53 38.23 32.55 38.23 35.54 33.09 32.56 27.93 32.57 27.95"/><path class="acf7c60b-602b-4766-91fb-efea38feb30b" d="M66,.78a6.38,6.38,0,0,0-2-.27H23.86v0l-17,0A6.35,6.35,0,0,0,.51,6.86V41.14a6.35,6.35,0,0,0,6.35,6.35h17v0h40.3a6.35,6.35,0,0,0,6.35-6.36V6.88A6.39,6.39,0,0,0,66,.78ZM59.73,33.55l-3.58,6.09-.27.48H48.7L45.23,46,45,46.5h-8.2L36.49,46l-3.16-5.4h-7.4l-.26-.49-3.14-5.37H15.1l-.26-.48-3.56-6.09L11,27.71l.27-.47,3.43-5.87L11.55,16l-.29-.47.28-.48,3.55-6.1.27-.47s.56,0,.56,0h6.65L26,2.54l.27-.46h8.23l.26.47,3.16,5.39h6l3.47-6,.27-.48s.56,0,.56,0h7.11l0,0h.56l.26.48,3.56,6.08.28.48-.27.48-3.57,6.09-.27.48H49.07l-3.33,5.7L48.49,26H55.9l.26.48,3.56,6.08.28.48Z" transform="translate(-0.51 -0.49)"/><polygon class="acf7c60b-602b-4766-91fb-efea38feb30b" points="48.28 27.41 45.27 32.56 48.27 37.71 54.3 37.71 57.29 32.58 54.3 27.41 48.28 27.41"/><polygon class="acf7c60b-602b-4766-91fb-efea38feb30b" points="43.48 21.54 37.64 21.54 34.54 26.83 37.45 31.82 43.47 31.82 46.46 26.69 43.48 21.54"/></g></svg>