<svg id="a6ec5aa6-9c1e-4100-9db9-d96acf19e70f" data-name="Calque 1" xmlns="http://www.w3.org/2000/svg" viewBox="0 0 69.99 47.01"><defs><style>.e4ea6286-bf01-41fd-afd0-584fb33ca2ba{fill:#fcfcfc;}</style></defs><path id="aef7fb5d-8c1c-44f8-8aec-9d3dcb56e78c" data-name="simulationvehicle" class="e4ea6286-bf01-41fd-afd0-584fb33ca2ba" d="M66,.78a6.38,6.38,0,0,0-2-.27H23.86v0l-17,0A6.35,6.35,0,0,0,.51,6.86V41.14a6.35,6.35,0,0,0,6.35,6.35h17v0h40.3a6.35,6.35,0,0,0,6.35-6.36V6.88A6.39,6.39,0,0,0,66,.78ZM57.32,6.72c-.9,1.75-1.22,2.13-4.65,5.57l-3.22,3.25V43.1l-.2.3A1.32,1.32,0,0,1,48,44c-.72-.06-.91-.32-1.63-2.17-.82-2.15-1.34-3.44-1.81-4.64-.27-.67-.86-2.21-1.33-3.42-1.84-4.75-3.33-8.52-3.36-8.55s-2.55,2.47-5.62,5.53l-5.58,5.58V41.5c0,4.68,0,5.19-.15,5.34a.45.45,0,0,1-.64,0c-.05-.07-.5-1.17-1-2.45s-1.12-2.89-1.39-3.56l-.78-2c-.26-.66-.35-.8-.6-.92s-.3-.14-.74.21a1.35,1.35,0,0,1-1.73.22A1.44,1.44,0,0,1,21,37.15a1.54,1.54,0,0,1,.52-1.1c.25-.27.26-.28.13-.59a.64.64,0,0,0-.41-.41c-.15-.06-.28-.08-.28,0s0,0-.07,0a16.1,16.1,0,0,0-2.13-.89l-.55-.22c-.24-.12-.48-.22-.54-.24a4,4,0,0,1-.56-.2,1,1,0,0,1-.2-.07l-.32-.12c-.14-.07-.57-.24-.94-.37l-1.85-.74c-1-.41-1.18-.51-1.25-.72a.35.35,0,0,1,.08-.43c.16-.18.25-.18,5.47-.18h5.31l5.47-5.52c3-3,5.47-5.52,5.45-5.54a.42.42,0,0,0-.2-.06.58.58,0,0,1-.18-.05.19.19,0,0,0-.09,0l-.3-.11c-.12-.06-.45-.19-.72-.29l-.67-.28c-.34-.16-9.32-3.71-9.44-3.73L22.12,15c-.24-.12-.48-.22-.54-.24s-.2-.07-.36-.12a2.74,2.74,0,0,0-.36-.14l-.34-.12a5.75,5.75,0,0,0-1.44-.54,1.13,1.13,0,0,1-.24-.11l-.27-.15a.77.77,0,0,1-.23-.08l-.85-.33a4.74,4.74,0,0,1-1.6-.8,1.44,1.44,0,0,1-.38-.95,1.56,1.56,0,0,1,.66-1.1l.31-.19H44.09l3.29-3.27c3.34-3.32,3.5-3.48,4.46-4a17.54,17.54,0,0,1,3.73-1.67.78.78,0,0,0,.25-.06L56.58,1c1,0,1.44.2,1.77.81C58.82,2.7,58.43,4.56,57.32,6.72Z" transform="translate(-0.51 -0.49)"/></svg>