<svg id="fe0dbf6f-b057-491b-883d-212d5d546773" data-name="Calque 1" xmlns="http://www.w3.org/2000/svg" viewBox="0 0 69.99 47.01"><defs><style>.edb10b24-ec4e-44e8-a199-57e8f7750246{fill:#fcfcfc;}</style></defs><path id="f6bd4339-3cad-4381-b2f5-ca2b1c5fa01b" data-name="simulationbuildandmanagement" class="edb10b24-ec4e-44e8-a199-57e8f7750246" d="M66,.78a6.38,6.38,0,0,0-2-.27H23.86v0l-17,0A6.35,6.35,0,0,0,.51,6.86V41.14a6.35,6.35,0,0,0,6.35,6.35h17v0h40.3a6.35,6.35,0,0,0,6.35-6.36V6.88A6.39,6.39,0,0,0,66,.78ZM33.28,33.94a8.24,8.24,0,0,1-3.65-2.28C27.89,29.8,27,27.33,27,24s.9-5.9,2.67-7.74A8.54,8.54,0,0,1,33.28,14l.62-.2V8h3.25v5.38l.85.05a15.87,15.87,0,0,1,2.63.37,14.33,14.33,0,0,1,2.7.92V18a13.12,13.12,0,0,0-2.11-.88,7.83,7.83,0,0,0-3.53-.56,6.85,6.85,0,0,0-5.36,2.21A7.16,7.16,0,0,0,30.48,24a7.21,7.21,0,0,0,1.79,5.16,6.49,6.49,0,0,0,5.18,2.22,10.14,10.14,0,0,0,1.6-.11,6.42,6.42,0,0,0,1.43-.42l.54-.24v-5h-3.1v-2H44v9.11a15.91,15.91,0,0,1-3.26,1.23,15.39,15.39,0,0,1-2.81.45l-.84.06v6h-3.2v-6.3Zm5.62,5.3H57v3H38.9Zm17.4-24H53.8v20.6h2.5v1.8H46.7v-1.8h2.5V15.24H46.7v-1.8h9.6ZM35.5,1,55.9,11.84H39.65l-.75-.09V6.24H32.1v5.6h-17ZM14.7,35.84h2.5V15.24H14.7v-1.8h9.6v1.8H21.8v20.6h2.5v1.8H14.7Zm-.7,3.4H32.1v3H14ZM58.6,47H12.4V44H58.6Z" transform="translate(-0.51 -0.49)"/></svg>