<svg id="b6e45a79-e765-4fa6-8626-789a0e165ca3" data-name="Calque 1" xmlns="http://www.w3.org/2000/svg" viewBox="0 0 69.99 47.01"><defs><style>.e6ab6a6f-dfaf-466b-897d-4bc27f725b56{fill:#fcfcfc;}</style></defs><g id="f854dfb2-646a-4ac3-b7d7-638ea0736850" data-name="simulationlife"><path class="e6ab6a6f-dfaf-466b-897d-4bc27f725b56" d="M17,28.1h9.8V18.3H17Zm1.8-8H25v3H18.8Zm0,4.8H25v1.4H18.8Z" transform="translate(-0.51 -0.49)"/><path class="e6ab6a6f-dfaf-466b-897d-4bc27f725b56" d="M17,44.1h9.8V34.3H17Zm1.8-8H25v6.2H18.8Z" transform="translate(-0.51 -0.49)"/><path class="e6ab6a6f-dfaf-466b-897d-4bc27f725b56" d="M29.8,18.83V28.1H41.2V18.83l-5.7-5.7Zm9.6,7.47H31.6V19.57l3.9-3.9,3.9,3.9Z" transform="translate(-0.51 -0.49)"/><path class="e6ab6a6f-dfaf-466b-897d-4bc27f725b56" d="M54,18.3H44.2v9.8H54Zm-1.8,8H46V24.9h6.2Zm0-3.2H46v-3h6.2Z" transform="translate(-0.51 -0.49)"/><path class="e6ab6a6f-dfaf-466b-897d-4bc27f725b56" d="M66,.78a6.38,6.38,0,0,0-2-.27H23.86v0l-17,0A6.35,6.35,0,0,0,.51,6.86V41.14a6.35,6.35,0,0,0,6.35,6.35h17v0h40.3a6.35,6.35,0,0,0,6.35-6.36V6.88A6.39,6.39,0,0,0,66,.78ZM39.4,47.1H31.6V38.4a3.71,3.71,0,0,1,1.2-2.93,4.1,4.1,0,0,1,2.7-1,4,4,0,0,1,2.7,1,3.68,3.68,0,0,1,1.2,2.93Zm17.6,0H41.2V38.4a5.58,5.58,0,0,0-1.8-4.27,6,6,0,0,0-7.8,0,5.62,5.62,0,0,0-1.8,4.27v8.7H14V16.9H27.87L35.5,9.27l7.63,7.63H57Zm-13.13-32L35.5,6.73,27.13,15.1H12.6L15.44.9H55.56L58.4,15.1Z" transform="translate(-0.51 -0.49)"/><path class="e6ab6a6f-dfaf-466b-897d-4bc27f725b56" d="M54,34.3H44.2v9.8H54Zm-1.8,8H46V36.1h6.2Z" transform="translate(-0.51 -0.49)"/></g></svg>