<svg id="ed7413e7-dd4d-4527-88a9-077ab4b6c68c" data-name="Calque 1" xmlns="http://www.w3.org/2000/svg" viewBox="0 0 69.99 47.01"><defs><style>.fc8984fc-33c5-4f6e-b3e2-deed4956e893{fill:#fcfcfc;}</style></defs><path id="a7fb71af-aa14-4f8a-9837-32e73c4b371d" data-name="simulationscifi" class="fc8984fc-33c5-4f6e-b3e2-deed4956e893" d="M66,.78a6.38,6.38,0,0,0-2-.27H23.86v0l-17,0A6.35,6.35,0,0,0,.51,6.86V41.14a6.35,6.35,0,0,0,6.35,6.35h17v0h40.3a6.35,6.35,0,0,0,6.35-6.36V6.88A6.39,6.39,0,0,0,66,.78ZM53.57,2A1.76,1.76,0,0,0,55.2,3.63a1.75,1.75,0,0,0-1.63,1.63,1.74,1.74,0,0,0-1.63-1.63A1.75,1.75,0,0,0,53.57,2ZM46.24,6.07a2.63,2.63,0,0,0,2.44,2.45A2.62,2.62,0,0,0,46.24,11,2.62,2.62,0,0,0,43.8,8.52,2.63,2.63,0,0,0,46.24,6.07ZM32.73,2a2.62,2.62,0,0,0,2.44,2.44,2.63,2.63,0,0,0-2.44,2.45,2.63,2.63,0,0,0-2.45-2.45A2.63,2.63,0,0,0,32.73,2ZM26.64,17.21h0A112.72,112.72,0,0,1,43.83,20c1.77.45,3.39.93,4.84,1.44A5.09,5.09,0,0,0,48,23.15c-1.39-.48-2.94-.95-4.65-1.39a108.34,108.34,0,0,0-15.93-2.63,16,16,0,0,0-.8-1.91h0Zm8,16.08,1-.21A31.42,31.42,0,0,0,43,30.71a6.48,6.48,0,0,0,1.79-1.25,1.33,1.33,0,0,0,.47-.93,1.36,1.36,0,0,0-.47-.92A6.47,6.47,0,0,0,43,26.35,31.15,31.15,0,0,0,35.68,24c-2.18-.48-4.67-.9-7.39-1.23-.08-.64-.19-1.28-.33-1.9,3,.36,5.71.81,8.12,1.34a33,33,0,0,1,7.73,2.52,8.46,8.46,0,0,1,2.29,1.63,3.27,3.27,0,0,1,1,2.18,3.23,3.23,0,0,1-1,2.18,8.46,8.46,0,0,1-2.29,1.63,32.49,32.49,0,0,1-7.73,2.53l-1.19.24A3.52,3.52,0,0,0,34.67,33.29Zm-1.57,1.3a1.53,1.53,0,1,1-1.53-1.53A1.51,1.51,0,0,1,33.1,34.59ZM37.28,46a1.76,1.76,0,0,0-1.63-1.63,1.75,1.75,0,0,0,1.63-1.63,1.74,1.74,0,0,0,1.63,1.63A1.75,1.75,0,0,0,37.28,46ZM54.05,34.41a37.46,37.46,0,0,1-10.21,3.9c-10.41,2.86-21.23,3-30.8,3.44V9.55h0a15.38,15.38,0,0,1,9.79,25.31c1.6-.14,3.52-.33,5.37-.54a3.59,3.59,0,0,0,.36,1.8c-2.6.33-5,.54-7.78.72a15.37,15.37,0,0,1-6.6,3.07c8.42-.18,19.82-1,29.19-3.37a36.43,36.43,0,0,0,9.71-3.69c2.16-1.32,3.07-2.62,3.07-3.7a3.85,3.85,0,0,0-1.45-2.51c-.51.33,0,.53-1.76.53a3.14,3.14,0,1,1,2.93-2,7.89,7.89,0,0,1,1.3,1.45A4.82,4.82,0,0,1,58,29.15C58,31.18,56.47,32.92,54.05,34.41Z" transform="translate(-0.51 -0.49)"/></svg>