<svg id="b0d05980-7aad-4474-b8a7-650431d1930c" data-name="Calque 1" xmlns="http://www.w3.org/2000/svg" viewBox="0 0 69.99 47.01"><defs><style>.e1ca4c1e-bfe7-4eed-8513-398c4df93252{fill:#fcfcfc;}</style></defs><g id="a6ecefc0-3152-41da-a036-0f8bfbd14317" data-name="simulationfishandhunt"><path class="e1ca4c1e-bfe7-4eed-8513-398c4df93252" d="M47.7,33.74c-.14-.09-.16-.06-.17.26a.88.88,0,0,1-1.4.69.85.85,0,0,1-.36-.94c.14-.31.08-.29-.38.15a2,2,0,0,0-.59,1.29,2.11,2.11,0,0,0,.77,1.31,1.62,1.62,0,0,0,1.08.21c.66,0,.75,0,1.06-.26a1.64,1.64,0,0,0,.65-1.52A1.89,1.89,0,0,0,47.7,33.74Z" transform="translate(-0.51 -0.49)"/><path class="e1ca4c1e-bfe7-4eed-8513-398c4df93252" d="M27.82,28.31a6.53,6.53,0,0,0,1.93,0,3.66,3.66,0,0,0,.76-1.5.69.69,0,0,0-.2-.41c-.2-.18-.38-.19-1.66-.19s-1.45,0-1.58.16-.15.08-.15.29A5.3,5.3,0,0,0,27.82,28.31Z" transform="translate(-0.51 -0.49)"/><path class="e1ca4c1e-bfe7-4eed-8513-398c4df93252" d="M33.09,19.63c.7-.45,1-1.39.55-1.86s-1-.35-1.59.19-.66,1.27-.17,1.68A.92.92,0,0,0,33.09,19.63Z" transform="translate(-0.51 -0.49)"/><path class="e1ca4c1e-bfe7-4eed-8513-398c4df93252" d="M25.69,19.52A1.39,1.39,0,0,0,25,17.67a1,1,0,0,0-1.52.83C23.51,19.72,25.12,20.47,25.69,19.52Z" transform="translate(-0.51 -0.49)"/><path class="e1ca4c1e-bfe7-4eed-8513-398c4df93252" d="M66,.78a6.38,6.38,0,0,0-2-.27H23.86v0l-17,0A6.35,6.35,0,0,0,.51,6.86V41.14a6.35,6.35,0,0,0,6.35,6.35h17v0h40.3a6.35,6.35,0,0,0,6.35-6.36V6.88A6.39,6.39,0,0,0,66,.78ZM21.62,16.86a4.59,4.59,0,0,1-1.95.14c-1.14-.3-3.58-2.75-3.65-3.65,0-.23.05-.29.6-.57a2.62,2.62,0,0,1,1.52-.35,9.49,9.49,0,0,1,4.53,1.06c.7.32.79.35.86.22a4.24,4.24,0,0,1,.4-.5c.21-.24.28-.36.2-.39a19.48,19.48,0,0,1-5.22-2.3A12.67,12.67,0,0,1,15,6.05,11.37,11.37,0,0,1,13.8,2.12a1,1,0,0,1,.54-1,1.34,1.34,0,0,1,1.3,0c.31.25.45.53.63,1.32a9.73,9.73,0,0,0,3.6,5.76c.45.34.51.34.39,0A15.84,15.84,0,0,1,19.5,4.1c-.05-1,0-1.1.13-1.37a1.36,1.36,0,0,1,1-.65,1.37,1.37,0,0,1,1,.54c.17.23.22.46.28,1.33a12.65,12.65,0,0,0,1.44,5.43,3.11,3.11,0,0,0,.56.83,19.35,19.35,0,0,0,4.1.93,14.26,14.26,0,0,0,4.65-.63c.84-.21,1-.31,1.45-1.31a13.25,13.25,0,0,0,1.36-5.46c0-1,.38-1.53,1.13-1.62a1.18,1.18,0,0,1,1.12.61c.17.27.18.38.13,1.37a15.14,15.14,0,0,1-.77,4.22A.85.85,0,0,0,37,8.6a4.8,4.8,0,0,0,.67-.46A9.45,9.45,0,0,0,41,2.74c.28-1.14.35-1.29.68-1.55A1.39,1.39,0,0,1,43,1.13c.34.18.56.2.56,1a11.31,11.31,0,0,1-1.19,3.9,10.25,10.25,0,0,1-2.18,3,13.35,13.35,0,0,1-5.81,3.43l-1.23.42.29.32a3.2,3.2,0,0,1,.39.49c.07.13.15.11.79-.18a8.59,8.59,0,0,1,5.31-1c.58.15,1.29.37,1.43.75s-1,2-2.09,2.86a4.23,4.23,0,0,1-2.13,1,6.66,6.66,0,0,1-1.68-.31c-.16-.06-.16-.05,0,.28s.14.11.14,1.16-.17,1.55-1.37,4.08a35.16,35.16,0,0,0-2.61,6.74,1.88,1.88,0,0,1-1,1.35c-.47.27-.48.27-1.91.27s-1.44,0-1.9-.27a2,2,0,0,1-1.06-1.53,34.89,34.89,0,0,0-2.52-6.51c-1.31-2.72-1.49-3.37-1.32-4.69.06-.39.13-.77.15-.85S22,16.75,21.62,16.86ZM51.27,37.24a4.75,4.75,0,0,0-.63.5A26.06,26.06,0,0,0,53,39.33c.34.12.07.45-1.06,1.26a20.33,20.33,0,0,1-6.51,3.13c-.66.15-.69.17-1,.66a7.53,7.53,0,0,1-2,1.7,8.81,8.81,0,0,1-2.21.92C40,47,40,47,40,46.76c.09-.44.59-2.13.68-2.3s0-.16-.26-.16a18.22,18.22,0,0,1-4.47-1,24.86,24.86,0,0,1-6.16-3.91l-.51-.48-.31.48a10.8,10.8,0,0,1-3.62,3.12c-.92.39-2.47.7-2.47.48,0,0,.25-.56.56-1.18a12.6,12.6,0,0,0,1.24-3.19c.44-1.78.08-3.6-1.23-6.18-.31-.62-.57-1.16-.57-1.19a1,1,0,0,1,.47,0c2.15.21,4,1.42,5.77,3.84l.18.24.94-.76a30,30,0,0,1,4.63-3c.55-.27,1-.5,1.11-.52s0-.19-.18-.59a4.49,4.49,0,0,0-1.88-1.72,1.26,1.26,0,0,1-.52-.34c0-.1.17-.17,1.56-.58A19.09,19.09,0,0,1,38,27.24a14.77,14.77,0,0,1,3.89.16,8.58,8.58,0,0,1,4,2.42,3.85,3.85,0,0,0,1.39,1.07,12.76,12.76,0,0,1,5.61,4.28,2.61,2.61,0,0,1,.37.6A16.83,16.83,0,0,1,51.27,37.24ZM57,25a4.32,4.32,0,0,1-1.31,2.19,4.77,4.77,0,0,1-2.39,1.31,7.28,7.28,0,0,1-3.13-.13,5.48,5.48,0,0,1-2.84-2.46,7.84,7.84,0,0,1-.71-3.66A1.38,1.38,0,0,1,49.21,22c.09.21.17-.14.17.72a4.41,4.41,0,0,0,1,2.59,2.81,2.81,0,0,0,3.33-.05,3.17,3.17,0,0,0,.69-2.44c0-1.53-.16-1.86-1.75-3.51-1.84-1.92-2.07-2.37-2.13-4.16,0-1.36.06-1.82.53-2.21.23-.19.35-.23.89-.23s.65,0,.9.24c.43.37.53.6.53,1.78s.07,1.32,1.18,2.52c2.42,2.58,2.69,3.14,2.69,5.56A6.09,6.09,0,0,1,57,25Z" transform="translate(-0.51 -0.49)"/></g></svg>