<svg id="a5c1f16c-d065-4af8-835a-6c709e4ab41a" data-name="Calque 1" xmlns="http://www.w3.org/2000/svg" viewBox="0 0 69.99 47.01"><defs><style>.e2ff1cee-5bb2-44b5-aa9b-ca8497f06cc4{fill:#fcfcfc;}</style></defs><g id="e17170bc-a2c9-4d5d-8ff3-cf5707c3d26e" data-name="simulation"><rect class="e2ff1cee-5bb2-44b5-aa9b-ca8497f06cc4" x="22.25" y="33.06" width="3.19" height="1.59"/><rect class="e2ff1cee-5bb2-44b5-aa9b-ca8497f06cc4" x="14.29" y="36.25" width="3.19" height="1.59"/><rect class="e2ff1cee-5bb2-44b5-aa9b-ca8497f06cc4" x="14.29" y="33.06" width="3.19" height="1.59"/><rect class="e2ff1cee-5bb2-44b5-aa9b-ca8497f06cc4" x="22.25" y="36.25" width="3.19" height="1.59"/><rect class="e2ff1cee-5bb2-44b5-aa9b-ca8497f06cc4" x="22.25" y="39.44" width="3.19" height="1.59"/><path class="e2ff1cee-5bb2-44b5-aa9b-ca8497f06cc4" d="M66,.78a6.38,6.38,0,0,0-2-.27H23.86v0l-17,0A6.35,6.35,0,0,0,.51,6.86V41.14a6.35,6.35,0,0,0,6.35,6.35h17v0h40.3a6.35,6.35,0,0,0,6.35-6.36V6.88A6.39,6.39,0,0,0,66,.78ZM13.89,24h1.8v2.29h-1.8Zm-.14,4.08H27l.69,1.4H13.06ZM28.23,47H25.94V44.71H22.76V47H18V44.71H14.79V47H12.5V31.27H28.23Zm6.37,0h-3V44h3Zm0-4.78h-3V37.64h3Zm0-6.37h-3V31.27h3Zm0-6.37h-3V24.9h3Zm0-6.38h-3V18.52h3Zm0-6.37h-3V12.15h3Zm0-6.37h-3V5.78h3ZM34.6,4h-3V1h3Zm4.78,43h-3V44h3Zm0-4.78h-3V37.64h3Zm0-6.37h-3V31.27h3Zm0-6.37h-3V24.9h3Zm0-6.38h-3V18.52h3Zm0-6.37h-3V12.15h3Zm0-6.37h-3V5.78h3Zm0-6.37h-3V1h3Zm4.78,43h-3V44h3Zm0-4.78h-3V37.64h3Zm0-6.37h-3V31.27h3Zm0-6.37h-3V24.9h3Zm0-6.38h-3V18.52h3Zm0-6.37h-3V12.15h3Zm0-6.37h-3V5.78h3Zm0-6.37h-3V1h3ZM58.5,47H55.41V44.71H52.23V47H49.14V34.45H58.5Zm0-14.34H49.14V21.71H58.5Zm0-12.74H49.14V18.15L58.5,12.8Z" transform="translate(-0.51 -0.49)"/><rect class="e2ff1cee-5bb2-44b5-aa9b-ca8497f06cc4" x="14.29" y="39.44" width="3.19" height="1.59"/></g></svg>