<?xml version="1.0" encoding="UTF-8"?>
<svg id="Calque_2" data-name="Calque 2" xmlns="http://www.w3.org/2000/svg" viewBox="0 0 69.99 47.01">
      <path fill="#fff" d="M20.19,31.26v-6.27h-.63v6.26c0,6.06,0,6.27-.18,6.61-.1.2-.31.46-.47.59l-.3.23h2.52l-.32-.27c-.65-.53-.62-.17-.62-7.15Z"/>
      <path fill="#fff" d="M35.58,33.94c-.17-.35-.18-.52-.18-6.59v-6.23h-.63v6.26c0,6.09,0,6.27-.18,6.62-.1.2-.33.46-.51.59l-.34.23h2.68l-.32-.25c-.18-.14-.41-.41-.51-.61Z"/>
      <path fill="#fff" d="M50.62,41.79c-.19-.37-.19-.5-.19-6.61v-6.23h-.63v12.54l-.23.39c-.13.22-.34.45-.48.52-.23.13-.14.14,1.02.14h1.26l-.29-.19c-.15-.1-.37-.35-.47-.57Z"/>
      <path fill="#fff" d="M65.53.29c-.64-.21-1.31-.28-1.99-.28H23.36S6.36.01,6.36.01C2.85.01,0,2.86,0,6.37v34.27c0,3.51,2.85,6.36,6.36,6.36h16.98s23.34.01,23.34.01h16.95c3.51,0,6.36-2.85,6.36-6.36V6.38c0-2.68-1.68-5.18-4.46-6.09ZM47.57,10.9c.42-.82,1.2-1.4,2.09-1.58.74-.14,1.58.07,2.22.58,1.68,1.32,1.4,3.83-.55,4.84-.58.3-1.85.3-2.41,0s-1.03-.76-1.32-1.3c-.24-.42-.27-.59-.27-1.29s.03-.87.24-1.26ZM52.23,15.85s-.37.84-1.52,3.21c-.25.52-.46.73-.46,1.06s-.31-.19-1.22-2.12c-.57-1.18-1.03-2.16-1.03-2.18s.95-.03,2.12-.03,2.12,0,2.12.04ZM33.25,2.19c.23-.21.59-.45.81-.53.3-.12.59-.15,1.16-.14.89.04,1.33.22,1.93.81.71.72.98,1.67.74,2.64-.55,2.26-3.38,2.97-4.91,1.23-1.06-1.2-.95-2.93.27-4.01ZM37.02,8.02s-.38.84-.85,1.8-.9,1.9-.96,2.07c-.06.17-.14.32-.17.32s-.5-.92-1.04-2.05c-.53-1.13-.99-2.07-1.01-2.12-.02-.04.87-.06,1.99-.06s2.03.02,2.03.05ZM17.51,6.66c.37-.55.84-.92,1.43-1.13,1.28-.45,2.74.12,3.47,1.37.22.37.24.54.24,1.31s-.03.95-.21,1.29c-1.38,2.57-5.19,1.84-5.4-1.05-.04-.73.07-1.21.46-1.77ZM21.97,11.95c-.22.5-2.12,4.4-2.15,4.4s-.17-.27-.33-.61c-.15-.33-.62-1.32-1.04-2.2-.43-.87-.77-1.6-.77-1.62s.97-.03,2.16-.03,2.15.03,2.14.05ZM57.72,44.51c0,1.5,0,1.59-.2,1.79l-.19.21H12.63l-.18-.23c-.18-.23-.19-.33-.19-3.7v-3.46l.23-.22.22-.23h4.46l-.32-.27c-.67-.55-.62.39-.62-12.08,0-6.32-.04-11.24-.08-11.32s-.14-.1-.23-.07c-.13.05-.14-.6-.14,5.19s.02,5.65-.66,6.14c-.65.47-1.47.31-1.99-.4-.19-.25-.19-.3-.16-5.79.02-5.36.03-5.55.21-6.03.29-.77.83-1.38,1.6-1.77.58-.3.73-.33,1.31-.33h.65l1.14,2.35,1.14,2.35-.26.26c-.95.95-.27,2.59,1.08,2.6.18,0,.5-.09.71-.21.91-.48,1.07-1.74.32-2.44l-.23-.21,1.12-2.33,1.12-2.33h.8c.69,0,.71-.04,1.32.27s1.16.88,1.49,1.58c.23.49.23.52.3,3.47.05,1.63.06,4.18.05,5.64-.03,2.55-.04,2.68-.22,2.93-.5.68-1.31.86-1.95.43-.68-.46-.64-.19-.69-6.08-.04-5.19-.04-5.27-.23-5.27s-.18.07-.23,11.34c-.05,12.61,0,11.63-.65,12.14l-.3.23h4.82v-1.7c0-1.58,0-1.71.19-1.94l.18-.23h4.72l-.33-.23c-.19-.14-.42-.41-.52-.62-.18-.37-.18-.52-.18-11.63v-11.26l-.41-.06c-1.29-.19-2.41-1.22-2.7-2.45-.09-.39-.13-.1-.13-3.76s0-3.67.68-4.08c.63-.37,1.4-.18,1.87.47.18.23.19.4.23,3.5.03,1.79.06,3.27.07,3.28,0,.02.23.03.5.03h.48l1.05,2.21c.58,1.21,1.04,2.23,1.04,2.28s-.08.15-.19.25c-.67.6-.56,1.89.22,2.37,1.53.95,3.15-1,1.94-2.33l-.28-.3,1.07-2.24,1.06-2.24.56.03c.5.03.57,0,.6-.15.03-.1.05.16.05-3.18s0-3.41.59-3.86c.65-.5,1.59-.31,2.03.4.26.41.28,1.02.18,4.89-.05,2.43-.06,2.48-.3,2.99-.46.99-1.49,1.76-2.53,1.92l-.42.06v11.3c0,11.12,0,11.29-.18,11.64-.1.2-.33.46-.51.59l-.34.23h2.25c2.18,0,2.24,0,2.45.2l.21.19v7.35h2.41c2.23,0,2.39-.02,2.17-.14-.13-.08-.32-.29-.45-.47l-.22-.32-.05-11.34c-.04-11.28-.04-11.35-.23-11.35s-.18.07-.23,5.27c-.04,3.89-.07,5.32-.15,5.46-.19.33-.73.75-1.05.8-.59.12-1.22-.23-1.49-.81l-.2-.41.06-5.33c.07-6.17.05-6.03.86-6.95.66-.73,1.34-1.06,2.3-1.12l.72-.04.24.52c.13.3.62,1.33,1.09,2.31.48.97.86,1.82.86,1.85s-.08.14-.19.24c-.34.31-.46.66-.42,1.22.05.65-.59.72.92,1.3,1.51.58,2.74-1.21,1.67-2.42-.15-.16-.27-.32-.27-.35s.49-1.05,1.08-2.27c.59-1.22,1.08-2.25,1.08-2.31s.28-.08.75-.05c.57.03.86.1,1.24.29.68.33,1.26.92,1.58,1.56.24.49.26.62.32,1.96.03.79.06,3.29.06,5.56,0,3.98,0,4.13-.17,4.48-.32.6-1.04.92-1.66.71-.4-.13-.83-.6-.95-1.05-.06-.23-.1-1.18-.1-5.39s-.02-5.07-.13-5.1c-.06-.03-.15-.02-.23.05s-.1,3.16-.1,11.36v11.27l-.26.39c-.14.22-.35.44-.47.5-.18.1.13.12,2,.13,2.11,0,2.23,0,2.46.19l.23.18v1.59Z"/>
</svg>

