<svg id="ff2eeb3a-6b49-4860-b087-e2d67872719d" data-name="Calque 1" xmlns="http://www.w3.org/2000/svg" viewBox="0 0 69.99 47.01"><defs><style>.e670eba2-a1f8-40a8-a5e5-e1e7184f6e6e{fill:#fcfcfc;}</style></defs><g id="b9cbb1b4-a232-4d79-aa1e-375b88de5e95" data-name="sportracing"><path class="e670eba2-a1f8-40a8-a5e5-e1e7184f6e6e" d="M31.41,14.21a15.6,15.6,0,0,1-4.22.88c-.3,0-.42,0-.39.11s.34,1.23.7,2.59.67,2.49.68,2.5A15.72,15.72,0,0,0,30.65,20a16.09,16.09,0,0,0,2.69-.87c0-.07-1.13-4.33-1.31-4.95C32,14,32,14,31.41,14.21Z" transform="translate(-0.51 -0.49)"/><path class="e670eba2-a1f8-40a8-a5e5-e1e7184f6e6e" d="M38.42,17.17c-.08-.25-.17-.46-.21-.45s-.66.35-1.41.77-1.78,1-2.31,1.22-1,.49-1,.58,1.17,4.45,1.21,4.49,2.67-1.33,3.7-1.91l1.1-.62L39,19.45C38.77,18.46,38.49,17.44,38.42,17.17Z" transform="translate(-0.51 -0.49)"/><path class="e670eba2-a1f8-40a8-a5e5-e1e7184f6e6e" d="M32,13.9l1.09-.54c1.26-.63,3.62-1.94,3.68-2A21.89,21.89,0,0,0,36.26,9c-.34-1.21-.63-2.21-.66-2.2s-.5.27-1,.58S33,8.3,32.22,8.67a7.83,7.83,0,0,0-1.35.79c0,.06.26,1.08.59,2.28Z" transform="translate(-0.51 -0.49)"/><path class="e670eba2-a1f8-40a8-a5e5-e1e7184f6e6e" d="M41.72,8.89c-.14,0-3.3,1.61-4.16,2.12l-.59.35.67,2.47c.36,1.36.69,2.51.74,2.54a3.8,3.8,0,0,0,1.13-.53c.59-.33,1.66-.89,2.38-1.25L43.2,14l-.68-2.54C42.06,9.73,41.86,8.89,41.72,8.89Z" transform="translate(-0.51 -0.49)"/><path class="e670eba2-a1f8-40a8-a5e5-e1e7184f6e6e" d="M66,.78a6.38,6.38,0,0,0-2-.27H23.86v0l-17,0A6.35,6.35,0,0,0,.51,6.86V41.14a6.35,6.35,0,0,0,6.35,6.35h17v0h40.3a6.35,6.35,0,0,0,6.35-6.36V6.88A6.39,6.39,0,0,0,66,.78ZM28.1,46.28c-.22-.43-9.41-36.66-9.41-37.22a1.46,1.46,0,0,1,.9-1.33,1.56,1.56,0,0,1,1.69.5c.27.39,9.58,37.17,9.51,37.59A1.46,1.46,0,0,1,28.1,46.28Zm24-26.52c-.23.18-.33.2-.93.16a13.76,13.76,0,0,0-3.28.26,28,28,0,0,0-7.64,3.29c-5.14,2.85-7.45,3.66-10.51,3.66-1.36,0-1.8-.14-2.16-.71a18,18,0,0,1-.9-2.84c-4.06-14.94-4-14.83-3.84-15.11s.48-.27,1.72-.28c3,0,5.4-.82,9.85-3.3S40.79,1.56,43,1.16A10.77,10.77,0,0,1,45.41,1c1.52,0,1.65.06,2.08.63.2.27,4.82,17.19,4.82,17.66A.55.55,0,0,1,52.07,19.76Z" transform="translate(-0.51 -0.49)"/><path class="e670eba2-a1f8-40a8-a5e5-e1e7184f6e6e" d="M41.84,8.59c0,.07.28,0,.86-.16A15.41,15.41,0,0,1,46,7.75c.44,0,.8-.06.8-.07s-.28-1-.62-2.25h0s-.62-2.25-.62-2.26h-.26a16.59,16.59,0,0,0-4.53,1c-.13.08-.1.3.43,2.22C41.54,7.52,41.82,8.53,41.84,8.59Z" transform="translate(-0.51 -0.49)"/><path class="e670eba2-a1f8-40a8-a5e5-e1e7184f6e6e" d="M44,16.28c.34,1.24.63,2.25.64,2.27a5.65,5.65,0,0,0,.82-.22,15.38,15.38,0,0,1,3.18-.67l.9-.1L49,15.63c-.28-1.06-.56-2.09-.61-2.28l-.1-.32h-.51a15.54,15.54,0,0,0-3.16.57C43.18,14,43.25,13.7,44,16.28Z" transform="translate(-0.51 -0.49)"/></g></svg>