<svg id="ad50eb71-b77b-49e8-9ef9-2a3c433e1a1f" data-name="Calque 1" xmlns="http://www.w3.org/2000/svg" viewBox="0 0 69.99 47.01"><defs><style>.a5db82a1-4de7-453f-8273-613f1f090847{fill:#fcfcfc;}</style></defs><path id="aca29586-526c-406d-a4a1-7793c9de5565" data-name="sportcompetitive" class="a5db82a1-4de7-453f-8273-613f1f090847" d="M66,.78a6.38,6.38,0,0,0-2-.27H23.86v0l-17,0A6.35,6.35,0,0,0,.51,6.86V41.14a6.35,6.35,0,0,0,6.35,6.35h17v0h40.3a6.35,6.35,0,0,0,6.35-6.36V6.88A6.39,6.39,0,0,0,66,.78Zm-30,2L37.85,3a4.57,4.57,0,0,1,.59.87,6.36,6.36,0,0,1,.47,2.64,4.35,4.35,0,0,1-3.39,4.42,10.17,10.17,0,0,1-.81-4A7,7,0,0,1,36,2.82ZM31.35,2.5h0l2,.13a9.89,9.89,0,0,0-1,4.19,12.7,12.7,0,0,0,.64,4l-2.05-.1a8.36,8.36,0,0,1,.48-8.22ZM4.22,39.82a17,17,0,0,1,4.46-5.34c8-3.61,15.38-7,18.05-17-3,2-8.35,3-12.24,3.09-6.49.28-3.68-3.6-1.34-3.71a22.43,22.43,0,0,0,7.38-.4c3.21-1.72,4.91-3.73,8.23-4.64.08.2.17.4.26.59l.31.63,6.23.32.17,0a7.93,7.93,0,0,0,1.58-.55,24.88,24.88,0,0,1,5.41.24c3-1.76,4-3.44,6.39-5.44h0L50,11.24c-2.36,3-3.09,3.85-6.41,5.29a17.17,17.17,0,0,1-6.56.36c-.48,2.88-2.2,5.32-5.12,8.22,2.76-.46,8.1-.28,8.2.38.73,5,.7,7.27-.47,13l4.23,1.12-.07,1.49-7.2-.11c.33-5.31-.33-5.75-.69-10.84-3,1.13-5.7.89-8.94,1.22-10.63,5.11-10.71,3.82-16.83,6.22C8,39,7.7,40.07,5.4,41.15,4.52,40.59,3.72,40.78,4.22,39.82Zm62.5,5.68h-63V43.1h63ZM54.15,8.56a2.91,2.91,0,0,1-2.22,2.89l-1.19-5.9a4,4,0,0,1,.5,0h0a2.72,2.72,0,0,1,2.67,1.72l13.2-1.55.11.67Z" transform="translate(-0.51 -0.49)"/></svg>