<svg id="b3956971-b7fb-4274-aaec-5e4615b16649" data-name="Calque 1" xmlns="http://www.w3.org/2000/svg" viewBox="0 0 69.99 47.01"><defs><style>.e8d3613a-2192-4c61-92e5-3dc314d8aae1{fill:#fcfcfc;}</style></defs><g id="bca5ee0a-ad7f-4f89-82cf-7056003ceb0f" data-name="sportsimulation"><path class="e8d3613a-2192-4c61-92e5-3dc314d8aae1" d="M22.49,27.5l-.19-1A40.58,40.58,0,0,1,21.66,20v-.91L19.2,17.63c-1.36-.8-2.53-1.48-2.6-1.51a10.63,10.63,0,0,0-1.83,2.66C14.18,20,13.86,23.5,14.1,26c.23,2.29.9,4.93,1.38,5.44a17.75,17.75,0,0,0,2.32,1.87l.68.46,2-3.13Z" transform="translate(-0.51 -0.49)"/><path class="e8d3613a-2192-4c61-92e5-3dc314d8aae1" d="M34.26,44.68l-1-.45-3.91-.69-4.14-.73c-.12,0,.26.21.86.5a20.25,20.25,0,0,0,8.58,2.13l1.48,0-.47-.17C35.44,45.21,34.79,44.92,34.26,44.68Z" transform="translate(-0.51 -0.49)"/><path class="e8d3613a-2192-4c61-92e5-3dc314d8aae1" d="M31.59,30.38c-.57,0-4.91-.82-6.74-1.27l-1.21-.31a18.51,18.51,0,0,0-2.13,3.11l-2,3.16.69,1.17a24.11,24.11,0,0,0,3.34,4.69c.26.08,9.8,1.76,10,1.76s.54-.45,2.25-2.81l.84-1.15-.89-1.55C31.81,30.42,32.17,30.38,31.59,30.38Z" transform="translate(-0.51 -0.49)"/><path class="e8d3613a-2192-4c61-92e5-3dc314d8aae1" d="M17.49,14.8c.32.23,4.87,2.9,5,2.9a12.82,12.82,0,0,0,1.3-.72,53.69,53.69,0,0,1,5.65-2.86,4.61,4.61,0,0,0,.86-.41c.06-.05.67-1.78,1.34-3.83l1.28-3.82c.07-.21-2.18-1.52-3.52-2a5.25,5.25,0,0,0-.9-.32c-.05,0-.56.2-1.14.43a21.88,21.88,0,0,0-6.92,4.59,5.16,5.16,0,0,0-1.5,2.16c-.35.72-.83,1.87-1.1,2.56C17.35,14.61,17.34,14.69,17.49,14.8Z" transform="translate(-0.51 -0.49)"/><path class="e8d3613a-2192-4c61-92e5-3dc314d8aae1" d="M32.32,15.4c.67.7,4.25,4.74,4.48,5.06.1.14.46.11,5.08-.36,2.74-.28,5-.52,5-.54s.36-.89.78-1.95a32.89,32.89,0,0,0,1.41-4c0-.06-1.52-1.83-3.38-3.93-3.22-3.64-3.4-3.82-3.75-3.88a11.77,11.77,0,0,0-2.43,0c-1.35.07-4.83.41-5,.48s-.73,1.92-1.5,4.19l-1.37,4.14Z" transform="translate(-0.51 -0.49)"/><path class="e8d3613a-2192-4c61-92e5-3dc314d8aae1" d="M44.88,4.66a7.36,7.36,0,0,0-1.13-.53c-.12,0-.14.86,0,1s1.6,1.79,3.38,3.82l3.28,3.69.71.28a24.41,24.41,0,0,1,3.31,1.7c.33.22.61.47.61.35a18,18,0,0,0-1.15-2.15A21.46,21.46,0,0,0,44.88,4.66Z" transform="translate(-0.51 -0.49)"/><path class="e8d3613a-2192-4c61-92e5-3dc314d8aae1" d="M51,27.9l-.59-1.12c-.75-1.43-1.54-2.77-2.59-4.39-.69-1.05-.87-1.27-1-1.26s-10,1-10,1.06-.43.8-.93,1.78S34.5,26.56,34,27.55l-1,1.83,2.46,4.25,2.46,4.25,1.29,0c.7,0,1.08,0,2.37-.11s4.27-.53,4.43-.62,1.22-2.13,2.57-4.65Z" transform="translate(-0.51 -0.49)"/><path class="e8d3613a-2192-4c61-92e5-3dc314d8aae1" d="M66,.78a6.38,6.38,0,0,0-2-.27H23.86v0l-17,0A6.35,6.35,0,0,0,.51,6.86V41.14a6.35,6.35,0,0,0,6.35,6.35h17v0h40.3a6.35,6.35,0,0,0,6.35-6.36V6.88A6.39,6.39,0,0,0,66,.78ZM53.83,38a31.71,31.71,0,0,1-4.34,4.33,23.14,23.14,0,0,1-11.58,4.59,30.49,30.49,0,0,1-5.14,0,23.21,23.21,0,0,1-11.26-4.55A31.71,31.71,0,0,1,17.17,38a22.81,22.81,0,0,1-4.68-14,22.31,22.31,0,0,1,1.67-8.7,21.48,21.48,0,0,1,5.07-7.56,21.52,21.52,0,0,1,7.56-5.07,23.81,23.81,0,0,1,5.9-1.54,31.8,31.8,0,0,1,5.52,0A23.05,23.05,0,0,1,49.49,5.67,30.62,30.62,0,0,1,53.83,10a22.78,22.78,0,0,1,4.68,14A22.74,22.74,0,0,1,53.83,38Z" transform="translate(-0.51 -0.49)"/><path class="e8d3613a-2192-4c61-92e5-3dc314d8aae1" d="M52.53,28.38,50,33.13l-2.54,4.75L47.71,39c.15.62.3,1.29.33,1.49s.08.47.11.61l0,.25.32-.24a23.09,23.09,0,0,0,2.87-2.64,21.39,21.39,0,0,0,5.33-11c.29-1.72.32-1.68-.82-.94-.52.34-1.49.9-2.15,1.24Z" transform="translate(-0.51 -0.49)"/></g></svg>