<svg id="b8eade33-363b-43b7-a8c4-68ff63733c40" data-name="Calque 1" xmlns="http://www.w3.org/2000/svg" viewBox="0 0 69.99 47.01"><defs><style>.ad597fa8-eca1-4fe8-aead-24f74da8003c{fill:#fcfcfc;}</style></defs><path id="a9a39493-3dd4-402c-9cdc-8e3678113b52" data-name="sportfight" class="ad597fa8-eca1-4fe8-aead-24f74da8003c" d="M66,.78a6.38,6.38,0,0,0-2-.27H23.86v0l-17,0A6.35,6.35,0,0,0,.51,6.86V41.14a6.35,6.35,0,0,0,6.35,6.35h17v0h40.3a6.35,6.35,0,0,0,6.35-6.36V6.88A6.39,6.39,0,0,0,66,.78ZM19.94,2.65a2.13,2.13,0,0,1,1.27-1.57A1.32,1.32,0,0,1,21.65,1a2.46,2.46,0,0,1,1.51.59A5.65,5.65,0,0,1,25,4.27a5.58,5.58,0,0,1,.17,3.2,2.12,2.12,0,0,1-1.26,1.58,2.11,2.11,0,0,1-1.95-.52,5.88,5.88,0,0,1-1.8-2.67A5.61,5.61,0,0,1,19.94,2.65Zm36.7,5.46-4.53,1c-5.38,4.65-11.4,7-16.93,12.9-2.07,5-4.65,11.74-1.76,20.81l-.77,3.39c-.37,1.23-6.14,1-5.25-.08l2.91-3.62c-1.9-6-5.27-12.46-2.93-20.81-1.9-1.45-5.2-2.59-7.86-6.32-2.43,1.73-5.25,3.18-5.53,2.22-.82-2.85.09-4.75,1.56-7.64.15-.22.74-1.92.88-2.12,1.5-2.53,3.1.12,2.35,1.6-.14.18-1.15,1-1.29,1.24a12.13,12.13,0,0,0-1.9,4.2c1.57-1,2.34-2,4.21-3.5a7.75,7.75,0,0,1,1.27-1.23,3.85,3.85,0,0,0,3.38.62A3.89,3.89,0,0,0,26.88,8c.37-.07.75-.13,1.13-.18,1.82-.26,7.21.69,7.21.69L37.9,5.24l1.36-2.48a.9.9,0,0,1,.82-.53h0c1.24-.06,3,1.72,1.31,2.73l-2,1.46S37.65,9.76,36,10.5s-4.12.53-6.07.27c.35,1.11,2,4.45,2.1,5.85,4.06-4.48,13-6.63,18.68-9.82L55.25,5C57.67,5.14,57.73,6.12,56.64,8.11Z" transform="translate(-0.51 -0.49)"/></svg>