<svg id="f1a89c08-8359-44c4-8374-c43f5e94a965" data-name="Calque 1" xmlns="http://www.w3.org/2000/svg" viewBox="0 0 69.99 47.01"><defs><style>.e1bc4c1d-38df-4deb-9398-5680f8c19b88{fill:#fcfcfc;}</style></defs><g id="f57f88b8-96cb-4b78-9e8a-de8fd8798cdb" data-name="strategy4x"><path class="e1bc4c1d-38df-4deb-9398-5680f8c19b88" d="M48.41,18.43a35.18,35.18,0,0,0,.12-6.26A17,17,0,0,0,36,6.68h0A17.18,17.18,0,0,0,29.44,8c.29,3.17,2.18,6.52,5.72,10.65-4.41-4.3-8.29-6.3-11.63-6.56A17,17,0,0,0,19,21.56,41.31,41.31,0,0,0,31.42,20c-6,3.44-8.87,6.89-7.73,12.51a19.27,19.27,0,0,0-4.79-7.84A17,17,0,0,0,26.34,37.9a12.8,12.8,0,0,0-.22-4.55c1.35,3.79,4.41,5.32,9.47,6.16a26.2,26.2,0,0,0-4.58.63,17.52,17.52,0,0,0,5,.73,17.12,17.12,0,0,0,4.62-.62c-.79-8.14-5.41-8.22-14.3-11.08,9.94.3,14.8-4.07,17.14-18.13C44.77,21.16,45.12,27.61,53,24.88c0-.36,0,2.44,0-1.1a17.15,17.15,0,0,0-2.9-9.54A31.06,31.06,0,0,0,48.41,18.43Z" transform="translate(-0.51 -0.49)"/><path class="e1bc4c1d-38df-4deb-9398-5680f8c19b88" d="M42.51,26c-3,0-4.13,2.58-2.56,5.77s5.29,5.77,8.28,5.77,4.14-2.58,2.56-5.77S45.5,26,42.51,26Z" transform="translate(-0.51 -0.49)"/><path class="e1bc4c1d-38df-4deb-9398-5680f8c19b88" d="M26.7,10.55c1.28-.53,1.23-2-.12-3.25a5.67,5.67,0,0,0-3.66-1.53,2.9,2.9,0,0,0-1.09.2c-1.28.52-1.22,2,.12,3.24S25.42,11.08,26.7,10.55Z" transform="translate(-0.51 -0.49)"/><path class="e1bc4c1d-38df-4deb-9398-5680f8c19b88" d="M66,.78a6.38,6.38,0,0,0-2-.27H23.86v0l-17,0A6.35,6.35,0,0,0,.51,6.86V41.14a6.35,6.35,0,0,0,6.35,6.35h17v0h40.3a6.35,6.35,0,0,0,6.35-6.36V6.88A6.39,6.39,0,0,0,66,.78ZM40.57,47c.14-1.86.17-3.48.14-4.9a13.28,13.28,0,0,1-4.73.6A18.84,18.84,0,0,1,28.07,41a18.59,18.59,0,0,0-4.24,2,12,12,0,0,0,2-3.2,18.92,18.92,0,0,1-8.77-16c0-.21,0-.42,0-.62A27.41,27.41,0,0,0,13.3,20.9a25.89,25.89,0,0,0,3.9.57A19,19,0,0,1,21,12.19a9.44,9.44,0,0,0-2.36.82c1.63-2.77.41-6.51-5.86-11.95L12.74,1h0l.06.06C20.34,5.77,26,4.94,30.87,1.93A11.49,11.49,0,0,0,29.46,6c2-.75,1.95-1.15,6.51-1.15A18.87,18.87,0,0,1,48,9.18a11.69,11.69,0,0,0-3.18-5.27C49,6.85,52.34,7.63,57.57,6.14a19.15,19.15,0,0,0-6.41,6.36A18.81,18.81,0,0,1,54.9,23.78v.36c.89-.4,1.85-.89,2.89-1.48-5.36,8.23-5.86,14.71.47,21.39C50.48,38.32,44.12,38.37,40.57,47Z" transform="translate(-0.51 -0.49)"/></g></svg>