<svg id="aab82c8c-ac6c-46d1-8107-0fd13b32a66a" data-name="Calque 1" xmlns="http://www.w3.org/2000/svg" viewBox="0 0 69.99 47.01"><defs><style>.a307bf08-19dc-427e-9259-d0c2506d9e64{fill:#fcfcfc;}</style></defs><path id="ba63698f-7b84-4dcd-bba6-91f66eaf8c74" data-name="strategyautobattler" class="a307bf08-19dc-427e-9259-d0c2506d9e64" d="M66,.78a6.38,6.38,0,0,0-2-.27H23.86v0l-17,0A6.35,6.35,0,0,0,.51,6.86V41.14a6.35,6.35,0,0,0,6.35,6.35h17v0h40.3a6.35,6.35,0,0,0,6.35-6.36V6.88A6.39,6.39,0,0,0,66,.78ZM33.9,16.52c1.5-4.15,1.83-7.8,2.74-11.93h0c0,4.45-.72,7.65,0,12.11,2.84-2.83,4.92-4.39,7-7.22-.13.68-.27,1.38-.4,2.08L35.5,19.28l-5.67-5.67c-.07-1.13-.17-2.25-.23-3.32C30.89,12.44,31.78,14.86,33.9,16.52ZM13.61,1A3.54,3.54,0,0,1,16,2.27L29.91,16.18l4.34,4.34L32,22.75,13.76,4.49C11.92,2.64,12.31,1,13.61,1ZM19,15.62h0c.16,0,2.91,1.1,5.56,2.1L30.81,24l-3.48,3.48a55.11,55.11,0,0,0-7.09.79c2.5-1.36,6.87-3.57,8.2-4.41C29.24,23.32,19,16.13,19,15.62Zm.55,29.63L17.79,47l-1.05-1-1,1L12.51,43.8,17.36,39l1,1-3.82,3.82L15.76,45l3.82-3.82,1,1L18.49,44.2Zm2.27-4.37-3.2-3.19,1-1,3.19,3.19Zm2.72-1.45L20.08,35l1.25-1.25,4.45,4.45ZM34.29,31c-2.75,2.22-3.39,4.68-4.5,7.32.07-1.17.09-2.58.05-4l5.67-5.67,1.94,1.95c-.18,1.19.41,4.44.5,6.3C36.73,35,35.71,32.19,34.29,31Zm4.65-5.77h0l4.11,4.12,4.37,4.37L45.21,36l-8.48-8.49L39,25.25Zm10,4.39c-1.06,0-2.13-.05-3.19-.11L40.21,24l2.85-2.86c2.7.79,5.47.21,8.21.42-3.16,1-9.35,2.43-9.39,3.1S46.51,28.07,48.92,29.63Zm-2.46,9.8-1.25-1.25,4.45-4.45L50.91,35Zm1.75.49,3.19-3.19,1,1-3.2,3.19Zm10.28,3.89L55.29,47l-4.86-4.86,1-1L55.22,45l1.25-1.25-3.82-3.82,1-1h0L55.7,41l1-1.05,1.74,1.75-1.05,1.05ZM57.24,4.49,25.78,35.93l-2.22-2.22L29,28.24l3-3L33.28,24l2.23-2.22,1.25-1.25,5.91-5.92L55,2.26A3.54,3.54,0,0,1,57.39,1h0C58.69,1,59.08,2.64,57.24,4.49Z" transform="translate(-0.51 -0.49)"/></svg>