<svg id="b256ab56-db14-4aa5-8f09-3524365e37ac" data-name="Calque 1" xmlns="http://www.w3.org/2000/svg" viewBox="0 0 69.99 47.01"><defs><style>.e745d57e-01a2-446c-ba2b-79a9a796af8b{fill:#fcfcfc;}</style></defs><path id="b2b7c088-1e98-4da7-8d0a-4fbf4c3b91c2" data-name="strategytowerdefense" class="e745d57e-01a2-446c-ba2b-79a9a796af8b" d="M66,.78a6.38,6.38,0,0,0-2-.27H23.86v0l-17,0A6.35,6.35,0,0,0,.51,6.86V41.14a6.35,6.35,0,0,0,6.35,6.35h17v0h40.3a6.35,6.35,0,0,0,6.35-6.36V6.88A6.39,6.39,0,0,0,66,.78ZM17,1H21.8V4.91h2.87V1h4.85V4.91h2.87V1h4.85V4.91h2.92V1H45V9.29l-4.56,5.65v3l-6.47-.39-2.68,3.36-9.71-4.33V14.94L17,9.29Zm20.2,24.38h0l3.22,2.74V33L34,29ZM32.42,28l-3.68-2.28L30,24.08h0L34.2,26Zm6.22-4.17-1.86-3.44H40l1.7,2.91ZM16.48,47l2.14-9.3h2.94V18.54h0L29.33,22l-3.27,4.23,9,5.6-3.28,4.05,4.07,3.69,1.23-1.37-2.79-2.52,2.33-2.88,3.8,2.37V37.7h2.93L45.5,47ZM48.34,32.07v3.07l-3.29-1.79.51-2.9h0Zm0,11.18-2.44-1.72,1.08-3.63h0l2.19,2.2ZM45,28.72,43.33,21.4h0l5.83,1.83,1.31,5.69Zm7,7.94-.86-3.25,2.27-2.28,1.11,3.75Z" transform="translate(-0.51 -0.49)"/></svg>