<svg id="a0d4dcd8-b4ba-4671-ba92-9f1a0afe51d7" data-name="Calque 1" xmlns="http://www.w3.org/2000/svg" viewBox="0 0 69.99 47.01"><defs><style>.a28ecabd-bb6c-4da8-91f5-2323a7b6bdef{fill:#fcfcfc;}</style></defs><g id="acd6b052-fba5-458b-ae3b-ef0f71888acc" data-name="strategyartillery"><path class="a28ecabd-bb6c-4da8-91f5-2323a7b6bdef" d="M15.92,33.48a5.44,5.44,0,0,0-.13,10.87h.5a5.34,5.34,0,0,0,5.06-5.43A5.43,5.43,0,0,0,15.92,33.48Z" transform="translate(-0.51 -0.49)"/><path class="a28ecabd-bb6c-4da8-91f5-2323a7b6bdef" d="M23.7,33.48H21.16a7.92,7.92,0,0,1,1.27,1.6A7.52,7.52,0,0,1,23.7,33.48Z" transform="translate(-0.51 -0.49)"/><path class="a28ecabd-bb6c-4da8-91f5-2323a7b6bdef" d="M22.42,42.76a7.76,7.76,0,0,1-1.25,1.59h2.5a7.39,7.39,0,0,1-1.24-1.59Z" transform="translate(-0.51 -0.49)"/><path class="a28ecabd-bb6c-4da8-91f5-2323a7b6bdef" d="M49.84,33.48H47.35a7.64,7.64,0,0,1,1.25,1.57A7.8,7.8,0,0,1,49.84,33.48Z" transform="translate(-0.51 -0.49)"/><path class="a28ecabd-bb6c-4da8-91f5-2323a7b6bdef" d="M36.84,33.48H34.21a7.71,7.71,0,0,1,1.31,1.7A7.53,7.53,0,0,1,36.84,33.48Z" transform="translate(-0.51 -0.49)"/><path class="a28ecabd-bb6c-4da8-91f5-2323a7b6bdef" d="M29,33.48a5.51,5.51,0,0,0-5.44,5.44,5.42,5.42,0,0,0,5.07,5.43h.74a5.34,5.34,0,0,0,5.06-5.43A5.43,5.43,0,0,0,29,33.48Z" transform="translate(-0.51 -0.49)"/><path class="a28ecabd-bb6c-4da8-91f5-2323a7b6bdef" d="M34.23,44.34h2.6a7.17,7.17,0,0,1-1.3-1.66A7.75,7.75,0,0,1,34.23,44.34Z" transform="translate(-0.51 -0.49)"/><path class="a28ecabd-bb6c-4da8-91f5-2323a7b6bdef" d="M55.1,33.48v0a5.43,5.43,0,0,0-.38,10.85h.37a5.44,5.44,0,0,0,0-10.88Z" transform="translate(-0.51 -0.49)"/><path class="a28ecabd-bb6c-4da8-91f5-2323a7b6bdef" d="M47.37,44.34h2.46A7.31,7.31,0,0,1,48.6,42.8,7.31,7.31,0,0,1,47.37,44.34Z" transform="translate(-0.51 -0.49)"/><path class="a28ecabd-bb6c-4da8-91f5-2323a7b6bdef" d="M66,.78a6.38,6.38,0,0,0-2-.27H23.86v0l-17,0A6.35,6.35,0,0,0,.51,6.86V41.14a6.35,6.35,0,0,0,6.35,6.35h17v0h40.3a6.35,6.35,0,0,0,6.35-6.36V6.88A6.39,6.39,0,0,0,66,.78ZM60.25,3.29l1.89,7L57.39,11.6l-1.88-7Zm-6.17,4.2h0l.82,3.07L44.34,13.4a14.51,14.51,0,0,0-1.55-2.88ZM21.17,9.14V1.5h2.14V8.72H38.19a13.44,13.44,0,0,1,5.15,9.6H16.54A13.48,13.48,0,0,1,21.17,9.14Zm-10,15.25,9-4.23H38C45.35,20.46,59,24.13,59,30l-2.21-.73H13.25l-2.08.87ZM55.09,46.5H16.35c-.14,0,3.73,0-.44,0a7.58,7.58,0,0,1-.13-15.15H55.09a7.58,7.58,0,0,1,0,15.15Z" transform="translate(-0.51 -0.49)"/><path class="a28ecabd-bb6c-4da8-91f5-2323a7b6bdef" d="M42.09,33.48h0a5.5,5.5,0,0,0-5.43,5.44,5.41,5.41,0,0,0,5.06,5.43h.74a5.44,5.44,0,0,0-.38-10.86Z" transform="translate(-0.51 -0.49)"/></g></svg>