<svg id="b5fe3d9e-63aa-40e2-a4c2-ec78489fb58d" data-name="Calque 1" xmlns="http://www.w3.org/2000/svg" viewBox="0 0 69.99 47.01"><defs><style>.f1bd6508-e177-40ae-b084-5ffa445d78a0{fill:#fcfcfc;}</style></defs><g id="a85f7485-09f6-43a8-a9af-01b984a4b3c3" data-name="strategytbs"><path class="f1bd6508-e177-40ae-b084-5ffa445d78a0" d="M48.36,24a2.76,2.76,0,1,0,2.76-2.91A2.83,2.83,0,0,0,48.36,24Z" transform="translate(-0.51 -0.49)"/><path class="f1bd6508-e177-40ae-b084-5ffa445d78a0" d="M37.19,38.59a1.68,1.68,0,1,0-1.68,1.63A1.65,1.65,0,0,0,37.19,38.59Z" transform="translate(-0.51 -0.49)"/><path class="f1bd6508-e177-40ae-b084-5ffa445d78a0" d="M33.83,9.41a1.68,1.68,0,1,0,1.68-1.63A1.65,1.65,0,0,0,33.83,9.41Z" transform="translate(-0.51 -0.49)"/><path class="f1bd6508-e177-40ae-b084-5ffa445d78a0" d="M54.69,3.72a.85.85,0,0,0-.84-.79L36.24,4.7l.52,2.6L43,5.22l-5,4.2,5,4.21-6.24-2.09-1.26,6.3-1.26-6.3L28,13.63l5-4.21-5-4.2L34.24,7.3l.52-2.6L17.15,2.93h0a.85.85,0,0,0-.84.79l.52,14.58c.38-.1-.52-.15,1.21-.15a5.41,5.41,0,0,1,4.28,2.12,6.05,6.05,0,0,0-3.67-2.73V6.06a42.71,42.71,0,0,1,2.05,9.52,37.09,37.09,0,0,1,6.11-7.12,42.39,42.39,0,0,1-2.56,9.38A33.16,33.16,0,0,1,32.79,15a37.22,37.22,0,0,1-6.48,6.71A32.34,32.34,0,0,1,35,24a32.92,32.92,0,0,1-8.65,2.26A37.62,37.62,0,0,1,32.79,33a33.28,33.28,0,0,1-8.54-2.82,42.39,42.39,0,0,1,2.56,9.38,37.91,37.91,0,0,1-6.11-7.14,42.71,42.71,0,0,1-2.05,9.52V30.46a6,6,0,0,0,3.67-2.73,5.3,5.3,0,0,1-5.49,2L16.3,44.28a.85.85,0,0,0,.84.79L34.75,43.3l-.52-2.6L28,42.79l5-4.21-5-4.2,6.24,2.07,1.26-6.3,1.26,6.3L43,34.38l-5,4.2,5,4.21L36.75,40.7l-.52,2.6,17.62,1.77a.85.85,0,0,0,.83-.79L54.16,29.7c-.39.1.56.15-1.23.15a5.39,5.39,0,0,1-4.36-2.27,6.08,6.08,0,0,0,3.77,2.88V41.91a42.47,42.47,0,0,1-2.06-9.52,37.52,37.52,0,0,1-6.11,7.14,43,43,0,0,1,2.58-9.38A33.16,33.16,0,0,1,38.2,33a37.22,37.22,0,0,1,6.48-6.71A33.17,33.17,0,0,1,36,24s0,0,0,0h0a33.34,33.34,0,0,1,8.67-2.25A37.62,37.62,0,0,1,38.2,15a33.28,33.28,0,0,1,8.54,2.82,43,43,0,0,1-2.58-9.38,37.47,37.47,0,0,1,6.11,7.12,42.47,42.47,0,0,1,2.06-9.52V17.54a6.09,6.09,0,0,0-3.75,2.85,5.3,5.3,0,0,1,5.58-2.09Z" transform="translate(-0.51 -0.49)"/><path class="f1bd6508-e177-40ae-b084-5ffa445d78a0" d="M66,.78a6.38,6.38,0,0,0-2-.27H23.86v0l-17,0A6.35,6.35,0,0,0,.51,6.86V41.14a6.35,6.35,0,0,0,6.35,6.35h17v0h40.3a6.35,6.35,0,0,0,6.35-6.36V6.88A6.39,6.39,0,0,0,66,.78ZM55.21,29.34l1.16,15.47a1.82,1.82,0,0,1-2,1.91L36.06,44.2,35.5,47l-.56-2.8L16.6,46.72a1.82,1.82,0,0,1-2-1.91l1.16-15.46a6,6,0,0,1,0-10.69L14.63,3.2A1.84,1.84,0,0,1,16.4,1.27h.21L35,3.8l.55-2.75V1h0v.05l.55,2.75L54.39,1.28h.21A1.83,1.83,0,0,1,56.37,3.2L55.21,18.67a6,6,0,0,1,0,10.67Z" transform="translate(-0.51 -0.49)"/><path class="f1bd6508-e177-40ae-b084-5ffa445d78a0" d="M22.64,24a2.76,2.76,0,1,0-2.76,2.91A2.85,2.85,0,0,0,22.64,24Z" transform="translate(-0.51 -0.49)"/></g></svg>