<svg id="b5aaad25-926a-4c02-9050-04da5dd18b41" data-name="Calque 1" xmlns="http://www.w3.org/2000/svg" viewBox="0 0 69.99 47.01"><defs><style>.a26e44d7-4723-410d-966f-b65e0455fb4b{fill:#fcfcfc;}</style></defs><g id="fb8f3116-1c0c-462b-acf0-bbc77167f329" data-name="strategymoba"><path class="a26e44d7-4723-410d-966f-b65e0455fb4b" d="M20.68,7.32c-1.73,0-1.73,3-1.73,5l3.46-1C22.41,9.34,22.41,7.32,20.68,7.32Z" transform="translate(-0.51 -0.49)"/><path class="a26e44d7-4723-410d-966f-b65e0455fb4b" d="M13.77,9.34c-1.48,0-1.48,2.53-1.48,4.55l3-.51C15.25,11.36,15.25,9.35,13.77,9.34Z" transform="translate(-0.51 -0.49)"/><path class="a26e44d7-4723-410d-966f-b65e0455fb4b" d="M20.66,17.47c-1.73,0-1.73,2.27-1.73,4.3l3.46-.26C22.39,19.49,22.39,17.47,20.66,17.47Z" transform="translate(-0.51 -0.49)"/><path class="a26e44d7-4723-410d-966f-b65e0455fb4b" d="M8.68,28.08c-1.12,0-1.12,3-1.12,6.06l2.23-.25C9.79,30.86,9.79,28.08,8.68,28.08Z" transform="translate(-0.51 -0.49)"/><path class="a26e44d7-4723-410d-966f-b65e0455fb4b" d="M27.58,27.32c-2,0-2,3-2,6.06h3.95C29.56,30.35,29.56,27.33,27.58,27.32Z" transform="translate(-0.51 -0.49)"/><path class="a26e44d7-4723-410d-966f-b65e0455fb4b" d="M13.75,18.23c-1.49,0-1.49,2.53-1.49,4.55l3-.51C15.23,20.25,15.23,18.24,13.75,18.23Z" transform="translate(-0.51 -0.49)"/><path class="a26e44d7-4723-410d-966f-b65e0455fb4b" d="M13.75,27.83c-1.49,0-1.49,3-1.49,6.06l3-.26C15.23,30.61,15.23,27.83,13.75,27.83Z" transform="translate(-0.51 -0.49)"/><path class="a26e44d7-4723-410d-966f-b65e0455fb4b" d="M20.66,27.57c-1.73,0-1.73,3-1.73,6.06h3.46C22.39,30.6,22.39,27.57,20.66,27.57Z" transform="translate(-0.51 -0.49)"/><path class="a26e44d7-4723-410d-966f-b65e0455fb4b" d="M27.58,17c-2,0-2,2.27-2,4.29L29.56,21C29.56,19,29.56,17,27.58,17Z" transform="translate(-0.51 -0.49)"/><path class="a26e44d7-4723-410d-966f-b65e0455fb4b" d="M62.56,28.08c-1.11,0-1.11,2.78-1.11,5.81l2.23.25C63.68,31.11,63.68,28.08,62.56,28.08Z" transform="translate(-0.51 -0.49)"/><path class="a26e44d7-4723-410d-966f-b65e0455fb4b" d="M66,.78a6.38,6.38,0,0,0-2-.27H23.86v0l-17,0A6.35,6.35,0,0,0,.51,6.86V41.14a6.35,6.35,0,0,0,6.35,6.35h17v0h40.3a6.35,6.35,0,0,0,6.35-6.36V6.88A6.39,6.39,0,0,0,66,.78ZM45.35,46.35c0-3.63-.17-6.92-2-6.92s-2,3.37-2,7c-1.23,0-2.47,0-3.72,0,0-3.67-.19-7.06-2.22-7.06s-2.21,3.39-2.22,7.06c-.47-.58,0,.15-3.5-2.4,0-3.65-.42-4.66-2.2-4.66s-1.95,3.31-2,6.92c-1.09,0-2.17-.07-3.21-.13,0-3.67-.18-7-1.73-7s-1.72,3.26-1.73,6.86c-1.32-.08-2.56-.18-3.72-.28,0-3.59-.19-6.83-1.47-6.83S12.27,42,12.25,45.45c-1.11-.14-2.11-.29-3-.45,0-3.47-.2-6.57-1.11-6.57s-1.07,2.77-1.1,6c-.81-.28-1.25-.59-1.25-1L7.16,23H9.28c0-2,0-4-1.11-4,0,0-.53-.32-.57-2.84H9.31c0-1.95.36-3.89-1.34-3.78C10.63,7.3,16.18,3.52,22.41,1.51h0l6.14,13.82,2,.29,1.64,6.65,4.46-.38,3.09,14.27,3.85.33L48,46.25Zm18.83-2c0-3.19-.13-5.91-1.1-5.91S62,41.5,62,45c-1,.19-2.15.37-3.47.53C58.49,42,58.35,39,57,39s-1.46,3.26-1.48,6.84c-1.09.1-2.26.19-3.47.27,0-3.6-.17-6.86-1.73-6.86-1,0-1.42,1.35-1.6,3.27l-3.63-8.1a4.29,4.29,0,0,0,.28-1c0-3,0-6.06-2-6.06s-2,3-2,6L38.9,21.66l0,0c3.54.11,7.18.17,10.6.39l2.62,2.66,3.82.36,2.51-1.77A13.06,13.06,0,0,1,64,26.06l1.14,17.43C65.18,43.81,64.82,44.09,64.18,44.35Z" transform="translate(-0.51 -0.49)"/><path class="a26e44d7-4723-410d-966f-b65e0455fb4b" d="M57,27.83c-1.48,0-1.48,2.78-1.48,5.8l3,.26C58.5,30.86,58.5,27.83,57,27.83Z" transform="translate(-0.51 -0.49)"/><path class="a26e44d7-4723-410d-966f-b65e0455fb4b" d="M50.33,27.57c-1.73,0-1.73,3-1.73,6.06h3.46C52.06,30.6,52.06,27.57,50.33,27.57Z" transform="translate(-0.51 -0.49)"/><path class="a26e44d7-4723-410d-966f-b65e0455fb4b" d="M35.49,27.32c-2.22,0-2.22,3-2.22,6.06h4.45C37.72,30.35,37.72,27.32,35.49,27.32Z" transform="translate(-0.51 -0.49)"/></g></svg>