<svg id="f01d783d-7209-4ad2-9085-9de110b7433e" data-name="Calque 1" xmlns="http://www.w3.org/2000/svg" viewBox="0 0 69.99 47.01"><defs><style>.faaf2f7a-01ca-4bd0-be7b-3c570774561c{fill:#fcfcfc;}</style></defs><g id="fcb0e7c7-7d66-41a7-a960-af06dda4149f" data-name="strategy"><path class="faaf2f7a-01ca-4bd0-be7b-3c570774561c" d="M66,.78a6.38,6.38,0,0,0-2-.27H23.86v0l-17,0A6.35,6.35,0,0,0,.51,6.86V41.14a6.35,6.35,0,0,0,6.35,6.35h17v0h40.3a6.35,6.35,0,0,0,6.35-6.36V6.88A6.39,6.39,0,0,0,66,.78ZM15.83,14.54a2,2,0,0,1,.14-.73A18.27,18.27,0,0,1,17.61,12l1.49-1.51L17.6,9A13.09,13.09,0,0,1,16,7.16a1.72,1.72,0,0,1,0-1.39,11.25,11.25,0,0,1,2.53-2.42,1.23,1.23,0,0,1,.94,0c.29.08.67.4,2,1.68L23,6.6,24.62,5c1.26-1.25,1.67-1.6,2-1.68.81-.23,1.12-.09,2.32,1.08s1.6,1.85,1.31,2.65a17.74,17.74,0,0,1-1.69,1.85l-1.59,1.6,1.59,1.59A18.91,18.91,0,0,1,30.21,14a1.83,1.83,0,0,1,0,1.11,15.75,15.75,0,0,1-2.46,2.52,1.86,1.86,0,0,1-1.41,0,20.06,20.06,0,0,1-1.81-1.64L23,14.43,21.42,16a9,9,0,0,1-1.86,1.64l-.37.09a1.74,1.74,0,0,1-.52-.06c-.37-.08-.56-.22-1.38-1C16.12,15.56,15.83,15.14,15.83,14.54ZM33.38,28.13a8.47,8.47,0,0,0-3.69.82,8.26,8.26,0,0,0-4.56,6,51.31,51.31,0,0,0-.14,5.6c0,3.34,0,4.91-.09,5.15a2,2,0,0,1-1,1.15c-.35.17-.65.19-2.14.19a5.25,5.25,0,0,1-2.1-.17,2.09,2.09,0,0,1-1-1.15c-.07-.24-.09-2-.07-5.87,0-5.32.05-5.56.25-6.42a14.62,14.62,0,0,1,14-11.73,9.23,9.23,0,0,0,3.81-.81,8.16,8.16,0,0,0,4.62-5.8,11.85,11.85,0,0,0,.17-2.58V10.7H39.77c-1.77,0-2.06-.08-2.37-.58a1.27,1.27,0,0,1-.12-1.24c.2-.41,6.42-7.65,6.7-7.78a1.67,1.67,0,0,1,1.28.06c.3.18,6.33,7.13,6.63,7.62a1.4,1.4,0,0,1-.09,1.37c-.36.48-.64.55-2.37.55H47.84l-.05,2.4a15.35,15.35,0,0,1-.23,3.3,14.6,14.6,0,0,1-4.31,7.7,14.39,14.39,0,0,1-6,3.44A16.13,16.13,0,0,1,33.38,28.13Zm19.4,15.65A8.15,8.15,0,0,1,47,46.43,7.81,7.81,0,0,1,43.66,46a8.48,8.48,0,0,1-3-1.78,8.68,8.68,0,0,1-.28-12.53,8.93,8.93,0,0,1,5-2.5c.15,0,.77,0,1.39,0a8.36,8.36,0,0,1,5.9,2.58,8.12,8.12,0,0,1,2.43,5.69A8.15,8.15,0,0,1,52.78,43.78Z" transform="translate(-0.51 -0.49)"/><path class="faaf2f7a-01ca-4bd0-be7b-3c570774561c" d="M47.12,34.7a3.07,3.07,0,0,0-.68-.09,4.07,4.07,0,0,0-1.65.57,3.15,3.15,0,1,0,4.62,3.91,2.3,2.3,0,0,0,.25-1.26,2.37,2.37,0,0,0-.26-1.32A3.23,3.23,0,0,0,47.12,34.7Z" transform="translate(-0.51 -0.49)"/></g></svg>