<svg id="adb8df40-d388-4538-84e0-1d164eb00745" data-name="Calque 1" xmlns="http://www.w3.org/2000/svg" viewBox="0 0 69.99 47.01"><defs><style>.afa45b64-d3ff-4061-bb5b-cb98af7f321e{fill:#fcfcfc;}</style></defs><g id="ad25e658-137b-4ad0-a71a-a22254278609" data-name="strategywargame"><path class="afa45b64-d3ff-4061-bb5b-cb98af7f321e" d="M33.6,41a9.67,9.67,0,1,0,2.46-19h-.35A9.67,9.67,0,0,0,33.6,41ZM30.4,27.82,32.26,26l3.17,3.17,1.16-4.33,2.55.68L38,29.81l4.33-1.16L43,31.2l-4.33,1.16,3.17,3.17L40,37.39,36.8,34.22l-1.16,4.33-2.55-.68,1.15-4.33L29.92,34.7l-.68-2.55L33.57,31Z" transform="translate(-0.51 -0.49)"/><path class="afa45b64-d3ff-4061-bb5b-cb98af7f321e" d="M66,.78a6.38,6.38,0,0,0-2-.27H23.86v0l-17,0A6.35,6.35,0,0,0,.51,6.86V41.14a6.35,6.35,0,0,0,6.35,6.35h17v0h40.3a6.35,6.35,0,0,0,6.35-6.36V6.88A6.39,6.39,0,0,0,66,.78Zm2.74,23.93-15.5,1.13v4.32h-5a12.31,12.31,0,1,1-24.42,0H22.72L12.35,43.67H2.22V41.16l7-2.71,10.12-13a9.71,9.71,0,0,1-3.47-7.62,10.07,10.07,0,0,1,4-8L17.15,5.38,19.39,4h0l2.76,4.47a10,10,0,0,1,3.79-.74A10.6,10.6,0,0,1,28.35,8l40.43,3.09Z" transform="translate(-0.51 -0.49)"/></g></svg>