<svg id="a7d7300e-59fb-452f-90ea-80df72151f2a" data-name="Calque 1" xmlns="http://www.w3.org/2000/svg" viewBox="0 0 69.99 47.01"><defs><style>.b03af979-640b-4f25-b42e-b72973d1eecd{fill:#fcfcfc;}</style></defs><path id="bda2062d-02e5-4f07-af5f-353571e1bb5d" data-name="strategyrts" class="b03af979-640b-4f25-b42e-b72973d1eecd" d="M66,.78a6.38,6.38,0,0,0-2-.27H23.86v0l-17,0A6.35,6.35,0,0,0,.51,6.86V41.14a6.35,6.35,0,0,0,6.35,6.35h17v0h40.3a6.35,6.35,0,0,0,6.35-6.36V6.88A6.39,6.39,0,0,0,66,.78Zm-9.3,22a2.41,2.41,0,1,1-2.41-2.41A2.4,2.4,0,0,1,56.74,22.79Zm-2-4.27a1.42,1.42,0,0,0-.43,0,4.37,4.37,0,0,0-1.45.25,25.51,25.51,0,0,0-3.33-8.15,6.32,6.32,0,0,0,1.53-1.13A27.91,27.91,0,0,1,54.76,18.52ZM46.77,1a4.19,4.19,0,1,1-4.19,4.19A4.18,4.18,0,0,1,46.77,1ZM40.83,6.44h0a6,6,0,0,0,.67,1.76,113.46,113.46,0,0,1-15.76,4.42A88.54,88.54,0,0,1,51.05,20a4.48,4.48,0,0,0-.87,1.66,90.23,90.23,0,0,0-27-7.53,4,4,0,0,0,.25-1.42,4.5,4.5,0,0,0-.29-1.56A104.71,104.71,0,0,0,40.83,6.44ZM41,23.81a42.46,42.46,0,0,0,9-1.1v.08a4.2,4.2,0,0,0,.39,1.77,43,43,0,0,1-9.56,1.13,3.29,3.29,0,0,0,.22-1.21A3.71,3.71,0,0,0,41,23.81Zm-1.82.67a1.63,1.63,0,1,1-1.63-1.62A1.61,1.61,0,0,1,39.2,24.48ZM22.76,15c3.29,3.34,6.48,6.52,11.67,7.93a3.54,3.54,0,0,0-.37,1.55c0,.1,0,.2,0,.3-5.71-1.52-9.27-5-12.63-8.43A4.36,4.36,0,0,0,22.76,15Zm-3.64-4.67a2.41,2.41,0,1,1-2.41,2.41A2.39,2.39,0,0,1,19.12,10.33Zm-2.33,6a4,4,0,0,0,1.77.66c-2.17,6.82-2.74,13.9-3.28,21.07a3.35,3.35,0,0,0-1.19-.22,2.61,2.61,0,0,0-.69.08C14,30.71,14.5,23.43,16.79,16.33Zm-2.7,26.43a1.52,1.52,0,1,1,1.51-1.52A1.5,1.5,0,0,1,14.09,42.76ZM34.56,26.27a3.4,3.4,0,0,0,1.36,1.3c-5.24,5.12-11.86,9-18.53,12.86a3.33,3.33,0,0,0-.95-1.63C23.07,35,29.54,31.14,34.56,26.27ZM29.93,44.83,17.15,42.7a3.44,3.44,0,0,0,.34-1.46c0-.14,0-.27,0-.39L30.23,43a4.31,4.31,0,0,0-.31,1.61A1.93,1.93,0,0,0,29.93,44.83ZM34.21,47a2.41,2.41,0,1,1,2.41-2.41A2.4,2.4,0,0,1,34.21,47Zm1.28-6.51c3.82-5.9,9.17-11,15-15.79a4.45,4.45,0,0,0,1.19,1.46C46,30.88,40.78,35.84,37.12,41.45A4.2,4.2,0,0,0,35.49,40.49Zm2.94,4.89a3.37,3.37,0,0,0,.08-.79,4.49,4.49,0,0,0-.15-1.1c5.36-.31,10.5-1.16,15.18-3.73a3.49,3.49,0,0,0,1.06,1.58C49.52,44.16,44,45.05,38.43,45.38ZM53.36,27a4.58,4.58,0,0,0,1,.11,4.05,4.05,0,0,0,.92-.1,36,36,0,0,0,1.38,8.28,3.63,3.63,0,0,0-1.78.63A36.75,36.75,0,0,1,53.36,27Zm3.48,13.31a1.57,1.57,0,1,1,1.58-1.57A1.55,1.55,0,0,1,56.84,40.29Z" transform="translate(-0.51 -0.49)"/></svg>