<svg id="a9571c72-5622-4e9a-8cab-35ee43a799c2" data-name="Calque 1" xmlns="http://www.w3.org/2000/svg" viewBox="0 0 69.99 47.01"><defs><style>.b3e06c8d-83cd-4901-960d-527f164e1ce7{fill:#fcfcfc;}</style></defs><g id="ef1c6b7e-10db-4c5e-ab4a-8691e72f732d" data-name="trivia"><path class="b3e06c8d-83cd-4901-960d-527f164e1ce7" d="M36.15,30a1.89,1.89,0,0,0-2.43,1,1.73,1.73,0,0,0,.13,1.89,1.82,1.82,0,0,0,1.7.81A1.78,1.78,0,0,0,37,32.74c.22-.32.27-.07.27-1A1.86,1.86,0,0,0,36.15,30Z" transform="translate(-0.51 -0.49)"/><path class="b3e06c8d-83cd-4901-960d-527f164e1ce7" d="M37.69,10.14a7.7,7.7,0,0,0-7.89,2.51C29,13.77,28.3,15.44,28.52,16c.13.35.3.42,1.29.54a4.07,4.07,0,0,0,2,0,2.35,2.35,0,0,0,.43-.84,4,4,0,0,1,2-2.4A2.8,2.8,0,0,1,35.64,13a2.67,2.67,0,0,1,1.5.26A3.07,3.07,0,0,1,39,16.15a2.14,2.14,0,0,1-.2,1.36c-.43.95-.82,1.42-2.6,3.17S34.09,22.87,33.83,24a9.07,9.07,0,0,0-.15,1.69v1.08l.33.32.32.33h1.06c1.61,0,1.83-.16,1.83-1.38a4.92,4.92,0,0,1,.36-2,22.71,22.71,0,0,1,1.84-2c1.86-1.9,2.13-2.26,2.64-3.34A4.66,4.66,0,0,0,42.5,17,6,6,0,0,0,37.69,10.14Z" transform="translate(-0.51 -0.49)"/><path class="b3e06c8d-83cd-4901-960d-527f164e1ce7" d="M66,.78a6.38,6.38,0,0,0-2-.27H23.86v0l-17,0A6.35,6.35,0,0,0,.51,6.86V41.14a6.35,6.35,0,0,0,6.35,6.35h17v0h40.3a6.35,6.35,0,0,0,6.35-6.36V6.88A6.39,6.39,0,0,0,66,.78Zm-6.5,20.94a11.72,11.72,0,0,1-.33,3.64,17.37,17.37,0,0,1-1.37,3.76,18.83,18.83,0,0,1-4.29,5.78,25.5,25.5,0,0,1-14,6.61,42.43,42.43,0,0,1-6.45.16c-.52-.06-1.36-.15-1.86-.22l-.91-.11-2.48,1.48-4.72,2.83A20,20,0,0,1,20.63,47a.33.33,0,0,1-.29-.16c-.07-.16.18-3.65.35-5.14.15-1.26.29-2.94.29-3.51v-.53l-.59-.41a20.91,20.91,0,0,1-7.16-8A19.45,19.45,0,0,1,11.52,24a32.53,32.53,0,0,1,.13-5.88,25.65,25.65,0,0,1,1.06-3.49,21.9,21.9,0,0,1,4.12-6.15,24.85,24.85,0,0,1,11.5-6.53,27.77,27.77,0,0,1,4.41-.79,2.84,2.84,0,0,0,.66-.09,39.74,39.74,0,0,1,5.11.09,27.16,27.16,0,0,1,7.14,1.75C53,5.77,57.92,11.27,59.34,18A11.82,11.82,0,0,1,59.54,21.72Z" transform="translate(-0.51 -0.49)"/></g></svg>